<svg width="26" height="26" viewBox="0 0 26 26" fill="none" xmlns="http://www.w3.org/2000/svg">
<path fill-rule="evenodd" clip-rule="evenodd" d="M2.6302 24.7838C2.23968 25.1743 1.60651 25.1743 1.21599 24.7838C0.825465 24.3933 0.825465 23.7601 1.21599 23.3696L11.5858 12.9998L1.21599 2.62996C0.825465 2.23944 0.825465 1.60627 1.21599 1.21575C1.60651 0.825222 2.23968 0.825222 2.6302 1.21575L13 11.5856L23.3698 1.21574C23.7604 0.825221 24.3935 0.825221 24.784 1.21574C25.1746 1.60627 25.1746 2.23943 24.784 2.62996L14.4142 12.9998L24.784 23.3696C25.1746 23.7601 25.1746 24.3933 24.784 24.7838C24.3935 25.1743 23.7604 25.1743 23.3698 24.7838L13 14.414L2.6302 24.7838Z" fill="#5C5C7B"/>
</svg>
