<svg width="177" height="64" viewBox="0 0 177 64" fill="none" xmlns="http://www.w3.org/2000/svg">
<path d="M21.2729 7L0 19.4333V44.2917L21.2729 56.7167L42.5294 44.2917V19.4333L21.2729 7ZM36.2315 40.6083L21.2729 49.35L6.30614 40.6083V23.1083L21.2729 14.3667L36.2315 23.1083V40.6083Z" fill="#5C5C7B"/>
<path d="M31.1932 37.6667L21.2647 43.4667L11.328 37.6667V26.0583L21.2647 20.25L31.1932 26.0583L27.0604 28.475L21.2647 25.0833L15.469 28.475V35.2417L21.2647 38.6333L27.0604 35.2417L31.1932 37.6667Z" fill="#5C5C7B"/>
<path d="M58.2701 33.7419V33.6752C58.2557 32.358 58.5015 31.0511 58.9929 29.8313C59.4843 28.6115 60.2114 27.5033 61.1316 26.5718C62.0519 25.6403 63.1466 24.9043 64.3517 24.4069C65.5567 23.9095 66.8478 23.6607 68.1491 23.6752C69.5759 23.6247 70.9959 23.8978 72.3049 24.4746C73.614 25.0513 74.7791 25.9171 75.7149 27.0086L72.9899 29.9502C71.6644 28.5669 70.2649 27.5502 68.1162 27.5502C64.9631 27.5502 62.6333 30.3086 62.6333 33.6502V33.7252C62.6333 37.1336 64.9631 39.8502 68.2891 39.8502C69.2301 39.8318 70.1567 39.6121 71.008 39.2057C71.8592 38.7992 72.616 38.2152 73.2286 37.4919L75.8466 40.1086C74.5462 41.6814 72.8013 42.8135 70.8463 43.3526C68.8914 43.8916 66.8203 43.8119 64.9115 43.124C63.0027 42.4361 61.3478 41.173 60.1693 39.5046C58.9908 37.8363 58.3452 35.8427 58.3195 33.7919L58.2701 33.7419Z" fill="#5C5C7B"/>
<path d="M79.7405 24.0586H84.112V28.3752C85.2975 25.5086 87.4791 23.5502 90.8133 23.6919V28.3419H90.5664C86.7629 28.3419 84.112 30.8419 84.112 35.9169V43.2086H79.7405V24.0586Z" fill="#5C5C7B"/>
<path d="M92.8962 33.7419V33.6753C92.9612 31.0166 94.0471 28.4882 95.9249 26.6274C97.8019 24.7668 100.322 23.7203 102.949 23.7105C105.577 23.7008 108.104 24.7284 109.994 26.5752C111.885 28.4219 112.99 30.9421 113.074 33.6003V33.6753C113.075 35.0113 112.811 36.3338 112.298 37.5648C111.785 38.7957 111.033 39.9102 110.088 40.8424C109.142 41.7745 108.023 42.5054 106.794 42.992C105.564 43.4786 104.251 43.7109 102.932 43.6753C101.624 43.7087 100.322 43.4763 99.1043 42.9918C97.8859 42.5073 96.777 41.7804 95.841 40.8543C94.9057 39.9283 94.1632 38.8217 93.6569 37.6001C93.1514 36.3784 92.8921 35.0665 92.8962 33.7419ZM108.736 33.7419V33.6753C108.769 32.8806 108.643 32.0874 108.368 31.3427C108.091 30.598 107.669 29.9173 107.128 29.3411C106.587 28.7649 105.936 28.3049 105.215 27.9886C104.494 27.6724 103.717 27.5063 102.932 27.5003C99.4493 27.5003 97.2265 30.2586 97.2265 33.6003V33.6753C97.1969 34.4633 97.3236 35.2492 97.5986 35.9868C97.8744 36.7243 98.2926 37.3986 98.8302 37.9696C99.367 38.5406 100.012 38.9968 100.727 39.3112C101.441 39.6257 102.21 39.7919 102.989 39.8003C106.513 39.8003 108.736 37.0419 108.736 33.7419Z" fill="#5C5C7B"/>
<path d="M117.446 24.0586H121.801V27.0002C122.418 25.9735 123.287 25.1265 124.326 24.5422C125.363 23.9579 126.533 23.6563 127.72 23.6669C131.984 23.6669 134.454 26.5669 134.454 30.9919V43.2169H130.116V32.3252C130.116 29.3502 128.65 27.6502 126.065 27.6502C123.48 27.6502 121.801 29.4336 121.801 32.4002V43.2336H117.429L117.446 24.0586Z" fill="#5C5C7B"/>
<path d="M138.669 33.7419V33.6753C138.734 31.0166 139.82 28.4882 141.698 26.6274C143.575 24.7668 146.095 23.7203 148.722 23.7105C151.35 23.7008 153.877 24.7284 155.767 26.5752C157.658 28.4219 158.763 30.9421 158.847 33.6003V33.6753C158.848 35.0113 158.584 36.3338 158.071 37.5648C157.558 38.7957 156.806 39.9102 155.861 40.8424C154.916 41.7745 153.796 42.5054 152.567 42.992C151.337 43.4786 150.024 43.7109 148.705 43.6753C147.397 43.7087 146.095 43.4763 144.877 42.9918C143.659 42.5073 142.55 41.7804 141.614 40.8543C140.679 39.9283 139.936 38.8217 139.43 37.6001C138.924 36.3784 138.665 35.0665 138.669 33.7419ZM154.509 33.7419V33.6753C154.542 32.8806 154.416 32.0874 154.141 31.3427C153.864 30.598 153.443 29.9173 152.901 29.3411C152.36 28.7649 151.709 28.3049 150.988 27.9886C150.267 27.6724 149.49 27.5063 148.705 27.5003C145.222 27.5003 143 30.2586 143 33.6003V33.6753C142.97 34.4633 143.097 35.2492 143.372 35.9868C143.647 36.7243 144.066 37.3986 144.603 37.9696C145.141 38.5406 145.785 38.9968 146.5 39.3112C147.214 39.6257 147.984 39.7919 148.762 39.8003C152.261 39.8003 154.509 37.0419 154.509 33.7419Z" fill="#5C5C7B"/>
<path d="M161.712 40.7086L163.647 37.7336C165.415 39.1633 167.585 39.989 169.846 40.0919C171.715 40.0919 172.785 39.2586 172.785 38.0252V37.9502C172.785 36.4669 170.784 35.9586 168.562 35.2669C165.763 34.4336 162.642 33.3086 162.642 29.6836V29.6086C162.642 25.9419 165.623 23.7336 169.385 23.7336C171.857 23.7801 174.266 24.5342 176.333 25.9086L174.613 29.0252C173.02 27.9628 171.181 27.3395 169.278 27.2169C167.631 27.2169 166.627 28.0502 166.627 29.1002V29.1752C166.627 30.5919 168.669 31.1669 170.891 31.8919C173.649 32.7669 176.77 34.0336 176.77 37.4836V37.5502C176.77 41.5836 173.682 43.5752 169.739 43.5752C166.822 43.5541 163.997 42.5449 161.712 40.7086Z" fill="#5C5C7B"/>
</svg>
