<svg width="64" height="64" fill="none" xmlns="http://www.w3.org/2000/svg"><rect width="64" height="64" rx="20" fill="#0077B5"/><path d="M50.097 45.207c-1.93-.046-3.816-.046-5.746 0-.414 0-.506-.092-.506-.505V34.449c0-.781-.046-1.563-.276-2.298-.69-2.391-3.448-3.265-5.425-1.656-1.057.828-1.471 1.977-1.471 3.357v9.654c0 .414-.046.828 0 1.288.046.367-.138.46-.46.413h-5.885c-.368 0-.46-.092-.46-.46.046-2.896.046-5.792.046-8.735 0-3.586 0-7.172-.046-10.712 0-.413.092-.506.46-.506h5.885c.368 0 .46.093.46.46V27.6l.23-.23c1.793-2.62 4.321-3.356 7.31-2.896 3.448.551 5.655 2.942 6.206 6.62.138.874.184 1.747.184 2.62v10.989c0 .367-.092.505-.506.505zM26.193 35.002v9.654c0 .414-.092.552-.506.552-1.931-.046-3.862 0-5.793 0-.368 0-.46-.092-.46-.46V25.255c0-.322.092-.46.46-.46h5.93c.415 0 .46.138.46.506-.091 3.218-.091 6.436-.091 9.7zm.323-15.541c-.46 1.84-2.345 2.897-4.506 2.529-2.298-.368-3.586-2.62-2.758-4.827.552-1.38 1.885-2.207 3.586-2.161 2.575-.046 4.276 2.023 3.678 4.46z" fill="#F5F5F7"/></svg>