<svg width="126" height="48" fill="none" xmlns="http://www.w3.org/2000/svg"><path fill-rule="evenodd" clip-rule="evenodd" d="M14.778 3.899c-2.947.855-5.377 2.504-6.65 4.454l-.001.002-.002.002c-1.56 2.366-3.685 5.626-2.85 10.695a4.49 4.49 0 01-.35 2.654l-.002.004-2.501 5.313.583.28a4.201 4.201 0 012.252 2.738l.002.007 1.104 4.643c.307 1.283 1.482 2.183 2.843 2.183h2.85a4.8 4.8 0 011.64.28 4.817 4.817 0 012.63 2.256l.003.007 2.447 4.736-2.13 1.017-2.44-4.722a2.468 2.468 0 00-1.342-1.152h-.001l-.002-.001a2.34 2.34 0 00-.804-.135H9.206c-2.474 0-4.605-1.64-5.16-3.955l-1.101-4.631a1.897 1.897 0 00-1.005-1.226l-.71-.342a2.098 2.098 0 01-1.048-2.768l.004-.01 2.567-5.453a2.28 2.28 0 00.176-1.352v-.004l-.001-.005c-.983-5.951 1.58-9.84 3.184-12.273l.003-.006c1.65-2.525 4.623-4.452 7.976-5.425 3.37-.978 7.25-1.032 10.796.336 4.611 1.776 7.452 5.116 8.437 6.704.023.036.064.089.166.213.44.516.498 1.14.508 1.505a7.211 7.211 0 01-.014.63c-.007.14-.012.243-.012.338v4.707c0 1.706-1.433 3.128-3.25 3.128H16.154c-.477 0-.872.372-.872.841v1.454c0 .463.39.84.872.84h14.568c1.776 0 3.25 1.382 3.25 3.128v2.33c0 1.706-1.433 3.128-3.25 3.128h-17.18v-2.286h17.18c.483 0 .872-.378.872-.841v-2.33c0-.47-.395-.842-.872-.842H16.154c-1.817 0-3.25-1.422-3.25-3.127v-1.454c0-1.746 1.475-3.127 3.25-3.127h14.568c.483 0 .872-.378.872-.842v-4.707a14.96 14.96 0 01.018-.513c.008-.158.012-.282.01-.393a1.123 1.123 0 00-.016-.173 4.038 4.038 0 01-.322-.433l-.002-.002c-.789-1.274-3.267-4.208-7.28-5.754-2.971-1.147-6.29-1.12-9.224-.27z" fill="url(#paint0_linear_272_758)"/><path d="M14.336 32.52c1.313 0 2.377-1.023 2.377-2.286 0-1.262-1.064-2.286-2.377-2.286-1.313 0-2.378 1.024-2.378 2.287 0 1.262 1.065 2.286 2.378 2.286z" fill="url(#paint1_linear_272_758)"/><path d="M17.998 48.001c1.313 0 2.378-1.023 2.378-2.286 0-1.263-1.065-2.286-2.378-2.286-1.313 0-2.378 1.023-2.378 2.286 0 1.263 1.065 2.286 2.378 2.286z" fill="url(#paint2_linear_272_758)"/><path d="M51.189 45.225l-4.301-11.658H44.23l5.675 14.108h2.598l5.675-14.108H55.52l-4.331 11.658z" fill="#4A3FFF"/><path fill-rule="evenodd" clip-rule="evenodd" d="M70.033 43.543c-.278 1.712-1.403 2.568-3.375 2.568-1.294 0-2.3-.462-3.016-1.387-.717-.945-1.076-2.145-1.076-3.601h9.767c.299-2.204-.05-4.073-1.045-5.608-.976-1.535-2.47-2.302-4.48-2.302-1.992 0-3.595.669-4.81 2.007-1.194 1.338-1.791 3.128-1.791 5.372 0 2.243.597 4.043 1.792 5.4 1.195 1.34 2.748 2.008 4.66 2.008 1.552 0 2.847-.384 3.882-1.151 1.056-.787 1.693-1.89 1.912-3.306h-2.42zm-3.315-8.47c.657 0 1.215.117 1.673.353 1.214.65 1.822 1.958 1.822 3.926h-7.617c.12-1.22.528-2.233 1.225-3.04.717-.827 1.682-1.24 2.897-1.24z" fill="#4A3FFF"/><path d="M79.431 40.798c.08-3.502 1.245-5.254 3.495-5.254.617 0 1.224.099 1.822.296l.12-2.273a5.04 5.04 0 00-1.643-.266c-1.813 0-3.077.984-3.794 2.952v-2.716h-2.36v14.138h2.36v-6.877zm9.793-6.552c-.996.688-1.494 1.613-1.494 2.774 0 1.83 1.245 3.11 3.734 3.837l2.778.915c.896.236 1.543.512 1.941.827.398.314.597.777.597 1.387 0 .59-.338 1.102-1.015 1.535-.677.433-1.533.649-2.569.649-1.035 0-1.901-.216-2.598-.65-.677-.452-1.036-1.12-1.076-2.006h-2.27c.06 1.318.618 2.4 1.673 3.246 1.055.827 2.529 1.24 4.42 1.24 1.892 0 3.366-.403 4.421-1.21 1.055-.827 1.583-1.742 1.583-2.745 0-1.023-.329-1.82-.986-2.39-.637-.591-1.563-1.073-2.777-1.447l-2.868-.945c-.876-.255-1.513-.55-1.911-.885-.398-.354-.598-.777-.598-1.27 0-.511.26-.983.777-1.416.538-.433 1.294-.65 2.27-.65 2.011 0 3.106.64 3.285 1.92h2.3c-.04-1.083-.547-1.979-1.523-2.687-.956-.708-2.29-1.062-4.002-1.062-1.713 0-3.077.344-4.092 1.033z" fill="#4A3FFF"/><path fill-rule="evenodd" clip-rule="evenodd" d="M112.502 43.543c-.279 1.712-1.404 2.568-3.375 2.568-1.295 0-2.3-.462-3.017-1.387-.717-.945-1.075-2.145-1.075-3.601h9.767c.298-2.204-.05-4.073-1.046-5.608-.975-1.535-2.469-2.302-4.48-2.302-1.991 0-3.594.669-4.809 2.007-1.194 1.338-1.792 3.128-1.792 5.372 0 2.243.598 4.043 1.792 5.4 1.195 1.339 2.748 2.008 4.66 2.008 1.553 0 2.847-.384 3.883-1.151 1.055-.787 1.692-1.89 1.911-3.306h-2.419zm-3.316-8.47c.658 0 1.215.117 1.673.353 1.215.65 1.822 1.958 1.822 3.926h-7.616c.119-1.22.527-2.233 1.224-3.04.717-.827 1.683-1.24 2.897-1.24zM52.573.266v8.087c-.956-1.633-2.36-2.45-4.211-2.45-1.832 0-3.355.67-4.57 2.007C42.597 9.248 42 11.03 42 13.253c0 2.204.607 3.994 1.822 5.372 1.234 1.377 2.758 2.066 4.57 2.066a4.74 4.74 0 002.479-.68c.756-.452 1.364-1.12 1.822-2.006l.298 2.36h1.912V.266h-2.33zm-6.989 9.15c.797-.965 1.772-1.447 2.927-1.447s2.12.384 2.897 1.151c.777.768 1.165 1.81 1.165 3.13v2.301c-.04 1.24-.458 2.234-1.254 2.981-.777.729-1.723 1.093-2.838 1.093s-2.07-.483-2.867-1.447c-.796-.984-1.195-2.282-1.195-3.896 0-1.613.389-2.902 1.165-3.866z" fill="#4A3FFF"/><path d="M63.468 6.228h-2.36v14.138h2.36V6.228zm-2.33-3.69c.279.256.657.384 1.135.384s.856-.128 1.135-.384c.298-.275.448-.63.448-1.062 0-.453-.15-.807-.448-1.063C63.129.138 62.75 0 62.273 0s-.856.138-1.135.413c-.259.256-.388.61-.388 1.063 0 .433.129.787.388 1.062z" fill="#4A3FFF"/><path fill-rule="evenodd" clip-rule="evenodd" d="M68.69 17.296c0 1.18.597 2.057 1.791 2.627-.836.217-1.513.59-2.03 1.122-.498.531-.747 1.22-.747 2.066 0 1.299.667 2.371 2 3.217 1.335.866 3.167 1.299 5.497 1.299s4.25-.561 5.764-1.683c1.533-1.121 2.3-2.43 2.3-3.925 0-1.004-.388-1.781-1.165-2.332-.777-.57-1.832-.856-3.166-.856h-5.555c-1.753 0-2.629-.521-2.629-1.564 0-.492.16-.876.478-1.151a2.187 2.187 0 011.075-.561c.877.452 1.882.679 3.017.679 1.653 0 3.027-.482 4.122-1.447 1.115-.983 1.672-2.233 1.672-3.748 0-1.18-.348-2.194-1.045-3.04.08-1.456.996-2.184 2.748-2.184l.209-2.303c-1.155 0-2.09.315-2.808.945-.697.63-1.115 1.466-1.254 2.509-1.055-.709-2.34-1.063-3.853-1.063-1.513 0-2.828.472-3.943 1.417-1.095.944-1.642 2.184-1.642 3.719 0 1.535.537 2.774 1.612 3.719a3.569 3.569 0 00-1.762.944c-.458.453-.687.984-.687 1.594zm2.568 7.645c-.816-.531-1.225-1.17-1.225-1.919 0-.747.27-1.348.807-1.8.537-.433 1.314-.67 2.33-.709h5.764c.677 0 1.175.158 1.493.473.339.334.508.728.508 1.18 0 .965-.567 1.8-1.702 2.51-1.115.727-2.52 1.091-4.212 1.091-1.672 0-2.927-.275-3.763-.826zm6.63-16.381c.618.63.926 1.456.926 2.479 0 1.004-.308 1.84-.925 2.509-.618.669-1.464 1.003-2.54 1.003-1.074 0-1.93-.324-2.568-.974-.617-.669-.926-1.515-.926-2.538s.309-1.85.926-2.48c.617-.649 1.464-.973 2.539-.973 1.095 0 1.951.324 2.569.974z" fill="#4A3FFF"/><path d="M89.281 6.228h-2.36v14.138h2.36V6.228zm-2.33-3.69c.28.256.658.384 1.135.384.478 0 .857-.128 1.135-.384.3-.275.448-.63.448-1.062 0-.453-.149-.807-.448-1.063C88.943.138 88.564 0 88.086 0c-.477 0-.856.138-1.135.413-.258.256-.388.61-.388 1.063 0 .433.13.787.388 1.062zm11.524 17.916c1.414.453 2.977.286 4.69-.501l-.329-1.653c-.916.354-1.742.531-2.479.531-1.354 0-2.031-.718-2.031-2.155V8.028h4.48v-1.77h-4.48V2.331h-2.33v3.925h-2.3v1.771h2.3v8.678c0 .689.11 1.279.329 1.77.418 1.005 1.135 1.664 2.15 1.979z" fill="#4A3FFF"/><path fill-rule="evenodd" clip-rule="evenodd" d="M114.962 8.471c.537.551.806 1.466.806 2.745v1.8a12.64 12.64 0 00-4.39-.767c-1.534 0-2.818.354-3.853 1.063-1.016.708-1.524 1.692-1.524 2.951 0 1.26.458 2.312 1.374 3.158.936.846 2.171 1.27 3.704 1.27 2.29 0 3.873-.896 4.749-2.686l.239 2.36h2.031v-9.09c0-1.81-.498-3.158-1.494-4.044-.995-.885-2.379-1.328-4.151-1.328-.836 0-1.613.079-2.33.236-2.349.512-3.524 1.85-3.524 4.014h2.598c0-.865.309-1.495.926-1.889.637-.413 1.464-.62 2.479-.62 1.036 0 1.822.276 2.36.827zm-2.897 5.431c1.055 0 2.289.197 3.703.59 0 1.299-.418 2.361-1.254 3.188-.817.807-1.802 1.21-2.957 1.21-2.031 0-3.047-.885-3.047-2.656 0-.807.329-1.397.986-1.771.657-.374 1.513-.561 2.569-.561z" fill="#4A3FFF"/><path d="M126 .266h-2.36v20.1H126V.266z" fill="#4A3FFF"/><defs><linearGradient id="paint0_linear_272_758" x1="0" y1=".995" x2="36.783" y2="3.284" gradientUnits="userSpaceOnUse"><stop stop-color="#3F34EC"/><stop offset="1" stop-color="#13D8D4"/></linearGradient><linearGradient id="paint1_linear_272_758" x1="0" y1=".995" x2="36.783" y2="3.284" gradientUnits="userSpaceOnUse"><stop stop-color="#3F34EC"/><stop offset="1" stop-color="#13D8D4"/></linearGradient><linearGradient id="paint2_linear_272_758" x1="0" y1=".995" x2="36.783" y2="3.284" gradientUnits="userSpaceOnUse"><stop stop-color="#3F34EC"/><stop offset="1" stop-color="#13D8D4"/></linearGradient></defs></svg>