<svg width="155" height="32" viewBox="0 0 155 32" fill="none" xmlns="http://www.w3.org/2000/svg">
<path d="M27.3926 9.77602C27.0463 9.57648 26.6537 9.47144 26.2541 9.47144C25.8544 9.47144 25.4618 9.57648 25.1155 9.77602L19.8915 12.888L16.3419 14.9176L11.1179 18.0297C10.7716 18.2292 10.379 18.3343 9.97938 18.3343C9.57973 18.3343 9.18711 18.2292 8.84084 18.0297L4.68847 15.5942C4.34773 15.3907 4.0644 15.1039 3.86521 14.7606C3.66601 14.4173 3.55751 14.029 3.54991 13.6322V8.82887C3.54329 8.42921 3.64581 8.03532 3.84643 7.68961C4.04706 7.3439 4.33819 7.05946 4.68847 6.86693L8.77387 4.49906C9.12015 4.29951 9.51278 4.19448 9.91244 4.19448C10.3121 4.19448 10.7047 4.29951 11.051 4.49906L15.1364 6.86693C15.4771 7.0704 15.7604 7.35728 15.9596 7.70053C16.1588 8.04378 16.2673 8.43209 16.2749 8.82887V11.9409L19.8245 9.84367V6.73158C19.8311 6.33193 19.7286 5.93804 19.528 5.59233C19.3274 5.24662 19.0363 4.96218 18.686 4.76964L11.1179 0.304579C10.7716 0.105035 10.379 0 9.97938 0C9.57973 0 9.18711 0.105035 8.84084 0.304579L1.13884 4.7697C0.788571 4.96223 0.497452 5.24666 0.296831 5.59236C0.0962104 5.93806 -0.00631253 6.33194 0.000301471 6.73158V15.7295C-0.00631865 16.1291 0.0962032 16.523 0.296828 16.8687C0.497454 17.2144 0.788581 17.4988 1.13886 17.6914L8.84086 22.1565C9.18711 22.3561 9.57974 22.4611 9.9794 22.4611C10.379 22.4611 10.7717 22.3561 11.1179 22.1565L16.3419 19.1121L19.8915 17.0149L25.1155 13.9705C25.4618 13.7709 25.8544 13.6659 26.2541 13.6659C26.6537 13.6659 27.0464 13.7709 27.3926 13.9705L31.478 16.3384C31.8187 16.5418 32.1021 16.8287 32.3012 17.172C32.5004 17.5152 32.6089 17.9035 32.6165 18.3003V23.1037C32.6232 23.5033 32.5207 23.8972 32.32 24.2429C32.1194 24.5886 31.8283 24.873 31.478 25.0656L27.3926 27.5012C27.0464 27.7007 26.6537 27.8057 26.2541 27.8057C25.8544 27.8057 25.4618 27.7007 25.1155 27.5012L21.0301 25.1333C20.6894 24.9298 20.406 24.6429 20.2068 24.2997C20.0076 23.9564 19.8991 23.5681 19.8915 23.1713V20.0593L16.3419 22.1565V25.2686C16.3353 25.6682 16.4378 26.0621 16.6384 26.4078C16.839 26.7535 17.1302 27.0379 17.4804 27.2305L25.1824 31.6957C25.5287 31.8952 25.9213 32.0002 26.321 32.0002C26.7206 32.0002 27.1133 31.8952 27.4595 31.6957L35.1615 27.2305C35.5023 27.027 35.7856 26.7402 35.9848 26.3969C36.184 26.0537 36.2925 25.6654 36.3001 25.2686V16.2707C36.3067 15.871 36.2042 15.4771 36.0036 15.1314C35.803 14.7857 35.5118 14.5013 35.1615 14.3088L27.3926 9.77602Z" fill="#5C5C7B"/>
<path d="M50.443 29.1194V21.6494C50.9551 22.1944 51.5812 22.6195 52.2767 22.8944C52.9722 23.1693 53.7199 23.2871 54.4662 23.2394C58.8525 23.2394 61.8169 20.1494 61.8169 15.4394C61.8169 10.7294 59.0945 7.63941 54.8292 7.63941C54.0016 7.59254 53.1744 7.73891 52.4131 8.06694C51.6518 8.39498 50.9773 8.89567 50.443 9.5294V7.87941H46.2383V29.1194H50.443ZM53.952 19.6394C51.6832 19.6394 50.201 17.9594 50.201 15.4394C50.201 12.8894 51.6832 11.2094 53.952 11.2094C56.1602 11.2094 57.6727 12.8894 57.6727 15.4394C57.6727 17.9594 56.1602 19.6394 53.952 19.6394Z" fill="#5C5C7B"/>
<path d="M71.3663 23.2386C72.8986 23.1909 74.383 22.6929 75.6341 21.8068C76.8852 20.9206 77.8475 19.6856 78.401 18.2559C78.9545 16.8262 79.0746 15.2651 78.7463 13.7676C78.4181 12.27 77.656 10.9024 76.5552 9.83529C75.4544 8.76821 74.0636 8.04901 72.5566 7.76748C71.0496 7.48594 69.493 7.65455 68.0812 8.25224C66.6694 8.84993 65.4649 9.85023 64.6181 11.1283C63.7714 12.4063 63.3198 13.9054 63.3198 15.4386C63.2996 16.4895 63.4958 17.5333 63.8962 18.5051C64.2967 19.477 64.8928 20.356 65.6475 21.0876C66.4022 21.8192 67.2994 22.3877 68.2832 22.7578C69.2671 23.1278 70.3165 23.2915 71.3663 23.2386ZM71.3663 19.6386C69.0975 19.6386 67.5548 17.9286 67.5548 15.4386C67.5548 12.9186 69.0975 11.2086 71.3663 11.2086C73.635 11.2086 75.1777 12.9186 75.1777 15.4386C75.1777 17.9286 73.635 19.6386 71.3663 19.6386Z" fill="#5C5C7B"/>
<path d="M86.1578 22.9986V1.30859H81.9531V22.9986H86.1578Z" fill="#5C5C7B"/>
<path d="M98.7972 7.87891L95.621 17.6289L92.4145 7.87891H88.1191L93.6548 22.8789L91.4163 29.1189H95.4395L97.5873 22.9389L103.123 7.87891H98.7972Z" fill="#5C5C7B"/>
<path d="M114.932 9.37922C114.403 8.79659 113.752 8.33837 113.025 8.03751C112.298 7.73665 111.513 7.60063 110.727 7.63922C106.28 7.63922 103.588 10.7292 103.588 15.4392C103.588 20.1492 106.28 23.2392 110.788 23.2392C111.573 23.2867 112.359 23.1516 113.083 22.8445C113.807 22.5374 114.45 22.0667 114.962 21.4692V23.4492C114.985 23.7543 114.946 24.0609 114.846 24.35C114.746 24.639 114.587 24.9044 114.38 25.1296C114.173 25.3547 113.922 25.5348 113.642 25.6586C113.362 25.7824 113.06 25.8473 112.754 25.8492H105.736V29.1192H113.419C116.868 29.1192 119.167 27.0492 119.167 23.8992V7.87922H114.932V9.37922ZM111.453 19.6392C109.215 19.6392 107.732 17.9892 107.732 15.4392C107.732 12.8892 109.215 11.2092 111.453 11.2092C113.722 11.2092 115.204 12.8892 115.204 15.4392C115.204 17.9892 113.722 19.6392 111.453 19.6392V19.6392Z" fill="#5C5C7B"/>
<path d="M129.768 23.2385C131.301 23.191 132.785 22.6931 134.036 21.807C135.287 20.9209 136.25 19.6859 136.803 18.2562C137.357 16.8265 137.477 15.2655 137.149 13.7679C136.821 12.2703 136.058 10.9026 134.958 9.83545C133.857 8.76833 132.466 8.04908 130.959 7.76751C129.452 7.48594 127.895 7.65451 126.484 8.25219C125.072 8.84987 123.867 9.85017 123.02 11.1282C122.174 12.4063 121.722 13.9054 121.722 15.4385C121.702 16.4894 121.898 17.5332 122.299 18.505C122.699 19.4767 123.295 20.3558 124.05 21.0873C124.804 21.8189 125.702 22.3874 126.685 22.7575C127.669 23.1276 128.718 23.2913 129.768 23.2385ZM129.768 19.6385C127.499 19.6385 125.957 17.9285 125.957 15.4385C125.957 12.9185 127.499 11.2085 129.768 11.2085C132.037 11.2085 133.58 12.9185 133.58 15.4385C133.58 17.9285 132.037 19.6385 129.768 19.6385Z" fill="#5C5C7B"/>
<path d="M144.349 22.9989V14.7189C144.318 14.2878 144.377 13.855 144.522 13.4477C144.666 13.0403 144.893 12.6672 145.188 12.3517C145.484 12.0363 145.841 11.7852 146.238 11.6144C146.635 11.4435 147.063 11.3566 147.495 11.3589C147.9 11.3547 148.302 11.4351 148.674 11.5948C149.047 11.7545 149.381 11.99 149.658 12.2864C149.934 12.5829 150.145 12.9336 150.278 13.3163C150.411 13.6989 150.463 14.1051 150.43 14.5089V22.9989H154.665V13.5789C154.665 10.0989 152.426 7.63892 148.978 7.63892C148.068 7.58195 147.16 7.76876 146.346 8.18009C145.532 8.59142 144.843 9.21239 144.349 9.97893V7.87892H140.115V22.9989H144.349Z" fill="#5C5C7B"/>
</svg>
