<svg width="71" height="50" viewBox="0 0 71 50" fill="none" xmlns="http://www.w3.org/2000/svg">
<path d="M70.9865 0H0V50H70.9865V0Z" fill="#5C5C7B"/>
<path d="M11.5918 37.1057C11.4709 36.6659 11.2292 35.8191 9.96625 35.8191C9.2285 35.8191 8.11562 36.337 8.11562 38.38C8.11562 39.6748 8.66998 40.8832 9.96625 40.8832C10.8165 40.8832 11.4126 40.3735 11.5918 39.4898H13.1215C12.8172 41.0641 11.7752 42.1616 9.9329 42.1616C7.98224 42.1616 6.58594 40.8545 6.58594 38.3635C6.58594 35.8314 8.06144 34.5449 9.95374 34.5449C12.1503 34.5449 13.0381 36.0411 13.1215 37.1057H11.5918Z" fill="#1C1C27"/>
<path d="M14.9919 38.6381L16.7925 36.6035H18.5431L16.63 38.6792L18.589 41.9717H16.8801L15.588 39.6658L14.9919 40.2741V41.9717H13.5664V36.6035H14.9919V38.6381Z" fill="#1C1C27"/>
<path d="M23.8078 39.2803C23.8078 41.2163 22.4949 42.1124 21.0361 42.1124C19.5814 42.1124 18.2559 41.2246 18.2559 39.2886C18.2559 37.3567 19.5814 36.4688 21.0361 36.4688C22.4949 36.4688 23.8078 37.3442 23.8078 39.2803ZM19.7231 39.2803C19.7231 39.9708 19.9357 40.9245 21.0361 40.9245C22.1364 40.9245 22.3407 39.9791 22.3407 39.2886C22.3407 38.6021 22.1364 37.6525 21.0361 37.6525C19.9357 37.6525 19.7231 38.5897 19.7231 39.2803Z" fill="#1C1C27"/>
<path d="M29.1725 36.6035V41.9676H27.747V37.7338H26.2173V39.3904C26.2173 41.4415 25.5921 42.091 24.5876 42.091C24.3375 42.091 23.9291 42.0498 23.7207 41.9718V40.9236C23.7498 40.9441 23.9332 40.9647 24.1458 40.9647C24.5709 40.9647 24.7919 40.755 24.7919 39.1191V36.6076H29.1725V36.6035Z" fill="#1C1C27"/>
<path d="M31.3277 38.6381L33.1283 36.6035H34.8748L32.9658 38.6792L34.929 41.9717H33.22L31.9238 39.6658L31.3277 40.2741V41.9717H29.9023V36.6035H31.3277V38.6381Z" fill="#1C1C27"/>
<path d="M40.1476 39.2803C40.1476 41.2163 38.8346 42.1124 37.3758 42.1124C35.9212 42.1124 34.5957 41.2246 34.5957 39.2886C34.5957 37.3567 35.9212 36.4688 37.3758 36.4688C38.8305 36.4688 40.1476 37.3442 40.1476 39.2803ZM36.0629 39.2803C36.0629 39.9708 36.2754 40.9245 37.3758 40.9245C38.4804 40.9245 38.6804 39.9791 38.6804 39.2886C38.6804 38.6021 38.4804 37.6525 37.3758 37.6525C36.2754 37.6525 36.0629 38.5897 36.0629 39.2803Z" fill="#1C1C27"/>
<path d="M40.6094 36.6035H43.0644C44.2773 36.6035 45.1692 37.0926 45.1692 37.9887C45.1692 38.6053 44.7233 39.004 44.1564 39.1437C44.7108 39.2712 45.3318 39.6205 45.3318 40.5002C45.3318 41.4949 44.5732 41.9676 43.3395 41.9676H40.6094V36.6035ZM42.0349 38.7779H42.9643C43.4395 38.7779 43.7729 38.5888 43.7729 38.1695C43.7729 37.7297 43.452 37.5694 42.9768 37.5694H42.0349V38.7779ZM42.0349 41.0017H43.0852C43.6104 41.0017 43.9355 40.8414 43.9355 40.3111C43.9355 39.8425 43.5937 39.6247 43.0644 39.6247H42.0349V41.0017Z" fill="#1C1C27"/>
<path d="M51.0423 39.2803C51.0423 41.2163 49.7252 42.1124 48.2706 42.1124C46.8159 42.1124 45.4863 41.2246 45.4863 39.2886C45.4863 37.3567 46.8117 36.4688 48.2706 36.4688C49.7252 36.4688 51.0423 37.3442 51.0423 39.2803ZM46.9576 39.2803C46.9576 39.9708 47.1702 40.9245 48.2747 40.9245C49.3751 40.9245 49.5793 39.9791 49.5793 39.2886C49.5793 38.6021 49.3751 37.6525 48.2747 37.6525C47.1702 37.6525 46.9576 38.5897 46.9576 39.2803Z" fill="#1C1C27"/>
<path d="M16.9596 33.3323C18.1726 33.3323 21.1694 33.1226 23.4035 31.5113V32.7362H27.9217V27.3638L29.8098 25.436L33.9112 32.7321H39.3255L33.1109 22.3038L39.163 15.7312H33.6194L27.9217 22.1805V9.79565H23.4035V11.7522C22.0239 10.2971 19.7939 9.19141 16.3178 9.19141C8.79018 9.19141 7.38137 13.7088 7.38137 16.2367C7.38137 19.7142 9.27368 21.642 12.5707 22.4312L17.2472 23.5699C19.7147 24.17 21.4778 24.6139 21.4778 26.4143C21.4778 28.8148 18.9145 29.3821 16.6095 29.3821C12.3789 29.3821 11.6745 26.9487 11.6745 25.6539H7.03125C7.03125 28.4983 8.50258 33.3323 16.9596 33.3323ZM20.0357 19.6526L14.3671 18.292C13.4043 18.07 11.8996 17.6919 11.8996 15.8915C11.8996 13.8403 14.1087 13.1415 15.9676 13.1415C20.1941 13.1415 20.5817 15.575 20.7067 16.6149H23.4035V20.8898C22.4157 20.3267 21.2444 19.9526 20.0357 19.6526Z" fill="#1C1C27"/>
</svg>
