<svg width="96" height="96" fill="none" xmlns="http://www.w3.org/2000/svg"><path d="M0 4a4 4 0 014-4h12.5a2.5 2.5 0 010 5H7a2 2 0 00-2 2v9.5a2.5 2.5 0 01-5 0V4z" fill="url(#paint0_linear_285_548)"/><path d="M4 96a4 4 0 01-4-4V79.5a2.5 2.5 0 015 0V89a2 2 0 002 2h9.5a2.5 2.5 0 010 5H4z" fill="url(#paint1_linear_285_548)"/><path d="M92 96a4 4 0 004-4V79.5a2.5 2.5 0 00-5 0V89a2 2 0 01-2 2h-9.5a2.5 2.5 0 000 5H92z" fill="url(#paint2_linear_285_548)"/><path d="M92 0a4 4 0 014 4v12.5a2.5 2.5 0 01-5 0V7a2 2 0 00-2-2h-9.5a2.5 2.5 0 010-5H92z" fill="url(#paint3_linear_285_548)"/><path d="M47.5 71c2.119 0 4.368-.724 6.618-1.978.652 6.384 3.94 10.643 8.255 13.265 3.941 2.394 8.614 3.362 12.639 3.63 1.377.092 2.497-1.036 2.497-2.417 0-1.38-1.12-2.49-2.497-2.596-3.416-.263-7.094-1.1-10.042-2.89C61.472 75.888 58.826 72.27 59 66c.209-.175.416-.355.622-.537C61.472 63.82 60.16 61 57.687 61c-.753 0-1.475.294-2.04.791a26.43 26.43 0 01-2.371 1.866C50.805 65.371 48.833 66 47.5 66c-1.401 0-3.403-.622-5.851-2.254a26.02 26.02 0 01-2.642-2.033A2.835 2.835 0 0037.151 61c-2.298 0-3.49 2.644-1.777 4.175a33.392 33.392 0 002.133 1.759c-.081 5.735-2.634 9.053-5.968 11.08-2.948 1.79-6.626 2.627-10.042 2.89C20.121 81.01 19 82.12 19 83.5c0 1.38 1.12 2.509 2.498 2.417 4.023-.268 8.697-1.236 12.638-3.63 4.137-2.515 7.331-6.533 8.161-12.488C44.07 70.57 45.826 71 47.5 71z" fill="url(#paint4_linear_285_548)"/><path fill-rule="evenodd" clip-rule="evenodd" d="M70.097 50.618A2.361 2.361 0 0167.93 52c-1.887 0-3.07-2.07-2.278-3.784C67.162 44.948 68 41.873 68 39.5c0-9.616-2.606-16.207-6.224-20.324C58.198 15.106 53.242 13 47.5 13c-5.605 0-10.587 2.255-14.237 6.507C29.578 23.798 27 30.438 27 39.5c0 2.555.782 5.613 2.179 8.771.752 1.7-.422 3.729-2.28 3.729-.912 0-1.752-.513-2.13-1.343a36.274 36.274 0 01-1.435-3.654l-.662.001c-.283 0-.584-.002-.813-.003H21.5a8.5 8.5 0 110-17l.264-.002h.119l1.076-.003C25.985 15.9 35.826 8 47.5 8c11.769 0 21.675 7.332 24.614 21.997.18-.002.515-.001.813 0L73.5 30a8.5 8.5 0 010 17l-.279.001h-.086c-.422.002-1.112.004-1.595.003a47.554 47.554 0 01-1.443 3.614zM73 39.5c0 .806-.065 1.645-.19 2.51.081 0 .17 0 .256-.002l.214-.004h.003l.153-.003h.064a3.5 3.5 0 100-7l-.222-.004-.155-.003-.14-.002-.169-.002A53.2 53.2 0 0173 39.5zm-50.797-4.512l-.378.007-.234.004L21.5 35a3.5 3.5 0 000 7l.198.003h.024l.017.001c.13.003.288.006.428.007A19.676 19.676 0 0122 39.5c0-1.556.07-3.06.203-4.512z" fill="url(#paint5_linear_285_548)"/><path d="M4 56.5A2.5 2.5 0 016.5 54h11a2.5 2.5 0 010 5h-11A2.5 2.5 0 014 56.5z" fill="url(#paint6_linear_285_548)"/><path d="M30 56.5a2.5 2.5 0 002.5 2.5h8a2.5 2.5 0 000-5h-8a2.5 2.5 0 00-2.5 2.5z" fill="url(#paint7_linear_285_548)"/><path d="M66 56.5a2.5 2.5 0 01-2.5 2.5h-8a2.5 2.5 0 010-5h8a2.5 2.5 0 012.5 2.5z" fill="url(#paint8_linear_285_548)"/><path d="M76 56.5a2.5 2.5 0 002.5 2.5h11a2.5 2.5 0 000-5h-11a2.5 2.5 0 00-2.5 2.5z" fill="url(#paint9_linear_285_548)"/><defs><linearGradient id="paint0_linear_285_548" x1="0" y1="0" x2="103.494" y2="8.905" gradientUnits="userSpaceOnUse"><stop stop-color="#3F34EC"/><stop offset="1" stop-color="#13D8D4"/></linearGradient><linearGradient id="paint1_linear_285_548" x1="0" y1="0" x2="103.494" y2="8.905" gradientUnits="userSpaceOnUse"><stop stop-color="#3F34EC"/><stop offset="1" stop-color="#13D8D4"/></linearGradient><linearGradient id="paint2_linear_285_548" x1="0" y1="0" x2="103.494" y2="8.905" gradientUnits="userSpaceOnUse"><stop stop-color="#3F34EC"/><stop offset="1" stop-color="#13D8D4"/></linearGradient><linearGradient id="paint3_linear_285_548" x1="0" y1="0" x2="103.494" y2="8.905" gradientUnits="userSpaceOnUse"><stop stop-color="#3F34EC"/><stop offset="1" stop-color="#13D8D4"/></linearGradient><linearGradient id="paint4_linear_285_548" x1="0" y1="0" x2="103.494" y2="8.905" gradientUnits="userSpaceOnUse"><stop stop-color="#3F34EC"/><stop offset="1" stop-color="#13D8D4"/></linearGradient><linearGradient id="paint5_linear_285_548" x1="0" y1="0" x2="103.494" y2="8.905" gradientUnits="userSpaceOnUse"><stop stop-color="#3F34EC"/><stop offset="1" stop-color="#13D8D4"/></linearGradient><linearGradient id="paint6_linear_285_548" x1="0" y1="0" x2="103.494" y2="8.905" gradientUnits="userSpaceOnUse"><stop stop-color="#3F34EC"/><stop offset="1" stop-color="#13D8D4"/></linearGradient><linearGradient id="paint7_linear_285_548" x1="0" y1="0" x2="103.494" y2="8.905" gradientUnits="userSpaceOnUse"><stop stop-color="#3F34EC"/><stop offset="1" stop-color="#13D8D4"/></linearGradient><linearGradient id="paint8_linear_285_548" x1="0" y1="0" x2="103.494" y2="8.905" gradientUnits="userSpaceOnUse"><stop stop-color="#3F34EC"/><stop offset="1" stop-color="#13D8D4"/></linearGradient><linearGradient id="paint9_linear_285_548" x1="0" y1="0" x2="103.494" y2="8.905" gradientUnits="userSpaceOnUse"><stop stop-color="#3F34EC"/><stop offset="1" stop-color="#13D8D4"/></linearGradient></defs></svg>