<svg width="96" height="34" fill="none" xmlns="http://www.w3.org/2000/svg"><g clip-path="url(#clip0_285_1110)"><path d="M7.994 13.635v-.906a7.144 7.144 0 00-.951-.067C3.159 12.656 0 15.819 0 19.71a7.048 7.048 0 003.01 5.776 7.023 7.023 0 01-1.893-4.803c0-3.834 3.072-6.96 6.877-7.048z" fill="#25F4EE"/><path d="M8.165 23.903a3.22 3.22 0 003.212-3.1l.005-15.355h2.802a5.49 5.49 0 01-.088-.973H10.27l-.005 15.355a3.22 3.22 0 01-3.212 3.1 3.182 3.182 0 01-1.494-.373 3.197 3.197 0 002.606 1.346zm11.257-13.245v-.854a5.267 5.267 0 01-2.901-.864 5.32 5.32 0 002.9 1.718z" fill="#25F4EE"/><path d="M16.52 8.942a5.294 5.294 0 01-1.307-3.494h-1.024a5.308 5.308 0 002.332 3.494zm-9.473 7.544a3.221 3.221 0 00-3.216 3.219c0 1.237.703 2.313 1.727 2.852a3.187 3.187 0 01-.61-1.879 3.221 3.221 0 013.216-3.22c.331 0 .652.058.952.151v-3.913a7.161 7.161 0 00-.952-.067c-.057 0-.108.005-.165.005v3.002a3.24 3.24 0 00-.952-.15z" fill="#FE2C55"/><path d="M19.422 10.66v2.976a9.108 9.108 0 01-5.327-1.713v7.789c0 3.886-3.16 7.054-7.048 7.054a7.01 7.01 0 01-4.038-1.279 7.035 7.035 0 005.155 2.252c3.884 0 7.048-3.163 7.048-7.054v-7.79a9.108 9.108 0 005.326 1.714v-3.83c-.387 0-.76-.041-1.116-.12z" fill="#FE2C55"/><path d="M14.095 19.712v-7.79a9.108 9.108 0 005.327 1.714V10.66a5.32 5.32 0 01-2.901-1.718 5.352 5.352 0 01-2.338-3.494h-2.802l-.006 15.356a3.22 3.22 0 01-3.21 3.1 3.23 3.23 0 01-2.612-1.34 3.23 3.23 0 01-1.727-2.852 3.221 3.221 0 013.216-3.22c.331 0 .652.058.952.15v-3.001c-3.806.083-6.878 3.209-6.878 7.044a7.03 7.03 0 001.893 4.802 7.017 7.017 0 004.038 1.279c3.884 0 7.048-3.168 7.048-7.054zm10.229-9.042h11.96l-1.096 3.426h-3.103V26.76h-3.867V14.096l-3.89.005-.004-3.432zm31.558 0h12.24l-1.096 3.426h-3.377V26.76h-3.873V14.096l-3.889.005-.005-3.432zM37.02 15.79h3.832v10.97H37.04l-.021-10.97zm5.356-5.162h3.831v7.494l3.796-3.731h4.57l-4.803 4.663 5.378 7.706h-4.22l-3.588-5.341-1.138 1.102v4.239H42.37V10.628h.006zm40.592 0h3.833v7.494l3.795-3.731h4.571l-4.804 4.663 5.378 7.706h-4.214l-3.59-5.341-1.136 1.102v4.239h-3.833V10.628zm-44.035 3.909a1.93 1.93 0 10-.002-3.86 1.93 1.93 0 00.002 3.86z" fill="#fff"/><path d="M67.631 20.194a6.567 6.567 0 016.05-6.547 7.102 7.102 0 00-.574-.021 6.564 6.564 0 00-6.562 6.568 6.564 6.564 0 006.562 6.567c.171 0 .404-.01.574-.02a6.57 6.57 0 01-6.05-6.547z" fill="#25F4EE"/><path d="M75.17 13.626c-.175 0-.408.01-.578.02a6.566 6.566 0 016.044 6.547 6.566 6.566 0 01-6.044 6.547c.17.016.403.021.579.021a6.564 6.564 0 006.562-6.567 6.564 6.564 0 00-6.562-6.568z" fill="#FE2C55"/><path d="M74.137 23.387a3.19 3.19 0 01-3.19-3.194 3.19 3.19 0 116.38 0 3.194 3.194 0 01-3.19 3.194zm0-9.761a6.564 6.564 0 00-6.562 6.568 6.564 6.564 0 006.562 6.567 6.564 6.564 0 006.562-6.567 6.564 6.564 0 00-6.562-6.568z" fill="#fff"/></g><defs><clipPath id="clip0_285_1110"><path fill="#fff" d="M0 0h95.524v34H0z"/></clipPath></defs></svg>