<svg width="64" height="64" fill="none" xmlns="http://www.w3.org/2000/svg"><rect width="64" height="64" rx="20" fill="#1DA1F2"/><path d="M46.472 24.989v.901c0 9.334-7.238 20.11-20.431 20.11-4.078 0-7.834-1.172-11.041-3.156.55.045 1.145.09 1.695.09 3.344 0 6.46-1.127 8.933-3.021-3.16-.045-5.818-2.12-6.688-4.915.458.09.87.136 1.374.136a6.52 6.52 0 001.878-.27c-3.298-.632-5.772-3.473-5.772-6.9v-.09a7.142 7.142 0 003.253.902c-1.924-1.262-3.207-3.427-3.207-5.906 0-1.308.366-2.525.962-3.562 3.527 4.283 8.842 7.079 14.797 7.394-.137-.496-.183-1.082-.183-1.623 0-3.923 3.207-7.079 7.192-7.079 2.062 0 3.94.857 5.223 2.21a14.739 14.739 0 004.581-1.714c-.55 1.668-1.695 3.02-3.161 3.923 1.466-.18 2.84-.541 4.123-1.128a13.004 13.004 0 01-3.528 3.698z" fill="#F5F5F7"/></svg>