<svg width="100" height="100" fill="none" xmlns="http://www.w3.org/2000/svg"><path d="M45 49a4 4 0 100-8 4 4 0 000 8z" fill="url(#paint0_linear_285_159)"/><path fill-rule="evenodd" clip-rule="evenodd" d="M45 37c7.18 0 13-5.82 13-13s-5.82-13-13-13-13 5.82-13 13 5.82 13 13 13zm0-5a8 8 0 100-16 8 8 0 000 16z" fill="url(#paint1_linear_285_159)"/><path fill-rule="evenodd" clip-rule="evenodd" d="M58 66c0 7.18-5.82 13-13 13s-13-5.82-13-13 5.82-13 13-13 13 5.82 13 13zm-5 0a8 8 0 11-16 0 8 8 0 0116 0z" fill="url(#paint2_linear_285_159)"/><path fill-rule="evenodd" clip-rule="evenodd" d="M24 58c7.18 0 13-5.82 13-13s-5.82-13-13-13-13 5.82-13 13 5.82 13 13 13zm0-5a8 8 0 100-16 8 8 0 000 16z" fill="url(#paint3_linear_285_159)"/><path fill-rule="evenodd" clip-rule="evenodd" d="M79 45c0 7.18-5.82 13-13 13s-13-5.82-13-13 5.82-13 13-13 13 5.82 13 13zm-5 0a8 8 0 11-16 0 8 8 0 0116 0z" fill="url(#paint4_linear_285_159)"/><path fill-rule="evenodd" clip-rule="evenodd" d="M90 45c0 17.415-9.892 32.519-24.364 40H86c2.174 0 5.672.31 8.676 2.397C97.391 89.282 100 92.5 100 97c0 1.5-1.12 3-2.5 3s-2.298-1.627-2.5-2.993c-.453-3.056-1.908-4.623-3.176-5.504C90.078 90.29 87.827 90 86 90H44v-.01C19.609 89.456 0 69.518 0 45 0 20.147 20.147 0 45 0s45 20.147 45 45zm-5 0c0 22.091-17.909 40-40 40S5 67.091 5 45 22.909 5 45 5s40 17.909 40 40z" fill="url(#paint5_linear_285_159)"/><defs><linearGradient id="paint0_linear_285_159" x1="0" y1="0" x2="107.806" y2="9.276" gradientUnits="userSpaceOnUse"><stop stop-color="#3F34EC"/><stop offset="1" stop-color="#13D8D4"/></linearGradient><linearGradient id="paint1_linear_285_159" x1="0" y1="0" x2="107.806" y2="9.276" gradientUnits="userSpaceOnUse"><stop stop-color="#3F34EC"/><stop offset="1" stop-color="#13D8D4"/></linearGradient><linearGradient id="paint2_linear_285_159" x1="0" y1="0" x2="107.806" y2="9.276" gradientUnits="userSpaceOnUse"><stop stop-color="#3F34EC"/><stop offset="1" stop-color="#13D8D4"/></linearGradient><linearGradient id="paint3_linear_285_159" x1="0" y1="0" x2="107.806" y2="9.276" gradientUnits="userSpaceOnUse"><stop stop-color="#3F34EC"/><stop offset="1" stop-color="#13D8D4"/></linearGradient><linearGradient id="paint4_linear_285_159" x1="0" y1="0" x2="107.806" y2="9.276" gradientUnits="userSpaceOnUse"><stop stop-color="#3F34EC"/><stop offset="1" stop-color="#13D8D4"/></linearGradient><linearGradient id="paint5_linear_285_159" x1="0" y1="0" x2="107.806" y2="9.276" gradientUnits="userSpaceOnUse"><stop stop-color="#3F34EC"/><stop offset="1" stop-color="#13D8D4"/></linearGradient></defs></svg>