<svg width="1920" height="831" viewBox="0 0 1920 831" fill="none" xmlns="http://www.w3.org/2000/svg">
<g clip-path="url(#clip0_2_4804)">
<path d="M2170.86 -53.68C1532.94 70.4289 1483.87 303.727 1179.73 484.343C1054.99 558.417 870.314 625.733 618.635 655.833C324.006 691.092 20.7209 679.673 -253.912 675.697C-820.342 667.515 -1384.5 673.785 -1984.04 721.501" stroke="url(#paint0_linear_2_4804)" stroke-width="0.970675" stroke-miterlimit="10"/>
<path d="M2178.51 -50.8969C1522.81 73.1009 1485.35 307.349 1178.07 490.611C1054.82 564.099 871.739 629.538 622.595 659.02C330.599 693.54 31.0244 682.685 -241.083 678.741C-808.872 670.512 -1373.33 676.364 -1974.45 724.911" stroke="url(#paint1_linear_2_4804)" stroke-width="0.970675" stroke-miterlimit="10"/>
<path d="M2185.38 -48.3224C1516.44 74.6948 1485.9 308.023 1181.6 493.089C1060.04 567.039 877.955 632.332 627.948 661.881C335.161 696.487 35.0191 685.618 -237.842 681.678C-803.436 673.529 -1365.62 679.396 -1964.55 728.522" stroke="url(#paint2_linear_2_4804)" stroke-width="0.970675" stroke-miterlimit="10"/>
<path d="M2191.54 -45.9538C1509.31 76.1639 1485.34 308.434 1184.27 495.436C1064.43 569.856 883.299 634.957 632.667 664.563C339.415 699.169 38.6626 688.451 -234.787 684.561C-798.059 676.555 -1357.76 682.471 -1954.25 732.221" stroke="url(#paint3_linear_2_4804)" stroke-width="0.970675" stroke-miterlimit="10"/>
<path d="M2196.96 -43.7683C1501.49 77.5119 1484.12 308.656 1186.11 497.628C1068.13 572.444 888.031 637.396 636.703 667.187C342.987 701.94 41.936 691.307 -232.005 687.494C-792.757 679.676 -1349.73 685.695 -1943.74 736.104" stroke="url(#paint4_linear_2_4804)" stroke-width="0.970675" stroke-miterlimit="10"/>
<path d="M2201.67 -41.7646C1850.23 17.9912 1639.99 113.324 1503.69 223.488C1390.86 314.786 1327.17 408.451 1188.68 498.635C1072.28 574.449 891.899 640.01 637.851 670.015C348.008 704.158 50.5272 694.182 -220.152 690.524C-781.22 682.956 -1338.55 688.749 -1932.7 740.133" stroke="url(#paint5_linear_2_4804)" stroke-width="0.970675" stroke-miterlimit="10"/>
<path d="M2205.79 -39.9339C2021.82 -9.42179 1858.68 30.9973 1731.49 85.2303C1628.63 129.049 1555.9 177.246 1496.94 225.308C1384.91 316.628 1324.77 410.189 1189.04 500.531C1074.62 576.673 895.258 642.212 640.728 672.391C350.802 706.778 53.2205 696.969 -217.739 693.45C-775.998 686.187 -1330.38 692.174 -1921.38 744.294" stroke="url(#paint6_linear_2_4804)" stroke-width="0.970675" stroke-miterlimit="10"/>
<path d="M2209.29 -38.2742C2022.43 -8.01389 1855.19 32.1773 1725.01 86.9238C1621.27 130.605 1548.11 178.854 1489.53 226.981C1378.38 318.331 1321.8 411.787 1188.66 502.285C1076.26 578.727 897.769 644.29 642.972 674.695C353.181 709.269 55.3442 699.72 -215.615 696.348C-770.982 689.473 -1322.27 695.698 -1909.78 748.588" stroke="url(#paint7_linear_2_4804)" stroke-width="0.970675" stroke-miterlimit="10"/>
<path d="M2212.18 -36.7541C2022.48 -6.75522 1851.24 33.2074 1718.08 88.4666C1613.19 132.021 1539.62 180.32 1481.47 228.512C1371.25 319.899 1317.94 413.26 1187.56 503.914C1077.34 580.634 899.702 646.248 644.66 676.962C355.125 711.823 57.4057 702.493 -213.643 699.279C-765.971 692.79 -1313.94 699.234 -1898.12 752.984" stroke="url(#paint8_linear_2_4804)" stroke-width="0.970675" stroke-miterlimit="10"/>
<path d="M2214.57 -35.3898C2022.03 -5.62522 1846.58 34.1094 1710.58 89.8706C1604.61 133.297 1530.64 181.647 1472.91 229.912C1363.56 321.353 1313.74 414.607 1186.01 505.424C1077.9 582.377 901.073 648.086 645.894 679.117C356.79 714.264 59.1125 705.219 -211.854 702.234C-761.016 696.158 -1305.64 702.957 -1886.11 757.539" stroke="url(#paint9_linear_2_4804)" stroke-width="0.970675" stroke-miterlimit="10"/>
<path d="M2216.41 -34.1629C2021.09 -4.62405 1841.49 34.8911 1702.46 91.1363C1595.41 134.453 1521.07 182.843 1463.74 231.18C1355.25 322.685 1308.69 415.841 1183.74 506.856C1077.86 583.958 901.82 649.835 646.757 681.19C358.198 716.657 60.6575 707.925 -210.118 705.176C-756.153 699.606 -1297.27 706.75 -1873.77 762.178" stroke="url(#paint10_linear_2_4804)" stroke-width="0.970675" stroke-miterlimit="10"/>
<path d="M2217.89 -33.0581C2018.39 -3.52708 1833.6 36.1215 1691.34 93.3627C1583.09 136.917 1508.42 185.757 1451.6 234.558C1346.15 325.08 1302.7 416.998 1182.59 507.084C1078.39 585.132 901.997 651.685 644.546 683.46C353.136 719.404 53.3725 710.55 -220.171 708.001C-758.691 702.992 -1293.39 711.05 -1861.35 766.914" stroke="url(#paint11_linear_2_4804)" stroke-width="0.970675" stroke-miterlimit="10"/>
<path d="M2218.77 -32.0795C2016.49 -2.76541 1827.53 36.6631 1682.2 94.3961C1572.79 137.867 1497.79 186.783 1441.43 235.6C1336.83 326.202 1296.72 418.02 1179.23 508.267C1077.38 586.479 901.86 653.245 644.457 685.398C353.866 721.715 54.4856 713.226 -218.833 710.951C-753.887 706.491 -1284.87 714.956 -1848.62 771.736" stroke="url(#paint12_linear_2_4804)" stroke-width="0.970675" stroke-miterlimit="10"/>
<path d="M2219.27 -31.2233C2014.22 -2.10827 1821.07 37.091 1672.69 95.315C1562.22 138.675 1486.84 187.611 1430.86 236.536C1327.21 327.225 1290.27 418.944 1175.46 509.341C1076.04 587.707 901.11 654.667 643.961 687.26C354.298 723.995 55.3086 715.899 -217.599 713.915C-749.135 710.048 -1276.36 718.938 -1835.74 776.662" stroke="url(#paint13_linear_2_4804)" stroke-width="0.970675" stroke-miterlimit="10"/>
<path d="M2219.47 -30.4155C2011.68 -1.49977 1814.31 37.4703 1662.88 96.1848C1551.37 139.424 1475.55 188.417 1420.04 237.421C1317.11 328.207 1283.51 419.87 1171.4 510.39C1074 588.875 900.227 656.081 643.185 689.124C354.514 726.23 55.8399 718.555 -216.493 716.87C-744.439 713.614 -1267.8 722.947 -1822.69 781.666" stroke="url(#paint14_linear_2_4804)" stroke-width="0.970675" stroke-miterlimit="10"/>
<path d="M2219.3 -29.7291C2008.79 -1.00378 1807.12 37.7464 1652.56 96.942C1539.97 140.069 1463.76 189.11 1408.6 238.202C1306.46 329.093 1276.17 420.591 1166.66 511.324C1071.95 589.915 898.83 657.386 642.073 690.906C354.488 728.446 56.2719 721.19 -215.506 719.831C-739.767 717.213 -1259.05 727.043 -1809.46 786.729" stroke="url(#paint15_linear_2_4804)" stroke-width="0.970675" stroke-miterlimit="10"/>
<path d="M2218.81 -29.1281C2005.58 -0.574977 1799.81 37.954 1642.22 97.6205C1528.57 140.635 1451.91 189.723 1397.14 238.931C1295.79 329.936 1268.74 421.35 1161.92 512.213C1069.41 590.884 897.102 658.638 640.652 692.642C354.296 730.615 56.5681 723.814 -214.604 722.791C-735.171 720.838 -1250.4 731.164 -1796.1 791.861" stroke="url(#paint16_linear_2_4804)" stroke-width="0.970675" stroke-miterlimit="10"/>
<path d="M2218.07 -28.5938C2002.14 -0.213175 1792.15 38.0952 1631.41 98.2326C1516.78 141.135 1439.65 190.279 1385.29 239.547C1284.72 330.673 1260.92 421.994 1156.75 513.005C1066.59 591.774 895.08 659.828 639.01 694.334C353.898 732.758 56.7005 726.431 -213.764 725.724C-730.567 724.453 -1241.87 735.321 -1782.6 797.018" stroke="url(#paint17_linear_2_4804)" stroke-width="0.970675" stroke-miterlimit="10"/>
<path d="M2217.08 -28.1203C1998.45 0.0877719 1784.22 38.2304 1620.41 98.7831C1504.72 141.573 1427.14 190.763 1373.15 240.137C1273.39 331.385 1252.79 422.603 1151.21 513.761C1063.42 592.599 892.735 660.962 637.051 695.997C353.375 734.879 56.7896 728.998 -213.041 728.735C-726.048 728.146 -1233.19 739.518 -1769 802.287" stroke="url(#paint18_linear_2_4804)" stroke-width="0.970675" stroke-miterlimit="10"/>
<path d="M2215.91 -27.7038C1994.58 0.340799 1776.17 38.226 1609.19 99.2852C1492.48 141.971 1414.43 191.199 1360.72 240.669C1261.73 332.056 1244.38 423.171 1145.54 514.475C1060.11 593.391 890.248 662.063 635.01 697.626C352.735 736.975 56.604 731.631 -212.454 731.711C-721.61 731.84 -1224.65 743.761 -1755.27 807.59" stroke="url(#paint19_linear_2_4804)" stroke-width="0.970675" stroke-miterlimit="10"/>
<path d="M2214.54 -27.3307C1990.54 0.559387 1767.92 38.2237 1597.77 99.7526C1480.01 142.371 1401.51 191.609 1348.29 241.175C1250.06 332.71 1235.91 423.721 1139.75 515.162C1056.81 594.11 887.668 663.136 632.853 699.255C351.922 739.071 56.5514 734.235 -211.756 734.685C-717.046 735.513 -1215.89 747.992 -1741.48 812.864" stroke="url(#paint20_linear_2_4804)" stroke-width="0.970675" stroke-miterlimit="10"/>
<path d="M2213.03 -26.9992C1986.35 0.745556 1759.52 38.1981 1586.27 100.159C1467.52 142.628 1388.48 191.949 1335.66 241.619C1238.13 333.329 1227.24 424.201 1133.72 515.788C1053.01 594.777 884.8 664.147 630.551 700.819C351.063 741.12 56.3897 736.801 -211.181 737.639C-712.577 739.203 -1207.26 752.257 -1727.72 818.234" stroke="url(#paint21_linear_2_4804)" stroke-width="0.970675" stroke-miterlimit="10"/>
<path d="M2211.43 -26.6919C1982.06 0.916638 1751.06 38.1481 1574.55 100.561C1454.86 142.916 1375.43 192.282 1322.9 242.058C1226.15 333.888 1218.45 424.683 1127.6 516.406C1049.33 595.435 881.941 665.149 628.109 702.385C350.143 743.178 56.137 739.413 -210.59 740.612C-707.973 742.9 -1198.62 756.54 -1713.81 823.602" stroke="url(#paint22_linear_2_4804)" stroke-width="0.970675" stroke-miterlimit="10"/>
<path d="M2209.76 -26.4003C1977.73 1.07188 1742.53 38.0918 1562.91 100.936C1442.18 143.187 1362.13 192.591 1309.99 242.48C1214.08 334.466 1209.57 425.158 1121.37 517.017C1045.47 596.069 878.959 666.134 625.643 703.915C349.219 745.173 55.9113 741.925 -210.087 743.557C-703.719 746.581 -1190.02 760.794 -1699.9 828.959" stroke="url(#paint23_linear_2_4804)" stroke-width="0.970675" stroke-miterlimit="10"/>
<path d="M2208.04 -26.1239C1973.29 1.22144 1733.97 38.0383 1551.2 101.305C1429.44 143.452 1348.9 192.893 1297.1 242.887C1201.95 335.02 1200.64 425.625 1115.07 517.611C1041.54 596.704 875.891 667.121 623.049 705.501C348.168 747.224 55.5919 744.52 -209.655 746.557C-699.531 750.306 -1181.55 765.113 -1686.05 834.351" stroke="url(#paint24_linear_2_4804)" stroke-width="0.970675" stroke-miterlimit="10"/>
<path d="M2206.32 -25.8394C1968.97 1.37844 1725.45 37.9565 1539.45 101.674C1416.72 143.716 1335.65 193.194 1284.36 243.291C1189.82 335.617 1191.73 426.091 1108.87 518.204C1037.7 597.328 872.932 668.088 620.578 707.048C347.231 749.245 55.3874 747.084 -209.081 749.527C-694.806 753.999 -1172.91 769.372 -1672.07 839.757" stroke="url(#paint25_linear_2_4804)" stroke-width="0.970675" stroke-miterlimit="10"/>
<path d="M2204.64 -25.5509C1965.93 1.38662 1719.87 37.4704 1530.94 100.98C1407.43 142.49 1325.24 191.589 1273.8 241.484C1177.28 335.093 1183.45 426.513 1101.66 519.845C1032.87 598.335 869.799 668.86 620.351 708.295C351.893 750.745 62.9514 749.543 -197.948 752.384C-683.758 757.667 -1160.21 773.037 -1658.21 845.138" stroke="url(#paint26_linear_2_4804)" stroke-width="0.970675" stroke-miterlimit="10"/>
<path d="M2203 -25.2452C1961.64 1.58353 1711.47 37.4557 1519.44 101.37C1394.99 142.775 1312.22 191.912 1261.14 241.92C1165.33 335.703 1174.76 427.019 1095.64 520.477C1029.18 598.999 867.022 669.857 618.041 709.827C350.987 752.733 62.8612 752.073 -197.395 755.311C-679.39 761.308 -1151.72 777.225 -1644.28 850.481" stroke="url(#paint27_linear_2_4804)" stroke-width="0.970675" stroke-miterlimit="10"/>
<path d="M2201.49 -24.9123C1957.5 1.76207 1703.17 37.4775 1507.85 101.787C1382.41 143.089 1299.09 192.253 1248.37 242.376C1153.26 336.342 1165.89 427.572 1089.54 521.111C1025.41 599.674 864.108 670.866 615.569 711.434C349.984 754.785 62.5524 754.677 -196.849 758.292C-675.045 764.986 -1143.3 781.522 -1630.45 855.85" stroke="url(#paint28_linear_2_4804)" stroke-width="0.970675" stroke-miterlimit="10"/>
<path d="M2200.06 -24.5434C1953.39 2.06801 1694.98 37.5174 1496.49 102.24C1370.11 143.438 1286.37 192.612 1235.83 242.867C1141.44 337.026 1157.35 428.107 1083.67 521.781C1021.85 600.376 861.464 671.892 613.304 713.031C349.173 756.811 62.4913 757.217 -196.283 761.247C-670.731 768.628 -1135.09 785.73 -1616.68 861.173" stroke="url(#paint29_linear_2_4804)" stroke-width="0.970675" stroke-miterlimit="10"/>
<path d="M2198.83 -24.1392C1950.8 2.22895 1689.91 37.2577 1488.58 101.673C1356.62 143.904 1270.03 194.893 1219.96 246.872C1129.93 340.374 1148.51 430.546 1077.25 523.548C1017.55 601.595 858.588 672.732 613.353 714.246C347.183 759.301 57.3925 759.881 -204.06 764.343C-672.23 772.333 -1129.68 790.348 -1603.02 866.409" stroke="url(#paint30_linear_2_4804)" stroke-width="0.970675" stroke-miterlimit="10"/>
<path d="M2197.81 -23.675C1947.12 2.60308 1682.23 37.4201 1477.68 102.222C1344.71 144.331 1257.53 195.34 1207.86 247.459C1118.57 341.154 1140.41 431.195 1071.87 524.307C1014.37 602.414 856.373 673.848 611.46 715.896C346.7 761.361 57.5738 762.455 -203.295 767.314C-667.892 775.955 -1121.34 794.462 -1589.41 871.74" stroke="url(#paint31_linear_2_4804)" stroke-width="0.970675" stroke-miterlimit="10"/>
<path d="M2197 -23.1468C1944.95 2.86108 1677.79 37.2569 1470.31 101.78C1336.62 143.357 1248.03 193.981 1198.12 245.881C1108.27 339.305 1132.04 428.797 1069.28 521.4C1015.53 600.678 860.708 673.642 611.867 717.213C345.394 763.896 52.6657 765.112 -210.748 770.413C-668.828 779.669 -1116.51 799.121 -1575.86 876.887" stroke="url(#paint32_linear_2_4804)" stroke-width="0.970675" stroke-miterlimit="10"/>
<path d="M2196.44 -22.5527C1941.7 3.40201 1670.62 37.5591 1459.91 102.442C1325.26 143.907 1236.06 194.542 1186.52 246.574C1097.49 340.192 1124.37 429.574 1064.28 522.269C1012.84 601.644 859.033 674.841 610.511 718.947C345.324 766.013 53.2157 767.726 -209.709 773.395C-664.407 783.213 -1108.46 803.203 -1562.51 882.023" stroke="url(#paint33_linear_2_4804)" stroke-width="0.970675" stroke-miterlimit="10"/>
<path d="M2196.19 -21.8773C1938.78 3.99706 1663.77 37.9432 1449.82 103.195C1314.25 144.539 1224.51 195.194 1175.23 247.35C1086.87 341.163 1117.02 430.426 1059.65 523.195C1010.53 602.649 857.706 676.08 609.432 720.703C345.424 768.144 53.9259 770.325 -208.545 776.336C-660.007 786.752 -1100.51 807.254 -1549.26 887.1" stroke="url(#paint34_linear_2_4804)" stroke-width="0.970675" stroke-miterlimit="10"/>
<path d="M2196.26 -21.1168C1937.53 4.53322 1660.38 38.0583 1443.49 102.988C1301.85 145.412 1209.69 197.662 1161.34 251.619C1077.85 344.776 1109.57 433.113 1054.7 525.24C1006.77 605.589 849.805 680.111 597.712 724.438C340.397 769.642 58.4521 772.867 -197.396 779.121C-648.826 790.062 -1088.84 810.512 -1536.18 892.097" stroke="url(#paint35_linear_2_4804)" stroke-width="0.970675" stroke-miterlimit="10"/>
<path d="M2196.68 -20.2528C1935.29 5.30823 1654.25 38.6318 1434.06 103.914C1291.44 146.208 1198.64 198.434 1150.72 252.551C1068.15 345.93 1103.05 434.122 1050.82 526.317C1005.3 606.773 849.252 681.502 597.122 726.313C340.727 771.893 59.269 775.487 -196.207 782.038C-644.423 793.522 -1081.26 814.423 -1523.32 897.025" stroke="url(#paint36_linear_2_4804)" stroke-width="0.970675" stroke-miterlimit="10"/>
<path d="M2197.52 -19.2942C1934.74 6.07075 1651.64 38.9646 1428.68 103.924C1285.41 145.624 1191.39 197.384 1142.71 251.405C1057.33 346.119 1097.93 435.197 1047.02 528.539C1003.33 608.624 848.974 682.604 599.161 727.829C340.713 774.62 55.6072 778.209 -202.695 785.156C-645.042 797.086 -1076.5 818.797 -1510.53 901.874" stroke="url(#paint37_linear_2_4804)" stroke-width="0.970675" stroke-miterlimit="10"/>
<path d="M2198.77 -18.2127C1928.07 7.56634 1633.78 41.2461 1406.19 109.29C1271.16 149.656 1182.33 198.879 1135 250.395C1046.73 346.353 1092.91 436.419 1043.59 530.779C1001.98 610.376 849.057 683.98 601.527 729.484C346.552 776.366 64.186 780.728 -191.435 787.886C-634.023 800.315 -1065.34 821.859 -1497.99 906.62" stroke="url(#paint38_linear_2_4804)" stroke-width="0.970675" stroke-miterlimit="10"/>
<path d="M2200.5 -17.0044C1759.32 24.4314 1267.33 95.7961 1125.83 251.651C1038.43 347.807 1087.81 437.748 1041.4 532.186C1002.11 611.892 850.131 685.633 602.34 731.54C347.822 778.666 65.7748 783.353 -189.884 790.819C-629.389 803.655 -1057.97 825.543 -1485.7 911.279" stroke="url(#paint39_linear_2_4804)" stroke-width="0.970675" stroke-miterlimit="10"/>
<path d="M2202.71 -15.6758C1756.94 25.69 1250.12 97.6206 1114.1 256.371C1032.2 351.971 1083.47 440.826 1039.11 534.692C1001.65 613.958 851.135 687.154 605.327 733.287C348.422 781.473 62.9292 786.207 -195.744 794.016C-629.963 807.129 -1053.44 829.701 -1473.61 915.835" stroke="url(#paint40_linear_2_4804)" stroke-width="0.970675" stroke-miterlimit="10"/>
<path d="M2205.45 -14.2018C1762.48 26.3708 1245.62 96.9703 1107.85 255.745C1025.16 351.037 1077.91 439.517 1039.51 532.7C1006.34 613.228 859.166 687.519 609.054 735.106C355.445 783.348 71.8972 788.678 -184.102 796.625C-618.821 810.12 -1042.82 832.466 -1461.75 920.269" stroke="url(#paint41_linear_2_4804)" stroke-width="0.970675" stroke-miterlimit="10"/>
<path d="M2208.74 -12.5722C1765.35 27.5351 1237.48 97.4275 1100.4 257.376C1018.52 352.878 1074.57 441.182 1038.92 534.42C1007.93 615.124 861.959 689.472 611.152 737.401C357.815 785.826 74.1915 791.401 -181.943 799.557C-614.1 813.317 -1035.72 835.91 -1450.18 924.593" stroke="url(#paint42_linear_2_4804)" stroke-width="0.970675" stroke-miterlimit="10"/>
<path d="M2212.63 -10.7901C1764.45 29.241 1222.23 99.6808 1090.89 262.5C1014.33 357.415 1071.94 444.702 1038.5 537.317C1008.98 619.021 858.889 694.282 603.376 741.779C349.697 788.949 68.5789 794.445 -187.243 802.771C-614.234 816.618 -1031.42 839.791 -1438.87 928.795" stroke="url(#paint43_linear_2_4804)" stroke-width="0.970675" stroke-miterlimit="10"/>
<path d="M2217.15 -8.84591C1770.92 30.5168 1220.66 99.4631 1086.5 262.273C1007.2 358.52 1071.32 446.55 1039.11 540.283C1026.33 577.558 996.415 617.11 919.153 652.526C839.459 689.019 728.462 721.365 608.722 743.799C351.872 791.908 67.1595 797.307 -192.101 805.897C-614.344 819.888 -1027.13 843.559 -1427.83 932.833" stroke="url(#paint44_linear_2_4804)" stroke-width="0.970675" stroke-miterlimit="10"/>
<path d="M2222.32 -6.7227C1775.97 32.1566 1214.29 100.474 1081.06 264.362C1002.63 360.814 1070.09 448.726 1040.56 542.426C1028.91 579.691 1000.23 619.277 923.4 654.825C844.209 691.466 732.239 723.914 612.432 746.374C355.151 794.59 70.3957 800.107 -189.416 808.818C-609.38 822.912 -1020.3 846.652 -1417.07 936.785" stroke="url(#paint45_linear_2_4804)" stroke-width="0.970675" stroke-miterlimit="10"/>
<path d="M2228.17 -4.411C1783.84 33.8463 1214.29 100.799 1077.98 264.548C996.681 362.198 1069.82 451.123 1042.67 545.701C1032.07 582.668 1004.25 621.983 928.629 657.394C850.829 693.807 737.645 726.414 619.111 748.693C363.811 796.695 81.2441 802.689 -176.974 811.426C-597.947 825.661 -1010.51 848.92 -1406.75 940.568" stroke="url(#paint46_linear_2_4804)" stroke-width="0.970675" stroke-miterlimit="10"/>
<path d="M2234.78 -1.9122C1787.16 36.1354 1200.58 103.6 1071.25 270.213C997.131 365.693 1067.78 452.397 1046.74 544.639C1038.05 582.672 1012.17 623.417 934.229 660.082C856.807 696.481 744.393 728.729 626.272 751.059C367.587 799.976 80.5614 805.641 -181.112 814.579C-597.711 828.77 -1006.39 852.323 -1396.72 944.204" stroke="url(#paint47_linear_2_4804)" stroke-width="0.970675" stroke-miterlimit="10"/>
<path d="M2242.13 0.792215C1794.74 38.3655 1196.27 105.162 1068.09 272.823C994.935 368.494 1068.92 455.057 1050.7 547.262C1043.18 585.25 1018.6 626.049 941.117 662.837C864.201 699.377 750.346 731.678 632.097 753.962C372.5 802.873 84.8012 808.552 -177.644 817.485C-592.409 831.611 -1000.09 855.048 -1386.97 947.676" stroke="url(#paint48_linear_2_4804)" stroke-width="0.970675" stroke-miterlimit="10"/>
<path d="M2250.27 3.70971C1806.19 40.5465 1197.38 106.123 1067.28 273.629C991.959 370.608 1071.62 457.943 1055.4 551.124C1048.86 588.751 1024.98 629.31 948.813 665.936C873.084 702.323 757.784 734.541 640.696 756.673C383.052 805.391 95.9706 811.319 -164.678 820.115C-580.657 834.121 -990.756 856.882 -1377.63 950.978" stroke="url(#paint49_linear_2_4804)" stroke-width="0.970675" stroke-miterlimit="10"/>
<path d="M2259.13 6.80583C1815.57 43.8028 1208.13 109.498 1077.1 276.583C1001.2 373.411 1080 460.706 1063.59 553.778C1056.96 591.479 1033.06 632.101 957.418 668.833C882.323 705.234 764.776 737.247 647.927 759.151C389.546 807.564 102.895 813.763 -158.274 822.788C-573.397 837.161 -982.73 860.226 -1368.49 954.08" stroke="url(#paint50_linear_2_4804)" stroke-width="0.970675" stroke-miterlimit="10"/>
<path d="M2268.21 9.84556C1822.57 47.8614 1227.74 114.853 1096.27 281.342C1021.12 376.496 1092.34 462.973 1073.39 554.69C1065.53 592.888 1040.86 633.795 964.444 670.903C889.232 707.487 769.124 739.234 651.578 760.887C390.659 808.971 104.122 815.622 -159.643 825.37C-571.877 840.651 -976.608 865.25 -1359.66 957.264" stroke="url(#paint51_linear_2_4804)" stroke-width="0.970675" stroke-miterlimit="10"/>
<path d="M2277.4 12.8153C1836.27 51.2313 1260.53 117.695 1119.11 280.54C1035.02 377.369 1106.41 465.977 1080.77 559.574C1070.55 596.823 1043.59 636.302 970.15 672.313C895.492 708.939 771.336 740.736 653.826 762.136C396.364 808.983 115.313 816.764 -145.334 827.065C-559.597 843.41 -965.278 868.812 -1350.7 960.396" stroke="url(#paint52_linear_2_4804)" stroke-width="0.970675" stroke-miterlimit="10"/>
<path d="M2286.65 15.7041C1845.33 54.8829 1278.37 122.457 1136.73 284.594C1053.67 379.694 1116.9 467.033 1087.98 559.306C1076.19 596.946 1048.02 636.64 973.931 672.936C898.612 709.828 772.898 741.226 654.629 762.593C395.86 809.394 114.11 817.804 -148.264 828.969C-559.172 846.446 -959.939 873.588 -1341.75 963.536" stroke="url(#paint53_linear_2_4804)" stroke-width="0.970675" stroke-miterlimit="10"/>
<path d="M2296.02 18.5235C1854.7 58.4006 1296.16 127.05 1153.63 288.312C1071.31 381.466 1125.36 467.778 1093.87 558.433C1080.7 596.398 1050.83 636.374 976.49 672.889C901.268 709.835 772.445 741.196 654.079 762.546C399.689 808.36 123.177 818 -135.379 829.859C-548.114 848.78 -949.502 877.051 -1332.85 966.672" stroke="url(#paint54_linear_2_4804)" stroke-width="0.970675" stroke-miterlimit="10"/>
<path d="M2305.43 21.2805C1866.35 61.5888 1319.37 130.406 1171.66 289.629C1086.1 381.857 1133.97 468.005 1098.32 558.012C1083.25 596.033 1051.53 635.847 977.176 672.271C901.93 709.072 772.228 740.202 654.385 761.495C401.593 807.172 127.225 817.952 -130.617 830.74C-542.525 851.153 -941.9 881.008 -1323.67 969.821" stroke="url(#paint55_linear_2_4804)" stroke-width="0.970675" stroke-miterlimit="10"/>
<path d="M2314.89 23.9666C1882.25 64.2918 1349.98 132.062 1192.1 287.469C1098.89 379.351 1141.63 466.236 1102.11 556.065C1085.28 594.368 1051.78 634.365 976.504 670.894C902.73 706.697 778.059 736.691 664.011 757.97C413.004 804.78 138.588 817.093 -119.275 830.925C-532.702 853.097 -932.127 884.313 -1314.91 972.958" stroke="url(#paint56_linear_2_4804)" stroke-width="0.970675" stroke-miterlimit="10"/>
<path d="M2324.41 26.5909C1891.51 67.4886 1368.15 135.832 1206.99 290.223C1111.62 381.572 1149.44 468.412 1102.58 558.165C1083.17 595.313 1047.63 633.77 974.804 668.95C900.722 704.755 773.879 734.907 659.762 756.204C408.034 803.18 134.251 816.597 -125.095 831.689C-534.25 855.496 -928.213 888.82 -1305.88 976.084" stroke="url(#paint57_linear_2_4804)" stroke-width="0.970675" stroke-miterlimit="10"/>
<path d="M2333.93 29.1607C1903.88 70.3226 1390.49 138.472 1223.33 290.655C1124.32 380.827 1155.08 467.335 1103.58 556.207C1082.09 593.321 1044.59 631.571 971.465 666.526C896.945 702.143 770.362 732.148 656.473 753.616C407.049 800.623 135.79 815.44 -122.334 831.704C-530.081 857.398 -921.573 892.576 -1296.93 979.236" stroke="url(#paint58_linear_2_4804)" stroke-width="0.970675" stroke-miterlimit="10"/>
<path d="M2343.48 31.6799C1919.45 72.7429 1420.75 139.527 1243 287.688C1135.62 377.2 1160.11 464.306 1104.15 552.831C1080.56 590.156 1041.2 628.48 966.966 663.459C891.27 699.146 764.291 729.261 650.256 750.948C406.196 797.316 140.824 813.64 -112.766 830.93C-521.407 858.797 -912.499 895.65 -1287.86 982.354" stroke="url(#paint59_linear_2_4804)" stroke-width="0.970675" stroke-miterlimit="10"/>
<path d="M2353.02 34.153C1932.03 75.3429 1442.44 141.783 1258.48 287.656C1147.23 375.811 1164.2 462.478 1103.3 550.023C1077.35 587.28 1035.92 625.289 961.289 659.998C884.88 695.525 758.617 725.518 644.979 747.447C403.521 793.962 140.862 811.803 -111.22 830.399C-517.974 860.395 -906.282 899.273 -1278.82 985.506" stroke="url(#paint60_linear_2_4804)" stroke-width="0.970675" stroke-miterlimit="10"/>
<path d="M2362.53 36.5838C1942.05 78.1239 1459.47 144.677 1270.96 289.305C1158.99 375.213 1167.11 460.252 1102.36 545.823C1074.05 583.229 1030.38 621.269 954.927 655.955C877.632 691.505 750.479 721.666 636.488 743.896C395.45 790.907 133.414 810.177 -119.229 830.318C-520.899 862.371 -903.277 903.508 -1269.99 988.636" stroke="url(#paint61_linear_2_4804)" stroke-width="0.970675" stroke-miterlimit="10"/>
<path d="M2372 38.9701C1955.41 80.487 1479.86 146.635 1285.38 288.81C1169.81 373.305 1169.7 457.738 1099.86 542.275C1069.04 579.532 1023.16 617.248 947.153 651.611C868.971 686.974 743.033 717.055 629.422 739.618C391.357 786.875 132.2 807.806 -118.587 829.377C-517.811 863.737 -897.597 907 -1261 991.771" stroke="url(#paint62_linear_2_4804)" stroke-width="0.970675" stroke-miterlimit="10"/>
<path d="M2381.43 41.3235C1965.53 83.1078 1496.59 149.235 1296.64 290.024C1180.05 372.111 1171.01 454.916 1097.37 537.379C1063.98 574.759 1015.91 612.415 938.588 646.712C858.68 682.166 733.81 712.386 619.435 735.415C387.102 782.202 134.405 804.764 -111.395 827.568C-510.689 864.612 -889.477 909.891 -1252 994.873" stroke="url(#paint63_linear_2_4804)" stroke-width="0.970675" stroke-miterlimit="10"/>
<path d="M2390.82 43.648C1978.19 85.3945 1517.25 150.884 1310.17 289.091C1189.43 369.686 1172.22 451.884 1093.53 533.123C1057.42 570.328 1007.09 607.587 929.139 641.516C848.154 676.776 724.849 706.968 610.886 730.43C381.671 777.597 132.02 801.856 -111.729 826.197C-508.202 865.782 -883.923 913.291 -1243.07 998.053" stroke="url(#paint64_linear_2_4804)" stroke-width="0.970675" stroke-miterlimit="10"/>
<path d="M2400.19 45.9376C1990.88 87.6006 1537.64 152.437 1323.36 287.989C1198.38 367.056 1173.13 448.546 1088.98 528.664C1050.14 565.639 997.491 602.512 918.886 636.063C836.748 671.121 715.311 701.292 601.697 725.16C375.643 772.725 129.141 798.724 -112.361 824.64C-505.812 866.864 -878.466 916.64 -1234.1 1001.19" stroke="url(#paint65_linear_2_4804)" stroke-width="0.970675" stroke-miterlimit="10"/>
<path d="M2409.34 48.214C2007.1 89.4088 1564.11 152.67 1340.83 283.864C1208.11 361.885 1174.72 443.385 1084.86 522.963C1043.13 559.954 987.919 596.732 908.201 630.17C827.357 664.069 711.526 693.436 602.079 717.387C374.055 767.276 123.522 795.656 -122.194 823.935C-509.09 868.514 -875.848 920.631 -1225.11 1004.33" stroke="url(#paint66_linear_2_4804)" stroke-width="0.970675" stroke-miterlimit="10"/>
<path d="M2418.47 50.4625C2019.28 91.539 1583.59 154.085 1353.44 282.532C1216.57 358.944 1174.53 439.63 1079.27 517.986C1034.65 554.693 977.086 591.05 896.6 624.083C814.518 657.779 700.547 687.171 591.61 711.573C366.951 761.849 119.781 792.159 -123.298 822.154C-506.781 869.515 -870.401 923.88 -1216.21 1007.47" stroke="url(#paint67_linear_2_4804)" stroke-width="0.970675" stroke-miterlimit="10"/>
<path d="M2427.48 52.6937C2031.4 93.6425 1602.86 155.42 1365.75 281.039C1224.59 355.823 1173.94 435.641 1073.2 512.748C970.524 591.336 808.655 653.172 580.657 705.489C359.289 756.28 115.647 788.454 -124.923 820.221C-504.452 870.388 -864.879 927.073 -1207.19 1010.61" stroke="url(#paint68_linear_2_4804)" stroke-width="0.970675" stroke-miterlimit="10"/>
<path d="M2436.34 54.92C2043.31 95.7141 1621.74 156.788 1377.74 279.532C1232.29 352.68 1172.9 431.586 1066.64 507.435C958.106 584.903 793.289 646.61 569.191 699.311C351.165 750.589 111.076 784.701 -126.598 818.246C-502.138 871.245 -859.349 930.222 -1198.22 1013.74" stroke="url(#paint69_linear_2_4804)" stroke-width="0.970675" stroke-miterlimit="10"/>
<path d="M2445.07 57.1457C2052.62 98.0623 1636.35 158.786 1385.86 279.67C1236.49 351.732 1168.69 430.195 1054.88 505.153C940.766 580.311 772.617 641.111 555.567 693.379C343.201 744.487 109.96 780.237 -122.034 815.199C-495.609 871.422 -851.599 932.803 -1189.23 1016.88" stroke="url(#paint70_linear_2_4804)" stroke-width="0.970675" stroke-miterlimit="10"/>
<path d="M2453.61 59.3813C2064.23 100.08 1654.5 160.066 1397.27 277.902C1243.56 348.31 1166.76 425.762 1047.47 499.38C799.991 652.263 336.018 739.079 -124.369 812.953C-493.22 872.14 -845.862 935.858 -1180.27 1020.02" stroke="url(#paint71_linear_2_4804)" stroke-width="0.970675" stroke-miterlimit="10"/>
<path d="M2462.06 61.5753C2075.57 102.12 1672.21 161.369 1408.44 276.112C1250.28 344.875 1164.44 421.263 1039.7 493.641C782.332 642.994 327.22 733.139 -126.751 810.664C-490.716 872.823 -840.115 938.869 -1171.31 1023.15" stroke="url(#paint72_linear_2_4804)" stroke-width="0.970675" stroke-miterlimit="10"/>
<path d="M2470.3 63.7957C2086.67 104.159 1689.56 162.627 1419.4 274.294C1257 341.429 1161.99 416.67 1031.74 487.818C764.652 633.642 317.856 727.2 -129.161 808.337C-488.064 873.457 -834.135 941.83 -1162.36 1026.29" stroke="url(#paint73_linear_2_4804)" stroke-width="0.970675" stroke-miterlimit="10"/>
<path d="M2478.32 66.0269C2101.09 105.844 1712.38 162.957 1436.81 269.918C1267.07 335.788 1161.96 410.496 1025.31 481.026C749.886 623.168 313.198 720.246 -125.679 804.806C-481.135 873.295 -826.137 944.262 -1153.36 1029.42" stroke="url(#paint74_linear_2_4804)" stroke-width="0.970675" stroke-miterlimit="10"/>
<path d="M2486.14 68.2702C2111.69 107.916 1728.73 164.331 1447.66 268.13C1273.64 332.391 1159.48 405.807 1017.22 475.116C732.299 613.908 302.868 714.324 -128.356 802.391C-478.251 873.847 -819.79 947.113 -1144.41 1032.56" stroke="url(#paint75_linear_2_4804)" stroke-width="0.970675" stroke-miterlimit="10"/>
<path d="M2493.73 70.5405C2122.05 110.015 1744.6 165.735 1458.37 266.359C1280.04 329.047 1156.86 401.172 1009.09 469.223C714.744 604.774 292.465 708.445 -131.049 799.983C-475.213 874.368 -813.211 949.906 -1135.46 1035.69" stroke="url(#paint76_linear_2_4804)" stroke-width="0.970675" stroke-miterlimit="10"/>
<path d="M2501.08 72.8226C2132.19 112.126 1759.97 167.197 1468.99 264.599C1286.4 325.724 1154.32 396.465 1000.99 463.349C697.235 595.796 282.008 702.605 -133.691 797.585C-471.995 874.88 -806.366 952.652 -1126.49 1038.83" stroke="url(#paint77_linear_2_4804)" stroke-width="0.970675" stroke-miterlimit="10"/>
<path d="M2508.19 75.1232C2142.08 114.282 1774.92 168.687 1479.5 262.894C1292.61 322.5 1151.77 391.875 993.021 457.556C679.687 587.07 271.699 696.816 -136.253 795.221C-468.542 875.371 -799.285 955.304 -1117.54 1041.95" stroke="url(#paint78_linear_2_4804)" stroke-width="0.970675" stroke-miterlimit="10"/>
<path d="M2515.11 77.4354C2149.79 116.724 1785.43 170.894 1485.27 262.695C1297.12 320.212 1149.21 387.305 987.104 451.054C821.858 515.999 630.685 576.417 439.883 634.448C253.331 691.194 55.3516 743.601 -145.657 794.684C-469.597 877.013 -794.185 958.612 -1108.58 1045.08" stroke="url(#paint79_linear_2_4804)" stroke-width="0.970675" stroke-miterlimit="10"/>
<path d="M2521.59 79.8395C2159.24 118.956 1799.33 172.517 1495.64 261.09C1303.13 317.235 1147.07 382.822 979.467 445.467C808.752 509.273 616.651 569.141 427.956 628.01C243.527 685.54 49.4234 739.69 -147.807 792.498C-465.68 877.545 -786.53 961.205 -1099.68 1048.22" stroke="url(#paint80_linear_2_4804)" stroke-width="0.970675" stroke-miterlimit="10"/>
<path d="M2527.86 82.2517C2168.46 121.268 1812.75 174.214 1505.98 259.583C1309.17 314.354 1145.06 378.454 972.096 440.031C795.819 502.742 603.238 561.958 416.367 621.703C233.898 680.044 43.9039 735.891 -149.801 790.39C-461.555 878.091 -778.596 963.756 -1090.68 1051.34" stroke="url(#paint81_linear_2_4804)" stroke-width="0.970675" stroke-miterlimit="10"/>
<path d="M2533.84 84.7045C2177.43 123.647 1825.66 175.989 1516.33 258.197C1315.25 311.631 1143.31 374.215 964.952 434.769C878.04 464.281 789.112 493.233 695.487 520.635C593.577 550.479 501.65 583.945 405.169 615.542C224.52 674.696 38.9512 732.297 -151.537 788.347C-457.17 878.666 -770.408 966.272 -1081.73 1054.47" stroke="url(#paint82_linear_2_4804)" stroke-width="0.970675" stroke-miterlimit="10"/>
<path d="M2539.53 87.2016C2184 126.346 1834.47 178.428 1521.54 258.252C1319.25 309.878 1141.76 370.126 960.603 428.945C870.645 458.138 779.228 486.913 683.82 514.342C580.511 544.048 488.478 578.138 392.619 610.257C215.829 669.458 36.1239 727.824 -147.926 784.865C-448.978 878.217 -760.134 968.238 -1072.8 1057.59" stroke="url(#paint83_linear_2_4804)" stroke-width="0.970675" stroke-miterlimit="10"/>
<path d="M2544.77 89.7571C2192.43 128.891 1846.45 180.37 1531.86 257.1C1325.24 307.499 1140.7 366.235 954.282 424.112C861.972 452.746 768.727 481.15 672.273 508.385C568.331 537.731 476.784 572.198 382.385 604.56C207.119 664.594 31.3385 724.43 -149.127 783.052C-444.18 878.822 -751.388 970.674 -1063.87 1060.72" stroke="url(#paint84_linear_2_4804)" stroke-width="0.970675" stroke-miterlimit="10"/>
<path d="M2549.73 92.3562C2200.67 131.542 1858.06 182.392 1542.28 256.108C1331.47 305.314 1140.02 362.556 948.477 419.527C853.914 447.657 758.919 475.662 661.34 502.766C556.892 531.769 465.718 566.577 372.597 599.166C198.715 659.996 26.6961 721.367 -150.237 781.425C-439.189 879.485 -742.384 973.123 -1054.93 1063.86" stroke="url(#paint85_linear_2_4804)" stroke-width="0.970675" stroke-miterlimit="10"/>
<path d="M2554.34 95.0224C2208.7 134.259 1869.35 184.517 1552.86 255.289C1337.93 303.357 1139.77 359.113 943.21 415.222C846.486 442.838 749.782 470.498 651.258 497.353C546.239 526.059 455.384 561.172 363.589 593.961C190.978 655.623 22.6041 718.394 -150.846 779.88C-433.909 880.213 -733.139 975.555 -1045.98 1066.95" stroke="url(#paint86_linear_2_4804)" stroke-width="0.970675" stroke-miterlimit="10"/>
<path d="M2558.56 97.7442C2219.74 136.732 1886.38 185.783 1572.35 252.758C1350.93 299.983 1144.47 354.724 941.161 410.49C841.629 437.803 742.571 465.295 642.233 492.286C535.885 520.908 444.773 556.519 353.547 589.72C180.384 652.743 14.4242 717.436 -157.251 780.803C-432.298 882.227 -726.394 978.921 -1037.07 1070.08" stroke="url(#paint87_linear_2_4804)" stroke-width="0.970675" stroke-miterlimit="10"/>
<path d="M2562.41 100.532C2227.22 139.714 1897.06 188.147 1583.36 252.389C1357.94 298.575 1145.22 351.9 937.137 406.857C835.663 433.664 735.022 460.828 633.735 487.715C527.027 516.057 436.033 551.874 345.967 585.239C173.661 649.052 11.3624 715.053 -157.052 779.74C-425.857 883.179 -717.295 981.361 -1028.12 1073.19" stroke="url(#paint88_linear_2_4804)" stroke-width="0.970675" stroke-miterlimit="10"/>
<path d="M2565.82 103.4C2234.42 142.83 1907.5 190.59 1594.57 252.215C1365.15 297.416 1146.74 349.258 933.842 403.525C830.536 429.861 728.34 456.734 626.159 483.552C519.09 511.65 428.202 547.583 339.198 581.095C167.659 645.67 8.89674 712.926 -156.254 778.86C-420.619 884.409 -706.347 983.593 -1019.2 1076.3" stroke="url(#paint89_linear_2_4804)" stroke-width="0.970675" stroke-miterlimit="10"/>
<path d="M2568.83 106.334C2165.59 155.295 1770.27 215.891 1394.28 294.58C1250.21 324.731 1109.7 357.072 971.872 390.684C838.057 423.303 692.771 456.26 568.942 493.017C445.814 529.598 336.506 575.178 232.771 616.703C126.468 659.266 25.0385 702.771 -77.8381 745.985C-360.591 864.785 -663.792 976.462 -1010.3 1079.43" stroke="url(#paint90_linear_2_4804)" stroke-width="0.970675" stroke-miterlimit="10"/>
<path d="M2571.41 109.351C2172.11 158.967 1778.68 218.407 1402.35 293.987C1255.52 323.499 1111.65 355.142 970.873 388.317C835.269 420.274 687.895 452.98 563.32 489.73C439.836 526.166 330.823 571.942 228.844 613.69C123.38 656.818 23.799 701.025 -77.216 744.961C-354.814 865.655 -652.989 978.866 -1001.39 1082.53" stroke="url(#paint91_linear_2_4804)" stroke-width="0.970675" stroke-miterlimit="10"/>
<path d="M2573.58 112.442C2175.69 163.189 1781.91 221.868 1403.51 295.145C1252.91 324.295 1105.34 355.459 960.799 388.639C826.325 419.438 682.35 451.261 559.462 487.239C311.289 559.951 118.708 656.516 -71.2419 742.002C-345.243 865.243 -639.853 980.657 -992.458 1085.63" stroke="url(#paint92_linear_2_4804)" stroke-width="0.970675" stroke-miterlimit="10"/>
<path d="M2575.25 115.635C2181.68 167.333 1790.19 224.709 1412.37 295.189C1259.08 323.746 1108.54 354.434 961.37 387.132C825.146 417.395 680.011 448.997 556.305 485.023C306.454 557.778 116.559 655.193 -69.5048 741.531C-338.661 866.423 -628.486 983.181 -983.564 1088.71" stroke="url(#paint93_linear_2_4804)" stroke-width="0.970675" stroke-miterlimit="10"/>
<path d="M2576.47 118.909C2184.54 172.108 1793.18 228.547 1413.99 296.984C1266.72 323.568 1121.69 351.934 979.902 382.41C836.986 413.136 683.077 445.739 553.902 483.181C305.025 555.293 118.541 652.755 -62.1977 739.058C-328.489 866.292 -614.772 985.071 -974.642 1091.85" stroke="url(#paint94_linear_2_4804)" stroke-width="0.970675" stroke-miterlimit="10"/>
<path d="M2577.19 122.277C2189.93 176.832 1801.59 231.729 1423.76 297.754C1274.15 323.749 1126.9 351.844 982.602 381.93C837.976 412.212 683.649 444.716 553.468 482.198C302.695 554.417 118.492 652.078 -58.9847 739.209C-321.155 867.845 -603.028 987.806 -965.779 1094.95" stroke="url(#paint95_linear_2_4804)" stroke-width="0.970675" stroke-miterlimit="10"/>
<path d="M2577.4 125.745C2195.21 181.863 1810.09 235.207 1434.13 298.917C1136.38 349.381 813.797 407.681 554.503 481.883C301.666 554.246 119.824 651.762 -55.0871 739.716C-313.393 869.618 -591.141 990.627 -956.868 1098.04" stroke="url(#paint96_linear_2_4804)" stroke-width="0.970675" stroke-miterlimit="10"/>
<path d="M2577.07 129.324C2208.5 185.994 1835.07 236.722 1469.05 296.566C1158.86 347.281 827.41 405.729 557.389 482.4C299.804 555.601 119.485 653.284 -54.9109 742.98C-308.094 873.171 -581.662 994.286 -947.986 1101.14" stroke="url(#paint97_linear_2_4804)" stroke-width="0.970675" stroke-miterlimit="10"/>
<path d="M2576.31 133.002C2213.9 191.653 1844 240.755 1481.01 298.658C1166.8 348.778 835.018 406.3 561.624 483.458C301.7 556.832 123.387 653.801 -49.1454 744.25C-299.35 875.486 -569.391 997.38 -939.118 1104.24" stroke="url(#paint98_linear_2_4804)" stroke-width="0.970675" stroke-miterlimit="10"/>
<path d="M2574.98 136.791C2216.97 198.149 1847.39 245.852 1485.29 302.523C1170.38 351.757 841.267 408.237 567.254 485.204C302.877 559.469 125.503 656.355 -47.1008 748.439C-292.853 879.543 -559.806 1001.4 -930.253 1107.32" stroke="url(#paint99_linear_2_4804)" stroke-width="0.970675" stroke-miterlimit="10"/>
<path d="M2573.07 140.7C1916.49 260.592 1170.3 321.671 575.051 487.842C307.961 562.364 132.488 657.548 -39.4519 750.593C-283.053 882.41 -547.357 1004.82 -921.357 1110.41" stroke="url(#paint100_linear_2_4804)" stroke-width="0.970675" stroke-miterlimit="10"/>
</g>
<defs>
<linearGradient id="paint0_linear_2_4804" x1="-1984.04" y1="721.501" x2="-1973.52" y2="-106.348" gradientUnits="userSpaceOnUse">
<stop stop-color="#3F34EC"/>
<stop offset="1" stop-color="#13D8D4"/>
</linearGradient>
<linearGradient id="paint1_linear_2_4804" x1="-1974.45" y1="724.911" x2="-1963.89" y2="-103.658" gradientUnits="userSpaceOnUse">
<stop stop-color="#3F34EC"/>
<stop offset="1" stop-color="#13D8D4"/>
</linearGradient>
<linearGradient id="paint2_linear_2_4804" x1="-1964.55" y1="728.522" x2="-1953.94" y2="-101.237" gradientUnits="userSpaceOnUse">
<stop stop-color="#3F34EC"/>
<stop offset="1" stop-color="#13D8D4"/>
</linearGradient>
<linearGradient id="paint3_linear_2_4804" x1="-1954.25" y1="732.221" x2="-1943.57" y2="-99.0668" gradientUnits="userSpaceOnUse">
<stop stop-color="#3F34EC"/>
<stop offset="1" stop-color="#13D8D4"/>
</linearGradient>
<linearGradient id="paint4_linear_2_4804" x1="-1943.74" y1="736.104" x2="-1932.97" y2="-97.1338" gradientUnits="userSpaceOnUse">
<stop stop-color="#3F34EC"/>
<stop offset="1" stop-color="#13D8D4"/>
</linearGradient>
<linearGradient id="paint5_linear_2_4804" x1="-1932.7" y1="740.133" x2="-1921.82" y2="-95.4344" gradientUnits="userSpaceOnUse">
<stop stop-color="#3F34EC"/>
<stop offset="1" stop-color="#13D8D4"/>
</linearGradient>
<linearGradient id="paint6_linear_2_4804" x1="-1921.38" y1="744.294" x2="-1910.38" y2="-93.9538" gradientUnits="userSpaceOnUse">
<stop stop-color="#3F34EC"/>
<stop offset="1" stop-color="#13D8D4"/>
</linearGradient>
<linearGradient id="paint7_linear_2_4804" x1="-1909.78" y1="748.588" x2="-1898.64" y2="-92.6901" gradientUnits="userSpaceOnUse">
<stop stop-color="#3F34EC"/>
<stop offset="1" stop-color="#13D8D4"/>
</linearGradient>
<linearGradient id="paint8_linear_2_4804" x1="-1898.12" y1="752.984" x2="-1886.82" y2="-91.6037" gradientUnits="userSpaceOnUse">
<stop stop-color="#3F34EC"/>
<stop offset="1" stop-color="#13D8D4"/>
</linearGradient>
<linearGradient id="paint9_linear_2_4804" x1="-1886.11" y1="757.539" x2="-1874.64" y2="-90.7205" gradientUnits="userSpaceOnUse">
<stop stop-color="#3F34EC"/>
<stop offset="1" stop-color="#13D8D4"/>
</linearGradient>
<linearGradient id="paint10_linear_2_4804" x1="-1873.77" y1="762.178" x2="-1862.1" y2="-90.0125" gradientUnits="userSpaceOnUse">
<stop stop-color="#3F34EC"/>
<stop offset="1" stop-color="#13D8D4"/>
</linearGradient>
<linearGradient id="paint11_linear_2_4804" x1="-1861.35" y1="766.914" x2="-1849.48" y2="-89.4592" gradientUnits="userSpaceOnUse">
<stop stop-color="#3F34EC"/>
<stop offset="1" stop-color="#13D8D4"/>
</linearGradient>
<linearGradient id="paint12_linear_2_4804" x1="-1848.62" y1="771.736" x2="-1836.52" y2="-89.0696" gradientUnits="userSpaceOnUse">
<stop stop-color="#3F34EC"/>
<stop offset="1" stop-color="#13D8D4"/>
</linearGradient>
<linearGradient id="paint13_linear_2_4804" x1="-1835.74" y1="776.662" x2="-1823.41" y2="-88.8381" gradientUnits="userSpaceOnUse">
<stop stop-color="#3F34EC"/>
<stop offset="1" stop-color="#13D8D4"/>
</linearGradient>
<linearGradient id="paint14_linear_2_4804" x1="-1822.69" y1="781.666" x2="-1810.11" y2="-88.6782" gradientUnits="userSpaceOnUse">
<stop stop-color="#3F34EC"/>
<stop offset="1" stop-color="#13D8D4"/>
</linearGradient>
<linearGradient id="paint15_linear_2_4804" x1="-1809.46" y1="786.729" x2="-1796.61" y2="-88.671" gradientUnits="userSpaceOnUse">
<stop stop-color="#3F34EC"/>
<stop offset="1" stop-color="#13D8D4"/>
</linearGradient>
<linearGradient id="paint16_linear_2_4804" x1="-1796.1" y1="791.861" x2="-1782.97" y2="-88.7762" gradientUnits="userSpaceOnUse">
<stop stop-color="#3F34EC"/>
<stop offset="1" stop-color="#13D8D4"/>
</linearGradient>
<linearGradient id="paint17_linear_2_4804" x1="-1782.6" y1="797.018" x2="-1769.18" y2="-88.9677" gradientUnits="userSpaceOnUse">
<stop stop-color="#3F34EC"/>
<stop offset="1" stop-color="#13D8D4"/>
</linearGradient>
<linearGradient id="paint18_linear_2_4804" x1="-1769" y1="802.287" x2="-1755.28" y2="-89.2487" gradientUnits="userSpaceOnUse">
<stop stop-color="#3F34EC"/>
<stop offset="1" stop-color="#13D8D4"/>
</linearGradient>
<linearGradient id="paint19_linear_2_4804" x1="-1755.27" y1="807.59" x2="-1741.23" y2="-89.6064" gradientUnits="userSpaceOnUse">
<stop stop-color="#3F34EC"/>
<stop offset="1" stop-color="#13D8D4"/>
</linearGradient>
<linearGradient id="paint20_linear_2_4804" x1="-1741.48" y1="812.864" x2="-1727.12" y2="-90.0161" gradientUnits="userSpaceOnUse">
<stop stop-color="#3F34EC"/>
<stop offset="1" stop-color="#13D8D4"/>
</linearGradient>
<linearGradient id="paint21_linear_2_4804" x1="-1727.72" y1="818.234" x2="-1713.02" y2="-90.4907" gradientUnits="userSpaceOnUse">
<stop stop-color="#3F34EC"/>
<stop offset="1" stop-color="#13D8D4"/>
</linearGradient>
<linearGradient id="paint22_linear_2_4804" x1="-1713.81" y1="823.602" x2="-1698.77" y2="-90.9999" gradientUnits="userSpaceOnUse">
<stop stop-color="#3F34EC"/>
<stop offset="1" stop-color="#13D8D4"/>
</linearGradient>
<linearGradient id="paint23_linear_2_4804" x1="-1699.9" y1="828.959" x2="-1684.5" y2="-91.5312" gradientUnits="userSpaceOnUse">
<stop stop-color="#3F34EC"/>
<stop offset="1" stop-color="#13D8D4"/>
</linearGradient>
<linearGradient id="paint24_linear_2_4804" x1="-1686.05" y1="834.351" x2="-1670.29" y2="-92.0891" gradientUnits="userSpaceOnUse">
<stop stop-color="#3F34EC"/>
<stop offset="1" stop-color="#13D8D4"/>
</linearGradient>
<linearGradient id="paint25_linear_2_4804" x1="-1672.07" y1="839.757" x2="-1655.94" y2="-92.6463" gradientUnits="userSpaceOnUse">
<stop stop-color="#3F34EC"/>
<stop offset="1" stop-color="#13D8D4"/>
</linearGradient>
<linearGradient id="paint26_linear_2_4804" x1="-1658.21" y1="845.138" x2="-1641.71" y2="-93.1995" gradientUnits="userSpaceOnUse">
<stop stop-color="#3F34EC"/>
<stop offset="1" stop-color="#13D8D4"/>
</linearGradient>
<linearGradient id="paint27_linear_2_4804" x1="-1644.28" y1="850.481" x2="-1627.39" y2="-93.7338" gradientUnits="userSpaceOnUse">
<stop stop-color="#3F34EC"/>
<stop offset="1" stop-color="#13D8D4"/>
</linearGradient>
<linearGradient id="paint28_linear_2_4804" x1="-1630.45" y1="855.85" x2="-1613.18" y2="-94.2433" gradientUnits="userSpaceOnUse">
<stop stop-color="#3F34EC"/>
<stop offset="1" stop-color="#13D8D4"/>
</linearGradient>
<linearGradient id="paint29_linear_2_4804" x1="-1616.68" y1="861.173" x2="-1599.03" y2="-94.71" gradientUnits="userSpaceOnUse">
<stop stop-color="#3F34EC"/>
<stop offset="1" stop-color="#13D8D4"/>
</linearGradient>
<linearGradient id="paint30_linear_2_4804" x1="-1603.02" y1="866.409" x2="-1584.98" y2="-95.1263" gradientUnits="userSpaceOnUse">
<stop stop-color="#3F34EC"/>
<stop offset="1" stop-color="#13D8D4"/>
</linearGradient>
<linearGradient id="paint31_linear_2_4804" x1="-1589.41" y1="871.74" x2="-1570.98" y2="-95.4895" gradientUnits="userSpaceOnUse">
<stop stop-color="#3F34EC"/>
<stop offset="1" stop-color="#13D8D4"/>
</linearGradient>
<linearGradient id="paint32_linear_2_4804" x1="-1575.86" y1="876.887" x2="-1557.05" y2="-95.7575" gradientUnits="userSpaceOnUse">
<stop stop-color="#3F34EC"/>
<stop offset="1" stop-color="#13D8D4"/>
</linearGradient>
<linearGradient id="paint33_linear_2_4804" x1="-1562.51" y1="882.023" x2="-1543.32" y2="-95.9482" gradientUnits="userSpaceOnUse">
<stop stop-color="#3F34EC"/>
<stop offset="1" stop-color="#13D8D4"/>
</linearGradient>
<linearGradient id="paint34_linear_2_4804" x1="-1549.26" y1="887.1" x2="-1529.69" y2="-96.0382" gradientUnits="userSpaceOnUse">
<stop stop-color="#3F34EC"/>
<stop offset="1" stop-color="#13D8D4"/>
</linearGradient>
<linearGradient id="paint35_linear_2_4804" x1="-1536.18" y1="892.097" x2="-1516.25" y2="-96.0189" gradientUnits="userSpaceOnUse">
<stop stop-color="#3F34EC"/>
<stop offset="1" stop-color="#13D8D4"/>
</linearGradient>
<linearGradient id="paint36_linear_2_4804" x1="-1523.32" y1="897.025" x2="-1503.02" y2="-95.8697" gradientUnits="userSpaceOnUse">
<stop stop-color="#3F34EC"/>
<stop offset="1" stop-color="#13D8D4"/>
</linearGradient>
<linearGradient id="paint37_linear_2_4804" x1="-1510.53" y1="901.874" x2="-1489.89" y2="-95.5993" gradientUnits="userSpaceOnUse">
<stop stop-color="#3F34EC"/>
<stop offset="1" stop-color="#13D8D4"/>
</linearGradient>
<linearGradient id="paint38_linear_2_4804" x1="-1497.99" y1="906.62" x2="-1477.01" y2="-95.1703" gradientUnits="userSpaceOnUse">
<stop stop-color="#3F34EC"/>
<stop offset="1" stop-color="#13D8D4"/>
</linearGradient>
<linearGradient id="paint39_linear_2_4804" x1="-1485.7" y1="911.279" x2="-1464.41" y2="-94.5784" gradientUnits="userSpaceOnUse">
<stop stop-color="#3F34EC"/>
<stop offset="1" stop-color="#13D8D4"/>
</linearGradient>
<linearGradient id="paint40_linear_2_4804" x1="-1473.61" y1="915.835" x2="-1452.02" y2="-93.8287" gradientUnits="userSpaceOnUse">
<stop stop-color="#3F34EC"/>
<stop offset="1" stop-color="#13D8D4"/>
</linearGradient>
<linearGradient id="paint41_linear_2_4804" x1="-1461.75" y1="920.269" x2="-1439.88" y2="-92.8891" gradientUnits="userSpaceOnUse">
<stop stop-color="#3F34EC"/>
<stop offset="1" stop-color="#13D8D4"/>
</linearGradient>
<linearGradient id="paint42_linear_2_4804" x1="-1450.18" y1="924.593" x2="-1428.06" y2="-91.7478" gradientUnits="userSpaceOnUse">
<stop stop-color="#3F34EC"/>
<stop offset="1" stop-color="#13D8D4"/>
</linearGradient>
<linearGradient id="paint43_linear_2_4804" x1="-1438.87" y1="928.795" x2="-1416.51" y2="-90.4053" gradientUnits="userSpaceOnUse">
<stop stop-color="#3F34EC"/>
<stop offset="1" stop-color="#13D8D4"/>
</linearGradient>
<linearGradient id="paint44_linear_2_4804" x1="-1427.83" y1="932.833" x2="-1405.27" y2="-88.8444" gradientUnits="userSpaceOnUse">
<stop stop-color="#3F34EC"/>
<stop offset="1" stop-color="#13D8D4"/>
</linearGradient>
<linearGradient id="paint45_linear_2_4804" x1="-1417.07" y1="936.785" x2="-1394.33" y2="-87.0553" gradientUnits="userSpaceOnUse">
<stop stop-color="#3F34EC"/>
<stop offset="1" stop-color="#13D8D4"/>
</linearGradient>
<linearGradient id="paint46_linear_2_4804" x1="-1406.75" y1="940.568" x2="-1383.87" y2="-85.0124" gradientUnits="userSpaceOnUse">
<stop stop-color="#3F34EC"/>
<stop offset="1" stop-color="#13D8D4"/>
</linearGradient>
<linearGradient id="paint47_linear_2_4804" x1="-1396.72" y1="944.204" x2="-1373.73" y2="-82.7215" gradientUnits="userSpaceOnUse">
<stop stop-color="#3F34EC"/>
<stop offset="1" stop-color="#13D8D4"/>
</linearGradient>
<linearGradient id="paint48_linear_2_4804" x1="-1386.97" y1="947.676" x2="-1363.9" y2="-80.159" gradientUnits="userSpaceOnUse">
<stop stop-color="#3F34EC"/>
<stop offset="1" stop-color="#13D8D4"/>
</linearGradient>
<linearGradient id="paint49_linear_2_4804" x1="-1377.63" y1="950.978" x2="-1354.52" y2="-77.3127" gradientUnits="userSpaceOnUse">
<stop stop-color="#3F34EC"/>
<stop offset="1" stop-color="#13D8D4"/>
</linearGradient>
<linearGradient id="paint50_linear_2_4804" x1="-1368.49" y1="954.08" x2="-1345.37" y2="-74.2214" gradientUnits="userSpaceOnUse">
<stop stop-color="#3F34EC"/>
<stop offset="1" stop-color="#13D8D4"/>
</linearGradient>
<linearGradient id="paint51_linear_2_4804" x1="-1359.66" y1="957.264" x2="-1336.54" y2="-71.1984" gradientUnits="userSpaceOnUse">
<stop stop-color="#3F34EC"/>
<stop offset="1" stop-color="#13D8D4"/>
</linearGradient>
<linearGradient id="paint52_linear_2_4804" x1="-1350.7" y1="960.396" x2="-1327.57" y2="-68.248" gradientUnits="userSpaceOnUse">
<stop stop-color="#3F34EC"/>
<stop offset="1" stop-color="#13D8D4"/>
</linearGradient>
<linearGradient id="paint53_linear_2_4804" x1="-1341.75" y1="963.536" x2="-1318.61" y2="-65.3902" gradientUnits="userSpaceOnUse">
<stop stop-color="#3F34EC"/>
<stop offset="1" stop-color="#13D8D4"/>
</linearGradient>
<linearGradient id="paint54_linear_2_4804" x1="-1332.85" y1="966.672" x2="-1309.69" y2="-62.6084" gradientUnits="userSpaceOnUse">
<stop stop-color="#3F34EC"/>
<stop offset="1" stop-color="#13D8D4"/>
</linearGradient>
<linearGradient id="paint55_linear_2_4804" x1="-1323.67" y1="969.821" x2="-1300.48" y2="-59.9032" gradientUnits="userSpaceOnUse">
<stop stop-color="#3F34EC"/>
<stop offset="1" stop-color="#13D8D4"/>
</linearGradient>
<linearGradient id="paint56_linear_2_4804" x1="-1314.91" y1="972.958" x2="-1291.7" y2="-57.2701" gradientUnits="userSpaceOnUse">
<stop stop-color="#3F34EC"/>
<stop offset="1" stop-color="#13D8D4"/>
</linearGradient>
<linearGradient id="paint57_linear_2_4804" x1="-1305.88" y1="976.084" x2="-1282.64" y2="-54.7094" gradientUnits="userSpaceOnUse">
<stop stop-color="#3F34EC"/>
<stop offset="1" stop-color="#13D8D4"/>
</linearGradient>
<linearGradient id="paint58_linear_2_4804" x1="-1296.93" y1="979.236" x2="-1273.66" y2="-52.2132" gradientUnits="userSpaceOnUse">
<stop stop-color="#3F34EC"/>
<stop offset="1" stop-color="#13D8D4"/>
</linearGradient>
<linearGradient id="paint59_linear_2_4804" x1="-1287.86" y1="982.354" x2="-1264.56" y2="-49.7713" gradientUnits="userSpaceOnUse">
<stop stop-color="#3F34EC"/>
<stop offset="1" stop-color="#13D8D4"/>
</linearGradient>
<linearGradient id="paint60_linear_2_4804" x1="-1278.82" y1="985.506" x2="-1255.48" y2="-47.3863" gradientUnits="userSpaceOnUse">
<stop stop-color="#3F34EC"/>
<stop offset="1" stop-color="#13D8D4"/>
</linearGradient>
<linearGradient id="paint61_linear_2_4804" x1="-1269.99" y1="988.636" x2="-1246.61" y2="-45.0438" gradientUnits="userSpaceOnUse">
<stop stop-color="#3F34EC"/>
<stop offset="1" stop-color="#13D8D4"/>
</linearGradient>
<linearGradient id="paint62_linear_2_4804" x1="-1261" y1="991.771" x2="-1237.57" y2="-42.7563" gradientUnits="userSpaceOnUse">
<stop stop-color="#3F34EC"/>
<stop offset="1" stop-color="#13D8D4"/>
</linearGradient>
<linearGradient id="paint63_linear_2_4804" x1="-1252" y1="994.873" x2="-1228.54" y2="-40.5018" gradientUnits="userSpaceOnUse">
<stop stop-color="#3F34EC"/>
<stop offset="1" stop-color="#13D8D4"/>
</linearGradient>
<linearGradient id="paint64_linear_2_4804" x1="-1243.07" y1="998.053" x2="-1219.55" y2="-38.2911" gradientUnits="userSpaceOnUse">
<stop stop-color="#3F34EC"/>
<stop offset="1" stop-color="#13D8D4"/>
</linearGradient>
<linearGradient id="paint65_linear_2_4804" x1="-1234.1" y1="1001.19" x2="-1210.53" y2="-36.1146" gradientUnits="userSpaceOnUse">
<stop stop-color="#3F34EC"/>
<stop offset="1" stop-color="#13D8D4"/>
</linearGradient>
<linearGradient id="paint66_linear_2_4804" x1="-1225.11" y1="1004.33" x2="-1201.48" y2="-33.9572" gradientUnits="userSpaceOnUse">
<stop stop-color="#3F34EC"/>
<stop offset="1" stop-color="#13D8D4"/>
</linearGradient>
<linearGradient id="paint67_linear_2_4804" x1="-1216.21" y1="1007.47" x2="-1192.52" y2="-31.8317" gradientUnits="userSpaceOnUse">
<stop stop-color="#3F34EC"/>
<stop offset="1" stop-color="#13D8D4"/>
</linearGradient>
<linearGradient id="paint68_linear_2_4804" x1="-1207.19" y1="1010.61" x2="-1183.44" y2="-29.728" gradientUnits="userSpaceOnUse">
<stop stop-color="#3F34EC"/>
<stop offset="1" stop-color="#13D8D4"/>
</linearGradient>
<linearGradient id="paint69_linear_2_4804" x1="-1198.22" y1="1013.74" x2="-1174.41" y2="-27.6315" gradientUnits="userSpaceOnUse">
<stop stop-color="#3F34EC"/>
<stop offset="1" stop-color="#13D8D4"/>
</linearGradient>
<linearGradient id="paint70_linear_2_4804" x1="-1189.23" y1="1016.88" x2="-1165.36" y2="-25.5393" gradientUnits="userSpaceOnUse">
<stop stop-color="#3F34EC"/>
<stop offset="1" stop-color="#13D8D4"/>
</linearGradient>
<linearGradient id="paint71_linear_2_4804" x1="-1180.27" y1="1020.02" x2="-1156.33" y2="-23.4366" gradientUnits="userSpaceOnUse">
<stop stop-color="#3F34EC"/>
<stop offset="1" stop-color="#13D8D4"/>
</linearGradient>
<linearGradient id="paint72_linear_2_4804" x1="-1171.31" y1="1023.15" x2="-1147.3" y2="-21.3829" gradientUnits="userSpaceOnUse">
<stop stop-color="#3F34EC"/>
<stop offset="1" stop-color="#13D8D4"/>
</linearGradient>
<linearGradient id="paint73_linear_2_4804" x1="-1162.36" y1="1026.29" x2="-1138.28" y2="-19.3029" gradientUnits="userSpaceOnUse">
<stop stop-color="#3F34EC"/>
<stop offset="1" stop-color="#13D8D4"/>
</linearGradient>
<linearGradient id="paint74_linear_2_4804" x1="-1153.36" y1="1029.42" x2="-1129.21" y2="-17.2119" gradientUnits="userSpaceOnUse">
<stop stop-color="#3F34EC"/>
<stop offset="1" stop-color="#13D8D4"/>
</linearGradient>
<linearGradient id="paint75_linear_2_4804" x1="-1144.41" y1="1032.56" x2="-1120.19" y2="-15.1124" gradientUnits="userSpaceOnUse">
<stop stop-color="#3F34EC"/>
<stop offset="1" stop-color="#13D8D4"/>
</linearGradient>
<linearGradient id="paint76_linear_2_4804" x1="-1135.46" y1="1035.69" x2="-1111.16" y2="-12.9839" gradientUnits="userSpaceOnUse">
<stop stop-color="#3F34EC"/>
<stop offset="1" stop-color="#13D8D4"/>
</linearGradient>
<linearGradient id="paint77_linear_2_4804" x1="-1126.49" y1="1038.83" x2="-1102.11" y2="-10.847" gradientUnits="userSpaceOnUse">
<stop stop-color="#3F34EC"/>
<stop offset="1" stop-color="#13D8D4"/>
</linearGradient>
<linearGradient id="paint78_linear_2_4804" x1="-1117.54" y1="1041.95" x2="-1093.08" y2="-8.69113" gradientUnits="userSpaceOnUse">
<stop stop-color="#3F34EC"/>
<stop offset="1" stop-color="#13D8D4"/>
</linearGradient>
<linearGradient id="paint79_linear_2_4804" x1="-1108.58" y1="1045.08" x2="-1084.05" y2="-6.52465" gradientUnits="userSpaceOnUse">
<stop stop-color="#3F34EC"/>
<stop offset="1" stop-color="#13D8D4"/>
</linearGradient>
<linearGradient id="paint80_linear_2_4804" x1="-1099.68" y1="1048.22" x2="-1075.07" y2="-4.26055" gradientUnits="userSpaceOnUse">
<stop stop-color="#3F34EC"/>
<stop offset="1" stop-color="#13D8D4"/>
</linearGradient>
<linearGradient id="paint81_linear_2_4804" x1="-1090.68" y1="1051.34" x2="-1065.99" y2="-1.98968" gradientUnits="userSpaceOnUse">
<stop stop-color="#3F34EC"/>
<stop offset="1" stop-color="#13D8D4"/>
</linearGradient>
<linearGradient id="paint82_linear_2_4804" x1="-1081.73" y1="1054.47" x2="-1056.96" y2="0.32363" gradientUnits="userSpaceOnUse">
<stop stop-color="#3F34EC"/>
<stop offset="1" stop-color="#13D8D4"/>
</linearGradient>
<linearGradient id="paint83_linear_2_4804" x1="-1072.8" y1="1057.59" x2="-1047.94" y2="2.68335" gradientUnits="userSpaceOnUse">
<stop stop-color="#3F34EC"/>
<stop offset="1" stop-color="#13D8D4"/>
</linearGradient>
<linearGradient id="paint84_linear_2_4804" x1="-1063.87" y1="1060.72" x2="-1038.93" y2="5.10176" gradientUnits="userSpaceOnUse">
<stop stop-color="#3F34EC"/>
<stop offset="1" stop-color="#13D8D4"/>
</linearGradient>
<linearGradient id="paint85_linear_2_4804" x1="-1054.93" y1="1063.86" x2="-1029.91" y2="7.56388" gradientUnits="userSpaceOnUse">
<stop stop-color="#3F34EC"/>
<stop offset="1" stop-color="#13D8D4"/>
</linearGradient>
<linearGradient id="paint86_linear_2_4804" x1="-1045.98" y1="1066.95" x2="-1020.88" y2="10.1043" gradientUnits="userSpaceOnUse">
<stop stop-color="#3F34EC"/>
<stop offset="1" stop-color="#13D8D4"/>
</linearGradient>
<linearGradient id="paint87_linear_2_4804" x1="-1037.07" y1="1070.08" x2="-1011.88" y2="12.6979" gradientUnits="userSpaceOnUse">
<stop stop-color="#3F34EC"/>
<stop offset="1" stop-color="#13D8D4"/>
</linearGradient>
<linearGradient id="paint88_linear_2_4804" x1="-1028.12" y1="1073.19" x2="-1002.85" y2="15.3617" gradientUnits="userSpaceOnUse">
<stop stop-color="#3F34EC"/>
<stop offset="1" stop-color="#13D8D4"/>
</linearGradient>
<linearGradient id="paint89_linear_2_4804" x1="-1019.2" y1="1076.3" x2="-993.848" y2="18.1118" gradientUnits="userSpaceOnUse">
<stop stop-color="#3F34EC"/>
<stop offset="1" stop-color="#13D8D4"/>
</linearGradient>
<linearGradient id="paint90_linear_2_4804" x1="-1010.3" y1="1079.43" x2="-984.866" y2="20.9294" gradientUnits="userSpaceOnUse">
<stop stop-color="#3F34EC"/>
<stop offset="1" stop-color="#13D8D4"/>
</linearGradient>
<linearGradient id="paint91_linear_2_4804" x1="-1001.39" y1="1082.53" x2="-975.868" y2="23.8383" gradientUnits="userSpaceOnUse">
<stop stop-color="#3F34EC"/>
<stop offset="1" stop-color="#13D8D4"/>
</linearGradient>
<linearGradient id="paint92_linear_2_4804" x1="-992.458" y1="1085.63" x2="-966.853" y2="26.8247" gradientUnits="userSpaceOnUse">
<stop stop-color="#3F34EC"/>
<stop offset="1" stop-color="#13D8D4"/>
</linearGradient>
<linearGradient id="paint93_linear_2_4804" x1="-983.564" y1="1088.71" x2="-957.879" y2="29.9233" gradientUnits="userSpaceOnUse">
<stop stop-color="#3F34EC"/>
<stop offset="1" stop-color="#13D8D4"/>
</linearGradient>
<linearGradient id="paint94_linear_2_4804" x1="-974.642" y1="1091.85" x2="-948.871" y2="33.0993" gradientUnits="userSpaceOnUse">
<stop stop-color="#3F34EC"/>
<stop offset="1" stop-color="#13D8D4"/>
</linearGradient>
<linearGradient id="paint95_linear_2_4804" x1="-965.779" y1="1094.95" x2="-939.927" y2="36.3806" gradientUnits="userSpaceOnUse">
<stop stop-color="#3F34EC"/>
<stop offset="1" stop-color="#13D8D4"/>
</linearGradient>
<linearGradient id="paint96_linear_2_4804" x1="-956.868" y1="1098.04" x2="-930.934" y2="39.7685" gradientUnits="userSpaceOnUse">
<stop stop-color="#3F34EC"/>
<stop offset="1" stop-color="#13D8D4"/>
</linearGradient>
<linearGradient id="paint97_linear_2_4804" x1="-947.986" y1="1101.14" x2="-921.971" y2="43.2753" gradientUnits="userSpaceOnUse">
<stop stop-color="#3F34EC"/>
<stop offset="1" stop-color="#13D8D4"/>
</linearGradient>
<linearGradient id="paint98_linear_2_4804" x1="-939.118" y1="1104.24" x2="-913.024" y2="46.8877" gradientUnits="userSpaceOnUse">
<stop stop-color="#3F34EC"/>
<stop offset="1" stop-color="#13D8D4"/>
</linearGradient>
<linearGradient id="paint99_linear_2_4804" x1="-930.253" y1="1107.32" x2="-904.08" y2="50.6195" gradientUnits="userSpaceOnUse">
<stop stop-color="#3F34EC"/>
<stop offset="1" stop-color="#13D8D4"/>
</linearGradient>
<linearGradient id="paint100_linear_2_4804" x1="-921.357" y1="1110.41" x2="-895.106" y2="54.4796" gradientUnits="userSpaceOnUse">
<stop stop-color="#3F34EC"/>
<stop offset="1" stop-color="#13D8D4"/>
</linearGradient>
<clipPath id="clip0_2_4804">
<rect width="1920" height="831" fill="white"/>
</clipPath>
</defs>
</svg>
