<svg width="1920" height="764" viewBox="0 0 1920 764" fill="none" xmlns="http://www.w3.org/2000/svg">
<g clip-path="url(#clip0_2_4699)">
<g opacity="0.7">
<path d="M1966.22 255.415C1649.49 332.798 1428.64 176.159 1171.33 128.113C1065.61 108.369 945.096 109.107 835.525 154.808C707.099 208.373 616.062 298.632 528.22 375.596C345.692 535.51 151.449 684.144 -89.9307 812.34" stroke="url(#paint0_linear_2_4699)" stroke-width="1.37056" stroke-miterlimit="10"/>
<path d="M1966.45 250.92C1646.35 332.635 1428.22 174.747 1170.57 124.599C1064.91 104.032 945.097 104.659 835.127 150.739C706.372 204.667 615.101 295.188 526.948 372.487C345.118 531.904 151.545 680.1 -89.6729 807.471" stroke="url(#paint1_linear_2_4699)" stroke-width="1.37056" stroke-miterlimit="10"/>
<path d="M1966.59 246.806C1640.66 333.418 1425.58 171.688 1164.6 120.447C1059.94 99.9078 942.28 101.481 833.691 147.328C706.454 201.085 615.932 290.186 528.594 366.779C346.35 526.598 153.04 675.182 -89.4238 802.371" stroke="url(#paint2_linear_2_4699)" stroke-width="1.37056" stroke-miterlimit="10"/>
<path d="M1966.65 243.057C1637.16 333.972 1425.18 171.044 1163.63 117.676C1059.13 96.3382 941.936 97.7478 833.001 143.779C705.426 197.687 614.727 286.953 527.134 363.746C345.553 522.912 152.989 670.87 -89.2461 797.041" stroke="url(#paint3_linear_2_4699)" stroke-width="1.37056" stroke-miterlimit="10"/>
<path d="M1966.66 239.652C1633.52 334.825 1424.64 170.894 1162.49 115.229C1058.16 93.0818 941.45 94.3746 832.258 140.533C704.526 194.567 613.494 283.887 525.661 360.804C344.732 519.236 152.952 666.485 -89.0078 791.537" stroke="url(#paint4_linear_2_4699)" stroke-width="1.37056" stroke-miterlimit="10"/>
<path d="M1966.57 236.581C1629.74 335.955 1424.03 171.064 1161.21 113.123C1057.16 90.1813 940.917 91.3032 831.332 137.515C703.319 191.566 612.113 280.905 524.051 357.899C343.799 515.51 152.84 661.945 -88.8623 785.841" stroke="url(#paint5_linear_2_4699)" stroke-width="1.37056" stroke-miterlimit="10"/>
<path d="M1966.41 233.834C1797.52 285.175 1644.96 272.167 1504.22 228.252C1387.63 191.825 1285.38 140.35 1161.2 111.689C1056.81 87.5873 939.947 88.3383 829.27 135.13C703.076 188.58 612.493 276.47 525.384 352.465C344.81 509.979 153.926 656.678 -88.665 779.895" stroke="url(#paint6_linear_2_4699)" stroke-width="1.37056" stroke-miterlimit="10"/>
<path d="M1966.2 231.374C1878.46 258.813 1789.09 273.343 1699.77 267.998C1627.57 263.707 1561.63 248.042 1500.4 228.745C1384.05 192.083 1283.08 139.722 1159.68 110.198C1055.66 85.3211 939.162 85.8121 828.174 132.607C701.742 185.9 610.98 273.695 523.657 349.664C343.756 506.193 153.69 651.95 -88.4902 773.777" stroke="url(#paint7_linear_2_4699)" stroke-width="1.37056" stroke-miterlimit="10"/>
<path d="M1965.93 229.21C1877.45 257.615 1786.91 273.422 1696.14 268.512C1623.77 264.557 1557.64 248.972 1496.48 229.526C1380.4 192.604 1280.7 139.357 1158.03 109.016C1054.43 83.3707 938.203 83.6084 826.929 130.309C700.381 183.428 609.31 271.102 521.859 346.963C342.588 502.425 153.348 647.168 -88.335 767.486" stroke="url(#paint8_linear_2_4699)" stroke-width="1.37056" stroke-miterlimit="10"/>
<path d="M1965.59 227.31C1876.38 256.677 1784.7 273.737 1692.5 269.256C1619.85 265.708 1553.54 250.195 1492.47 230.585C1376.67 193.382 1278.14 139.322 1156.26 108.118C1053.15 81.6776 937.155 81.6477 825.533 128.188C698.821 181.028 607.599 268.508 519.983 344.278C341.391 498.633 153.066 642.319 -88.249 761.102" stroke="url(#paint9_linear_2_4699)" stroke-width="1.37056" stroke-miterlimit="10"/>
<path d="M1965.2 225.664C1875.25 255.972 1782.37 274.337 1688.78 270.258C1615.88 267.095 1549.4 251.654 1488.4 231.876C1372.85 194.399 1275.58 139.47 1154.43 107.431C1051.82 80.2486 936.022 79.9276 824.08 126.273C697.265 178.786 605.811 266.046 518.024 341.626C340.13 494.82 152.616 637.338 -88.1826 754.508" stroke="url(#paint10_linear_2_4699)" stroke-width="1.37056" stroke-miterlimit="10"/>
<path d="M1964.76 224.263C1874.07 255.492 1779.99 275.142 1684.98 271.527C1611.82 268.74 1545.17 253.368 1484.25 233.43C1368.92 195.674 1272.83 139.933 1152.44 106.994C1050.44 79.0994 934.758 78.4419 822.575 124.518C695.665 176.649 603.986 263.643 516.058 338.997C338.77 490.974 152.126 632.288 -88.0781 747.76" stroke="url(#paint11_linear_2_4699)" stroke-width="1.37056" stroke-miterlimit="10"/>
<path d="M1964.29 223.053C1872.22 255.416 1776.3 276.374 1679.35 272.906C1605.58 270.268 1538.43 254.655 1477.27 234.239C1363.82 196.378 1269.83 140.706 1151.86 107.137C1049.6 78.0941 933.216 77.0359 819.873 123.45C691.599 176.003 599.285 263.689 510.261 339.646C334.994 489.175 149.699 628.083 -88.0332 740.921" stroke="url(#paint12_linear_2_4699)" stroke-width="1.37056" stroke-miterlimit="10"/>
<path d="M1963.74 222.097C1870.93 255.375 1773.8 277.624 1675.41 274.623C1601.32 272.361 1534 256.783 1472.98 236.229C1359.74 198.081 1266.95 141.575 1149.71 107.18C1048.11 77.3783 931.823 75.9299 818.169 122.054C689.846 174.111 597.343 261.425 508.157 337.12C333.571 485.308 149.164 622.911 -87.957 733.935" stroke="url(#paint13_linear_2_4699)" stroke-width="1.37056" stroke-miterlimit="10"/>
<path d="M1963.17 221.331C1869.6 255.505 1771.28 279.057 1671.44 276.524C1597.1 274.628 1529.63 259.138 1468.65 238.405C1355.65 199.936 1264 142.643 1147.53 107.412C1046.59 76.8411 930.343 75.0877 816.393 120.82C688.018 172.32 595.306 259.239 506.005 334.61C332.08 481.41 148.559 617.681 -87.9219 726.833" stroke="url(#paint14_linear_2_4699)" stroke-width="1.37056" stroke-miterlimit="10"/>
<path d="M1962.54 220.687C1868.23 255.749 1768.7 280.61 1667.42 278.544C1592.83 277.021 1525.17 261.606 1464.28 240.686C1351.43 201.952 1260.95 143.797 1145.27 107.744C1044.9 76.5369 928.826 74.2916 814.522 119.664C686.157 170.623 593.186 257.149 503.819 332.144C330.562 477.523 147.947 612.423 -87.8975 719.628" stroke="url(#paint15_linear_2_4699)" stroke-width="1.37056" stroke-miterlimit="10"/>
<path d="M1961.88 220.227C1866.83 256.164 1766.06 282.353 1663.32 280.781C1588.47 279.632 1520.64 264.291 1459.78 243.21C1347.11 204.184 1257.87 145.253 1142.88 108.34C1043.32 76.3281 927.23 73.7099 812.609 118.656C684.231 169.002 591.05 255.096 501.585 329.702C329.006 473.615 147.322 607.046 -87.8633 712.326" stroke="url(#paint16_linear_2_4699)" stroke-width="1.37056" stroke-miterlimit="10"/>
<path d="M1961.2 219.92C1865.39 256.722 1763.45 284.183 1659.28 283.088C1584.18 282.306 1516.16 267.053 1455.33 245.782C1342.82 206.459 1254.74 146.711 1140.53 108.974C1041.63 76.308 925.571 73.2624 810.634 117.77C682.291 167.465 588.879 253.093 499.327 327.288C327.404 469.713 146.642 601.683 -87.8477 704.946" stroke="url(#paint17_linear_2_4699)" stroke-width="1.37056" stroke-miterlimit="10"/>
<path d="M1960.49 219.728C1863.93 257.387 1760.77 286.152 1655.15 285.563C1579.81 285.132 1511.59 269.963 1450.84 248.538C1338.49 208.914 1251.57 148.355 1138.12 109.791C1039.92 76.4167 923.866 72.9344 808.622 116.971C680.304 165.999 586.659 251.135 497.069 324.907C325.812 465.811 145.892 596.319 -87.8047 697.503" stroke="url(#paint18_linear_2_4699)" stroke-width="1.37056" stroke-miterlimit="10"/>
<path d="M1959.75 219.649C1862.44 258.165 1758.01 288.202 1651 288.14C1575.41 288.076 1507 272.995 1446.29 251.393C1334.1 211.461 1248.34 150.111 1135.62 110.737C1038.15 76.669 922.104 72.7379 806.531 116.281C678.295 164.584 584.469 249.228 494.707 322.502C324.125 461.878 145.157 590.89 -87.8281 689.956" stroke="url(#paint19_linear_2_4699)" stroke-width="1.37056" stroke-miterlimit="10"/>
<path d="M1959 219.661C1860.93 259.028 1755.33 290.386 1646.83 290.811C1570.99 291.101 1502.38 276.121 1441.68 254.368C1329.63 214.127 1245.04 151.971 1133.11 111.749C1036.37 76.984 920.324 72.6044 804.443 115.64C676.271 163.221 582.131 247.346 492.33 320.16C322.412 457.966 144.334 585.466 -87.832 682.344" stroke="url(#paint20_linear_2_4699)" stroke-width="1.37056" stroke-miterlimit="10"/>
<path d="M1958.22 219.759C1859.39 259.964 1752.58 292.623 1642.62 293.561C1566.48 294.186 1497.71 279.32 1437.1 257.366C1325.17 216.809 1241.74 153.864 1130.58 112.815C1034.64 77.3532 918.534 72.5167 802.314 115.03C674.185 161.904 579.86 245.451 489.989 317.79C320.756 454.036 143.596 579.989 -87.7979 674.743" stroke="url(#paint21_linear_2_4699)" stroke-width="1.37056" stroke-miterlimit="10"/>
<path d="M1957.43 219.923C1857.84 260.961 1749.8 294.914 1638.43 296.376C1562.09 297.379 1493.08 282.598 1432.5 260.459C1320.66 219.582 1238.43 155.859 1128.03 113.986C1032.8 77.8917 916.703 72.5504 800.193 114.504C672.127 160.632 577.587 243.61 487.626 315.465C319.055 450.117 142.784 574.521 -87.8516 667.073" stroke="url(#paint22_linear_2_4699)" stroke-width="1.37056" stroke-miterlimit="10"/>
<path d="M1956.63 220.132C1856.26 261.997 1747.02 297.242 1634.17 299.257C1557.62 300.595 1488.44 285.888 1427.87 263.594C1316.18 222.418 1235.09 157.885 1125.46 115.193C1031 78.4055 914.884 72.5898 798.025 114.017C670.04 159.371 575.244 241.763 485.253 313.124C317.394 446.158 141.963 569.039 -87.8555 659.368" stroke="url(#paint23_linear_2_4699)" stroke-width="1.37056" stroke-miterlimit="10"/>
<path d="M1955.82 220.37C1854.68 263.055 1744.22 299.594 1629.97 302.132C1553.16 303.832 1483.73 289.262 1423.2 266.78C1311.65 225.263 1231.71 159.941 1122.85 116.431C1029.17 78.9834 913.036 72.6738 795.878 113.561C668.006 158.157 572.995 239.98 482.872 310.826C315.628 442.304 141.153 563.585 -87.8496 651.669" stroke="url(#paint24_linear_2_4699)" stroke-width="1.37056" stroke-miterlimit="10"/>
<path d="M1955.01 220.633C1853.07 264.148 1741.42 301.953 1625.74 305.035C1548.68 307.087 1479.06 292.626 1418.55 269.974C1307.13 228.144 1228.33 162.018 1120.24 117.702C1027.31 79.585 911.16 72.7817 793.642 113.102C665.883 156.938 570.646 238.164 480.422 308.509C313.804 438.438 140.244 558.124 -87.8926 643.962" stroke="url(#paint25_linear_2_4699)" stroke-width="1.37056" stroke-miterlimit="10"/>
<path d="M1954.19 220.889C1851.49 265.203 1738.64 304.322 1621.5 307.947C1544.21 310.338 1474.38 295.992 1413.95 273.127C1302.57 230.989 1224.95 164.09 1117.65 118.946C1025.49 80.1652 909.336 72.8731 791.479 112.635C663.822 155.708 568.359 236.337 478.044 306.174C312.185 434.448 139.438 552.66 -87.9062 636.208" stroke="url(#paint26_linear_2_4699)" stroke-width="1.37056" stroke-miterlimit="10"/>
<path d="M1953.38 221.135C1850.47 266.022 1737.2 306.19 1619.27 310.759C1542.17 313.755 1472.3 299.991 1411.99 277.313C1298.84 234.771 1221.83 166.024 1113.83 119.694C1023 80.7368 907.625 73.1561 790.326 111.782C664.08 153.346 568.756 232.485 479.287 301.063C312.698 428.765 140.507 546.53 -87.9385 628.508" stroke="url(#paint27_linear_2_4699)" stroke-width="1.37056" stroke-miterlimit="10"/>
<path d="M1952.57 221.355C1848.88 267.039 1734.42 308.475 1615.1 313.59C1537.78 316.916 1467.68 303.282 1407.39 280.423C1294.33 237.561 1218.5 168.005 1111.28 120.863C1021.2 81.2491 905.838 73.1772 788.233 111.285C662.061 152.133 566.54 230.654 476.943 298.767C311.008 424.911 139.716 541.161 -87.9102 620.815" stroke="url(#paint28_linear_2_4699)" stroke-width="1.37056" stroke-miterlimit="10"/>
<path d="M1951.78 221.52C1847.33 268.031 1731.63 310.707 1610.87 316.423C1533.31 320.094 1463 306.588 1402.74 283.548C1289.75 240.362 1215.06 170.002 1108.69 122.049C1019.36 81.7748 903.992 73.2271 786.016 110.776C659.948 150.899 564.182 228.827 474.544 296.432C309.273 421.036 138.807 535.725 -87.9453 613.131" stroke="url(#paint29_linear_2_4699)" stroke-width="1.37056" stroke-miterlimit="10"/>
<path d="M1950.98 221.632C1845.7 268.916 1728.86 312.895 1606.69 319.165C1528.91 323.166 1458.45 309.766 1398.13 286.58C1285.22 243.058 1211.75 171.921 1106.16 123.144C1017.56 82.2215 902.222 73.1876 783.879 110.215C657.926 149.631 561.965 226.978 472.177 294.108C307.562 417.193 137.906 530.412 -87.958 605.494" stroke="url(#paint30_linear_2_4699)" stroke-width="1.37056" stroke-miterlimit="10"/>
<path d="M1950.22 221.672C1844.7 269.501 1727.39 314.46 1604.54 321.725C1524 326.48 1451.03 312.52 1389.37 287.941C1278.48 243.722 1206.69 172.528 1102.49 123.588C1015.08 82.4924 900.537 73.3513 782.845 109.312C655.109 148.344 557.961 226.406 466.906 293.944C303.858 414.881 135.715 525.561 -87.9297 597.954" stroke="url(#paint31_linear_2_4699)" stroke-width="1.37056" stroke-miterlimit="10"/>
<path d="M1949.48 221.609C1843.15 270.224 1724.69 316.421 1600.43 324.276C1519.67 329.392 1446.47 315.579 1384.83 290.79C1274.02 246.227 1203.43 174.246 1100.04 124.489C1013.31 82.7537 898.834 73.1335 780.788 108.614C653.168 146.964 555.796 224.468 464.592 291.558C302.173 411.05 134.94 520.284 -87.999 590.356" stroke="url(#paint32_linear_2_4699)" stroke-width="1.37056" stroke-miterlimit="10"/>
<path d="M1948.75 221.438C1842.2 270.62 1723.35 317.743 1598.35 326.593C1517.81 332.298 1444.48 319.146 1382.95 294.583C1272.18 250.372 1202.71 178.27 1101.69 127.324C1015.19 83.7131 900.456 72.1094 779.783 107.536C650.537 145.456 551.859 223.847 459.425 291.302C298.647 408.577 132.522 515.555 -87.9336 582.908" stroke="url(#paint33_linear_2_4699)" stroke-width="1.37056" stroke-miterlimit="10"/>
<path d="M1948.05 221.155C1840.65 271.106 1720.7 319.464 1594.31 328.925C1513.54 334.972 1440 321.978 1378.48 297.218C1267.82 252.64 1199.48 179.778 1099.27 128.04C1013.46 83.7328 898.861 71.6837 777.832 106.632C648.684 143.922 549.783 221.781 457.193 288.832C297.058 404.78 131.673 510.382 -87.9229 575.525" stroke="url(#paint34_linear_2_4699)" stroke-width="1.37056" stroke-miterlimit="10"/>
<path d="M1947.38 220.727C1839.16 271.459 1718.08 321.038 1590.29 331.106C1509.32 337.491 1435.58 324.629 1374.04 299.705C1263.44 254.805 1196.29 181.144 1096.92 128.615C1011.82 83.6213 897.346 71.1343 775.952 105.636C646.874 142.332 547.771 219.682 455.036 286.359C295.463 400.992 130.821 505.256 -87.8965 568.212" stroke="url(#paint35_linear_2_4699)" stroke-width="1.37056" stroke-miterlimit="10"/>
<path d="M1946.75 220.15C1838.28 271.403 1716.85 321.871 1588.37 332.971C1504.43 340.206 1428.51 326.829 1365.72 300.336C1257.3 254.595 1191.48 181.19 1093.5 128.454C1008.03 82.482 891.226 70.3159 768.814 106.069C643.903 142.594 547.083 216.59 456.348 281.296C296.331 395.535 131.897 499.704 -87.8555 561.003" stroke="url(#paint36_linear_2_4699)" stroke-width="1.37056" stroke-miterlimit="10"/>
<path d="M1946.14 219.402C1836.86 271.441 1714.31 323.11 1584.42 334.849C1500.27 342.442 1424.16 329.257 1361.37 302.529C1253.07 256.377 1188.43 182.215 1091.28 128.716C1006.51 82.0128 889.838 69.4454 766.996 104.854C642.066 140.854 545.089 214.447 454.221 278.834C294.806 391.804 131.041 494.783 -87.8262 553.902" stroke="url(#paint37_linear_2_4699)" stroke-width="1.37056" stroke-miterlimit="10"/>
<path d="M1945.6 218.469C1836.02 271.03 1713.16 323.57 1582.62 336.295C1498.77 344.501 1422.65 331.988 1359.69 305.537C1249.3 259.167 1185.8 182.812 1088.09 128.113C1004.26 81.184 888.793 68.7107 766.365 103.188C639.702 138.854 541.514 213.44 449.36 278.302C291.518 389.355 128.845 490.283 -87.7568 546.881" stroke="url(#paint38_linear_2_4699)" stroke-width="1.37056" stroke-miterlimit="10"/>
<path d="M1945.08 217.338C1832.5 271.741 1705.23 326.735 1570.47 338.451C1490.53 345.404 1418.33 333.348 1357.99 308.367C1245.56 261.869 1183.07 183.277 1085.01 127.399C1002.29 80.2677 887.631 67.6798 765.723 101.334C640.14 135.993 542.197 209.27 450.755 273.25C292.4 384.002 129.922 485.013 -87.6768 540.001" stroke="url(#paint39_linear_2_4699)" stroke-width="1.37056" stroke-miterlimit="10"/>
<path d="M1944.61 215.982C1761.64 305.068 1535.83 385.959 1353.85 309.927C1241.54 263.046 1180.22 183.68 1083.06 126.958C1001.02 79.1174 886.559 66.1735 764.216 99.6025C638.574 133.959 540.457 206.911 448.736 270.676C291.057 380.294 129.194 480.311 -87.6084 533.252" stroke="url(#paint40_linear_2_4699)" stroke-width="1.37056" stroke-miterlimit="10"/>
<path d="M1944.2 214.41C1759.75 304.792 1528.51 389.285 1345.85 309.644C1235.85 261.682 1176.1 182.601 1080.13 125.742C999.08 77.7281 885.577 64.7889 763.699 97.5147C636.345 131.74 537.037 205.591 444.014 269.92C287.859 377.904 127.104 476.038 -87.5205 526.639" stroke="url(#paint41_linear_2_4699)" stroke-width="1.37056" stroke-miterlimit="10"/>
<path d="M1943.84 212.585C1761.01 302.791 1527.58 390.978 1344.31 311.796C1234.32 264.273 1175.39 185.065 1081.99 127.094C1001.28 76.9928 887.94 62.3445 763.371 95.1699C637.067 128.462 537.893 201.348 445.642 264.852C288.989 372.69 128.257 471.131 -87.3984 520.173" stroke="url(#paint42_linear_2_4699)" stroke-width="1.37056" stroke-miterlimit="10"/>
<path d="M1943.52 210.5C1760.96 301.16 1524.47 392.849 1340.41 312.618C1230.51 264.722 1172.83 184.75 1080.3 125.993C1000.17 75.171 887.183 60.1564 762.084 92.9187C635.713 126.002 536.302 198.729 443.825 262.117C287.798 369.067 127.645 466.683 -87.2803 513.868" stroke="url(#paint43_linear_2_4699)" stroke-width="1.37056" stroke-miterlimit="10"/>
<path d="M1943.28 208.137C1759.19 300.154 1517.43 395.326 1332.81 311.433C1225.19 262.525 1168.91 182.878 1077.66 123.981C997.146 72.0287 881.999 57.458 755.705 91.8113C630.305 125.909 531.797 198.015 439.279 261.193C284.899 366.681 125.723 462.67 -87.1406 507.719" stroke="url(#paint44_linear_2_4699)" stroke-width="1.37056" stroke-miterlimit="10"/>
<path d="M1943.11 205.486C1760.24 297.464 1517.1 395.909 1331.54 312.787C1221.85 263.647 1167.1 181.69 1075.29 121.639C1038.79 97.7515 994.61 76.8329 938.211 71.7724C880.071 66.5813 815.078 72.9108 755.741 88.8808C628.472 123.148 528.849 196.299 434.955 260.215C282.035 364.311 123.897 458.741 -86.9512 501.766" stroke="url(#paint45_linear_2_4699)" stroke-width="1.37056" stroke-miterlimit="10"/>
<path d="M1942.99 202.53C1760.51 294.893 1514.1 396.893 1327.92 312.728C1218.35 263.201 1164.81 180.428 1073.92 119.673C1037.81 95.4871 994.006 74.2089 937.639 68.9356C879.539 63.4996 814.132 70.017 754.75 85.9865C627.245 120.292 527.506 193.368 433.324 257.344C281.074 360.747 123.496 454.624 -86.7812 495.952" stroke="url(#paint46_linear_2_4699)" stroke-width="1.37056" stroke-miterlimit="10"/>
<path d="M1942.95 199.247C1761.67 291.521 1513.82 396.654 1326.73 313.426C1215.16 263.796 1162.65 178.74 1071.8 116.698C1036.29 92.4462 993.008 71.1333 937.161 65.6335C879.722 59.9882 813.772 66.7179 754.972 82.4754C628.313 116.401 528.892 188.535 435.218 252.06C282.509 355.633 124.803 450.306 -86.6113 490.381" stroke="url(#paint47_linear_2_4699)" stroke-width="1.37056" stroke-miterlimit="10"/>
<path d="M1942.99 195.624C1760.8 288.942 1506.82 398.312 1319.59 311.092C1212.29 261.11 1160.87 178.358 1074.07 116.377C1038.28 90.8235 994.41 67.9371 936.705 62.1452C879.403 56.4072 814.022 63.1926 755.316 78.8009C626.736 112.972 526.111 186.554 431.111 250.868C279.9 353.288 123.233 446.695 -86.4111 484.998" stroke="url(#paint48_linear_2_4699)" stroke-width="1.37056" stroke-miterlimit="10"/>
<path d="M1943.1 191.65C1761.4 285.254 1504.03 398.335 1316.28 310.034C1209.14 259.65 1158.95 176.099 1073.13 113.379C1037.76 87.545 994.277 64.2662 936.619 58.2584C879.365 52.2801 813.457 59.4171 754.748 75.0934C625.868 109.516 525.008 183.27 429.755 247.797C279.212 349.769 122.979 442.988 -86.1611 479.809" stroke="url(#paint49_linear_2_4699)" stroke-width="1.37056" stroke-miterlimit="10"/>
<path d="M1943.29 187.307C1763.33 280.554 1503.57 397.329 1315.31 309.662C1206.32 258.906 1157.35 173.249 1071.35 109.274C1036.63 83.4357 993.586 60.1446 936.505 53.9017C879.779 47.7136 813.462 55.3029 755.271 70.7765C627.21 104.812 526.339 178.216 431.805 242.357C280.96 344.745 124.504 439.117 -85.9033 474.858" stroke="url(#paint50_linear_2_4699)" stroke-width="1.37056" stroke-miterlimit="10"/>
<path d="M1943.57 182.634C1763.64 275.622 1504.24 391.942 1316.03 304.834C1206.98 254.346 1157.76 168.952 1071.79 105.109C1036.97 79.2407 993.865 55.9092 936.87 49.4446C880.343 43.0745 813.453 51.4224 755.539 66.9987C627.496 101.457 526.536 174.546 431.629 238.66C280.752 340.547 124.289 434.488 -85.5352 470.104" stroke="url(#paint51_linear_2_4699)" stroke-width="1.37056" stroke-miterlimit="10"/>
<path d="M1943.97 177.944C1762.47 270.748 1506.15 382.7 1318.31 296.151C1210.95 246.687 1159.91 163.948 1074.27 101.784C1038.61 75.8871 995.002 52.5523 937.423 46.0223C880.698 39.5505 813.185 48.7875 755.255 64.7359C626.651 100.124 525.337 172.85 428.939 237.136C278.241 337.575 121.986 429.144 -85.3447 465.377" stroke="url(#paint52_linear_2_4699)" stroke-width="1.37056" stroke-miterlimit="10"/>
<path d="M1944.46 173.276C1764.12 264.567 1514.62 371.736 1326.62 290.554C1214.83 242.282 1162 157.934 1072.5 96.2025C1036.88 71.6381 993.742 49.9755 938.105 43.4429C881.529 36.7899 812.622 47.0863 754.924 63.2115C628.541 98.5696 528.081 168.981 432.244 232.017C279.949 332.224 122.682 423.462 -85.0674 460.653" stroke="url(#paint53_linear_2_4699)" stroke-width="1.37056" stroke-miterlimit="10"/>
<path d="M1945.05 168.65C1763.98 259.432 1516.46 363.408 1328.99 282.804C1219.04 235.525 1164.59 154.314 1075.14 94.4441C1038.65 70.0198 994.927 48.5267 938.828 41.9607C881.801 35.2913 812.719 46.3026 754.796 62.6568C628.018 98.4034 526.779 168.542 429.62 231.413C277.465 329.881 120.332 418.51 -84.7988 455.924" stroke="url(#paint54_linear_2_4699)" stroke-width="1.37056" stroke-miterlimit="10"/>
<path d="M1945.74 164.045C1764.07 254.314 1518.42 355.22 1331.41 275.502C1223.39 229.448 1166.77 151.479 1077.86 93.4923C1040.63 69.2035 996.098 47.9596 939.722 41.3032C882.681 34.568 812.595 46.4481 754.654 62.8417C630.191 98.1264 529.634 165.944 433.148 227.271C279.135 325.174 120.819 413.144 -84.5391 451.213" stroke="url(#paint55_linear_2_4699)" stroke-width="1.37056" stroke-miterlimit="10"/>
<path d="M1946.49 159.473C1765.2 248.82 1523.26 346.473 1336.29 269.653C1227.98 225.155 1169.44 148.979 1079.71 92.5954C1041.8 68.7786 996.786 48.1574 940.486 41.5706C883.563 34.9484 813.383 47.2362 755.667 63.5303C631.854 98.4827 531.028 164.883 433.975 225.334C278.947 321.919 119.933 408.181 -84.2012 446.416" stroke="url(#paint56_linear_2_4699)" stroke-width="1.37056" stroke-miterlimit="10"/>
<path d="M1947.33 154.939C1768.16 242.531 1532.03 336.966 1344.97 265.701C1234.42 223.53 1173.53 148.203 1082.66 92.997C1043.91 69.4521 998.152 49.1769 941.453 42.7636C885.883 36.4746 818.363 48.2333 761.924 63.5092C637.727 97.1474 535.559 162.436 437.597 222.128C280.541 317.833 120.333 403.11 -83.9941 441.742" stroke="url(#paint57_linear_2_4699)" stroke-width="1.37056" stroke-miterlimit="10"/>
<path d="M1948.23 150.437C1768.48 237.678 1534.83 329.281 1347.55 259.649C1236.74 218.452 1174.25 144.492 1081 91.3295C1042.39 69.3306 997.282 50.7392 942.567 44.6504C886.894 38.4441 818.513 50.6754 762.035 65.9567C637.454 99.6674 534.542 163.976 434.996 223.144C277.951 316.493 117.74 398.744 -83.6846 437.003" stroke="url(#paint58_linear_2_4699)" stroke-width="1.37056" stroke-miterlimit="10"/>
<path d="M1949.18 145.971C1770.16 232.247 1540 321.292 1352.63 254.903C1241.62 215.559 1177.06 143.753 1083.02 92.4954C1043.76 71.0833 998.168 53.1757 943.55 47.3323C887.893 41.3825 819.726 53.6515 763.176 68.7455C639.336 101.809 536.056 164.406 435.904 222.384C277.696 313.967 116.706 394.188 -83.4268 432.265" stroke="url(#paint59_linear_2_4699)" stroke-width="1.37056" stroke-miterlimit="10"/>
<path d="M1950.19 141.538C1773.26 226.254 1549.18 312.321 1361.76 251.753C1248.53 215.157 1181.36 144.613 1086.13 94.818C1045.98 73.8205 999.713 56.3605 944.703 50.8005C888.593 45.1181 820.199 57.413 763.412 72.3863C641.913 104.467 539.292 164.363 439.765 220.36C279.38 310.591 117.074 389.474 -83.0977 427.52" stroke="url(#paint60_linear_2_4699)" stroke-width="1.37056" stroke-miterlimit="10"/>
<path d="M1951.23 137.138C1775.2 220.938 1554.46 304.79 1366.95 247.583C1253.6 213.031 1184.3 144.847 1088.28 97.1069C1047.4 76.7977 1000.71 60.1305 945.802 54.877C889.593 49.5047 821.543 61.6954 764.679 76.3838C643.921 107.651 540.892 165.7 440.739 220.33C279.141 308.487 116.014 385.131 -82.8105 422.759" stroke="url(#paint61_linear_2_4699)" stroke-width="1.37056" stroke-miterlimit="10"/>
<path d="M1952.3 132.779C1776.14 216.183 1557.64 298.055 1369.68 242.994C1258.04 210.287 1187.2 145.692 1091.6 100.445C1049.8 80.6654 1002.34 64.582 947.177 59.5679C890.653 54.4189 822.161 66.7275 764.919 81.2902C643.872 112.08 539.815 168.911 438.138 222.56C276.458 307.831 113.353 381.212 -82.5732 418.073" stroke="url(#paint62_linear_2_4699)" stroke-width="1.37056" stroke-miterlimit="10"/>
<path d="M1953.39 128.465C1778.55 210.832 1562.74 291.096 1374.92 239.451C1263.3 208.757 1190.24 146.837 1093.83 103.725C1051.33 84.7362 1003.41 69.4879 948.343 64.8611C891.683 60.0888 823.666 72.127 766.262 86.3426C645.995 116.147 541.461 170.98 439.166 223.076C276.306 305.992 112.228 377.111 -82.2842 413.336" stroke="url(#paint63_linear_2_4699)" stroke-width="1.37056" stroke-miterlimit="10"/>
<path d="M1954.5 124.182C1779.66 206.167 1566.08 284.657 1377.63 235.511C1267.75 206.858 1193.12 148.55 1097.24 107.99C1053.77 89.6056 1005.17 74.9957 949.722 70.7745C892.409 66.4027 824.628 78.0501 766.565 92.1304C648.616 120.727 544.827 172.614 443.129 222.455C277.924 303.42 112.435 372.79 -81.9688 408.624" stroke="url(#paint64_linear_2_4699)" stroke-width="1.37056" stroke-miterlimit="10"/>
<path d="M1955.63 119.933C1781.9 201.062 1571.54 277.852 1382.95 232.53C1272.97 206.097 1196.14 150.449 1099.64 112.153C1055.42 94.634 1006.41 80.9268 951.065 77.1464C893.56 73.2085 826.325 84.4524 768.026 98.1037C650.788 125.577 546.547 175.394 444.203 223.551C277.741 301.888 111.347 368.791 -81.7402 403.871" stroke="url(#paint65_linear_2_4699)" stroke-width="1.37056" stroke-miterlimit="10"/>
<path d="M1956.77 115.718C1784.23 196.008 1577 271.191 1388.3 229.767C1278.23 205.604 1199.33 152.652 1101.97 116.659C1057.04 100.047 1007.59 87.2532 952.361 83.9258C894.647 80.4491 828.053 91.2021 769.519 104.461C652.991 130.786 548.295 178.473 445.339 224.867C277.602 300.45 110.27 364.858 -81.4619 399.143" stroke="url(#paint66_linear_2_4699)" stroke-width="1.37056" stroke-miterlimit="10"/>
<path d="M1957.85 111.57C1788.08 190.285 1585.62 263.851 1397.69 228.065C1285.95 206.764 1204.33 156.008 1105.53 121.956C1059.62 106.118 1009.4 94.0864 953.895 91.143C897.615 88.1668 833.587 97.9913 776.37 110.06C657.175 135.214 549.076 182.246 442.67 228.047C275.083 300.126 107.692 361.22 -81.1729 394.405" stroke="url(#paint67_linear_2_4699)" stroke-width="1.37056" stroke-miterlimit="10"/>
<path d="M1958.95 107.444C1790.3 185.421 1590.9 257.533 1403.05 225.625C1291.32 206.628 1207.51 158.812 1107.97 127.122C1061.34 112.273 1010.7 101.188 955.289 98.749C898.772 96.2565 835.341 105.559 777.906 117.16C659.498 141.118 550.852 185.823 443.841 229.65C274.986 298.764 106.698 357.358 -80.9268 389.685" stroke="url(#paint68_linear_2_4699)" stroke-width="1.37056" stroke-miterlimit="10"/>
<path d="M1960.03 103.368C1792.52 180.598 1596.17 251.335 1408.45 223.385C1296.69 206.747 1210.76 161.899 1110.48 132.608C1008.27 102.756 900.802 101.226 779.516 124.591C661.761 147.28 552.678 189.662 444.972 231.51C275.009 297.494 105.78 353.521 -80.627 384.942" stroke="url(#paint69_linear_2_4699)" stroke-width="1.37056" stroke-miterlimit="10"/>
<path d="M1961.06 99.3338C1794.7 175.851 1601.28 245.22 1413.75 221.243C1301.98 206.968 1213.93 165.157 1112.89 138.284C1009.69 110.839 901.353 110.203 781.036 132.23C663.974 153.657 554.4 193.654 446.122 233.413C275.04 296.239 104.9 349.713 -80.3496 380.213" stroke="url(#paint70_linear_2_4699)" stroke-width="1.37056" stroke-miterlimit="10"/>
<path d="M1962.04 95.3376C1795.77 171.607 1604.43 239.795 1416.34 218.942C1304.2 206.525 1213.72 167.319 1110.94 143.145C1007.88 118.905 899.214 119.836 781.621 140.272C666.594 160.29 557.888 197.231 450.279 234.413C277.063 294.34 105.251 345.72 -80.0713 375.472" stroke="url(#paint71_linear_2_4699)" stroke-width="1.37056" stroke-miterlimit="10"/>
<path d="M1962.96 91.3851C1797.9 166.983 1609.37 233.941 1421.67 217.151C1309.51 207.121 1216.91 171.093 1113.46 149.387C898.699 104.24 668.876 166.204 451.443 236.693C277.239 293.167 104.523 341.925 -79.793 370.747" stroke="url(#paint72_linear_2_4699)" stroke-width="1.37056" stroke-miterlimit="10"/>
<path d="M1963.88 87.483C1799.92 162.414 1614.15 228.187 1426.94 215.438C1314.72 207.82 1220.03 175.022 1115.83 155.701C900.825 115.822 671.078 172.944 452.627 239.016C277.483 291.986 103.835 338.158 -79.5166 366.018" stroke="url(#paint73_linear_2_4699)" stroke-width="1.37056" stroke-miterlimit="10"/>
<path d="M1964.71 83.6241C1801.86 157.91 1618.85 222.566 1432.17 213.804C1319.95 208.529 1223.19 179.054 1118.21 162.13C903.017 127.473 673.092 179.838 453.836 241.377C277.819 290.803 103.269 334.366 -79.2471 361.289" stroke="url(#paint74_linear_2_4699)" stroke-width="1.37056" stroke-miterlimit="10"/>
<path d="M1965.45 79.8154C1805.21 152.772 1626.18 216.145 1441.76 212.302C1328.19 209.941 1228.52 183.595 1121.94 168.856C907.152 139.16 677.554 186.204 458.052 243.027C280.271 289.047 103.833 330.417 -78.9473 356.564" stroke="url(#paint75_linear_2_4699)" stroke-width="1.37056" stroke-miterlimit="10"/>
<path d="M1966.12 76.0516C1806.95 148.38 1630.44 210.707 1446.93 210.675C1333.31 210.655 1231.74 187.708 1124.36 175.382C909.295 150.716 679.231 193.347 459.248 245.523C280.755 287.86 103.484 326.606 -78.6787 351.834" stroke="url(#paint76_linear_2_4699)" stroke-width="1.37056" stroke-miterlimit="10"/>
<path d="M1966.69 72.3307C1808.59 144.032 1634.52 205.38 1452.03 209.073C1338.34 211.375 1234.88 191.819 1126.74 181.91C911.34 162.173 680.845 200.477 460.432 248.019C281.318 286.654 103.263 322.775 -78.4004 347.113" stroke="url(#paint77_linear_2_4699)" stroke-width="1.37056" stroke-miterlimit="10"/>
<path d="M1967.17 68.6648C1810.15 139.738 1638.38 200.144 1457.09 207.488C1343.33 212.091 1238.1 195.958 1129.12 188.412C913.267 173.503 682.41 207.595 461.626 250.494C281.949 285.407 103.171 318.906 -78.1211 342.379" stroke="url(#paint78_linear_2_4699)" stroke-width="1.37056" stroke-miterlimit="10"/>
<path d="M1967.55 65.0534C1811.58 135.478 1642.08 195.003 1462.08 205.893C1348.2 212.775 1241.22 200.018 1131.47 194.823C914.961 184.658 683.978 214.635 462.817 252.924C282.676 284.113 103.24 315.043 -77.8408 337.661" stroke="url(#paint79_linear_2_4699)" stroke-width="1.37056" stroke-miterlimit="10"/>
<path d="M1967.86 61.481C1812.04 131.599 1643.67 190.538 1464.17 204.475C1351.68 213.231 1244.32 204.066 1135.12 201.196C1023.84 198.299 907.832 205.747 794.009 214.845C682.714 223.735 571.362 238.904 460.144 255.865C280.904 283.194 102.079 311.235 -77.5625 332.941" stroke="url(#paint80_linear_2_4699)" stroke-width="1.37056" stroke-miterlimit="10"/>
<path d="M1967.94 57.9615C1813.26 127.4 1646.91 185.579 1469.02 202.844C1356.26 213.788 1247.48 207.933 1137.41 207.363C1025.29 206.784 909.444 214.886 795.599 222.799C684.335 230.539 572.767 243.379 461.316 258.05C281.749 281.742 102.388 307.259 -77.3037 328.227" stroke="url(#paint81_linear_2_4699)" stroke-width="1.37056" stroke-miterlimit="10"/>
<path d="M1967.94 54.494C1814.34 123.207 1649.91 180.7 1473.77 201.15C1360.76 214.267 1250.59 211.683 1139.65 213.347C1026.62 215.078 911.183 223.789 797.189 230.565C685.877 237.178 574.212 247.661 462.475 260.136C282.653 280.224 102.829 303.237 -77.002 323.499" stroke="url(#paint82_linear_2_4699)" stroke-width="1.37056" stroke-miterlimit="10"/>
<path d="M1967.82 51.0734C1815.27 119.032 1652.68 175.901 1478.42 199.363C1365.14 214.618 1253.67 215.267 1141.82 219.143C1087.31 221.029 1032.61 223.871 977.688 229.123C917.89 234.828 858.288 235.17 798.783 238.118C687.375 243.642 575.668 251.638 463.663 262.105C283.618 278.615 103.383 299.173 -76.7227 318.783" stroke="url(#paint83_linear_2_4699)" stroke-width="1.37056" stroke-miterlimit="10"/>
<path d="M1967.55 47.7019C1815.13 115.272 1653.51 171.726 1480.11 197.912C1368 214.82 1256.7 218.686 1145.41 224.595C1090.16 227.54 1034.78 231.186 979.239 236.901C919.094 243.086 858.916 242.999 799.168 245.395C689.006 249.84 578.594 255.687 467.879 263.683C286.738 276.725 105.11 294.949 -76.4414 314.073" stroke="url(#paint84_linear_2_4699)" stroke-width="1.37056" stroke-miterlimit="10"/>
<path d="M1967.09 44.4071C1815.74 111.122 1655.83 167.057 1484.55 195.962C1372.05 214.944 1259.71 221.828 1147.48 229.853C1091.93 233.844 1036.26 238.258 980.54 244.399C920.495 251.019 860.154 250.525 800.682 252.346C690.308 255.768 579.933 259.473 469.046 265.338C287.815 274.982 105.919 290.792 -76.1709 309.358" stroke="url(#paint85_linear_2_4699)" stroke-width="1.37056" stroke-miterlimit="10"/>
<path d="M1966.5 41.1558C1816.19 106.945 1657.95 162.428 1488.88 193.866C1376.02 214.859 1262.66 224.712 1149.51 234.789C1093.64 239.762 1037.74 244.942 981.753 251.483C921.836 258.492 861.324 257.646 802.082 258.956C691.481 261.418 581.033 262.978 470.082 266.832C288.905 273.144 106.803 286.557 -75.9111 304.632" stroke="url(#paint86_linear_2_4699)" stroke-width="1.37056" stroke-miterlimit="10"/>
<path d="M1965.73 37.9513C1816.52 102.778 1659.88 157.812 1493.12 191.604C1379.86 214.548 1265.56 227.307 1151.47 239.375C1095.33 245.31 1039.16 251.206 983.073 258.186C923.222 265.567 862.553 264.412 803.581 265.215C692.683 266.722 582.241 266.268 471.216 268.132C290.038 271.18 107.784 282.269 -75.5986 299.94" stroke="url(#paint87_linear_2_4699)" stroke-width="1.37056" stroke-miterlimit="10"/>
<path d="M1964.78 34.812C1818.06 97.9736 1664.46 152.271 1501.81 188.18C1387.12 213.5 1270.92 229.254 1154.88 243.401C1098.07 250.318 1041.25 256.976 984.445 264.348C924.223 272.151 863.038 270.699 803.898 271.046C691.641 271.704 580.34 269.186 468.281 269.189C288.832 269.266 107.121 277.972 -75.3281 295.232" stroke="url(#paint88_linear_2_4699)" stroke-width="1.37056" stroke-miterlimit="10"/>
<path d="M1963.65 31.7228C1817.98 93.7562 1665.98 147.641 1505.8 185.468C1390.67 212.635 1273.61 231.121 1156.68 247.156C1099.66 254.97 1042.6 262.297 985.566 270.002C925.466 278.108 864.141 276.473 805.247 276.386C692.593 276.233 581.382 271.763 469.269 269.914C290.158 266.821 108.047 273.716 -75.0352 290.522" stroke="url(#paint89_linear_2_4699)" stroke-width="1.37056" stroke-miterlimit="10"/>
<path d="M1962.31 28.6959C1817.69 89.5203 1667.35 143.022 1509.69 182.562C1394.08 211.532 1276.4 232.648 1158.47 250.494C1101.24 259.15 1043.91 267.112 986.638 275.109C926.629 283.492 865.24 281.743 806.573 281.261C693.514 280.34 582.398 273.992 470.294 270.344C290.84 264.501 109.766 269.114 -74.7539 285.826" stroke="url(#paint90_linear_2_4699)" stroke-width="1.37056" stroke-miterlimit="10"/>
<path d="M1960.78 25.7264C1783.95 99.0183 1599.7 161.626 1406.25 205.722C1332.12 222.621 1257.29 236.947 1182.26 249.616C1109.42 261.925 1032.46 277.093 959.371 283.661C886.669 290.169 810.793 286.331 740.283 283.959C668.018 281.52 596.565 277.071 524.88 273.227C327.833 262.642 130.126 262.82 -74.4912 281.121" stroke="url(#paint91_linear_2_4699)" stroke-width="1.37056" stroke-miterlimit="10"/>
<path d="M1959.03 22.8147C1782.95 94.5581 1600.33 157.501 1409.45 203.973C1334.96 222.088 1259.61 237.835 1183.97 251.623C1111.11 264.902 1033.67 280.82 960.339 287.596C887.644 294.306 811.697 290.244 741.58 287.233C669.107 284.153 597.661 278.687 525.974 273.81C329.008 260.438 131.651 258.13 -74.1973 276.432" stroke="url(#paint92_linear_2_4699)" stroke-width="1.37056" stroke-miterlimit="10"/>
<path d="M1957.08 19.958C1780.49 90.4902 1598.41 154.087 1408.84 202.807C1333.4 222.21 1257.23 239.312 1180.33 254.114C1108.85 267.938 1033.31 283.583 961.207 290.468C815.552 304.333 667.809 285.639 530.525 274.363C332.556 258.148 134.482 253.259 -73.9053 271.734" stroke="url(#paint93_linear_2_4699)" stroke-width="1.37056" stroke-miterlimit="10"/>
<path d="M1954.87 17.1645C1778.9 85.8281 1598.72 149.76 1411.76 200.377C1335.93 220.942 1259.19 239.196 1181.83 255.066C1110.22 269.756 1034.48 285.878 962.07 292.949C815.819 307.237 668.237 287.193 531.512 274.238C333.73 255.5 136.09 248.328 -73.6006 267.068" stroke="url(#paint94_linear_2_4699)" stroke-width="1.37056" stroke-miterlimit="10"/>
<path d="M1952.45 14.4319C1775.73 81.5491 1596.39 146.135 1410.74 198.622C1338.63 219.003 1265.73 237.47 1192.09 253.512C1117.85 269.675 1038.32 287.438 962.86 294.952C817.491 309.448 671.005 288.446 536.086 274.074C337.234 252.842 139.028 243.228 -73.3379 262.352" stroke="url(#paint95_linear_2_4699)" stroke-width="1.37056" stroke-miterlimit="10"/>
<path d="M1949.78 11.765C1773.44 76.6222 1596.45 141.523 1413.34 195.411C1340.96 216.86 1267.55 236.126 1193.41 253.133C1118.98 270.085 1039.4 288.034 963.568 295.791C817.474 310.722 671.576 288.955 537.028 273.093C338.339 249.716 140.581 238.04 -73.0615 257.677" stroke="url(#paint96_linear_2_4699)" stroke-width="1.37056" stroke-miterlimit="10"/>
<path d="M1946.85 9.16327C1770.85 71.5023 1596.27 136.67 1415.79 191.749C1272.84 235.365 1114.84 279.958 964.183 295.741C817.276 311.126 672.292 288.826 537.888 271.665C339.393 246.312 142.104 232.75 -72.7686 252.992" stroke="url(#paint97_linear_2_4699)" stroke-width="1.37056" stroke-miterlimit="10"/>
<path d="M1943.64 6.6261C1771.71 64.8692 1603.29 128.791 1429.47 184.014C1282.15 230.817 1121.06 277.702 964.701 294.58C815.484 310.635 670.863 287.8 535.126 269.222C338.088 242.269 142.102 227.498 -72.4814 248.315" stroke="url(#paint98_linear_2_4699)" stroke-width="1.37056" stroke-miterlimit="10"/>
<path d="M1940.21 4.1322C1768.62 59.2544 1602.78 123.413 1431.65 179.24C1283.51 227.567 1123.11 275.222 965.197 292.656C815.052 309.218 671.717 286.364 535.949 266.728C339.001 238.202 143.518 221.904 -72.2051 243.638" stroke="url(#paint99_linear_2_4699)" stroke-width="1.37056" stroke-miterlimit="10"/>
<path d="M1936.49 1.71439C1764.02 53.6592 1599.51 118.756 1429.73 175.245C1282.13 224.412 1123.52 272.109 965.565 289.851C813.163 306.964 670.214 283.917 533.007 263.101C337.66 233.467 143.235 216.356 -71.9199 238.972" stroke="url(#paint100_linear_2_4699)" stroke-width="1.37056" stroke-miterlimit="10"/>
<path d="M1932.47 -0.636137C1609.8 89.2256 1308.12 246.51 965.884 285.804C812.356 303.464 671.511 281.15 533.696 259.449C338.448 228.709 144.433 210.479 -71.6221 234.298" stroke="url(#paint101_linear_2_4699)" stroke-width="1.37056" stroke-miterlimit="10"/>
</g>
</g>
<defs>
<linearGradient id="paint0_linear_2_4699" x1="-89.9307" y1="812.34" x2="518.595" y2="1512.89" gradientUnits="userSpaceOnUse">
<stop stop-color="#3F34EC"/>
<stop offset="1" stop-color="#13D8D4"/>
</linearGradient>
<linearGradient id="paint1_linear_2_4699" x1="-89.6729" y1="807.471" x2="519.082" y2="1508.24" gradientUnits="userSpaceOnUse">
<stop stop-color="#3F34EC"/>
<stop offset="1" stop-color="#13D8D4"/>
</linearGradient>
<linearGradient id="paint2_linear_2_4699" x1="-89.4238" y1="802.371" x2="519.92" y2="1503.71" gradientUnits="userSpaceOnUse">
<stop stop-color="#3F34EC"/>
<stop offset="1" stop-color="#13D8D4"/>
</linearGradient>
<linearGradient id="paint3_linear_2_4699" x1="-89.2461" y1="797.041" x2="521.07" y2="1499.33" gradientUnits="userSpaceOnUse">
<stop stop-color="#3F34EC"/>
<stop offset="1" stop-color="#13D8D4"/>
</linearGradient>
<linearGradient id="paint4_linear_2_4699" x1="-89.0078" y1="791.537" x2="522.563" y2="1495.04" gradientUnits="userSpaceOnUse">
<stop stop-color="#3F34EC"/>
<stop offset="1" stop-color="#13D8D4"/>
</linearGradient>
<linearGradient id="paint5_linear_2_4699" x1="-88.8623" y1="785.841" x2="524.306" y2="1490.89" gradientUnits="userSpaceOnUse">
<stop stop-color="#3F34EC"/>
<stop offset="1" stop-color="#13D8D4"/>
</linearGradient>
<linearGradient id="paint6_linear_2_4699" x1="-88.665" y1="779.895" x2="526.417" y2="1486.79" gradientUnits="userSpaceOnUse">
<stop stop-color="#3F34EC"/>
<stop offset="1" stop-color="#13D8D4"/>
</linearGradient>
<linearGradient id="paint7_linear_2_4699" x1="-88.4902" y1="773.777" x2="528.794" y2="1482.8" gradientUnits="userSpaceOnUse">
<stop stop-color="#3F34EC"/>
<stop offset="1" stop-color="#13D8D4"/>
</linearGradient>
<linearGradient id="paint8_linear_2_4699" x1="-88.335" y1="767.486" x2="531.442" y2="1478.91" gradientUnits="userSpaceOnUse">
<stop stop-color="#3F34EC"/>
<stop offset="1" stop-color="#13D8D4"/>
</linearGradient>
<linearGradient id="paint9_linear_2_4699" x1="-88.249" y1="761.102" x2="534.255" y2="1475.15" gradientUnits="userSpaceOnUse">
<stop stop-color="#3F34EC"/>
<stop offset="1" stop-color="#13D8D4"/>
</linearGradient>
<linearGradient id="paint10_linear_2_4699" x1="-88.1826" y1="754.508" x2="537.349" y2="1471.46" gradientUnits="userSpaceOnUse">
<stop stop-color="#3F34EC"/>
<stop offset="1" stop-color="#13D8D4"/>
</linearGradient>
<linearGradient id="paint11_linear_2_4699" x1="-88.0781" y1="747.76" x2="540.703" y2="1467.81" gradientUnits="userSpaceOnUse">
<stop stop-color="#3F34EC"/>
<stop offset="1" stop-color="#13D8D4"/>
</linearGradient>
<linearGradient id="paint12_linear_2_4699" x1="-88.0332" y1="740.921" x2="544.209" y2="1464.27" gradientUnits="userSpaceOnUse">
<stop stop-color="#3F34EC"/>
<stop offset="1" stop-color="#13D8D4"/>
</linearGradient>
<linearGradient id="paint13_linear_2_4699" x1="-87.957" y1="733.935" x2="547.964" y2="1460.78" gradientUnits="userSpaceOnUse">
<stop stop-color="#3F34EC"/>
<stop offset="1" stop-color="#13D8D4"/>
</linearGradient>
<linearGradient id="paint14_linear_2_4699" x1="-87.9219" y1="726.833" x2="551.901" y2="1457.36" gradientUnits="userSpaceOnUse">
<stop stop-color="#3F34EC"/>
<stop offset="1" stop-color="#13D8D4"/>
</linearGradient>
<linearGradient id="paint15_linear_2_4699" x1="-87.8975" y1="719.628" x2="555.963" y2="1453.96" gradientUnits="userSpaceOnUse">
<stop stop-color="#3F34EC"/>
<stop offset="1" stop-color="#13D8D4"/>
</linearGradient>
<linearGradient id="paint16_linear_2_4699" x1="-87.8633" y1="712.326" x2="560.22" y2="1450.62" gradientUnits="userSpaceOnUse">
<stop stop-color="#3F34EC"/>
<stop offset="1" stop-color="#13D8D4"/>
</linearGradient>
<linearGradient id="paint17_linear_2_4699" x1="-87.8477" y1="704.946" x2="564.62" y2="1447.34" gradientUnits="userSpaceOnUse">
<stop stop-color="#3F34EC"/>
<stop offset="1" stop-color="#13D8D4"/>
</linearGradient>
<linearGradient id="paint18_linear_2_4699" x1="-87.8047" y1="697.503" x2="569.155" y2="1444.07" gradientUnits="userSpaceOnUse">
<stop stop-color="#3F34EC"/>
<stop offset="1" stop-color="#13D8D4"/>
</linearGradient>
<linearGradient id="paint19_linear_2_4699" x1="-87.8281" y1="689.956" x2="573.802" y2="1440.85" gradientUnits="userSpaceOnUse">
<stop stop-color="#3F34EC"/>
<stop offset="1" stop-color="#13D8D4"/>
</linearGradient>
<linearGradient id="paint20_linear_2_4699" x1="-87.832" y1="682.344" x2="578.576" y2="1437.64" gradientUnits="userSpaceOnUse">
<stop stop-color="#3F34EC"/>
<stop offset="1" stop-color="#13D8D4"/>
</linearGradient>
<linearGradient id="paint21_linear_2_4699" x1="-87.7979" y1="674.743" x2="583.423" y2="1434.44" gradientUnits="userSpaceOnUse">
<stop stop-color="#3F34EC"/>
<stop offset="1" stop-color="#13D8D4"/>
</linearGradient>
<linearGradient id="paint22_linear_2_4699" x1="-87.8516" y1="667.073" x2="588.329" y2="1431.3" gradientUnits="userSpaceOnUse">
<stop stop-color="#3F34EC"/>
<stop offset="1" stop-color="#13D8D4"/>
</linearGradient>
<linearGradient id="paint23_linear_2_4699" x1="-87.8555" y1="659.368" x2="593.33" y2="1428.13" gradientUnits="userSpaceOnUse">
<stop stop-color="#3F34EC"/>
<stop offset="1" stop-color="#13D8D4"/>
</linearGradient>
<linearGradient id="paint24_linear_2_4699" x1="-87.8496" y1="651.669" x2="598.367" y2="1424.96" gradientUnits="userSpaceOnUse">
<stop stop-color="#3F34EC"/>
<stop offset="1" stop-color="#13D8D4"/>
</linearGradient>
<linearGradient id="paint25_linear_2_4699" x1="-87.8926" y1="643.962" x2="603.421" y2="1421.83" gradientUnits="userSpaceOnUse">
<stop stop-color="#3F34EC"/>
<stop offset="1" stop-color="#13D8D4"/>
</linearGradient>
<linearGradient id="paint26_linear_2_4699" x1="-87.9062" y1="636.208" x2="608.534" y2="1418.65" gradientUnits="userSpaceOnUse">
<stop stop-color="#3F34EC"/>
<stop offset="1" stop-color="#13D8D4"/>
</linearGradient>
<linearGradient id="paint27_linear_2_4699" x1="-87.9385" y1="628.508" x2="613.619" y2="1415.48" gradientUnits="userSpaceOnUse">
<stop stop-color="#3F34EC"/>
<stop offset="1" stop-color="#13D8D4"/>
</linearGradient>
<linearGradient id="paint28_linear_2_4699" x1="-87.9102" y1="620.815" x2="618.734" y2="1412.27" gradientUnits="userSpaceOnUse">
<stop stop-color="#3F34EC"/>
<stop offset="1" stop-color="#13D8D4"/>
</linearGradient>
<linearGradient id="paint29_linear_2_4699" x1="-87.9453" y1="613.131" x2="623.801" y2="1409.05" gradientUnits="userSpaceOnUse">
<stop stop-color="#3F34EC"/>
<stop offset="1" stop-color="#13D8D4"/>
</linearGradient>
<linearGradient id="paint30_linear_2_4699" x1="-87.958" y1="605.494" x2="628.832" y2="1405.8" gradientUnits="userSpaceOnUse">
<stop stop-color="#3F34EC"/>
<stop offset="1" stop-color="#13D8D4"/>
</linearGradient>
<linearGradient id="paint31_linear_2_4699" x1="-87.9297" y1="597.954" x2="633.8" y2="1402.54" gradientUnits="userSpaceOnUse">
<stop stop-color="#3F34EC"/>
<stop offset="1" stop-color="#13D8D4"/>
</linearGradient>
<linearGradient id="paint32_linear_2_4699" x1="-87.999" y1="590.356" x2="638.718" y2="1399.23" gradientUnits="userSpaceOnUse">
<stop stop-color="#3F34EC"/>
<stop offset="1" stop-color="#13D8D4"/>
</linearGradient>
<linearGradient id="paint33_linear_2_4699" x1="-87.9336" y1="582.908" x2="643.55" y2="1395.85" gradientUnits="userSpaceOnUse">
<stop stop-color="#3F34EC"/>
<stop offset="1" stop-color="#13D8D4"/>
</linearGradient>
<linearGradient id="paint34_linear_2_4699" x1="-87.9229" y1="575.525" x2="648.261" y2="1392.46" gradientUnits="userSpaceOnUse">
<stop stop-color="#3F34EC"/>
<stop offset="1" stop-color="#13D8D4"/>
</linearGradient>
<linearGradient id="paint35_linear_2_4699" x1="-87.8965" y1="568.212" x2="652.862" y2="1389.01" gradientUnits="userSpaceOnUse">
<stop stop-color="#3F34EC"/>
<stop offset="1" stop-color="#13D8D4"/>
</linearGradient>
<linearGradient id="paint36_linear_2_4699" x1="-87.8555" y1="561.003" x2="657.323" y2="1385.51" gradientUnits="userSpaceOnUse">
<stop stop-color="#3F34EC"/>
<stop offset="1" stop-color="#13D8D4"/>
</linearGradient>
<linearGradient id="paint37_linear_2_4699" x1="-87.8262" y1="553.902" x2="661.608" y2="1381.97" gradientUnits="userSpaceOnUse">
<stop stop-color="#3F34EC"/>
<stop offset="1" stop-color="#13D8D4"/>
</linearGradient>
<linearGradient id="paint38_linear_2_4699" x1="-87.7568" y1="546.881" x2="665.768" y2="1378.34" gradientUnits="userSpaceOnUse">
<stop stop-color="#3F34EC"/>
<stop offset="1" stop-color="#13D8D4"/>
</linearGradient>
<linearGradient id="paint39_linear_2_4699" x1="-87.6768" y1="540.001" x2="669.716" y2="1374.65" gradientUnits="userSpaceOnUse">
<stop stop-color="#3F34EC"/>
<stop offset="1" stop-color="#13D8D4"/>
</linearGradient>
<linearGradient id="paint40_linear_2_4699" x1="-87.6084" y1="533.252" x2="673.437" y2="1370.9" gradientUnits="userSpaceOnUse">
<stop stop-color="#3F34EC"/>
<stop offset="1" stop-color="#13D8D4"/>
</linearGradient>
<linearGradient id="paint41_linear_2_4699" x1="-87.5205" y1="526.639" x2="676.951" y2="1367.09" gradientUnits="userSpaceOnUse">
<stop stop-color="#3F34EC"/>
<stop offset="1" stop-color="#13D8D4"/>
</linearGradient>
<linearGradient id="paint42_linear_2_4699" x1="-87.3984" y1="520.173" x2="680.228" y2="1363.19" gradientUnits="userSpaceOnUse">
<stop stop-color="#3F34EC"/>
<stop offset="1" stop-color="#13D8D4"/>
</linearGradient>
<linearGradient id="paint43_linear_2_4699" x1="-87.2803" y1="513.868" x2="683.225" y2="1359.22" gradientUnits="userSpaceOnUse">
<stop stop-color="#3F34EC"/>
<stop offset="1" stop-color="#13D8D4"/>
</linearGradient>
<linearGradient id="paint44_linear_2_4699" x1="-87.1406" y1="507.719" x2="685.957" y2="1355.16" gradientUnits="userSpaceOnUse">
<stop stop-color="#3F34EC"/>
<stop offset="1" stop-color="#13D8D4"/>
</linearGradient>
<linearGradient id="paint45_linear_2_4699" x1="-86.9512" y1="501.766" x2="688.397" y2="1351.01" gradientUnits="userSpaceOnUse">
<stop stop-color="#3F34EC"/>
<stop offset="1" stop-color="#13D8D4"/>
</linearGradient>
<linearGradient id="paint46_linear_2_4699" x1="-86.7812" y1="495.952" x2="690.534" y2="1346.78" gradientUnits="userSpaceOnUse">
<stop stop-color="#3F34EC"/>
<stop offset="1" stop-color="#13D8D4"/>
</linearGradient>
<linearGradient id="paint47_linear_2_4699" x1="-86.6113" y1="490.381" x2="692.286" y2="1342.47" gradientUnits="userSpaceOnUse">
<stop stop-color="#3F34EC"/>
<stop offset="1" stop-color="#13D8D4"/>
</linearGradient>
<linearGradient id="paint48_linear_2_4699" x1="-86.4111" y1="484.998" x2="693.711" y2="1338.07" gradientUnits="userSpaceOnUse">
<stop stop-color="#3F34EC"/>
<stop offset="1" stop-color="#13D8D4"/>
</linearGradient>
<linearGradient id="paint49_linear_2_4699" x1="-86.1611" y1="479.809" x2="694.792" y2="1333.54" gradientUnits="userSpaceOnUse">
<stop stop-color="#3F34EC"/>
<stop offset="1" stop-color="#13D8D4"/>
</linearGradient>
<linearGradient id="paint50_linear_2_4699" x1="-85.9033" y1="474.858" x2="695.466" y2="1328.92" gradientUnits="userSpaceOnUse">
<stop stop-color="#3F34EC"/>
<stop offset="1" stop-color="#13D8D4"/>
</linearGradient>
<linearGradient id="paint51_linear_2_4699" x1="-85.5352" y1="470.104" x2="695.85" y2="1324.17" gradientUnits="userSpaceOnUse">
<stop stop-color="#3F34EC"/>
<stop offset="1" stop-color="#13D8D4"/>
</linearGradient>
<linearGradient id="paint52_linear_2_4699" x1="-85.3447" y1="465.377" x2="696.171" y2="1319.57" gradientUnits="userSpaceOnUse">
<stop stop-color="#3F34EC"/>
<stop offset="1" stop-color="#13D8D4"/>
</linearGradient>
<linearGradient id="paint53_linear_2_4699" x1="-85.0674" y1="460.653" x2="696.597" y2="1314.99" gradientUnits="userSpaceOnUse">
<stop stop-color="#3F34EC"/>
<stop offset="1" stop-color="#13D8D4"/>
</linearGradient>
<linearGradient id="paint54_linear_2_4699" x1="-84.7988" y1="455.924" x2="697.097" y2="1310.49" gradientUnits="userSpaceOnUse">
<stop stop-color="#3F34EC"/>
<stop offset="1" stop-color="#13D8D4"/>
</linearGradient>
<linearGradient id="paint55_linear_2_4699" x1="-84.5391" y1="451.213" x2="697.645" y2="1306.06" gradientUnits="userSpaceOnUse">
<stop stop-color="#3F34EC"/>
<stop offset="1" stop-color="#13D8D4"/>
</linearGradient>
<linearGradient id="paint56_linear_2_4699" x1="-84.2012" y1="446.416" x2="698.354" y2="1301.6" gradientUnits="userSpaceOnUse">
<stop stop-color="#3F34EC"/>
<stop offset="1" stop-color="#13D8D4"/>
</linearGradient>
<linearGradient id="paint57_linear_2_4699" x1="-83.9941" y1="441.742" x2="698.971" y2="1297.33" gradientUnits="userSpaceOnUse">
<stop stop-color="#3F34EC"/>
<stop offset="1" stop-color="#13D8D4"/>
</linearGradient>
<linearGradient id="paint58_linear_2_4699" x1="-83.6846" y1="437.003" x2="699.747" y2="1293.04" gradientUnits="userSpaceOnUse">
<stop stop-color="#3F34EC"/>
<stop offset="1" stop-color="#13D8D4"/>
</linearGradient>
<linearGradient id="paint59_linear_2_4699" x1="-83.4268" y1="432.265" x2="700.548" y2="1288.81" gradientUnits="userSpaceOnUse">
<stop stop-color="#3F34EC"/>
<stop offset="1" stop-color="#13D8D4"/>
</linearGradient>
<linearGradient id="paint60_linear_2_4699" x1="-83.0977" y1="427.52" x2="701.439" y2="1284.6" gradientUnits="userSpaceOnUse">
<stop stop-color="#3F34EC"/>
<stop offset="1" stop-color="#13D8D4"/>
</linearGradient>
<linearGradient id="paint61_linear_2_4699" x1="-82.8105" y1="422.759" x2="702.364" y2="1280.43" gradientUnits="userSpaceOnUse">
<stop stop-color="#3F34EC"/>
<stop offset="1" stop-color="#13D8D4"/>
</linearGradient>
<linearGradient id="paint62_linear_2_4699" x1="-82.5732" y1="418.073" x2="703.252" y2="1276.37" gradientUnits="userSpaceOnUse">
<stop stop-color="#3F34EC"/>
<stop offset="1" stop-color="#13D8D4"/>
</linearGradient>
<linearGradient id="paint63_linear_2_4699" x1="-82.2842" y1="413.336" x2="704.249" y2="1272.29" gradientUnits="userSpaceOnUse">
<stop stop-color="#3F34EC"/>
<stop offset="1" stop-color="#13D8D4"/>
</linearGradient>
<linearGradient id="paint64_linear_2_4699" x1="-81.9688" y1="408.624" x2="705.273" y2="1268.24" gradientUnits="userSpaceOnUse">
<stop stop-color="#3F34EC"/>
<stop offset="1" stop-color="#13D8D4"/>
</linearGradient>
<linearGradient id="paint65_linear_2_4699" x1="-81.7402" y1="403.871" x2="706.313" y2="1264.24" gradientUnits="userSpaceOnUse">
<stop stop-color="#3F34EC"/>
<stop offset="1" stop-color="#13D8D4"/>
</linearGradient>
<linearGradient id="paint66_linear_2_4699" x1="-81.4619" y1="399.143" x2="707.396" y2="1260.26" gradientUnits="userSpaceOnUse">
<stop stop-color="#3F34EC"/>
<stop offset="1" stop-color="#13D8D4"/>
</linearGradient>
<linearGradient id="paint67_linear_2_4699" x1="-81.1729" y1="394.405" x2="708.513" y2="1256.27" gradientUnits="userSpaceOnUse">
<stop stop-color="#3F34EC"/>
<stop offset="1" stop-color="#13D8D4"/>
</linearGradient>
<linearGradient id="paint68_linear_2_4699" x1="-80.9268" y1="389.685" x2="709.62" y2="1252.34" gradientUnits="userSpaceOnUse">
<stop stop-color="#3F34EC"/>
<stop offset="1" stop-color="#13D8D4"/>
</linearGradient>
<linearGradient id="paint69_linear_2_4699" x1="-80.627" y1="384.942" x2="710.796" y2="1248.39" gradientUnits="userSpaceOnUse">
<stop stop-color="#3F34EC"/>
<stop offset="1" stop-color="#13D8D4"/>
</linearGradient>
<linearGradient id="paint70_linear_2_4699" x1="-80.3496" y1="380.213" x2="711.96" y2="1244.46" gradientUnits="userSpaceOnUse">
<stop stop-color="#3F34EC"/>
<stop offset="1" stop-color="#13D8D4"/>
</linearGradient>
<linearGradient id="paint71_linear_2_4699" x1="-80.0713" y1="375.472" x2="713.139" y2="1240.52" gradientUnits="userSpaceOnUse">
<stop stop-color="#3F34EC"/>
<stop offset="1" stop-color="#13D8D4"/>
</linearGradient>
<linearGradient id="paint72_linear_2_4699" x1="-79.793" y1="370.747" x2="714.305" y2="1236.58" gradientUnits="userSpaceOnUse">
<stop stop-color="#3F34EC"/>
<stop offset="1" stop-color="#13D8D4"/>
</linearGradient>
<linearGradient id="paint73_linear_2_4699" x1="-79.5166" y1="366.018" x2="715.514" y2="1232.68" gradientUnits="userSpaceOnUse">
<stop stop-color="#3F34EC"/>
<stop offset="1" stop-color="#13D8D4"/>
</linearGradient>
<linearGradient id="paint74_linear_2_4699" x1="-79.2471" y1="361.289" x2="716.706" y2="1228.75" gradientUnits="userSpaceOnUse">
<stop stop-color="#3F34EC"/>
<stop offset="1" stop-color="#13D8D4"/>
</linearGradient>
<linearGradient id="paint75_linear_2_4699" x1="-78.9473" y1="356.564" x2="717.908" y2="1224.8" gradientUnits="userSpaceOnUse">
<stop stop-color="#3F34EC"/>
<stop offset="1" stop-color="#13D8D4"/>
</linearGradient>
<linearGradient id="paint76_linear_2_4699" x1="-78.6787" y1="351.834" x2="719.094" y2="1220.85" gradientUnits="userSpaceOnUse">
<stop stop-color="#3F34EC"/>
<stop offset="1" stop-color="#13D8D4"/>
</linearGradient>
<linearGradient id="paint77_linear_2_4699" x1="-78.4004" y1="347.113" x2="720.261" y2="1216.87" gradientUnits="userSpaceOnUse">
<stop stop-color="#3F34EC"/>
<stop offset="1" stop-color="#13D8D4"/>
</linearGradient>
<linearGradient id="paint78_linear_2_4699" x1="-78.1211" y1="342.379" x2="721.437" y2="1212.88" gradientUnits="userSpaceOnUse">
<stop stop-color="#3F34EC"/>
<stop offset="1" stop-color="#13D8D4"/>
</linearGradient>
<linearGradient id="paint79_linear_2_4699" x1="-77.8408" y1="337.661" x2="722.595" y2="1208.87" gradientUnits="userSpaceOnUse">
<stop stop-color="#3F34EC"/>
<stop offset="1" stop-color="#13D8D4"/>
</linearGradient>
<linearGradient id="paint80_linear_2_4699" x1="-77.5625" y1="332.941" x2="723.747" y2="1204.85" gradientUnits="userSpaceOnUse">
<stop stop-color="#3F34EC"/>
<stop offset="1" stop-color="#13D8D4"/>
</linearGradient>
<linearGradient id="paint81_linear_2_4699" x1="-77.3037" y1="328.227" x2="724.814" y2="1200.76" gradientUnits="userSpaceOnUse">
<stop stop-color="#3F34EC"/>
<stop offset="1" stop-color="#13D8D4"/>
</linearGradient>
<linearGradient id="paint82_linear_2_4699" x1="-77.002" y1="323.499" x2="725.915" y2="1196.63" gradientUnits="userSpaceOnUse">
<stop stop-color="#3F34EC"/>
<stop offset="1" stop-color="#13D8D4"/>
</linearGradient>
<linearGradient id="paint83_linear_2_4699" x1="-76.7227" y1="318.783" x2="726.966" y2="1192.49" gradientUnits="userSpaceOnUse">
<stop stop-color="#3F34EC"/>
<stop offset="1" stop-color="#13D8D4"/>
</linearGradient>
<linearGradient id="paint84_linear_2_4699" x1="-76.4414" y1="314.073" x2="727.985" y2="1188.3" gradientUnits="userSpaceOnUse">
<stop stop-color="#3F34EC"/>
<stop offset="1" stop-color="#13D8D4"/>
</linearGradient>
<linearGradient id="paint85_linear_2_4699" x1="-76.1709" y1="309.358" x2="728.963" y2="1184.06" gradientUnits="userSpaceOnUse">
<stop stop-color="#3F34EC"/>
<stop offset="1" stop-color="#13D8D4"/>
</linearGradient>
<linearGradient id="paint86_linear_2_4699" x1="-75.9111" y1="304.632" x2="729.913" y2="1179.78" gradientUnits="userSpaceOnUse">
<stop stop-color="#3F34EC"/>
<stop offset="1" stop-color="#13D8D4"/>
</linearGradient>
<linearGradient id="paint87_linear_2_4699" x1="-75.5986" y1="299.94" x2="730.814" y2="1175.43" gradientUnits="userSpaceOnUse">
<stop stop-color="#3F34EC"/>
<stop offset="1" stop-color="#13D8D4"/>
</linearGradient>
<linearGradient id="paint88_linear_2_4699" x1="-75.3281" y1="295.232" x2="731.667" y2="1171.04" gradientUnits="userSpaceOnUse">
<stop stop-color="#3F34EC"/>
<stop offset="1" stop-color="#13D8D4"/>
</linearGradient>
<linearGradient id="paint89_linear_2_4699" x1="-75.0352" y1="290.522" x2="732.486" y2="1166.58" gradientUnits="userSpaceOnUse">
<stop stop-color="#3F34EC"/>
<stop offset="1" stop-color="#13D8D4"/>
</linearGradient>
<linearGradient id="paint90_linear_2_4699" x1="-74.7539" y1="285.826" x2="733.227" y2="1162.05" gradientUnits="userSpaceOnUse">
<stop stop-color="#3F34EC"/>
<stop offset="1" stop-color="#13D8D4"/>
</linearGradient>
<linearGradient id="paint91_linear_2_4699" x1="-74.4912" y1="281.121" x2="733.919" y2="1157.47" gradientUnits="userSpaceOnUse">
<stop stop-color="#3F34EC"/>
<stop offset="1" stop-color="#13D8D4"/>
</linearGradient>
<linearGradient id="paint92_linear_2_4699" x1="-74.1973" y1="276.432" x2="734.551" y2="1152.81" gradientUnits="userSpaceOnUse">
<stop stop-color="#3F34EC"/>
<stop offset="1" stop-color="#13D8D4"/>
</linearGradient>
<linearGradient id="paint93_linear_2_4699" x1="-73.9053" y1="271.734" x2="735.135" y2="1148.07" gradientUnits="userSpaceOnUse">
<stop stop-color="#3F34EC"/>
<stop offset="1" stop-color="#13D8D4"/>
</linearGradient>
<linearGradient id="paint94_linear_2_4699" x1="-73.6006" y1="267.068" x2="735.623" y2="1143.25" gradientUnits="userSpaceOnUse">
<stop stop-color="#3F34EC"/>
<stop offset="1" stop-color="#13D8D4"/>
</linearGradient>
<linearGradient id="paint95_linear_2_4699" x1="-73.3379" y1="262.352" x2="736.068" y2="1138.35" gradientUnits="userSpaceOnUse">
<stop stop-color="#3F34EC"/>
<stop offset="1" stop-color="#13D8D4"/>
</linearGradient>
<linearGradient id="paint96_linear_2_4699" x1="-73.0615" y1="257.677" x2="736.419" y2="1133.37" gradientUnits="userSpaceOnUse">
<stop stop-color="#3F34EC"/>
<stop offset="1" stop-color="#13D8D4"/>
</linearGradient>
<linearGradient id="paint97_linear_2_4699" x1="-72.7686" y1="252.992" x2="736.709" y2="1128.29" gradientUnits="userSpaceOnUse">
<stop stop-color="#3F34EC"/>
<stop offset="1" stop-color="#13D8D4"/>
</linearGradient>
<linearGradient id="paint98_linear_2_4699" x1="-72.4814" y1="248.315" x2="736.905" y2="1123.12" gradientUnits="userSpaceOnUse">
<stop stop-color="#3F34EC"/>
<stop offset="1" stop-color="#13D8D4"/>
</linearGradient>
<linearGradient id="paint99_linear_2_4699" x1="-72.2051" y1="243.638" x2="737.016" y2="1117.86" gradientUnits="userSpaceOnUse">
<stop stop-color="#3F34EC"/>
<stop offset="1" stop-color="#13D8D4"/>
</linearGradient>
<linearGradient id="paint100_linear_2_4699" x1="-71.9199" y1="238.972" x2="737.042" y2="1112.5" gradientUnits="userSpaceOnUse">
<stop stop-color="#3F34EC"/>
<stop offset="1" stop-color="#13D8D4"/>
</linearGradient>
<linearGradient id="paint101_linear_2_4699" x1="-71.6221" y1="234.298" x2="736.988" y2="1107.02" gradientUnits="userSpaceOnUse">
<stop stop-color="#3F34EC"/>
<stop offset="1" stop-color="#13D8D4"/>
</linearGradient>
<clipPath id="clip0_2_4699">
<rect width="1920" height="764" fill="white"/>
</clipPath>
</defs>
</svg>
