<svg width="1920" height="831" fill="none" xmlns="http://www.w3.org/2000/svg"><g clip-path="url(#clip0_2_4804)" stroke-width=".971" stroke-miterlimit="10"><path d="M2170.86-53.68c-637.92 124.109-686.99 357.407-991.13 538.023-124.74 74.074-309.416 141.39-561.095 171.49-294.629 35.259-597.914 23.84-872.547 19.864-566.43-8.182-1130.588-1.912-1730.128 45.804" stroke="url(#paint0_linear_2_4804)"/><path d="M2178.51-50.897c-655.7 123.998-693.16 358.246-1000.44 541.508-123.25 73.488-306.331 138.927-555.475 168.409-291.996 34.52-591.57 23.665-863.678 19.721-567.789-8.229-1132.247-2.377-1733.367 46.17" stroke="url(#paint1_linear_2_4804)"/><path d="M2185.38-48.322C1516.44 74.695 1485.9 308.023 1181.6 493.089c-121.56 73.95-303.645 139.243-553.652 168.792-292.787 34.606-592.929 23.737-865.79 19.797-565.594-8.149-1127.778-2.282-1726.708 46.844" stroke="url(#paint2_linear_2_4804)"/><path d="M2191.54-45.954c-682.23 122.118-706.2 354.388-1007.27 541.39-119.84 74.42-300.971 139.521-551.603 169.127-293.252 34.606-594.004 23.888-867.454 19.998-563.272-8.006-1122.973-2.09-1719.463 47.66" stroke="url(#paint3_linear_2_4804)"/><path d="M2196.96-43.768c-695.47 121.28-712.84 352.424-1010.85 541.396-117.98 74.816-298.079 139.768-549.407 169.559-293.716 34.753-594.767 24.12-868.708 20.307-560.752-7.818-1117.725-1.799-1711.735 48.61" stroke="url(#paint4_linear_2_4804)"/><path d="M2201.67-41.765c-351.44 59.756-561.68 155.089-697.98 265.253-112.83 91.298-176.52 184.963-315.01 275.147-116.4 75.814-296.781 141.375-550.829 171.38-289.843 34.143-587.324 24.167-858.003 20.509-561.068-7.568-1118.398-1.775-1712.548 49.609" stroke="url(#paint5_linear_2_4804)"/><path d="M2205.79-39.934c-183.97 30.512-347.11 70.931-474.3 125.164-102.86 43.819-175.59 92.016-234.55 140.078-112.03 91.32-172.17 184.881-307.9 275.223-114.42 76.142-293.782 141.681-548.312 171.86-289.926 34.387-587.507 24.578-858.467 21.059-558.259-7.263-1112.641-1.276-1703.641 50.844" stroke="url(#paint6_linear_2_4804)"/><path d="M2209.29-38.274c-186.86 30.26-354.1 70.451-484.28 125.198-103.74 43.681-176.9 91.93-235.48 140.057-111.15 91.35-167.73 184.806-300.87 275.304-112.4 76.442-290.891 142.005-545.688 172.41-289.791 34.574-587.628 25.025-858.587 21.653-555.367-6.875-1106.655-.65-1694.165 52.24" stroke="url(#paint7_linear_2_4804)"/><path d="M2212.18-36.754c-189.7 29.999-360.94 69.961-494.1 125.22-104.89 43.555-178.46 91.854-236.61 140.046-110.22 91.387-163.53 184.748-293.91 275.402-110.22 76.72-287.858 142.334-542.9 173.048-289.535 34.861-587.254 25.531-858.303 22.317-552.328-6.489-1100.297-.045-1684.477 53.705" stroke="url(#paint8_linear_2_4804)"/><path d="M2214.57-35.39c-192.54 29.765-367.99 69.5-503.99 125.26-105.97 43.427-179.94 91.777-237.67 140.042-109.35 91.441-159.17 184.695-286.9 275.512-108.11 76.953-284.937 142.662-540.116 173.693-289.104 35.147-586.782 26.102-857.748 23.117-549.162-6.076-1093.786.723-1674.256 55.305" stroke="url(#paint9_linear_2_4804)"/><path d="M2216.41-34.163c-195.32 29.539-374.92 69.054-513.95 125.3-107.05 43.316-181.39 91.706-238.72 140.043-108.49 91.505-155.05 184.661-280 275.676-105.88 77.102-281.92 142.979-536.983 174.334-288.559 35.467-586.1 26.735-856.875 23.986-546.035-5.57-1087.152 1.574-1663.652 57.002" stroke="url(#paint10_linear_2_4804)"/><path d="M2217.89-33.058c-199.5 29.53-384.29 69.18-526.55 126.42-108.25 43.555-182.92 92.395-239.74 141.196-105.45 90.522-148.9 182.44-269.01 272.526-104.2 78.048-280.593 144.601-538.044 176.376-291.41 35.944-591.174 27.09-864.717 24.541-538.52-5.009-1073.219 3.049-1641.179 58.913" stroke="url(#paint11_linear_2_4804)"/><path d="M2218.77-32.08C2016.49-2.765 1827.53 36.663 1682.2 94.397c-109.41 43.471-184.41 92.387-240.77 141.204-104.6 90.602-144.71 182.42-262.2 272.667-101.85 78.212-277.37 144.978-534.773 177.131-290.591 36.317-589.971 27.828-863.29 25.553-535.054-4.46-1066.037 4.005-1629.787 60.785" stroke="url(#paint12_linear_2_4804)"/><path d="M2219.27-31.223c-205.05 29.115-398.2 68.314-546.58 126.538-110.47 43.36-185.85 92.296-241.83 141.221-103.65 90.689-140.59 182.408-255.4 272.805-99.42 78.366-274.35 145.326-531.499 177.919-289.663 36.735-588.652 28.639-861.56 26.655-531.536-3.867-1058.761 5.023-1618.141 62.747" stroke="url(#paint13_linear_2_4804)"/><path d="M2219.47-30.416C2011.68-1.5 1814.31 37.47 1662.88 96.184c-111.51 43.24-187.33 92.233-242.84 141.237-102.93 90.786-136.53 182.449-248.64 272.969-97.4 78.485-271.173 145.691-528.215 178.734C354.514 726.23 55.84 718.555-216.493 716.87c-527.946-3.256-1051.307 6.077-1606.197 64.796" stroke="url(#paint14_linear_2_4804)"/><path d="M2219.3-29.73c-210.51 28.726-412.18 67.476-566.74 126.672-112.59 43.127-188.8 92.168-243.96 141.26-102.14 90.891-132.43 182.389-241.94 273.122-94.71 78.591-267.83 146.062-524.587 179.582-287.585 37.54-585.801 30.284-857.579 28.925-524.261-2.618-1043.544 7.212-1593.954 66.898" stroke="url(#paint15_linear_2_4804)"/><path d="M2218.81-29.128c-213.23 28.553-419 67.082-576.59 126.749-113.65 43.014-190.31 92.102-245.08 141.31-101.35 91.005-128.4 182.419-235.22 273.282-92.51 78.671-264.818 146.425-521.268 180.429-286.356 37.973-584.084 31.172-855.256 30.149-520.567-1.953-1035.796 8.373-1581.496 69.07" stroke="url(#paint16_linear_2_4804)"/><path d="M2218.07-28.594c-215.93 28.38-425.92 66.69-586.66 126.827-114.63 42.902-191.76 92.046-246.12 141.314-100.57 91.126-124.37 182.447-228.54 273.458-90.16 78.769-261.67 146.823-517.74 181.329-285.112 38.424-582.31 32.097-852.774 31.39-516.803-1.271-1028.106 9.597-1568.836 71.294" stroke="url(#paint17_linear_2_4804)"/><path d="M2217.08-28.12C1998.45.088 1784.22 38.23 1620.41 98.783c-115.69 42.79-193.27 91.98-247.26 141.354-99.76 91.248-120.36 182.466-221.94 273.624-87.79 78.838-258.475 147.201-514.159 182.236-283.676 38.882-580.261 33.001-850.092 32.738-513.007-.589-1020.149 10.783-1555.959 73.552" stroke="url(#paint18_linear_2_4804)"/><path d="M2215.91-27.704c-221.33 28.045-439.74 65.93-606.72 126.99-116.71 42.685-194.76 91.913-248.47 141.383-98.99 91.387-116.34 182.502-215.18 273.806-85.43 78.916-255.292 147.588-510.53 183.151-282.275 39.349-578.406 34.005-847.464 34.085-509.156.129-1012.196 12.05-1542.816 75.879" stroke="url(#paint19_linear_2_4804)"/><path d="M2214.54-27.33c-224 27.89-446.62 65.554-616.77 127.083-117.76 42.618-196.26 91.856-249.48 141.422-98.23 91.535-112.38 182.546-208.54 273.987-82.94 78.948-252.082 147.974-506.897 184.093-280.931 39.816-576.302 34.98-844.609 35.43-505.29.828-1004.134 13.307-1529.724 78.179" stroke="url(#paint20_linear_2_4804)"/><path d="M2213.03-27C1986.35.747 1759.52 38.199 1586.27 100.16c-118.75 42.469-197.79 91.79-250.61 141.46-97.53 91.71-108.42 182.582-201.94 274.169-80.71 78.989-248.92 148.359-503.169 185.031-279.488 40.301-574.161 35.982-841.732 36.82-501.396 1.564-996.079 14.618-1516.539 80.595" stroke="url(#paint21_linear_2_4804)"/><path d="M2211.43-26.692c-229.37 27.609-460.37 64.84-636.88 127.253-119.69 42.355-199.12 91.721-251.65 141.497-96.75 91.83-104.45 182.625-195.3 274.348-78.27 79.029-245.659 148.743-499.491 185.979-277.966 40.793-571.972 37.028-838.699 38.227-497.383 2.288-988.03 15.928-1503.22 82.99" stroke="url(#paint22_linear_2_4804)"/><path d="M2209.76-26.4c-232.03 27.472-467.23 64.492-646.85 127.336-120.73 42.251-200.78 91.655-252.92 141.544-95.91 91.986-100.42 182.678-188.62 274.537-75.9 79.052-242.411 149.117-495.727 186.898-276.424 41.258-569.732 38.01-835.73 39.642-493.632 3.024-979.933 17.237-1489.813 85.402" stroke="url(#paint23_linear_2_4804)"/><path d="M2208.04-26.124c-234.75 27.345-474.07 64.162-656.84 127.429-121.76 42.147-202.3 91.588-254.1 141.582-95.15 92.133-96.46 182.738-182.03 274.724-73.53 79.093-239.179 149.51-492.021 187.89-274.881 41.723-567.457 39.019-832.704 41.056-489.876 3.749-971.895 18.556-1476.395 87.794" stroke="url(#paint24_linear_2_4804)"/><path d="M2206.32-25.84c-237.35 27.218-480.87 63.797-666.87 127.514-122.73 42.042-203.8 91.52-255.09 141.617-94.54 92.326-92.63 182.8-175.49 274.913-71.17 79.124-235.938 149.884-488.292 188.844-273.347 42.197-565.19 40.036-829.659 42.479-485.725 4.472-963.829 19.845-1462.989 90.23" stroke="url(#paint25_linear_2_4804)"/><path d="M2204.64-25.55c-238.71 26.937-484.77 63.02-673.7 126.53-123.51 41.51-205.7 90.609-257.14 140.504-96.52 93.609-90.35 185.029-172.14 278.361-68.79 78.49-231.861 149.015-481.309 188.45-268.458 42.45-557.4 41.248-818.299 44.089-485.81 5.283-962.262 20.653-1460.262 92.754" stroke="url(#paint26_linear_2_4804)"/><path d="M2203-25.245c-241.36 26.829-491.53 62.7-683.56 126.615-124.45 41.405-207.22 90.542-258.3 140.55-95.81 93.783-86.38 185.099-165.5 278.557-66.46 78.522-228.618 149.38-477.599 189.35-267.054 42.906-555.18 42.246-815.436 45.484-481.995 5.997-954.325 21.914-1446.885 95.17" stroke="url(#paint27_linear_2_4804)"/><path d="M2201.49-24.912c-243.99 26.674-498.32 62.39-693.64 126.699-125.44 41.302-208.76 90.466-259.48 140.589-95.11 93.966-82.48 185.196-158.83 278.735-64.13 78.563-225.432 149.755-473.971 190.323-265.585 43.351-553.017 43.243-812.418 46.858-478.196 6.694-946.451 23.23-1433.601 97.558" stroke="url(#paint28_linear_2_4804)"/><path d="M2200.06-24.543c-246.67 26.611-505.08 62.06-703.57 126.783-126.38 41.198-210.12 90.372-260.66 140.627-94.39 94.159-78.48 185.24-152.16 278.914-61.82 78.595-222.206 150.111-470.366 191.25-264.131 43.78-550.813 44.186-809.587 48.216-474.448 7.381-938.807 24.483-1420.397 99.926" stroke="url(#paint29_linear_2_4804)"/><path d="M2198.83-24.14c-248.03 26.37-508.92 61.399-710.25 125.814-131.96 42.231-218.55 93.22-268.62 145.199-90.03 93.502-71.45 183.674-142.71 276.676-59.7 78.047-218.662 149.184-463.897 190.698-266.17 45.055-555.96 45.635-817.413 50.097-468.17 7.99-925.62 26.005-1398.96 102.066" stroke="url(#paint30_linear_2_4804)"/><path d="M2197.81-23.675c-250.69 26.278-515.58 61.095-720.13 125.897-132.97 42.109-220.15 93.118-269.82 145.237-89.29 93.695-67.45 183.736-135.99 276.848-57.5 78.107-215.497 149.541-460.41 191.589-264.76 45.465-553.886 46.559-814.755 51.418-464.597 8.641-918.045 27.148-1386.115 104.426" stroke="url(#paint31_linear_2_4804)"/><path d="M2197-23.147c-252.05 26.008-519.21 60.404-726.69 124.927-133.69 41.577-222.28 92.201-272.19 144.101-89.85 93.424-66.08 182.916-128.84 275.519-53.75 79.278-208.572 152.242-457.413 195.813-266.473 46.683-559.201 47.899-822.615 53.2-458.08 9.256-905.762 28.708-1365.112 106.474" stroke="url(#paint32_linear_2_4804)"/><path d="M2196.44-22.553C1941.7 3.402 1670.62 37.56 1459.91 102.442c-134.65 41.465-223.85 92.1-273.39 144.132-89.03 93.618-62.15 183-122.24 275.695-51.44 79.375-205.247 152.572-453.769 196.678-265.187 47.066-557.295 48.779-820.22 54.448-454.698 9.818-898.751 29.808-1352.801 108.628" stroke="url(#paint33_linear_2_4804)"/><path d="M2196.19-21.877c-257.41 25.874-532.42 59.82-746.37 125.072-135.57 41.344-225.31 91.999-274.59 144.155-88.36 93.813-58.21 183.076-115.58 275.845-49.12 79.454-201.944 152.885-450.218 197.508-264.008 47.441-555.506 49.622-817.977 55.633-451.462 10.416-891.965 30.918-1340.715 110.764" stroke="url(#paint34_linear_2_4804)"/><path d="M2196.26-21.117c-258.73 25.65-535.88 59.175-752.77 124.105-141.64 42.424-233.8 94.674-282.15 148.631-83.49 93.157-51.77 181.494-106.64 273.621-47.93 80.349-204.895 154.871-456.988 199.198-257.315 45.204-539.26 48.429-795.108 54.683-451.43 10.941-891.444 31.391-1338.784 112.976" stroke="url(#paint35_linear_2_4804)"/><path d="M2196.68-20.253c-261.39 25.561-542.43 58.885-762.62 124.167-142.62 42.294-235.42 94.52-283.34 148.637-82.57 93.379-47.67 181.571-99.9 273.766-45.52 80.456-201.568 155.185-453.698 199.996-256.395 45.58-537.853 49.174-793.329 55.725-448.216 11.484-885.053 32.385-1327.113 114.987" stroke="url(#paint36_linear_2_4804)"/><path d="M2197.52-19.294c-262.78 25.365-545.88 58.259-768.84 123.218-143.27 41.7-237.29 93.46-285.97 147.481-85.38 94.714-44.78 183.792-95.69 277.134-43.69 80.085-198.046 154.065-447.859 199.29-258.448 46.791-543.554 50.38-801.856 57.327-442.347 11.93-873.805 33.641-1307.835 116.718" stroke="url(#paint37_linear_2_4804)"/><path d="M2198.77-18.213c-270.7 25.78-564.99 59.46-792.58 127.503-135.03 40.366-223.86 89.589-271.19 141.105-88.27 95.958-42.09 186.024-91.41 280.384-41.61 79.597-194.533 153.201-442.063 198.705-254.975 46.882-537.341 51.244-792.962 58.402-442.588 12.429-873.905 33.973-1306.555 118.734" stroke="url(#paint38_linear_2_4804)"/><path d="M2200.5-17.004c-441.18 41.435-933.17 112.8-1074.67 268.655-87.4 96.156-38.02 186.097-84.43 280.535-39.29 79.706-191.269 153.447-439.06 199.354-254.518 47.126-536.565 51.813-792.224 59.279-439.505 12.836-868.086 34.724-1295.816 120.46" stroke="url(#paint39_linear_2_4804)"/><path d="M2202.71-15.676C1756.94 25.69 1250.12 97.621 1114.1 256.371c-81.9 95.6-30.63 184.455-74.99 278.321-37.46 79.266-187.975 152.462-433.783 198.595-256.905 48.186-542.398 52.92-801.071 60.729-434.219 13.113-857.696 35.685-1277.866 121.819" stroke="url(#paint40_linear_2_4804)"/><path d="M2205.45-14.202c-442.97 40.573-959.83 111.172-1097.6 269.947-82.69 95.292-29.94 183.772-68.34 276.955-33.17 80.528-180.344 154.819-430.456 202.406-253.609 48.242-537.157 53.572-793.156 61.519-434.719 13.495-858.718 35.841-1277.648 123.644" stroke="url(#paint41_linear_2_4804)"/><path d="M2208.74-12.572c-443.39 40.107-971.26 110-1108.34 269.948-81.88 95.502-25.83 183.806-61.48 277.044-30.99 80.704-176.961 155.052-427.768 202.981-253.337 48.425-536.96 54-793.095 62.156-432.157 13.76-853.777 36.353-1268.237 125.036" stroke="url(#paint42_linear_2_4804)"/><path d="M2212.63-10.79c-448.18 40.03-990.4 110.47-1121.74 273.29-76.56 94.915-18.95 182.202-52.39 274.817-29.52 81.704-179.611 156.965-435.124 204.462-253.679 47.17-534.797 52.666-790.619 60.992-426.991 13.847-844.177 37.02-1251.627 126.024" stroke="url(#paint43_linear_2_4804)"/><path d="M2217.15-8.846c-446.23 39.363-996.49 108.31-1130.65 271.119-79.3 96.247-15.18 184.277-47.39 278.01-12.78 37.275-42.695 76.827-119.957 112.243-79.694 36.493-190.691 68.839-310.431 91.273-256.85 48.109-541.563 53.508-800.823 62.098-422.243 13.991-835.029 37.662-1235.729 126.936" stroke="url(#paint44_linear_2_4804)"/><path d="M2222.32-6.723c-446.35 38.88-1008.03 107.197-1141.26 271.085-78.43 96.452-10.97 184.364-40.5 278.064-11.65 37.265-40.33 76.851-117.16 112.399-79.191 36.641-191.161 69.089-310.968 91.549-257.281 48.216-542.036 53.733-801.848 62.444-419.964 14.094-830.884 37.834-1227.654 127.967" stroke="url(#paint45_linear_2_4804)"/><path d="M2228.17-4.411c-444.33 38.257-1013.88 105.21-1150.19 268.959-81.299 97.65-8.16 186.575-35.31 281.153-10.6 36.967-38.42 76.282-114.041 111.693-77.8 36.413-190.984 69.02-309.518 91.299-255.3 48.002-537.867 53.996-796.085 62.733-420.973 14.235-833.536 37.494-1229.776 129.142" stroke="url(#paint46_linear_2_4804)"/><path d="M2234.78-1.912C1787.16 36.135 1200.58 103.6 1071.25 270.213c-74.119 95.48-3.47 182.184-24.51 274.426-8.69 38.033-34.57 78.778-112.511 115.443-77.422 36.399-189.836 68.647-307.957 90.977-258.685 48.917-545.71 54.582-807.384 63.52-416.599 14.191-825.278 37.744-1215.608 129.625" stroke="url(#paint47_linear_2_4804)"/><path d="M2242.13.792c-447.39 37.573-1045.86 104.37-1174.04 272.031-73.155 95.671.83 182.234-17.39 274.439-7.52 37.988-32.1 78.787-109.583 115.575-76.916 36.54-190.771 68.841-309.02 91.125-259.597 48.911-547.296 54.59-809.741 63.523-414.765 14.126-822.446 37.563-1209.326 130.191" stroke="url(#paint48_linear_2_4804)"/><path d="M2250.27 3.71c-444.08 36.837-1052.89 102.413-1182.99 269.919-75.321 96.979 4.34 184.314-11.88 277.495-6.54 37.627-30.42 78.186-106.587 114.812-75.729 36.387-191.029 68.605-308.117 90.737-257.644 48.718-544.725 54.646-805.374 63.442-415.979 14.006-826.078 36.767-1212.952 130.863" stroke="url(#paint49_linear_2_4804)"/><path d="M2259.13 6.806c-443.56 36.997-1051 102.692-1182.03 269.777-75.9 96.828 2.9 184.123-13.51 277.195-6.63 37.701-30.53 78.323-106.172 115.055-75.095 36.401-192.642 68.414-309.491 90.318-258.381 48.413-545.032 54.612-806.201 63.637-415.123 14.373-824.456 37.438-1210.216 131.292" stroke="url(#paint50_linear_2_4804)"/><path d="M2268.21 9.846C1822.57 47.86 1227.74 114.853 1096.27 281.342c-75.15 95.154-3.93 181.631-22.88 273.348-7.86 38.198-32.53 79.105-108.946 116.213-75.212 36.584-195.32 68.331-312.866 89.984-260.919 48.084-547.456 54.735-811.221 64.483-412.234 15.281-816.965 39.88-1200.017 131.894" stroke="url(#paint51_linear_2_4804)"/><path d="M2277.4 12.815c-441.13 38.416-1016.87 104.88-1158.29 267.725-84.09 96.829-12.7 185.437-38.34 279.034-10.22 37.249-37.18 76.728-110.62 112.739-74.658 36.626-198.814 68.423-316.324 89.823-257.462 46.847-538.513 54.628-799.16 64.929-414.263 16.345-819.944 41.747-1205.366 133.331" stroke="url(#paint52_linear_2_4804)"/><path d="M2286.65 15.704c-441.32 39.179-1008.28 106.753-1149.92 268.89-83.06 95.1-19.83 182.439-48.75 274.712-11.79 37.64-39.96 77.334-114.049 113.63-75.319 36.892-201.033 68.29-319.302 89.657-258.769 46.801-540.519 55.211-802.893 66.376-410.908 17.477-811.675 44.619-1193.486 134.567" stroke="url(#paint53_linear_2_4804)"/><path d="M2296.02 18.523c-441.32 39.878-999.86 108.527-1142.39 269.79-82.32 93.154-28.27 179.466-59.76 270.121-13.17 37.965-43.04 77.941-117.38 114.456-75.222 36.946-204.045 68.307-322.411 89.657C399.689 808.36 123.177 818-135.379 829.859c-412.735 18.921-814.123 47.192-1197.471 136.813" stroke="url(#paint54_linear_2_4804)"/><path d="M2305.43 21.28c-439.08 40.31-986.06 109.126-1133.77 268.35-85.56 92.228-37.69 178.376-73.34 268.383-15.07 38.021-46.79 77.835-121.144 114.259-75.246 36.801-204.948 67.931-322.791 89.224-252.792 45.677-527.16 56.457-785.002 69.245-411.908 20.413-811.283 50.268-1193.053 139.081" stroke="url(#paint55_linear_2_4804)"/><path d="M2314.89 23.967c-432.64 40.325-964.91 108.095-1122.79 263.502-93.21 91.882-50.47 178.767-89.99 268.596-16.83 38.303-50.33 78.3-125.606 114.829-73.774 35.803-198.445 65.797-312.493 87.076-251.007 46.81-525.423 59.123-783.286 72.955-413.427 22.172-812.852 53.388-1195.635 142.033" stroke="url(#paint56_linear_2_4804)"/><path d="M2324.41 26.59c-432.9 40.899-956.26 109.242-1117.42 263.633-95.37 91.349-57.55 178.189-104.41 267.942-19.41 37.148-54.95 75.605-127.776 110.785-74.082 35.805-200.925 65.957-315.042 87.254-251.728 46.976-525.511 60.393-784.857 75.485-409.155 23.807-803.118 57.131-1180.785 144.395" stroke="url(#paint57_linear_2_4804)"/><path d="M2333.93 29.16c-430.05 41.163-943.44 109.312-1110.6 261.495-99.01 90.172-68.25 176.68-119.75 265.552-21.49 37.114-58.99 75.364-132.115 110.319-74.52 35.617-201.103 65.622-314.992 87.09-249.424 47.007-520.683 61.824-778.807 78.088-407.747 25.694-799.239 60.872-1174.596 147.532" stroke="url(#paint58_linear_2_4804)"/><path d="M2343.48 31.68C1919.45 72.743 1420.75 139.527 1243 287.688c-107.38 89.512-82.89 176.618-138.85 265.143-23.59 37.325-62.95 75.649-137.184 110.628-75.696 35.687-202.675 65.802-316.71 87.489-244.06 46.368-509.432 62.692-763.022 79.982-408.641 27.867-799.733 64.72-1175.094 151.424" stroke="url(#paint59_linear_2_4804)"/><path d="M2353.02 34.153c-420.99 41.19-910.58 107.63-1094.54 253.503-111.25 88.155-94.28 174.822-155.18 262.367-25.95 37.257-67.38 75.266-142.011 109.975-76.409 35.527-202.672 65.52-316.31 87.449-241.458 46.515-504.117 64.356-756.199 82.952-406.754 29.996-795.062 68.874-1167.6 155.107" stroke="url(#paint60_linear_2_4804)"/><path d="M2362.53 36.584c-420.48 41.54-903.06 108.093-1091.57 252.721-111.97 85.908-103.85 170.947-168.6 256.518-28.31 37.406-71.98 75.446-147.433 110.132-77.295 35.55-204.448 65.711-318.439 87.941-241.038 47.011-503.074 66.281-755.717 86.422-401.67 32.053-784.048 73.19-1150.761 158.318" stroke="url(#paint61_linear_2_4804)"/><path d="M2372 38.97c-416.59 41.517-892.14 107.665-1086.62 249.84-115.57 84.495-115.68 168.928-185.52 253.465-30.82 37.257-76.7 74.973-152.707 109.336-78.182 35.363-204.12 65.444-317.731 88.007-238.065 47.257-497.222 68.188-748.009 89.759C-517.811 863.737-897.597 907-1261 991.771" stroke="url(#paint62_linear_2_4804)"/><path d="M2381.43 41.324c-415.9 41.784-884.84 107.911-1084.79 248.7-116.59 82.087-125.63 164.892-199.27 247.355-33.39 37.38-81.46 75.036-158.782 109.333-79.908 35.454-204.778 65.674-319.153 88.703-232.333 46.787-485.03 69.349-730.83 92.153C-510.689 864.612-889.477 909.891-1252 994.873" stroke="url(#paint63_linear_2_4804)"/><path d="M2390.82 43.648c-412.63 41.746-873.57 107.236-1080.65 245.443-120.74 80.595-137.95 162.793-216.64 244.032-36.11 37.205-86.44 74.464-164.391 108.393-80.985 35.26-204.29 65.452-318.253 88.914-229.215 47.167-478.866 71.426-722.615 95.767-396.473 39.585-772.194 87.094-1131.341 171.856" stroke="url(#paint64_linear_2_4804)"/><path d="M2400.19 45.938C1990.88 87.6 1537.64 152.437 1323.36 287.989c-124.98 79.067-150.23 160.557-234.38 240.675-38.84 36.975-91.489 73.848-170.094 107.399-82.138 35.058-203.575 65.229-317.189 89.097-226.054 47.565-472.556 73.564-714.058 99.48-393.451 42.224-766.105 92-1121.739 176.55" stroke="url(#paint65_linear_2_4804)"/><path d="M2409.34 48.214c-402.24 41.195-845.23 104.456-1068.51 235.65-132.72 78.021-166.11 159.521-255.97 239.099-41.73 36.991-96.941 73.769-176.659 107.207-80.844 33.899-196.675 63.266-306.122 87.217-228.024 49.889-478.557 78.269-724.273 106.548-386.896 44.579-753.654 96.696-1102.916 180.395" stroke="url(#paint66_linear_2_4804)"/><path d="M2418.47 50.462c-399.19 41.077-834.88 103.623-1065.03 232.07-136.87 76.412-178.91 157.098-274.17 235.454-44.62 36.707-102.184 73.064-182.67 106.097-82.082 33.696-196.053 63.088-304.99 87.49-224.659 50.276-471.829 80.586-714.908 110.581-383.483 47.361-747.103 101.726-1092.912 185.316" stroke="url(#paint67_linear_2_4804)"/><path d="M2427.48 52.694C2031.4 93.642 1602.86 155.42 1365.75 281.039c-141.16 74.784-191.81 154.602-292.55 231.709-102.676 78.588-264.545 140.424-492.543 192.741-221.368 50.791-465.01 82.965-705.58 114.732-379.529 50.167-739.956 106.852-1082.267 190.389" stroke="url(#paint68_linear_2_4804)"/><path d="M2436.34 54.92c-393.03 40.794-814.6 101.868-1058.6 224.612-145.45 73.148-204.84 152.054-311.1 227.903-108.534 77.468-273.351 139.175-497.449 191.876-218.026 51.278-458.115 85.39-695.789 118.935-375.54 52.999-732.751 111.976-1071.622 195.494" stroke="url(#paint69_linear_2_4804)"/><path d="M2445.07 57.146c-392.45 40.916-808.72 101.64-1059.21 222.524-149.37 72.062-217.17 150.525-330.98 225.483-114.114 75.158-282.263 135.958-499.313 188.226-212.366 51.108-445.607 86.858-677.601 121.82-373.575 56.223-729.565 117.604-1067.196 201.681" stroke="url(#paint70_linear_2_4804)"/><path d="M2453.61 59.381c-389.38 40.699-799.11 100.685-1056.34 218.521-153.71 70.408-230.51 147.86-349.8 221.478C799.991 652.263 336.018 739.079-124.369 812.953-493.22 872.14-845.862 935.858-1180.27 1020.02" stroke="url(#paint71_linear_2_4804)"/><path d="M2462.06 61.575c-386.49 40.545-789.85 99.794-1053.62 214.537-158.16 68.763-244 145.151-368.74 217.529C782.332 642.994 327.22 733.139-126.751 810.664c-363.965 62.159-713.364 128.205-1044.559 212.486" stroke="url(#paint72_linear_2_4804)"/><path d="M2470.3 63.796c-383.63 40.363-780.74 98.831-1050.9 210.498-162.4 67.135-257.41 142.376-387.66 213.524C764.652 633.642 317.856 727.2-129.161 808.337c-358.903 65.12-704.974 133.493-1033.199 217.953" stroke="url(#paint73_linear_2_4804)"/><path d="M2478.32 66.027c-377.23 39.817-765.94 96.93-1041.51 203.891-169.74 65.87-274.85 140.578-411.5 211.108-275.424 142.142-712.112 239.22-1150.989 323.78-355.456 68.489-700.458 139.456-1027.681 224.614" stroke="url(#paint74_linear_2_4804)"/><path d="M2486.14 68.27c-374.45 39.646-757.41 96.061-1038.48 199.86-174.02 64.261-288.18 137.677-430.44 206.986C732.299 613.908 302.868 714.324-128.356 802.391-478.251 873.847-819.79 947.113-1144.41 1032.56" stroke="url(#paint75_linear_2_4804)"/><path d="M2493.73 70.54c-371.68 39.475-749.13 95.195-1035.36 195.819-178.33 62.688-301.51 134.813-449.28 202.864-294.346 135.551-716.625 239.222-1140.139 330.76-344.164 74.385-682.162 149.923-1004.411 235.707" stroke="url(#paint76_linear_2_4804)"/><path d="M2501.08 72.823c-368.89 39.303-741.11 94.374-1032.09 191.776-182.59 61.125-314.67 131.866-468 198.75C697.235 595.796 282.008 702.605-133.691 797.585c-338.304 77.295-672.675 155.067-992.799 241.245" stroke="url(#paint77_linear_2_4804)"/><path d="M2508.19 75.123c-366.11 39.159-733.27 93.564-1028.69 187.771-186.89 59.606-327.73 128.981-486.479 194.662C679.687 587.07 271.699 696.816-136.253 795.221c-332.289 80.15-663.032 160.083-981.287 246.729" stroke="url(#paint78_linear_2_4804)"/><path d="M2515.11 77.435c-365.32 39.289-729.68 93.459-1029.84 185.26-188.15 57.517-336.06 124.61-498.166 188.359-165.246 64.945-356.419 125.363-547.221 183.394-186.552 56.746-384.531 109.153-585.54 160.236-323.94 82.329-648.528 163.928-962.923 250.396" stroke="url(#paint79_linear_2_4804)"/><path d="M2521.59 79.84c-362.35 39.116-722.26 92.677-1025.95 181.25-192.51 56.145-348.57 121.732-516.173 184.377-170.715 63.806-362.816 123.674-551.511 182.543-184.429 57.53-378.533 111.68-575.763 164.488-317.873 85.047-638.723 168.707-951.873 255.722" stroke="url(#paint80_linear_2_4804)"/><path d="M2527.86 82.252c-359.4 39.016-715.11 91.962-1021.88 177.331-196.81 54.771-360.92 118.871-533.884 180.448-176.277 62.711-368.858 121.927-555.729 181.672C233.898 680.044 43.904 735.891-149.801 790.39c-311.754 87.701-628.795 173.366-940.879 260.95" stroke="url(#paint81_linear_2_4804)"/><path d="M2533.84 84.704c-356.41 38.943-708.18 91.285-1017.51 173.493-201.08 53.434-373.02 116.018-551.378 176.572-86.912 29.512-175.84 58.464-269.465 85.866-101.91 29.844-193.837 63.31-290.318 94.907C224.52 674.696 38.951 732.297-151.537 788.347c-305.633 90.319-618.871 177.925-930.193 266.123" stroke="url(#paint82_linear_2_4804)"/><path d="M2539.53 87.202c-355.53 39.144-705.06 91.226-1017.99 171.05-202.29 51.626-379.78 111.874-560.937 170.693-89.958 29.193-181.375 57.968-276.783 85.397-103.309 29.706-195.342 63.796-291.201 95.915-176.79 59.201-356.495 117.567-540.545 174.608-301.052 93.352-612.208 183.373-924.874 272.725" stroke="url(#paint83_linear_2_4804)"/><path d="M2544.77 89.757c-352.34 39.134-698.32 90.613-1012.91 167.343-206.62 50.399-391.16 109.135-577.578 167.012-92.31 28.634-185.555 57.038-282.009 84.273-103.942 29.346-195.489 63.813-289.888 96.175-175.266 60.034-351.046 119.87-531.512 178.492-295.053 95.77-602.261 187.622-914.743 277.668" stroke="url(#paint84_linear_2_4804)"/><path d="M2549.73 92.356c-349.06 39.186-691.67 90.036-1007.45 163.752-210.81 49.206-402.26 106.448-593.803 163.419-94.563 28.13-189.558 56.135-287.137 83.239-104.448 29.003-195.622 63.811-288.743 96.4-173.882 60.83-345.9 122.201-522.834 182.259-288.952 98.06-592.147 191.698-904.693 282.435" stroke="url(#paint85_linear_2_4804)"/><path d="M2554.34 95.022c-345.64 39.237-684.99 89.495-1001.48 160.267-214.93 48.068-413.09 103.824-609.65 159.933-96.724 27.616-193.428 55.276-291.952 82.131-105.019 28.706-195.874 63.819-287.669 96.608C190.978 655.623 22.604 718.394-150.846 779.88c-283.063 100.333-582.293 195.675-895.134 287.07" stroke="url(#paint86_linear_2_4804)"/><path d="M2558.56 97.744c-338.82 38.988-672.18 88.039-986.21 155.014-221.42 47.225-427.88 101.966-631.189 157.732-99.532 27.313-198.59 54.805-298.928 81.796-106.348 28.622-197.46 64.233-288.686 97.434-173.163 63.023-339.123 127.716-510.798 191.083-275.047 101.424-569.143 198.118-879.819 289.277" stroke="url(#paint87_linear_2_4804)"/><path d="M2562.41 100.532c-335.19 39.182-665.35 87.615-979.05 151.857-225.42 46.186-438.14 99.511-646.223 154.468-101.474 26.807-202.115 53.971-303.402 80.858-106.708 28.342-197.702 64.159-287.768 97.524C173.661 649.052 11.362 715.053-157.052 779.74c-268.805 103.439-560.243 201.621-871.068 293.45" stroke="url(#paint88_linear_2_4804)"/><path d="M2565.82 103.4c-331.4 39.43-658.32 87.19-971.25 148.815-229.42 45.201-447.83 97.043-660.728 151.31-103.306 26.336-205.502 53.209-307.683 80.027-107.069 28.098-197.957 64.031-286.961 97.543C167.659 645.67 8.897 712.926-156.254 778.86-420.619 884.409-706.347 983.593-1019.2 1076.3" stroke="url(#paint89_linear_2_4804)"/><path d="M2568.83 106.334c-403.24 48.961-798.56 109.557-1174.55 188.246-144.07 30.151-284.58 62.492-422.408 96.104-133.815 32.619-279.101 65.576-402.93 102.333-123.128 36.581-232.436 82.161-336.171 123.686-106.303 42.563-207.732 86.068-310.61 129.282-282.752 118.8-585.953 230.477-932.461 333.445" stroke="url(#paint90_linear_2_4804)"/><path d="M2571.41 109.351c-399.3 49.616-792.73 109.056-1169.06 184.636-146.83 29.512-290.7 61.155-431.477 94.33C835.269 420.274 687.895 452.98 563.32 489.73c-123.484 36.436-232.497 82.212-334.476 123.96-105.464 43.128-205.045 87.335-306.06 131.271-277.598 120.694-575.773 233.905-924.174 337.569" stroke="url(#paint91_linear_2_4804)"/><path d="M2573.58 112.442c-397.89 50.747-791.67 109.426-1170.07 182.703-150.6 29.15-298.17 60.314-442.711 93.494-134.474 30.799-278.449 62.622-401.337 98.6-248.173 72.712-440.754 169.277-630.704 254.763-274.001 123.241-568.611 238.655-921.216 343.628" stroke="url(#paint92_linear_2_4804)"/><path d="M2575.25 115.635c-393.57 51.698-785.06 109.074-1162.88 179.554-153.29 28.557-303.83 59.245-451 91.943-136.224 30.263-281.359 61.865-405.065 97.891-249.851 72.755-439.746 170.17-625.81 256.508-269.156 124.892-558.981 241.65-914.059 347.179" stroke="url(#paint93_linear_2_4804)"/><path d="M2576.47 118.909c-391.93 53.199-783.29 109.638-1162.48 178.075-147.27 26.584-292.3 54.95-434.088 85.426-142.916 30.726-296.825 63.329-426 100.771-248.877 72.112-435.361 169.574-616.1 255.877-266.291 127.234-552.574 246.013-912.444 352.792" stroke="url(#paint94_linear_2_4804)"/><path d="M2577.19 122.277c-387.26 54.555-775.6 109.452-1153.43 175.477-149.61 25.995-296.86 54.09-441.158 84.176-144.626 30.282-298.953 62.786-429.134 100.268-250.773 72.219-434.976 169.88-612.453 257.011-262.17 128.636-544.043 248.597-906.794 355.741" stroke="url(#paint95_linear_2_4804)"/><path d="M2577.4 125.745c-382.19 56.118-767.31 109.462-1143.27 173.172-297.75 50.464-620.333 108.764-879.627 182.966-252.837 72.363-434.679 169.879-609.59 257.833-258.306 129.902-536.054 250.911-901.781 358.324" stroke="url(#paint96_linear_2_4804)"/><path d="M2577.07 129.324c-368.57 56.67-742 107.398-1108.02 167.242-310.19 50.715-641.64 109.163-911.661 185.834-257.585 73.201-437.904 170.884-612.3 260.58-253.183 130.191-526.751 251.306-893.075 358.16" stroke="url(#paint97_linear_2_4804)"/><path d="M2576.31 133.002C2213.9 191.653 1844 240.755 1481.01 298.658c-314.21 50.12-645.992 107.642-919.386 184.8C301.7 556.832 123.387 653.801-49.146 744.25-299.35 875.486-569.39 997.38-939.117 1104.24" stroke="url(#paint98_linear_2_4804)"/><path d="M2574.98 136.791c-358.01 61.358-727.59 109.061-1089.69 165.732-314.91 49.234-644.023 105.714-918.036 182.681-264.377 74.265-441.751 171.151-614.355 263.235-245.752 131.104-512.705 252.961-883.152 358.881" stroke="url(#paint99_linear_2_4804)"/><path d="M2573.07 140.7C1916.49 260.592 1170.3 321.671 575.051 487.842c-267.09 74.522-442.563 169.706-614.503 262.751-243.601 131.817-507.905 254.227-881.905 359.817" stroke="url(#paint100_linear_2_4804)"/></g><defs><linearGradient id="paint0_linear_2_4804" x1="-1984.04" y1="721.501" x2="-1973.52" y2="-106.348" gradientUnits="userSpaceOnUse"><stop stop-color="#3F34EC"/><stop offset="1" stop-color="#13D8D4"/></linearGradient><linearGradient id="paint1_linear_2_4804" x1="-1974.45" y1="724.911" x2="-1963.89" y2="-103.658" gradientUnits="userSpaceOnUse"><stop stop-color="#3F34EC"/><stop offset="1" stop-color="#13D8D4"/></linearGradient><linearGradient id="paint2_linear_2_4804" x1="-1964.55" y1="728.522" x2="-1953.94" y2="-101.237" gradientUnits="userSpaceOnUse"><stop stop-color="#3F34EC"/><stop offset="1" stop-color="#13D8D4"/></linearGradient><linearGradient id="paint3_linear_2_4804" x1="-1954.25" y1="732.221" x2="-1943.57" y2="-99.067" gradientUnits="userSpaceOnUse"><stop stop-color="#3F34EC"/><stop offset="1" stop-color="#13D8D4"/></linearGradient><linearGradient id="paint4_linear_2_4804" x1="-1943.74" y1="736.104" x2="-1932.97" y2="-97.134" gradientUnits="userSpaceOnUse"><stop stop-color="#3F34EC"/><stop offset="1" stop-color="#13D8D4"/></linearGradient><linearGradient id="paint5_linear_2_4804" x1="-1932.7" y1="740.133" x2="-1921.82" y2="-95.434" gradientUnits="userSpaceOnUse"><stop stop-color="#3F34EC"/><stop offset="1" stop-color="#13D8D4"/></linearGradient><linearGradient id="paint6_linear_2_4804" x1="-1921.38" y1="744.294" x2="-1910.38" y2="-93.954" gradientUnits="userSpaceOnUse"><stop stop-color="#3F34EC"/><stop offset="1" stop-color="#13D8D4"/></linearGradient><linearGradient id="paint7_linear_2_4804" x1="-1909.78" y1="748.588" x2="-1898.64" y2="-92.69" gradientUnits="userSpaceOnUse"><stop stop-color="#3F34EC"/><stop offset="1" stop-color="#13D8D4"/></linearGradient><linearGradient id="paint8_linear_2_4804" x1="-1898.12" y1="752.984" x2="-1886.82" y2="-91.604" gradientUnits="userSpaceOnUse"><stop stop-color="#3F34EC"/><stop offset="1" stop-color="#13D8D4"/></linearGradient><linearGradient id="paint9_linear_2_4804" x1="-1886.11" y1="757.539" x2="-1874.64" y2="-90.721" gradientUnits="userSpaceOnUse"><stop stop-color="#3F34EC"/><stop offset="1" stop-color="#13D8D4"/></linearGradient><linearGradient id="paint10_linear_2_4804" x1="-1873.77" y1="762.178" x2="-1862.1" y2="-90.013" gradientUnits="userSpaceOnUse"><stop stop-color="#3F34EC"/><stop offset="1" stop-color="#13D8D4"/></linearGradient><linearGradient id="paint11_linear_2_4804" x1="-1861.35" y1="766.914" x2="-1849.48" y2="-89.459" gradientUnits="userSpaceOnUse"><stop stop-color="#3F34EC"/><stop offset="1" stop-color="#13D8D4"/></linearGradient><linearGradient id="paint12_linear_2_4804" x1="-1848.62" y1="771.736" x2="-1836.52" y2="-89.07" gradientUnits="userSpaceOnUse"><stop stop-color="#3F34EC"/><stop offset="1" stop-color="#13D8D4"/></linearGradient><linearGradient id="paint13_linear_2_4804" x1="-1835.74" y1="776.662" x2="-1823.41" y2="-88.838" gradientUnits="userSpaceOnUse"><stop stop-color="#3F34EC"/><stop offset="1" stop-color="#13D8D4"/></linearGradient><linearGradient id="paint14_linear_2_4804" x1="-1822.69" y1="781.666" x2="-1810.11" y2="-88.678" gradientUnits="userSpaceOnUse"><stop stop-color="#3F34EC"/><stop offset="1" stop-color="#13D8D4"/></linearGradient><linearGradient id="paint15_linear_2_4804" x1="-1809.46" y1="786.729" x2="-1796.61" y2="-88.671" gradientUnits="userSpaceOnUse"><stop stop-color="#3F34EC"/><stop offset="1" stop-color="#13D8D4"/></linearGradient><linearGradient id="paint16_linear_2_4804" x1="-1796.1" y1="791.861" x2="-1782.97" y2="-88.776" gradientUnits="userSpaceOnUse"><stop stop-color="#3F34EC"/><stop offset="1" stop-color="#13D8D4"/></linearGradient><linearGradient id="paint17_linear_2_4804" x1="-1782.6" y1="797.018" x2="-1769.18" y2="-88.968" gradientUnits="userSpaceOnUse"><stop stop-color="#3F34EC"/><stop offset="1" stop-color="#13D8D4"/></linearGradient><linearGradient id="paint18_linear_2_4804" x1="-1769" y1="802.287" x2="-1755.28" y2="-89.249" gradientUnits="userSpaceOnUse"><stop stop-color="#3F34EC"/><stop offset="1" stop-color="#13D8D4"/></linearGradient><linearGradient id="paint19_linear_2_4804" x1="-1755.27" y1="807.59" x2="-1741.23" y2="-89.606" gradientUnits="userSpaceOnUse"><stop stop-color="#3F34EC"/><stop offset="1" stop-color="#13D8D4"/></linearGradient><linearGradient id="paint20_linear_2_4804" x1="-1741.48" y1="812.864" x2="-1727.12" y2="-90.016" gradientUnits="userSpaceOnUse"><stop stop-color="#3F34EC"/><stop offset="1" stop-color="#13D8D4"/></linearGradient><linearGradient id="paint21_linear_2_4804" x1="-1727.72" y1="818.234" x2="-1713.02" y2="-90.491" gradientUnits="userSpaceOnUse"><stop stop-color="#3F34EC"/><stop offset="1" stop-color="#13D8D4"/></linearGradient><linearGradient id="paint22_linear_2_4804" x1="-1713.81" y1="823.602" x2="-1698.77" y2="-91" gradientUnits="userSpaceOnUse"><stop stop-color="#3F34EC"/><stop offset="1" stop-color="#13D8D4"/></linearGradient><linearGradient id="paint23_linear_2_4804" x1="-1699.9" y1="828.959" x2="-1684.5" y2="-91.531" gradientUnits="userSpaceOnUse"><stop stop-color="#3F34EC"/><stop offset="1" stop-color="#13D8D4"/></linearGradient><linearGradient id="paint24_linear_2_4804" x1="-1686.05" y1="834.351" x2="-1670.29" y2="-92.089" gradientUnits="userSpaceOnUse"><stop stop-color="#3F34EC"/><stop offset="1" stop-color="#13D8D4"/></linearGradient><linearGradient id="paint25_linear_2_4804" x1="-1672.07" y1="839.757" x2="-1655.94" y2="-92.646" gradientUnits="userSpaceOnUse"><stop stop-color="#3F34EC"/><stop offset="1" stop-color="#13D8D4"/></linearGradient><linearGradient id="paint26_linear_2_4804" x1="-1658.21" y1="845.138" x2="-1641.71" y2="-93.2" gradientUnits="userSpaceOnUse"><stop stop-color="#3F34EC"/><stop offset="1" stop-color="#13D8D4"/></linearGradient><linearGradient id="paint27_linear_2_4804" x1="-1644.28" y1="850.481" x2="-1627.39" y2="-93.734" gradientUnits="userSpaceOnUse"><stop stop-color="#3F34EC"/><stop offset="1" stop-color="#13D8D4"/></linearGradient><linearGradient id="paint28_linear_2_4804" x1="-1630.45" y1="855.85" x2="-1613.18" y2="-94.243" gradientUnits="userSpaceOnUse"><stop stop-color="#3F34EC"/><stop offset="1" stop-color="#13D8D4"/></linearGradient><linearGradient id="paint29_linear_2_4804" x1="-1616.68" y1="861.173" x2="-1599.03" y2="-94.71" gradientUnits="userSpaceOnUse"><stop stop-color="#3F34EC"/><stop offset="1" stop-color="#13D8D4"/></linearGradient><linearGradient id="paint30_linear_2_4804" x1="-1603.02" y1="866.409" x2="-1584.98" y2="-95.126" gradientUnits="userSpaceOnUse"><stop stop-color="#3F34EC"/><stop offset="1" stop-color="#13D8D4"/></linearGradient><linearGradient id="paint31_linear_2_4804" x1="-1589.41" y1="871.74" x2="-1570.98" y2="-95.49" gradientUnits="userSpaceOnUse"><stop stop-color="#3F34EC"/><stop offset="1" stop-color="#13D8D4"/></linearGradient><linearGradient id="paint32_linear_2_4804" x1="-1575.86" y1="876.887" x2="-1557.05" y2="-95.757" gradientUnits="userSpaceOnUse"><stop stop-color="#3F34EC"/><stop offset="1" stop-color="#13D8D4"/></linearGradient><linearGradient id="paint33_linear_2_4804" x1="-1562.51" y1="882.023" x2="-1543.32" y2="-95.948" gradientUnits="userSpaceOnUse"><stop stop-color="#3F34EC"/><stop offset="1" stop-color="#13D8D4"/></linearGradient><linearGradient id="paint34_linear_2_4804" x1="-1549.26" y1="887.1" x2="-1529.69" y2="-96.038" gradientUnits="userSpaceOnUse"><stop stop-color="#3F34EC"/><stop offset="1" stop-color="#13D8D4"/></linearGradient><linearGradient id="paint35_linear_2_4804" x1="-1536.18" y1="892.097" x2="-1516.25" y2="-96.019" gradientUnits="userSpaceOnUse"><stop stop-color="#3F34EC"/><stop offset="1" stop-color="#13D8D4"/></linearGradient><linearGradient id="paint36_linear_2_4804" x1="-1523.32" y1="897.025" x2="-1503.02" y2="-95.87" gradientUnits="userSpaceOnUse"><stop stop-color="#3F34EC"/><stop offset="1" stop-color="#13D8D4"/></linearGradient><linearGradient id="paint37_linear_2_4804" x1="-1510.53" y1="901.874" x2="-1489.89" y2="-95.599" gradientUnits="userSpaceOnUse"><stop stop-color="#3F34EC"/><stop offset="1" stop-color="#13D8D4"/></linearGradient><linearGradient id="paint38_linear_2_4804" x1="-1497.99" y1="906.62" x2="-1477.01" y2="-95.17" gradientUnits="userSpaceOnUse"><stop stop-color="#3F34EC"/><stop offset="1" stop-color="#13D8D4"/></linearGradient><linearGradient id="paint39_linear_2_4804" x1="-1485.7" y1="911.279" x2="-1464.41" y2="-94.578" gradientUnits="userSpaceOnUse"><stop stop-color="#3F34EC"/><stop offset="1" stop-color="#13D8D4"/></linearGradient><linearGradient id="paint40_linear_2_4804" x1="-1473.61" y1="915.835" x2="-1452.02" y2="-93.829" gradientUnits="userSpaceOnUse"><stop stop-color="#3F34EC"/><stop offset="1" stop-color="#13D8D4"/></linearGradient><linearGradient id="paint41_linear_2_4804" x1="-1461.75" y1="920.269" x2="-1439.88" y2="-92.889" gradientUnits="userSpaceOnUse"><stop stop-color="#3F34EC"/><stop offset="1" stop-color="#13D8D4"/></linearGradient><linearGradient id="paint42_linear_2_4804" x1="-1450.18" y1="924.593" x2="-1428.06" y2="-91.748" gradientUnits="userSpaceOnUse"><stop stop-color="#3F34EC"/><stop offset="1" stop-color="#13D8D4"/></linearGradient><linearGradient id="paint43_linear_2_4804" x1="-1438.87" y1="928.795" x2="-1416.51" y2="-90.405" gradientUnits="userSpaceOnUse"><stop stop-color="#3F34EC"/><stop offset="1" stop-color="#13D8D4"/></linearGradient><linearGradient id="paint44_linear_2_4804" x1="-1427.83" y1="932.833" x2="-1405.27" y2="-88.844" gradientUnits="userSpaceOnUse"><stop stop-color="#3F34EC"/><stop offset="1" stop-color="#13D8D4"/></linearGradient><linearGradient id="paint45_linear_2_4804" x1="-1417.07" y1="936.785" x2="-1394.33" y2="-87.055" gradientUnits="userSpaceOnUse"><stop stop-color="#3F34EC"/><stop offset="1" stop-color="#13D8D4"/></linearGradient><linearGradient id="paint46_linear_2_4804" x1="-1406.75" y1="940.568" x2="-1383.87" y2="-85.012" gradientUnits="userSpaceOnUse"><stop stop-color="#3F34EC"/><stop offset="1" stop-color="#13D8D4"/></linearGradient><linearGradient id="paint47_linear_2_4804" x1="-1396.72" y1="944.204" x2="-1373.73" y2="-82.722" gradientUnits="userSpaceOnUse"><stop stop-color="#3F34EC"/><stop offset="1" stop-color="#13D8D4"/></linearGradient><linearGradient id="paint48_linear_2_4804" x1="-1386.97" y1="947.676" x2="-1363.9" y2="-80.159" gradientUnits="userSpaceOnUse"><stop stop-color="#3F34EC"/><stop offset="1" stop-color="#13D8D4"/></linearGradient><linearGradient id="paint49_linear_2_4804" x1="-1377.63" y1="950.978" x2="-1354.52" y2="-77.313" gradientUnits="userSpaceOnUse"><stop stop-color="#3F34EC"/><stop offset="1" stop-color="#13D8D4"/></linearGradient><linearGradient id="paint50_linear_2_4804" x1="-1368.49" y1="954.08" x2="-1345.37" y2="-74.221" gradientUnits="userSpaceOnUse"><stop stop-color="#3F34EC"/><stop offset="1" stop-color="#13D8D4"/></linearGradient><linearGradient id="paint51_linear_2_4804" x1="-1359.66" y1="957.264" x2="-1336.54" y2="-71.198" gradientUnits="userSpaceOnUse"><stop stop-color="#3F34EC"/><stop offset="1" stop-color="#13D8D4"/></linearGradient><linearGradient id="paint52_linear_2_4804" x1="-1350.7" y1="960.396" x2="-1327.57" y2="-68.248" gradientUnits="userSpaceOnUse"><stop stop-color="#3F34EC"/><stop offset="1" stop-color="#13D8D4"/></linearGradient><linearGradient id="paint53_linear_2_4804" x1="-1341.75" y1="963.536" x2="-1318.61" y2="-65.39" gradientUnits="userSpaceOnUse"><stop stop-color="#3F34EC"/><stop offset="1" stop-color="#13D8D4"/></linearGradient><linearGradient id="paint54_linear_2_4804" x1="-1332.85" y1="966.672" x2="-1309.69" y2="-62.608" gradientUnits="userSpaceOnUse"><stop stop-color="#3F34EC"/><stop offset="1" stop-color="#13D8D4"/></linearGradient><linearGradient id="paint55_linear_2_4804" x1="-1323.67" y1="969.821" x2="-1300.48" y2="-59.903" gradientUnits="userSpaceOnUse"><stop stop-color="#3F34EC"/><stop offset="1" stop-color="#13D8D4"/></linearGradient><linearGradient id="paint56_linear_2_4804" x1="-1314.91" y1="972.958" x2="-1291.7" y2="-57.27" gradientUnits="userSpaceOnUse"><stop stop-color="#3F34EC"/><stop offset="1" stop-color="#13D8D4"/></linearGradient><linearGradient id="paint57_linear_2_4804" x1="-1305.88" y1="976.084" x2="-1282.64" y2="-54.709" gradientUnits="userSpaceOnUse"><stop stop-color="#3F34EC"/><stop offset="1" stop-color="#13D8D4"/></linearGradient><linearGradient id="paint58_linear_2_4804" x1="-1296.93" y1="979.236" x2="-1273.66" y2="-52.213" gradientUnits="userSpaceOnUse"><stop stop-color="#3F34EC"/><stop offset="1" stop-color="#13D8D4"/></linearGradient><linearGradient id="paint59_linear_2_4804" x1="-1287.86" y1="982.354" x2="-1264.56" y2="-49.771" gradientUnits="userSpaceOnUse"><stop stop-color="#3F34EC"/><stop offset="1" stop-color="#13D8D4"/></linearGradient><linearGradient id="paint60_linear_2_4804" x1="-1278.82" y1="985.506" x2="-1255.48" y2="-47.386" gradientUnits="userSpaceOnUse"><stop stop-color="#3F34EC"/><stop offset="1" stop-color="#13D8D4"/></linearGradient><linearGradient id="paint61_linear_2_4804" x1="-1269.99" y1="988.636" x2="-1246.61" y2="-45.044" gradientUnits="userSpaceOnUse"><stop stop-color="#3F34EC"/><stop offset="1" stop-color="#13D8D4"/></linearGradient><linearGradient id="paint62_linear_2_4804" x1="-1261" y1="991.771" x2="-1237.57" y2="-42.756" gradientUnits="userSpaceOnUse"><stop stop-color="#3F34EC"/><stop offset="1" stop-color="#13D8D4"/></linearGradient><linearGradient id="paint63_linear_2_4804" x1="-1252" y1="994.873" x2="-1228.54" y2="-40.502" gradientUnits="userSpaceOnUse"><stop stop-color="#3F34EC"/><stop offset="1" stop-color="#13D8D4"/></linearGradient><linearGradient id="paint64_linear_2_4804" x1="-1243.07" y1="998.053" x2="-1219.55" y2="-38.291" gradientUnits="userSpaceOnUse"><stop stop-color="#3F34EC"/><stop offset="1" stop-color="#13D8D4"/></linearGradient><linearGradient id="paint65_linear_2_4804" x1="-1234.1" y1="1001.19" x2="-1210.53" y2="-36.115" gradientUnits="userSpaceOnUse"><stop stop-color="#3F34EC"/><stop offset="1" stop-color="#13D8D4"/></linearGradient><linearGradient id="paint66_linear_2_4804" x1="-1225.11" y1="1004.33" x2="-1201.48" y2="-33.957" gradientUnits="userSpaceOnUse"><stop stop-color="#3F34EC"/><stop offset="1" stop-color="#13D8D4"/></linearGradient><linearGradient id="paint67_linear_2_4804" x1="-1216.21" y1="1007.47" x2="-1192.52" y2="-31.832" gradientUnits="userSpaceOnUse"><stop stop-color="#3F34EC"/><stop offset="1" stop-color="#13D8D4"/></linearGradient><linearGradient id="paint68_linear_2_4804" x1="-1207.19" y1="1010.61" x2="-1183.44" y2="-29.728" gradientUnits="userSpaceOnUse"><stop stop-color="#3F34EC"/><stop offset="1" stop-color="#13D8D4"/></linearGradient><linearGradient id="paint69_linear_2_4804" x1="-1198.22" y1="1013.74" x2="-1174.41" y2="-27.631" gradientUnits="userSpaceOnUse"><stop stop-color="#3F34EC"/><stop offset="1" stop-color="#13D8D4"/></linearGradient><linearGradient id="paint70_linear_2_4804" x1="-1189.23" y1="1016.88" x2="-1165.36" y2="-25.539" gradientUnits="userSpaceOnUse"><stop stop-color="#3F34EC"/><stop offset="1" stop-color="#13D8D4"/></linearGradient><linearGradient id="paint71_linear_2_4804" x1="-1180.27" y1="1020.02" x2="-1156.33" y2="-23.437" gradientUnits="userSpaceOnUse"><stop stop-color="#3F34EC"/><stop offset="1" stop-color="#13D8D4"/></linearGradient><linearGradient id="paint72_linear_2_4804" x1="-1171.31" y1="1023.15" x2="-1147.3" y2="-21.383" gradientUnits="userSpaceOnUse"><stop stop-color="#3F34EC"/><stop offset="1" stop-color="#13D8D4"/></linearGradient><linearGradient id="paint73_linear_2_4804" x1="-1162.36" y1="1026.29" x2="-1138.28" y2="-19.303" gradientUnits="userSpaceOnUse"><stop stop-color="#3F34EC"/><stop offset="1" stop-color="#13D8D4"/></linearGradient><linearGradient id="paint74_linear_2_4804" x1="-1153.36" y1="1029.42" x2="-1129.21" y2="-17.212" gradientUnits="userSpaceOnUse"><stop stop-color="#3F34EC"/><stop offset="1" stop-color="#13D8D4"/></linearGradient><linearGradient id="paint75_linear_2_4804" x1="-1144.41" y1="1032.56" x2="-1120.19" y2="-15.112" gradientUnits="userSpaceOnUse"><stop stop-color="#3F34EC"/><stop offset="1" stop-color="#13D8D4"/></linearGradient><linearGradient id="paint76_linear_2_4804" x1="-1135.46" y1="1035.69" x2="-1111.16" y2="-12.984" gradientUnits="userSpaceOnUse"><stop stop-color="#3F34EC"/><stop offset="1" stop-color="#13D8D4"/></linearGradient><linearGradient id="paint77_linear_2_4804" x1="-1126.49" y1="1038.83" x2="-1102.11" y2="-10.847" gradientUnits="userSpaceOnUse"><stop stop-color="#3F34EC"/><stop offset="1" stop-color="#13D8D4"/></linearGradient><linearGradient id="paint78_linear_2_4804" x1="-1117.54" y1="1041.95" x2="-1093.08" y2="-8.691" gradientUnits="userSpaceOnUse"><stop stop-color="#3F34EC"/><stop offset="1" stop-color="#13D8D4"/></linearGradient><linearGradient id="paint79_linear_2_4804" x1="-1108.58" y1="1045.08" x2="-1084.05" y2="-6.525" gradientUnits="userSpaceOnUse"><stop stop-color="#3F34EC"/><stop offset="1" stop-color="#13D8D4"/></linearGradient><linearGradient id="paint80_linear_2_4804" x1="-1099.68" y1="1048.22" x2="-1075.07" y2="-4.261" gradientUnits="userSpaceOnUse"><stop stop-color="#3F34EC"/><stop offset="1" stop-color="#13D8D4"/></linearGradient><linearGradient id="paint81_linear_2_4804" x1="-1090.68" y1="1051.34" x2="-1065.99" y2="-1.99" gradientUnits="userSpaceOnUse"><stop stop-color="#3F34EC"/><stop offset="1" stop-color="#13D8D4"/></linearGradient><linearGradient id="paint82_linear_2_4804" x1="-1081.73" y1="1054.47" x2="-1056.96" y2=".324" gradientUnits="userSpaceOnUse"><stop stop-color="#3F34EC"/><stop offset="1" stop-color="#13D8D4"/></linearGradient><linearGradient id="paint83_linear_2_4804" x1="-1072.8" y1="1057.59" x2="-1047.94" y2="2.683" gradientUnits="userSpaceOnUse"><stop stop-color="#3F34EC"/><stop offset="1" stop-color="#13D8D4"/></linearGradient><linearGradient id="paint84_linear_2_4804" x1="-1063.87" y1="1060.72" x2="-1038.93" y2="5.102" gradientUnits="userSpaceOnUse"><stop stop-color="#3F34EC"/><stop offset="1" stop-color="#13D8D4"/></linearGradient><linearGradient id="paint85_linear_2_4804" x1="-1054.93" y1="1063.86" x2="-1029.91" y2="7.564" gradientUnits="userSpaceOnUse"><stop stop-color="#3F34EC"/><stop offset="1" stop-color="#13D8D4"/></linearGradient><linearGradient id="paint86_linear_2_4804" x1="-1045.98" y1="1066.95" x2="-1020.88" y2="10.104" gradientUnits="userSpaceOnUse"><stop stop-color="#3F34EC"/><stop offset="1" stop-color="#13D8D4"/></linearGradient><linearGradient id="paint87_linear_2_4804" x1="-1037.07" y1="1070.08" x2="-1011.88" y2="12.698" gradientUnits="userSpaceOnUse"><stop stop-color="#3F34EC"/><stop offset="1" stop-color="#13D8D4"/></linearGradient><linearGradient id="paint88_linear_2_4804" x1="-1028.12" y1="1073.19" x2="-1002.85" y2="15.362" gradientUnits="userSpaceOnUse"><stop stop-color="#3F34EC"/><stop offset="1" stop-color="#13D8D4"/></linearGradient><linearGradient id="paint89_linear_2_4804" x1="-1019.2" y1="1076.3" x2="-993.848" y2="18.112" gradientUnits="userSpaceOnUse"><stop stop-color="#3F34EC"/><stop offset="1" stop-color="#13D8D4"/></linearGradient><linearGradient id="paint90_linear_2_4804" x1="-1010.3" y1="1079.43" x2="-984.866" y2="20.929" gradientUnits="userSpaceOnUse"><stop stop-color="#3F34EC"/><stop offset="1" stop-color="#13D8D4"/></linearGradient><linearGradient id="paint91_linear_2_4804" x1="-1001.39" y1="1082.53" x2="-975.868" y2="23.838" gradientUnits="userSpaceOnUse"><stop stop-color="#3F34EC"/><stop offset="1" stop-color="#13D8D4"/></linearGradient><linearGradient id="paint92_linear_2_4804" x1="-992.458" y1="1085.63" x2="-966.853" y2="26.825" gradientUnits="userSpaceOnUse"><stop stop-color="#3F34EC"/><stop offset="1" stop-color="#13D8D4"/></linearGradient><linearGradient id="paint93_linear_2_4804" x1="-983.564" y1="1088.71" x2="-957.879" y2="29.923" gradientUnits="userSpaceOnUse"><stop stop-color="#3F34EC"/><stop offset="1" stop-color="#13D8D4"/></linearGradient><linearGradient id="paint94_linear_2_4804" x1="-974.642" y1="1091.85" x2="-948.871" y2="33.099" gradientUnits="userSpaceOnUse"><stop stop-color="#3F34EC"/><stop offset="1" stop-color="#13D8D4"/></linearGradient><linearGradient id="paint95_linear_2_4804" x1="-965.779" y1="1094.95" x2="-939.927" y2="36.381" gradientUnits="userSpaceOnUse"><stop stop-color="#3F34EC"/><stop offset="1" stop-color="#13D8D4"/></linearGradient><linearGradient id="paint96_linear_2_4804" x1="-956.868" y1="1098.04" x2="-930.934" y2="39.769" gradientUnits="userSpaceOnUse"><stop stop-color="#3F34EC"/><stop offset="1" stop-color="#13D8D4"/></linearGradient><linearGradient id="paint97_linear_2_4804" x1="-947.986" y1="1101.14" x2="-921.971" y2="43.275" gradientUnits="userSpaceOnUse"><stop stop-color="#3F34EC"/><stop offset="1" stop-color="#13D8D4"/></linearGradient><linearGradient id="paint98_linear_2_4804" x1="-939.118" y1="1104.24" x2="-913.024" y2="46.888" gradientUnits="userSpaceOnUse"><stop stop-color="#3F34EC"/><stop offset="1" stop-color="#13D8D4"/></linearGradient><linearGradient id="paint99_linear_2_4804" x1="-930.253" y1="1107.32" x2="-904.08" y2="50.62" gradientUnits="userSpaceOnUse"><stop stop-color="#3F34EC"/><stop offset="1" stop-color="#13D8D4"/></linearGradient><linearGradient id="paint100_linear_2_4804" x1="-921.357" y1="1110.41" x2="-895.106" y2="54.48" gradientUnits="userSpaceOnUse"><stop stop-color="#3F34EC"/><stop offset="1" stop-color="#13D8D4"/></linearGradient><clipPath id="clip0_2_4804"><path fill="#fff" d="M0 0h1920v831H0z"/></clipPath></defs></svg>