<svg width="1920" height="526" viewBox="0 0 1920 526" fill="none" xmlns="http://www.w3.org/2000/svg">
<g clip-path="url(#clip0_2_4594)">
<g opacity="0.7">
<path d="M2008.92 56.8424C1673.47 48.2434 1469.71 257.197 1213.06 363.416C1107.61 407.063 984.082 433.09 865.324 410.793C726.131 384.66 619.977 312.765 518.998 253.73C309.175 131.072 88.9684 22.5302 -176.588 -54.6761" stroke="url(#paint0_linear_2_4594)" stroke-width="0.970675" stroke-miterlimit="10"/>
<path d="M2009.8 61.3791C1670.28 49.1056 1469.48 258.732 1212.79 367.171C1107.51 411.644 984.72 437.628 865.499 415.034C725.917 388.603 619.486 316.493 518.141 257.185C309.103 134.879 89.6456 26.6354 -175.627 -49.7644" stroke="url(#paint1_linear_2_4594)" stroke-width="0.970675" stroke-miterlimit="10"/>
<path d="M2010.53 65.546C1664.34 49.5705 1467.21 262.441 1207.26 372.736C1103.01 416.958 982.289 441.498 864.517 418.834C726.512 392.241 621.052 321.413 520.643 262.646C311.124 140.021 91.8803 31.3228 -174.643 -44.615" stroke="url(#paint2_linear_2_4594)" stroke-width="0.970675" stroke-miterlimit="10"/>
<path d="M2011.14 69.3581C1660.68 49.7828 1466.89 263.187 1206.67 375.78C1102.7 420.78 982.472 445.385 864.318 422.61C725.947 395.937 620.281 324.981 519.582 266.066C310.836 143.96 92.4459 35.7354 -173.697 -39.2139" stroke="url(#paint3_linear_2_4594)" stroke-width="0.970675" stroke-miterlimit="10"/>
<path d="M2011.63 72.8328C1656.82 49.7228 1466.36 263.46 1205.85 378.53C1102.17 424.32 982.454 448.936 864.018 426.088C725.469 399.322 619.454 328.385 518.493 269.397C310.518 147.896 93.0322 40.2196 -172.668 -33.6483" stroke="url(#paint4_linear_2_4594)" stroke-width="0.970675" stroke-miterlimit="10"/>
<path d="M2011.98 75.9865C1652.79 49.4096 1465.72 263.422 1204.84 380.965C1101.56 427.504 982.35 452.19 863.506 429.375C724.665 402.653 618.47 331.735 517.262 272.72C310.099 151.906 93.57 44.8788 -171.701 -27.8671" stroke="url(#paint5_linear_2_4594)" stroke-width="0.970675" stroke-miterlimit="10"/>
<path d="M2012.21 78.8265C1831.89 63.9546 1677.5 111.135 1539.66 187.232C1425.46 250.322 1328.11 325.582 1205.03 382.433C1101.57 430.23 981.779 455.433 861.732 432.269C724.842 405.757 619.491 336.179 519.402 277.97C311.924 157.327 95.4339 50.0147 -170.65 -21.8412" stroke="url(#paint6_linear_2_4594)" stroke-width="0.970675" stroke-miterlimit="10"/>
<path d="M2012.35 81.3828C1918.56 72.8756 1824.95 77.904 1734.24 103.209C1660.91 123.634 1595.62 154.276 1535.67 187.579C1421.76 250.852 1325.84 326.734 1203.69 384.291C1100.72 432.797 981.338 458.185 860.972 435.087C723.86 408.787 618.341 339.347 518.036 281.212C311.388 161.425 95.8707 54.8922 -169.594 -15.6357" stroke="url(#paint7_linear_2_4594)" stroke-width="0.970675" stroke-miterlimit="10"/>
<path d="M2012.38 83.6513C1917.69 74.3233 1822.71 78.3087 1730.45 103.49C1656.89 123.61 1591.4 154.213 1531.54 187.652C1417.95 251.132 1323.46 327.635 1202.17 385.864C1099.74 435.06 980.671 460.647 860.026 437.709C722.819 411.613 617.001 342.364 516.581 284.369C310.73 165.531 96.2038 59.8485 -168.535 -9.24951" stroke="url(#paint8_linear_2_4594)" stroke-width="0.970675" stroke-miterlimit="10"/>
<path d="M2012.3 85.6689C1916.73 75.5187 1820.4 78.4784 1726.61 103.541C1652.71 123.307 1587.02 153.876 1527.28 187.463C1414.02 251.167 1320.85 328.241 1200.48 387.174C1098.67 437.075 979.879 462.882 858.9 440.184C721.566 414.41 615.62 345.393 515.044 287.526C310.047 169.668 96.6101 64.861 -167.533 -2.75195" stroke="url(#paint9_linear_2_4594)" stroke-width="0.970675" stroke-miterlimit="10"/>
<path d="M2012.14 87.4348C1915.67 76.4899 1817.92 78.3849 1722.66 103.344C1648.46 122.773 1582.57 153.307 1522.94 187.049C1409.96 250.979 1318.2 328.659 1198.71 388.282C1097.52 438.828 978.964 464.889 857.686 442.462C720.293 417.044 614.141 348.303 513.417 290.669C309.302 173.84 96.8619 70.0455 -166.521 3.96375" stroke="url(#paint10_linear_2_4594)" stroke-width="0.970675" stroke-miterlimit="10"/>
<path d="M2011.88 88.9625C1914.53 77.2417 1815.38 78.0906 1718.59 102.893C1644.05 121.998 1578 152.496 1518.46 186.386C1405.75 250.549 1315.31 328.798 1196.73 389.17C1096.27 440.307 977.882 466.686 856.396 444.587C718.959 419.581 612.616 351.161 511.779 293.789C308.459 178.068 97.0823 75.3077 -165.449 10.8275" stroke="url(#paint11_linear_2_4594)" stroke-width="0.970675" stroke-miterlimit="10"/>
<path d="M2011.58 90.301C1912.65 77.7289 1811.42 77.6531 1712.62 102.738C1637.44 121.824 1570.91 152.68 1511.2 187.109C1400.42 250.965 1312.13 328.675 1196.12 389.153C1095.55 441.519 976.504 468.463 853.782 446.276C714.889 421.142 607.795 352.158 505.75 294.414C304.849 180.742 95.1989 80.1384 -164.424 17.797" stroke="url(#paint12_linear_2_4594)" stroke-width="0.970675" stroke-miterlimit="10"/>
<path d="M2011.15 91.3999C1911.33 78.0598 1808.68 76.933 1708.34 101.862C1632.78 120.635 1566.07 151.494 1506.52 186.033C1396 250.134 1309.06 328.427 1193.92 389.586C1094.12 442.584 975.234 469.903 852.235 448.081C713.362 423.464 606.128 354.902 503.955 297.461C303.944 185.005 95.3895 85.5378 -163.348 24.9111" stroke="url(#paint13_linear_2_4594)" stroke-width="0.970675" stroke-miterlimit="10"/>
<path d="M2010.67 92.3078C1909.96 78.22 1805.89 76.0298 1704 100.802C1628.14 119.257 1561.26 150.059 1501.77 184.774C1391.54 249.149 1305.89 327.992 1191.64 389.834C1092.65 443.467 973.84 471.09 850.593 449.735C711.746 425.698 604.355 357.584 502.111 300.5C302.975 189.315 95.5188 91.0092 -162.295 32.1521" stroke="url(#paint14_linear_2_4594)" stroke-width="0.970675" stroke-miterlimit="10"/>
<path d="M2010.12 93.1078C1908.52 78.2782 1803.03 75.0196 1699.59 99.6359C1623.42 117.765 1556.34 148.534 1496.96 183.419C1386.94 248.03 1302.59 327.496 1189.28 389.999C1090.96 444.154 972.4 472.241 848.842 451.331C710.084 427.845 602.484 360.19 500.225 303.504C301.977 193.621 95.6451 96.5134 -161.238 39.502" stroke="url(#paint15_linear_2_4594)" stroke-width="0.970675" stroke-miterlimit="10"/>
<path d="M2009.52 93.7196C1907.03 78.1614 1800.08 73.8253 1695.08 98.2613C1618.58 116.067 1551.31 146.799 1492 181.839C1382.19 246.71 1299.24 326.69 1186.75 389.92C1089.37 444.718 970.848 473.188 847.027 452.783C708.343 429.925 600.59 362.758 498.287 306.491C300.943 197.954 95.774 102.138 -160.158 46.9453" stroke="url(#paint16_linear_2_4594)" stroke-width="0.970675" stroke-miterlimit="10"/>
<path d="M2008.87 94.1869C1905.48 77.9147 1797.13 72.5406 1690.61 96.8058C1613.81 114.293 1546.33 144.978 1487.08 180.206C1377.48 245.343 1295.82 325.9 1184.25 389.797C1087.65 445.115 969.216 474.015 845.134 454.129C706.578 431.927 598.655 365.288 496.321 309.459C299.863 202.295 95.8472 107.765 -159.084 54.4762" stroke="url(#paint17_linear_2_4594)" stroke-width="0.970675" stroke-miterlimit="10"/>
<path d="M2008.16 94.5389C1903.88 77.5587 1794.11 71.1247 1686.03 95.1968C1608.93 112.377 1541.23 143.022 1482.09 178.388C1372.69 243.798 1292.34 324.924 1181.67 389.497C1085.88 445.382 967.517 474.727 843.187 455.39C704.753 433.864 596.662 367.777 494.35 312.389C298.791 206.629 95.8467 113.405 -157.975 62.062" stroke="url(#paint18_linear_2_4594)" stroke-width="0.970675" stroke-miterlimit="10"/>
<path d="M2007.42 94.7844C1902.25 77.0967 1790.99 69.6462 1681.41 93.4878C1604 110.35 1536.09 140.947 1477.01 176.487C1367.83 242.175 1288.77 323.852 1178.97 389.088C1084.03 445.519 965.738 475.32 841.143 456.559C702.897 435.754 594.691 370.211 492.273 315.369C297.625 211.019 95.8696 119.111 -156.92 69.7708" stroke="url(#paint19_linear_2_4594)" stroke-width="0.970675" stroke-miterlimit="10"/>
<path d="M2006.65 94.9391C1900.58 76.5513 1787.93 68.0135 1676.75 91.6904C1599.04 108.248 1530.92 138.784 1471.87 174.474C1362.87 240.448 1285.14 322.686 1176.26 388.612C1082.15 445.595 963.936 475.852 839.097 457.679C701.019 437.597 592.566 372.652 490.175 318.288C296.431 215.393 95.8041 124.83 -155.834 77.5415" stroke="url(#paint20_linear_2_4594)" stroke-width="0.970675" stroke-miterlimit="10"/>
<path d="M2005.83 95.0132C1898.87 75.9386 1784.79 66.3424 1672.04 89.8206C1593.98 106.101 1525.68 136.555 1466.75 172.434C1357.92 238.701 1281.48 321.488 1173.52 388.087C1080.33 445.602 962.115 476.34 837.003 458.775C699.072 439.405 590.512 375.091 488.117 321.228C295.297 219.773 95.8321 130.585 -154.711 85.293" stroke="url(#paint21_linear_2_4594)" stroke-width="0.970675" stroke-miterlimit="10"/>
<path d="M2005 95.0204C1897.13 75.2663 1781.62 64.6195 1667.35 87.8759C1589.03 103.816 1520.46 134.239 1461.59 170.297C1352.9 236.872 1277.81 320.185 1170.74 387.457C1078.37 445.461 960.235 476.711 834.907 459.781C697.146 441.159 588.447 377.474 486.029 324.125C294.116 224.149 95.7835 136.345 -153.668 93.1323" stroke="url(#paint22_linear_2_4594)" stroke-width="0.970675" stroke-miterlimit="10"/>
<path d="M2004.15 94.985C1895.36 74.5591 1778.44 62.8605 1662.58 85.8817C1583.99 101.526 1515.24 131.913 1456.4 168.127C1347.91 234.973 1274.09 318.862 1167.92 386.798C1076.45 445.336 958.365 477.076 832.755 460.761C695.189 442.91 586.311 379.881 483.933 327.042C292.981 228.56 95.726 142.123 -152.57 100.997" stroke="url(#paint23_linear_2_4594)" stroke-width="0.970675" stroke-miterlimit="10"/>
<path d="M2003.29 94.9216C1893.6 73.8298 1775.24 61.0816 1657.86 83.8812C1578.96 99.215 1509.94 129.513 1451.16 165.913C1342.87 233.076 1270.34 317.512 1165.08 386.113C1074.5 445.153 956.462 477.4 830.623 461.702C693.281 444.601 584.265 382.2 481.826 329.916C291.725 232.885 95.6786 147.869 -151.461 108.854" stroke="url(#paint24_linear_2_4594)" stroke-width="0.970675" stroke-miterlimit="10"/>
<path d="M2002.42 94.8339C1891.79 73.0724 1772.03 59.2989 1653.12 81.8586C1573.91 96.8877 1504.67 127.119 1445.94 163.687C1337.82 231.141 1266.58 316.145 1162.22 385.398C1072.5 444.954 954.525 477.708 828.399 462.669C691.28 446.318 582.118 384.576 479.648 332.826C290.41 237.238 95.5288 153.646 -150.402 116.731" stroke="url(#paint25_linear_2_4594)" stroke-width="0.970675" stroke-miterlimit="10"/>
<path d="M2001.54 94.7545C1890.02 72.3459 1768.85 57.497 1648.36 79.8273C1568.86 94.5629 1499.4 124.723 1440.78 161.491C1332.74 229.25 1262.83 314.78 1159.4 384.701C1070.56 444.765 952.644 478.019 826.25 463.626C689.345 448.03 580.037 386.948 477.547 335.738C289.323 241.67 95.485 159.401 -149.307 124.647" stroke="url(#paint26_linear_2_4594)" stroke-width="0.970675" stroke-miterlimit="10"/>
<path d="M2000.68 94.6846C1888.86 71.7379 1767.11 55.9108 1645.67 77.4543C1566.29 91.5282 1496.69 121.105 1438.17 157.653C1328.38 226.219 1259.35 313.501 1155.38 384.788C1067.93 444.734 950.85 478.111 825.19 464.753C689.947 450.385 580.994 390.792 479.55 340.679C290.661 247.356 97.4569 165.421 -148.238 132.515" stroke="url(#paint27_linear_2_4594)" stroke-width="0.970675" stroke-miterlimit="10"/>
<path d="M1999.82 94.6397C1887.08 71.0551 1763.93 54.1971 1640.99 75.4926C1561.33 89.2791 1491.49 118.773 1433.02 155.502C1323.36 224.374 1255.65 312.22 1152.59 384.163C1066.01 444.612 949.016 478.487 823.116 465.727C688.052 452.072 578.986 393.154 477.477 343.544C289.48 251.666 97.4138 171.078 -147.109 140.36" stroke="url(#paint28_linear_2_4594)" stroke-width="0.970675" stroke-miterlimit="10"/>
<path d="M1998.98 94.6478C1885.36 70.3845 1760.75 52.5387 1636.26 73.5404C1556.3 87.0283 1486.23 116.438 1427.81 153.347C1318.27 222.534 1251.85 310.946 1149.78 383.526C1064.05 444.485 947.12 478.847 820.922 466.739C686.067 453.8 576.835 395.543 475.356 346.46C288.261 256.007 97.2632 176.828 -146.043 148.211" stroke="url(#paint29_linear_2_4594)" stroke-width="0.970675" stroke-miterlimit="10"/>
<path d="M1998.15 94.7079C1883.56 69.8429 1757.6 50.9189 1631.58 71.6689C1551.35 84.8697 1481.11 114.204 1422.65 151.273C1313.24 220.787 1248.18 309.721 1147.02 382.97C1062.15 444.426 945.314 479.278 818.814 467.784C684.178 455.543 574.829 397.922 473.265 349.356C287.059 260.307 97.1009 182.449 -144.963 156.007" stroke="url(#paint30_linear_2_4594)" stroke-width="0.970675" stroke-miterlimit="10"/>
<path d="M1997.37 94.8375C1882.45 69.4691 1755.88 49.6478 1629.02 69.5341C1545.86 82.577 1473.11 113.043 1413.49 151.83C1306.25 221.608 1242.91 310.227 1143.2 383.333C1059.56 444.703 943.564 479.486 817.884 468.936C681.477 457.483 570.81 399.396 467.889 350.696C283.596 263.491 95.5511 187.888 -143.855 163.698" stroke="url(#paint31_linear_2_4594)" stroke-width="0.970675" stroke-miterlimit="10"/>
<path d="M1996.62 95.0683C1880.76 69.0772 1752.83 48.2488 1624.44 67.8459C1541 80.5711 1468.01 110.935 1408.43 149.934C1301.32 220.044 1239.33 309.2 1140.56 382.96C1057.71 444.831 941.85 480.089 815.875 470.107C679.685 459.325 568.869 401.856 465.861 353.647C282.417 267.778 95.5121 193.448 -142.84 171.47" stroke="url(#paint32_linear_2_4594)" stroke-width="0.970675" stroke-miterlimit="10"/>
<path d="M1995.9 95.4021C1879.73 68.881 1751.27 47.195 1621.99 65.9394C1538.68 78.0157 1465.46 107.735 1405.96 146.479C1298.84 216.219 1238.02 305.249 1141.85 379.698C1059.51 443.431 943.66 480.771 815.002 471.429C677.208 461.446 564.928 403.363 460.607 355.055C279.162 271.083 93.7135 198.81 -141.705 179.054" stroke="url(#paint33_linear_2_4594)" stroke-width="0.970675" stroke-miterlimit="10"/>
<path d="M1995.22 95.8477C1878.07 68.7325 1748.31 46.0298 1617.51 64.4588C1533.93 76.236 1460.47 105.841 1401 144.785C1294.06 214.875 1234.49 304.43 1139.27 379.506C1057.73 443.797 942.086 481.562 813.132 472.787C675.529 463.425 563.096 405.934 458.673 358.073C278.076 275.313 93.5839 204.28 -140.639 186.589" stroke="url(#paint34_linear_2_4594)" stroke-width="0.970675" stroke-miterlimit="10"/>
<path d="M1994.6 96.4321C1876.5 68.7016 1745.4 45.0038 1613.09 63.1248C1529.25 74.6016 1455.57 104.116 1396.11 143.231C1289.26 213.638 1231.03 303.743 1136.78 379.44C1056.07 444.274 940.614 482.458 811.35 474.22C673.903 465.449 561.336 408.523 456.819 361.075C276.986 279.533 93.445 209.701 -139.564 194.047" stroke="url(#paint35_linear_2_4594)" stroke-width="0.970675" stroke-miterlimit="10"/>
<path d="M1994.03 97.1621C1875.61 68.954 1744.02 44.427 1610.84 61.6498C1523.85 72.9164 1448.01 103.442 1387.49 144.437C1283.01 215.215 1226.1 304.764 1133.3 380.363C1052.34 446.281 934.463 484.654 803.978 475.365C670.823 465.842 561.075 411.832 458.887 365.952C278.656 284.911 95.342 215.129 -138.49 201.396" stroke="url(#paint36_linear_2_4594)" stroke-width="0.970675" stroke-miterlimit="10"/>
<path d="M1993.52 98.0615C1874.15 69.2309 1741.24 43.7275 1606.53 60.612C1519.27 71.5604 1443.2 101.932 1382.72 143.166C1278.41 214.338 1222.83 304.396 1130.99 380.592C1050.86 447.098 933.165 485.852 802.288 477.009C669.189 468.028 559.338 414.464 457.06 368.938C277.627 289.058 95.168 220.343 -137.445 208.638" stroke="url(#paint37_linear_2_4594)" stroke-width="0.970675" stroke-miterlimit="10"/>
<path d="M1993.09 99.1341C1873.34 69.8361 1739.99 43.5133 1604.48 59.5338C1517.43 69.7906 1441.26 99.4781 1380.57 140.467C1274.15 212.327 1220.05 304.371 1127.81 381.914C1048.67 448.443 932.2 486.832 801.881 478.849C667.055 470.592 555.821 416.284 452.158 370.56C274.61 292.287 93.5634 225.422 -136.369 215.787" stroke="url(#paint38_linear_2_4594)" stroke-width="0.970675" stroke-miterlimit="10"/>
<path d="M1992.72 100.404C1869.64 69.8934 1731.42 42.0459 1591.73 60.0329C1508.87 70.701 1436.65 99.0505 1378.43 137.957C1269.94 210.401 1217.18 304.505 1124.75 383.329C1046.78 449.816 931.157 488.144 801.488 480.885C667.913 473.416 557.117 420.39 454.309 375.407C276.28 297.555 95.421 230.562 -135.303 222.793" stroke="url(#paint39_linear_2_4594)" stroke-width="0.970675" stroke-miterlimit="10"/>
<path d="M1992.43 101.891C1792.29 51.623 1549.46 19.2387 1373.96 137.284C1265.65 210.091 1214.2 304.725 1122.82 384.21C1045.65 451.27 930.274 489.918 800.192 482.985C666.599 475.838 555.671 423.182 452.609 378.481C275.434 301.636 95.3472 235.521 -134.268 229.664" stroke="url(#paint40_linear_2_4594)" stroke-width="0.970675" stroke-miterlimit="10"/>
<path d="M1992.24 103.589C1790.4 52.3254 1541.49 17.4726 1365.81 139.351C1260.02 212.748 1210.15 306.742 1119.99 386.104C1043.86 453.121 929.469 491.551 799.964 485.233C664.636 478.6 552.361 425.291 447.884 380.304C272.503 304.788 93.8205 240.349 -133.229 236.396" stroke="url(#paint41_linear_2_4594)" stroke-width="0.970675" stroke-miterlimit="10"/>
<path d="M1992.13 105.531C1791.98 54.0869 1540.29 15.9513 1363.92 137.497C1258.08 210.445 1209.06 304.386 1121.7 384.311C1046.21 453.383 932.238 493.52 799.962 487.698C665.843 481.786 553.843 429.431 450.275 385.114C274.405 309.858 95.7024 245.1 -132.18 242.968" stroke="url(#paint42_linear_2_4594)" stroke-width="0.970675" stroke-miterlimit="10"/>
<path d="M1992.11 107.73C1792.16 55.7635 1536.83 14.7344 1359.82 137.524C1254.11 210.834 1206.49 305.277 1120.14 385.81C1045.34 455.49 931.775 495.922 798.966 490.283C664.809 484.597 552.588 432.458 448.806 388.31C273.704 313.822 95.7121 249.777 -131.156 249.378" stroke="url(#paint43_linear_2_4594)" stroke-width="0.970675" stroke-miterlimit="10"/>
<path d="M1992.2 110.194C1790.49 57.1854 1529.27 13.7686 1352.2 140.423C1248.98 214.257 1202.74 308.058 1117.71 388.451C1042.7 459.368 926.853 499.828 792.592 492.83C659.284 485.894 548.077 434.188 444.282 390.263C271.077 316.901 94.3183 254.299 -130.133 255.622" stroke="url(#paint44_linear_2_4594)" stroke-width="0.970675" stroke-miterlimit="10"/>
<path d="M1992.4 112.939C1791.95 59.6956 1528.85 13.2474 1350.71 139.322C1245.4 213.853 1201.06 309.671 1115.63 391.365C1081.67 423.858 1039.41 455.028 982.374 472.726C923.573 490.944 856.104 498.927 793.049 495.813C657.802 489.119 545.305 436.594 439.995 392.222C268.483 319.956 93.0116 258.715 -129.086 261.656" stroke="url(#paint45_linear_2_4594)" stroke-width="0.970675" stroke-miterlimit="10"/>
<path d="M1992.7 115.981C1792.59 62.2611 1525.63 12.9097 1347.01 140.187C1241.88 215.088 1198.89 311.469 1114.51 393.676C1080.98 426.388 1039.17 457.84 982.194 475.748C923.469 494.208 855.55 502.09 792.449 498.987C656.954 492.307 544.348 439.884 438.735 395.514C268.009 323.807 93.19 263.007 -128.08 267.552" stroke="url(#paint46_linear_2_4594)" stroke-width="0.970675" stroke-miterlimit="10"/>
<path d="M1993.13 119.342C1794.27 65.4438 1525.38 13.2155 1345.69 139.738C1238.53 215.187 1196.92 313.672 1112.75 397.186C1079.86 429.829 1038.58 461.2 982.176 479.224C924.158 497.751 855.653 505.537 793.178 502.52C658.604 496.04 546.458 444.509 441.43 400.486C270.21 328.708 95.1461 267.123 -127.109 273.2" stroke="url(#paint47_linear_2_4594)" stroke-width="0.970675" stroke-miterlimit="10"/>
<path d="M1993.69 123.031C1793.74 68.2704 1517.98 13.0782 1338.71 143.709C1235.97 218.568 1195.15 314.458 1115.13 397.008C1082.13 431.043 1040.48 464.152 982.208 482.887C924.344 501.477 856.413 509.081 794.055 506.195C657.479 499.891 543.893 447.149 437.395 402.617C267.873 331.681 94.0538 271.158 -126.135 278.651" stroke="url(#paint48_linear_2_4594)" stroke-width="0.970675" stroke-miterlimit="10"/>
<path d="M1994.37 127.062C1794.88 71.9014 1515.12 13.6748 1335.47 145.525C1232.95 220.759 1193.5 317.191 1114.59 400.278C1082.07 434.506 1040.87 467.929 982.676 486.873C924.894 505.698 856.374 513.06 794.003 510.106C657.085 503.612 543.233 450.746 436.444 406.053C267.671 335.427 94.3239 274.998 -125.137 283.892" stroke="url(#paint49_linear_2_4594)" stroke-width="0.970675" stroke-miterlimit="10"/>
<path d="M1995.19 131.453C1797.54 76.2702 1514.79 14.8039 1334.53 146.119C1230.17 222.145 1192.28 320.454 1113.36 404.863C1081.5 438.952 1040.75 472.289 983.185 491.346C925.974 510.268 856.969 517.259 795.158 514.396C659.134 508.115 545.322 455.609 439.324 411.15C270.183 340.166 96.4417 278.611 -124.162 288.888" stroke="url(#paint50_linear_2_4594)" stroke-width="0.970675" stroke-miterlimit="10"/>
<path d="M1996.14 136.161C1798.56 81.2332 1516.24 20.1547 1335.96 150.886C1231.5 226.653 1193.31 324.749 1114.4 409.017C1082.45 443.157 1041.64 476.55 984.196 495.813C927.215 514.877 857.515 521.22 795.973 518.192C659.906 511.475 546.047 459.31 439.672 414.962C270.57 344.496 96.8831 283.383 -123.105 293.657" stroke="url(#paint51_linear_2_4594)" stroke-width="0.970675" stroke-miterlimit="10"/>
<path d="M1997.22 140.859C1798.06 86.4702 1519.52 29.1636 1339.54 159.243C1236.66 233.587 1196.23 329.379 1117.42 411.86C1084.6 446.216 1043.29 479.724 985.251 499.184C928.083 518.395 857.617 523.97 796.006 520.565C659.231 513.025 545.062 461.309 437.135 417.115C268.422 348.089 95.2888 289.35 -122.234 298.441" stroke="url(#paint52_linear_2_4594)" stroke-width="0.970675" stroke-miterlimit="10"/>
<path d="M1998.4 145.513C1800.63 92.4118 1529.77 38.471 1348.85 163.109C1241.27 237.221 1199.24 335.053 1116.41 417.949C1083.44 450.937 1042.36 482.634 986.319 501.665C929.33 521.028 857.285 525.832 795.886 522.195C661.39 514.191 548.426 464.648 441.253 421.606C270.938 353.17 96.8157 294.995 -121.273 303.201" stroke="url(#paint53_linear_2_4594)" stroke-width="0.970675" stroke-miterlimit="10"/>
<path d="M1999.66 150.104C1801.23 97.682 1532.84 46.5627 1352.39 170.491C1246.55 243.182 1202.41 338.171 1119.37 419.157C1085.49 452.194 1043.79 483.848 987.273 503.017C929.823 522.496 857.498 526.609 795.835 522.788C660.879 514.476 547.157 465.384 438.654 422.804C268.731 356.113 95.1186 300.57 -120.32 307.967" stroke="url(#paint54_linear_2_4594)" stroke-width="0.970675" stroke-miterlimit="10"/>
<path d="M2001.02 154.652C1802.05 102.889 1536.02 54.4848 1355.91 177.408C1251.87 248.419 1205.04 340.583 1122.28 419.525C1087.63 452.589 1045.07 484.168 988.282 503.49C930.828 523.04 857.348 526.489 795.662 522.632C663.143 514.277 550.453 467.403 442.859 426.249C271.114 360.547 96.3845 305.94 -119.381 312.719" stroke="url(#paint55_linear_2_4594)" stroke-width="0.970675" stroke-miterlimit="10"/>
<path d="M2002.45 159.151C1803.99 108.245 1542.23 62.3381 1361.74 182.295C1257.19 251.779 1208.14 342.539 1124.31 420.03C1088.89 452.763 1045.74 483.813 989.025 503.047C931.675 522.456 858.042 525.509 796.6 521.704C664.794 513.543 552.03 468.176 443.982 428.042C271.387 363.911 96.1859 311.202 -118.35 317.54" stroke="url(#paint56_linear_2_4594)" stroke-width="0.970675" stroke-miterlimit="10"/>
<path d="M2003.95 163.593C1807.92 114.006 1552.58 70.0905 1371.2 184.398C1264.01 252.008 1212.43 342.423 1127.27 418.964C1090.96 451.605 1047 482.469 989.846 501.614C933.834 520.382 863.001 523.384 803.013 520.335C671.003 513.6 557.022 469.666 448.152 430.51C273.606 367.727 97.3235 316.289 -117.467 322.264" stroke="url(#paint57_linear_2_4594)" stroke-width="0.970675" stroke-miterlimit="10"/>
<path d="M2005.52 167.988C1808.95 118.887 1556.54 77.3139 1374.71 190.002C1267.12 256.675 1213.7 346.051 1125.81 421.036C1089.42 452.067 1045.88 481.068 990.716 499.442C934.586 518.148 862.804 520.859 802.775 517.813C670.361 511.09 555.76 468.321 445.342 430.051C271.144 369.671 95.2921 321.322 -116.473 327.033" stroke="url(#paint58_linear_2_4594)" stroke-width="0.970675" stroke-miterlimit="10"/>
<path d="M2007.14 172.334C1811.44 124.058 1562.98 84.3188 1380.59 193.717C1272.53 258.543 1216.69 346.18 1127.71 419.395C1090.57 449.975 1046.44 478.384 991.338 496.485C935.188 514.926 863.62 517.552 803.544 514.712C671.981 508.485 557.248 467.545 446.379 430.625C271.243 372.306 94.8839 326.202 -115.531 331.811" stroke="url(#paint59_linear_2_4594)" stroke-width="0.970675" stroke-miterlimit="10"/>
<path d="M2008.8 176.636C1815.47 129.486 1573.66 91.4345 1390.38 194.903C1279.66 257.418 1220.97 344.346 1130.57 416.333C1092.45 446.686 1047.56 474.789 992.022 492.689C935.371 510.957 863.565 513.607 803.263 510.943C674.239 505.2 560.568 466.869 450.623 431.832C273.45 375.377 95.9355 330.93 -114.516 336.58" stroke="url(#paint60_linear_2_4594)" stroke-width="0.970675" stroke-miterlimit="10"/>
<path d="M2010.5 180.893C1818.23 134.478 1580.15 97.9469 1396.3 198.006C1285.16 258.459 1223.95 343.453 1132.44 413.519C1093.48 443.332 1048.05 470.719 992.565 488.283C935.768 506.257 864.33 508.936 803.99 506.581C675.841 501.503 562.016 465.149 451.625 431.646C273.508 377.576 95.4717 335.598 -113.539 341.375" stroke="url(#paint61_linear_2_4594)" stroke-width="0.970675" stroke-miterlimit="10"/>
<path d="M2012.22 185.106C1819.87 139.124 1584.37 104.116 1399.76 202.082C1290.1 260.275 1226.8 341.948 1135.36 409.376C1095.39 438.851 1049.08 465.814 993.303 483.19C936.15 501.007 864.243 503.664 803.534 501.521C675.157 496.994 560.454 462.111 448.643 429.948C270.854 378.843 93.3087 340.191 -112.625 346.106" stroke="url(#paint62_linear_2_4594)" stroke-width="0.970675" stroke-miterlimit="10"/>
<path d="M2013.96 189.267C1823.1 144.051 1590.6 110.084 1405.63 204.535C1295.71 260.669 1229.74 340.105 1137.18 405.532C1096.37 434.358 1049.47 460.57 993.737 477.529C936.392 494.991 865.01 497.819 804.185 496.066C676.748 492.371 561.842 459.634 449.62 429.193C270.96 380.754 92.7417 344.627 -111.652 350.878" stroke="url(#paint63_linear_2_4594)" stroke-width="0.970675" stroke-miterlimit="10"/>
<path d="M2015.71 193.39C1824.91 148.564 1594.93 115.915 1408.96 207.955C1300.54 261.617 1232.45 337.715 1140.06 400.42C1098.17 428.843 1050.49 454.555 994.306 471.186C936.234 488.384 865.15 491.558 803.67 490.09C678.779 487.113 565.057 457.218 453.771 428.945C272.988 383.018 93.5747 348.989 -110.652 355.616" stroke="url(#paint64_linear_2_4594)" stroke-width="0.970675" stroke-miterlimit="10"/>
<path d="M2017.46 197.479C1827.93 153.277 1601.5 121.647 1414.84 209.815C1305.99 261.233 1235.27 335.106 1141.91 395.638C1099.14 423.346 1050.9 448.228 994.767 464.384C936.437 481.183 865.97 484.647 804.309 483.669C680.307 481.681 566.42 453.998 454.712 427.588C273.018 384.623 93.0301 353.314 -109.74 360.417" stroke="url(#paint65_linear_2_4594)" stroke-width="0.970675" stroke-miterlimit="10"/>
<path d="M2019.24 201.528C1831.04 157.921 1608.04 127.235 1420.72 211.447C1311.45 260.569 1238.22 332.149 1143.67 390.521C1100.03 417.46 1051.22 441.508 995.126 457.178C936.515 473.552 866.774 477.375 804.929 476.85C681.819 475.875 567.77 450.468 455.688 425.994C273.083 386.124 92.492 357.569 -108.777 365.181" stroke="url(#paint66_linear_2_4594)" stroke-width="0.970675" stroke-miterlimit="10"/>
<path d="M2020.94 205.521C1835.8 162.906 1617.93 132.809 1430.58 211.098C1319.19 257.67 1242.86 327.614 1146.55 384.323C1101.8 410.691 1052.09 434.132 995.662 449.471C938.449 465.015 871.468 469.216 811.142 469.612C685.47 470.426 568.029 446.444 452.498 423.342C270.548 387.014 90.3707 361.855 -107.805 369.954" stroke="url(#paint67_linear_2_4594)" stroke-width="0.970675" stroke-miterlimit="10"/>
<path d="M2022.66 209.486C1838.77 167.375 1624.23 138.084 1436.41 212.396C1324.7 256.615 1245.72 324.042 1148.31 378.507C1102.68 404.025 1052.41 426.593 996.003 441.396C938.478 456.499 872.184 461.1 811.701 462.023C687.006 463.882 569.337 442.396 453.47 421.443C270.645 388.424 89.9069 366.015 -106.875 374.715" stroke="url(#paint68_linear_2_4594)" stroke-width="0.970675" stroke-miterlimit="10"/>
<path d="M2024.34 213.408C1841.73 171.806 1630.52 143.239 1442.26 213.483C1330.19 255.3 1248.61 320.169 1150.09 372.352C1049.69 425.534 939.844 450.977 812.286 454.081C688.44 457.09 570.656 438.074 454.36 419.295C270.85 389.716 89.5143 370.137 -105.891 379.49" stroke="url(#paint69_linear_2_4594)" stroke-width="0.970675" stroke-miterlimit="10"/>
<path d="M2025.98 217.297C1844.65 176.166 1636.63 148.345 1448 214.491C1335.57 253.9 1251.38 316.142 1151.75 366.024C1049.99 416.968 939.124 441.693 812.749 445.947C689.793 450.091 571.849 433.617 455.266 417.097C271.061 390.991 89.1586 374.22 -104.93 384.256" stroke="url(#paint70_linear_2_4594)" stroke-width="0.970675" stroke-miterlimit="10"/>
<path d="M2027.55 221.156C1846.35 180.259 1640.63 153.182 1450.98 216.264C1337.91 253.858 1250.86 313.98 1149.05 361.495C1046.97 409.138 935.554 432.334 812.196 437.608C691.526 442.737 574.908 429.189 459.379 415.152C273.404 392.478 90.0894 378.216 -103.967 389.031" stroke="url(#paint71_linear_2_4594)" stroke-width="0.970675" stroke-miterlimit="10"/>
<path d="M2029.06 224.987C1849.19 184.506 1646.53 158.058 1456.7 216.907C1343.27 252.068 1253.59 309.418 1150.74 354.563C937.26 448.368 693.019 436.195 460.246 412.566C273.754 393.637 89.8883 382.251 -103.004 393.793" stroke="url(#paint72_linear_2_4594)" stroke-width="0.970675" stroke-miterlimit="10"/>
<path d="M2030.56 228.764C1851.91 188.72 1652.25 162.869 1462.35 217.483C1348.51 250.195 1256.22 304.715 1152.27 347.59C937.78 436.073 694.31 428.825 461.128 409.931C274.173 394.787 89.7237 386.248 -102.043 398.557" stroke="url(#paint73_linear_2_4594)" stroke-width="0.970675" stroke-miterlimit="10"/>
<path d="M2031.96 232.52C1854.54 192.887 1657.86 167.563 1467.93 217.99C1353.75 248.312 1258.88 299.898 1153.79 340.501C938.356 423.695 695.385 421.341 462.027 407.253C274.685 395.92 89.6844 390.245 -101.092 403.325" stroke="url(#paint74_linear_2_4594)" stroke-width="0.970675" stroke-miterlimit="10"/>
<path d="M2033.27 236.243C1858.71 197.389 1666.29 172.49 1477.97 217.393C1361.99 245.042 1263.68 294.081 1156.65 332.808C940.918 410.849 699.042 413.854 466.107 404.635C277.446 397.17 90.8266 394.152 -100.109 408.083" stroke="url(#paint75_linear_2_4594)" stroke-width="0.970675" stroke-miterlimit="10"/>
<path d="M2034.49 239.936C1861.12 201.483 1671.43 177.092 1483.49 217.905C1367.14 243.173 1266.4 289.165 1158.19 325.609C941.46 398.577 699.738 406.19 466.976 401.82C278.113 398.272 91.0158 398.119 -99.1562 412.85" stroke="url(#paint76_linear_2_4594)" stroke-width="0.970675" stroke-miterlimit="10"/>
<path d="M2035.6 243.607C1863.43 205.556 1676.37 181.623 1488.95 218.406C1372.18 241.321 1269.02 284.273 1159.69 318.417C941.915 386.429 700.372 398.553 467.832 399.009C278.862 399.378 91.3381 402.079 -98.1953 417.607" stroke="url(#paint77_linear_2_4594)" stroke-width="0.970675" stroke-miterlimit="10"/>
<path d="M2036.62 247.243C1865.64 209.593 1681.08 186.109 1494.36 218.899C1377.2 239.48 1271.73 279.331 1161.2 311.252C942.266 374.437 700.954 390.941 468.699 396.218C279.686 400.511 91.7971 406.048 -97.2324 422.377" stroke="url(#paint78_linear_2_4594)" stroke-width="0.970675" stroke-miterlimit="10"/>
<path d="M2037.53 250.845C1867.72 213.623 1685.6 190.535 1499.69 219.42C1382.08 237.702 1274.35 274.495 1162.69 304.186C942.405 362.674 701.554 383.407 469.571 393.474C280.617 401.671 92.4209 409.976 -96.2695 427.131" stroke="url(#paint79_linear_2_4594)" stroke-width="0.970675" stroke-miterlimit="10"/>
<path d="M2038.35 254.423C1868.74 217.481 1687.87 194.739 1502.04 220.402C1385.58 236.463 1276.94 269.675 1165.51 296.87C1051.96 324.556 932.084 342.734 814.209 358.742C698.955 374.401 582.743 383.663 466.412 391.066C278.932 403.003 91.7754 414.121 -95.3105 431.886" stroke="url(#paint80_linear_2_4594)" stroke-width="0.970675" stroke-miterlimit="10"/>
<path d="M2038.94 257.995C1870.59 221.494 1691.89 199.08 1507.24 220.989C1390.19 234.876 1279.63 265.023 1166.97 290.067C1052.23 315.573 932.428 333.047 814.701 350.269C699.642 367.095 583.543 378.782 467.301 388.574C280.007 404.296 92.6633 418.109 -94.3691 436.639" stroke="url(#paint81_linear_2_4594)" stroke-width="0.970675" stroke-miterlimit="10"/>
<path d="M2039.44 261.534C1872.29 225.535 1695.67 203.392 1512.34 221.662C1394.73 233.387 1282.27 260.506 1168.41 283.461C1052.41 306.811 932.934 323.574 815.217 341.99C700.27 359.975 584.409 374.091 468.188 386.187C281.149 405.645 93.6884 422.116 -93.3848 441.399" stroke="url(#paint82_linear_2_4594)" stroke-width="0.970675" stroke-miterlimit="10"/>
<path d="M2039.8 265.053C1873.84 229.589 1699.19 207.674 1517.36 222.452C1399.17 232.054 1284.91 256.162 1169.8 277.063C1113.71 287.251 1057.28 296.505 1000.28 303.35C938.222 310.816 877.132 323.711 815.768 333.926C700.879 353.044 585.331 369.707 469.123 383.913C282.368 407.072 94.8379 426.141 -92.4238 446.149" stroke="url(#paint83_linear_2_4594)" stroke-width="0.970675" stroke-miterlimit="10"/>
<path d="M2040.01 268.553C1874.24 233.459 1700.64 211.752 1519.3 223.558C1402.06 231.214 1287.52 252.002 1172.7 270.702C1115.69 279.974 1058.46 288.557 1000.76 295.067C938.274 302.12 876.656 315.581 815.122 326.413C701.664 346.357 587.748 364.925 473.216 381.367C285.834 408.308 97.2112 430.069 -91.4609 450.894" stroke="url(#paint84_linear_2_4594)" stroke-width="0.970675" stroke-miterlimit="10"/>
<path d="M2040.01 272.018C1875.46 237.558 1703.68 216.002 1524.13 224.562C1406.2 230.186 1290.16 248.126 1174.07 264.875C1116.61 273.145 1058.97 281.01 1001.02 287.125C938.575 293.711 876.848 307.625 815.678 318.981C702.15 340.016 588.579 360.763 474.175 379.418C287.188 409.848 98.6362 434.132 -90.5078 455.646" stroke="url(#paint85_linear_2_4594)" stroke-width="0.970675" stroke-miterlimit="10"/>
<path d="M2039.87 275.469C1876.52 241.721 1706.52 220.256 1528.87 225.738C1410.27 229.392 1292.77 244.526 1175.44 259.386C1117.51 266.725 1059.52 273.86 1001.25 279.625C938.879 285.786 877.028 300.096 816.167 311.925C702.544 333.989 589.205 356.941 475.023 377.663C288.568 411.482 100.148 438.259 -89.5645 460.413" stroke="url(#paint86_linear_2_4594)" stroke-width="0.970675" stroke-miterlimit="10"/>
<path d="M2039.54 278.911C1877.45 245.902 1709.15 224.539 1533.53 227.107C1414.26 228.856 1295.36 241.235 1176.8 254.269C1118.45 260.687 1060.08 267.152 1001.64 272.491C939.285 278.257 877.316 292.918 816.805 305.203C703.014 328.309 589.97 353.315 475.998 376.084C290.008 413.235 101.766 442.417 -88.5742 465.133" stroke="url(#paint87_linear_2_4594)" stroke-width="0.970675" stroke-miterlimit="10"/>
<path d="M2039.02 282.325C1879.72 250.462 1714.64 229.176 1542.92 228.669C1421.84 228.312 1300.57 238.055 1179.71 249.4C1120.53 254.966 1061.4 260.796 1002.16 265.896C939.368 271.314 876.913 286.393 816.296 299.181C701.234 323.454 587.606 350.758 472.84 375.658C289.047 415.456 101.702 446.95 -87.623 469.877" stroke="url(#paint88_linear_2_4594)" stroke-width="0.970675" stroke-miterlimit="10"/>
<path d="M2038.31 285.728C1880.24 254.784 1716.86 233.562 1547.39 230.55C1425.6 228.404 1303.07 235.55 1181.02 245.168C1121.5 249.864 1062.01 255.065 1002.5 259.875C939.787 264.957 877.216 280.253 816.912 293.43C701.559 318.621 588.302 347.896 473.747 374.697C290.754 417.656 103.258 451.087 -86.6504 474.619" stroke="url(#paint89_linear_2_4594)" stroke-width="0.970675" stroke-miterlimit="10"/>
<path d="M2037.37 289.117C1880.54 259.174 1718.92 237.974 1551.79 232.653C1429.25 228.773 1305.71 233.372 1182.37 241.365C1122.52 245.248 1062.67 249.86 1002.87 254.425C940.208 259.204 877.587 274.631 817.573 288.16C701.915 314.224 589.025 345.396 474.736 374.03C291.785 419.873 105.678 455.403 -85.6895 479.35" stroke="url(#paint90_linear_2_4594)" stroke-width="0.970675" stroke-miterlimit="10"/>
<path d="M2036.22 292.488C1844.63 256.976 1646.97 234.018 1442.54 231.999C1364.21 231.223 1285.52 233.229 1206.86 236.974C1130.5 240.597 1049.51 242.217 973.718 251.755C898.329 261.268 821.17 282.047 749.297 300.137C675.636 318.685 603.094 339.104 530.228 358.958C329.938 413.55 127.432 457.302 -84.7461 484.094" stroke="url(#paint91_linear_2_4594)" stroke-width="0.970675" stroke-miterlimit="10"/>
<path d="M2034.85 295.849C1844.25 261.751 1648.21 238.089 1446.07 233.073C1367.19 231.138 1287.77 231.809 1208.32 234.545C1131.8 237.184 1050.22 238.144 974.145 247.524C898.734 256.83 821.534 277.852 750.155 296.508C676.373 315.756 603.984 337.212 531.264 358.121C331.455 415.539 129.663 461.751 -83.7754 488.814" stroke="url(#paint92_linear_2_4594)" stroke-width="0.970675" stroke-miterlimit="10"/>
<path d="M2033.26 299.198C1842.31 266.449 1646.74 241.999 1445.61 234.399C1365.58 231.359 1285.12 230.83 1204.24 232.81C1129.05 234.587 1049.45 235.405 974.624 244.399C823.467 262.615 674.832 314.527 535.847 356.544C335.418 417.087 133.261 466.094 -82.8027 493.544" stroke="url(#paint93_linear_2_4594)" stroke-width="0.970675" stroke-miterlimit="10"/>
<path d="M2031.4 302.539C1841.35 271.56 1647.67 246.347 1448.95 236.231C1368.35 232.09 1287.14 230.513 1205.64 231.507C1130.2 232.425 1050.33 232.801 975.151 241.675C823.324 259.592 675.046 312.846 536.874 356.452C336.998 419.529 135.612 470.769 -81.8242 498.239" stroke="url(#paint94_linear_2_4594)" stroke-width="0.970675" stroke-miterlimit="10"/>
<path d="M2029.31 305.868C1838.71 276.635 1645.81 250.565 1448.16 238.249C1371.39 233.471 1294.09 230.822 1216.37 230.813C1138.03 230.814 1054.04 230.356 975.675 239.456C824.721 256.964 677.703 310.954 541.583 355.604C340.969 421.464 139.352 475.323 -80.8789 502.996" stroke="url(#paint95_linear_2_4594)" stroke-width="0.970675" stroke-miterlimit="10"/>
<path d="M2026.95 309.183C1837.08 282.171 1646.52 255.26 1451.28 240.95C1374.08 235.141 1296.14 231.789 1217.77 230.907C1139.13 230.143 1055.05 229.508 976.278 238.442C824.519 255.668 678.214 310.306 542.688 356.396C342.547 424.409 141.684 480.272 -79.9277 507.706" stroke="url(#paint96_linear_2_4594)" stroke-width="0.970675" stroke-miterlimit="10"/>
<path d="M2024.33 312.49C1835.16 287.973 1647.04 260.253 1454.31 244.142C1301.67 231.39 1133.47 220.988 976.918 238.356C824.262 255.3 678.968 310.279 543.775 357.662C344.115 427.649 144.003 485.333 -78.9551 512.423" stroke="url(#paint97_linear_2_4594)" stroke-width="0.970675" stroke-miterlimit="10"/>
<path d="M2021.41 315.79C1836.99 294.55 1655.35 266.733 1469.43 248.996C1311.86 233.962 1140.17 221.905 977.612 239.426C822.494 256.198 677.649 311.643 541.293 360.769C343.355 432.064 144.751 490.693 -77.9941 517.131" stroke="url(#paint98_linear_2_4594)" stroke-width="0.970675" stroke-miterlimit="10"/>
<path d="M2018.25 319.099C1834.62 300.969 1655.6 272.336 1472.34 253.385C1313.71 236.978 1142.61 223.982 978.397 241.279C822.255 257.74 678.73 312.919 542.494 363.132C344.873 436.013 147.002 496.089 -77.041 521.843" stroke="url(#paint99_linear_2_4594)" stroke-width="0.970675" stroke-miterlimit="10"/>
<path d="M2014.78 322.395C1830.72 307.702 1652.91 277.818 1470.95 257.888C1312.75 240.506 1143.48 227.07 979.175 244.061C820.644 260.461 677.541 315.751 540.001 367.488C344.178 441.145 147.507 501.814 -76.0801 526.543" stroke="url(#paint100_linear_2_4594)" stroke-width="0.970675" stroke-miterlimit="10"/>
<path d="M2011 325.686C1667.68 305.67 1336.2 212.174 980.08 248.121C820.317 264.212 679.265 318.286 541.228 371.061C345.665 445.825 149.574 507.546 -75.1074 531.247" stroke="url(#paint101_linear_2_4594)" stroke-width="0.970675" stroke-miterlimit="10"/>
</g>
</g>
<defs>
<linearGradient id="paint0_linear_2_4594" x1="-176.588" y1="-54.6761" x2="323.073" y2="-918.406" gradientUnits="userSpaceOnUse">
<stop stop-color="#3F34EC"/>
<stop offset="1" stop-color="#13D8D4"/>
</linearGradient>
<linearGradient id="paint1_linear_2_4594" x1="-175.627" y1="-49.7644" x2="324.232" y2="-913.776" gradientUnits="userSpaceOnUse">
<stop stop-color="#3F34EC"/>
<stop offset="1" stop-color="#13D8D4"/>
</linearGradient>
<linearGradient id="paint2_linear_2_4594" x1="-174.643" y1="-44.615" x2="325.728" y2="-909.35" gradientUnits="userSpaceOnUse">
<stop stop-color="#3F34EC"/>
<stop offset="1" stop-color="#13D8D4"/>
</linearGradient>
<linearGradient id="paint3_linear_2_4594" x1="-173.697" y1="-39.2139" x2="327.517" y2="-905.146" gradientUnits="userSpaceOnUse">
<stop stop-color="#3F34EC"/>
<stop offset="1" stop-color="#13D8D4"/>
</linearGradient>
<linearGradient id="paint4_linear_2_4594" x1="-172.668" y1="-33.6483" x2="329.635" y2="-901.116" gradientUnits="userSpaceOnUse">
<stop stop-color="#3F34EC"/>
<stop offset="1" stop-color="#13D8D4"/>
</linearGradient>
<linearGradient id="paint5_linear_2_4594" x1="-171.701" y1="-27.8671" x2="331.989" y2="-897.294" gradientUnits="userSpaceOnUse">
<stop stop-color="#3F34EC"/>
<stop offset="1" stop-color="#13D8D4"/>
</linearGradient>
<linearGradient id="paint6_linear_2_4594" x1="-170.65" y1="-21.8412" x2="334.703" y2="-893.606" gradientUnits="userSpaceOnUse">
<stop stop-color="#3F34EC"/>
<stop offset="1" stop-color="#13D8D4"/>
</linearGradient>
<linearGradient id="paint7_linear_2_4594" x1="-169.594" y1="-15.6357" x2="337.674" y2="-890.09" gradientUnits="userSpaceOnUse">
<stop stop-color="#3F34EC"/>
<stop offset="1" stop-color="#13D8D4"/>
</linearGradient>
<linearGradient id="paint8_linear_2_4594" x1="-168.535" y1="-9.24951" x2="340.901" y2="-886.742" gradientUnits="userSpaceOnUse">
<stop stop-color="#3F34EC"/>
<stop offset="1" stop-color="#13D8D4"/>
</linearGradient>
<linearGradient id="paint9_linear_2_4594" x1="-167.533" y1="-2.75195" x2="344.277" y2="-883.563" gradientUnits="userSpaceOnUse">
<stop stop-color="#3F34EC"/>
<stop offset="1" stop-color="#13D8D4"/>
</linearGradient>
<linearGradient id="paint10_linear_2_4594" x1="-166.521" y1="3.96375" x2="347.925" y2="-880.524" gradientUnits="userSpaceOnUse">
<stop stop-color="#3F34EC"/>
<stop offset="1" stop-color="#13D8D4"/>
</linearGradient>
<linearGradient id="paint11_linear_2_4594" x1="-165.449" y1="10.8275" x2="351.831" y2="-877.595" gradientUnits="userSpaceOnUse">
<stop stop-color="#3F34EC"/>
<stop offset="1" stop-color="#13D8D4"/>
</linearGradient>
<linearGradient id="paint12_linear_2_4594" x1="-164.424" y1="17.797" x2="355.876" y2="-874.808" gradientUnits="userSpaceOnUse">
<stop stop-color="#3F34EC"/>
<stop offset="1" stop-color="#13D8D4"/>
</linearGradient>
<linearGradient id="paint13_linear_2_4594" x1="-163.348" y1="24.9111" x2="360.166" y2="-872.123" gradientUnits="userSpaceOnUse">
<stop stop-color="#3F34EC"/>
<stop offset="1" stop-color="#13D8D4"/>
</linearGradient>
<linearGradient id="paint14_linear_2_4594" x1="-162.295" y1="32.1521" x2="364.629" y2="-869.567" gradientUnits="userSpaceOnUse">
<stop stop-color="#3F34EC"/>
<stop offset="1" stop-color="#13D8D4"/>
</linearGradient>
<linearGradient id="paint15_linear_2_4594" x1="-161.238" y1="39.502" x2="369.219" y2="-867.047" gradientUnits="userSpaceOnUse">
<stop stop-color="#3F34EC"/>
<stop offset="1" stop-color="#13D8D4"/>
</linearGradient>
<linearGradient id="paint16_linear_2_4594" x1="-160.158" y1="46.9453" x2="374" y2="-864.639" gradientUnits="userSpaceOnUse">
<stop stop-color="#3F34EC"/>
<stop offset="1" stop-color="#13D8D4"/>
</linearGradient>
<linearGradient id="paint17_linear_2_4594" x1="-159.084" y1="54.4762" x2="378.921" y2="-862.318" gradientUnits="userSpaceOnUse">
<stop stop-color="#3F34EC"/>
<stop offset="1" stop-color="#13D8D4"/>
</linearGradient>
<linearGradient id="paint18_linear_2_4594" x1="-157.975" y1="62.062" x2="383.976" y2="-860.045" gradientUnits="userSpaceOnUse">
<stop stop-color="#3F34EC"/>
<stop offset="1" stop-color="#13D8D4"/>
</linearGradient>
<linearGradient id="paint19_linear_2_4594" x1="-156.92" y1="69.7708" x2="389.138" y2="-857.845" gradientUnits="userSpaceOnUse">
<stop stop-color="#3F34EC"/>
<stop offset="1" stop-color="#13D8D4"/>
</linearGradient>
<linearGradient id="paint20_linear_2_4594" x1="-155.834" y1="77.5415" x2="394.431" y2="-855.684" gradientUnits="userSpaceOnUse">
<stop stop-color="#3F34EC"/>
<stop offset="1" stop-color="#13D8D4"/>
</linearGradient>
<linearGradient id="paint21_linear_2_4594" x1="-154.711" y1="85.293" x2="399.8" y2="-853.556" gradientUnits="userSpaceOnUse">
<stop stop-color="#3F34EC"/>
<stop offset="1" stop-color="#13D8D4"/>
</linearGradient>
<linearGradient id="paint22_linear_2_4594" x1="-153.668" y1="93.1323" x2="405.222" y2="-851.493" gradientUnits="userSpaceOnUse">
<stop stop-color="#3F34EC"/>
<stop offset="1" stop-color="#13D8D4"/>
</linearGradient>
<linearGradient id="paint23_linear_2_4594" x1="-152.57" y1="100.997" x2="410.746" y2="-849.427" gradientUnits="userSpaceOnUse">
<stop stop-color="#3F34EC"/>
<stop offset="1" stop-color="#13D8D4"/>
</linearGradient>
<linearGradient id="paint24_linear_2_4594" x1="-151.461" y1="108.854" x2="416.312" y2="-847.37" gradientUnits="userSpaceOnUse">
<stop stop-color="#3F34EC"/>
<stop offset="1" stop-color="#13D8D4"/>
</linearGradient>
<linearGradient id="paint25_linear_2_4594" x1="-150.402" y1="116.731" x2="421.89" y2="-845.347" gradientUnits="userSpaceOnUse">
<stop stop-color="#3F34EC"/>
<stop offset="1" stop-color="#13D8D4"/>
</linearGradient>
<linearGradient id="paint26_linear_2_4594" x1="-149.307" y1="124.647" x2="427.54" y2="-843.285" gradientUnits="userSpaceOnUse">
<stop stop-color="#3F34EC"/>
<stop offset="1" stop-color="#13D8D4"/>
</linearGradient>
<linearGradient id="paint27_linear_2_4594" x1="-148.238" y1="132.515" x2="433.16" y2="-841.236" gradientUnits="userSpaceOnUse">
<stop stop-color="#3F34EC"/>
<stop offset="1" stop-color="#13D8D4"/>
</linearGradient>
<linearGradient id="paint28_linear_2_4594" x1="-147.109" y1="140.36" x2="438.823" y2="-839.14" gradientUnits="userSpaceOnUse">
<stop stop-color="#3F34EC"/>
<stop offset="1" stop-color="#13D8D4"/>
</linearGradient>
<linearGradient id="paint29_linear_2_4594" x1="-146.043" y1="148.211" x2="444.441" y2="-837.033" gradientUnits="userSpaceOnUse">
<stop stop-color="#3F34EC"/>
<stop offset="1" stop-color="#13D8D4"/>
</linearGradient>
<linearGradient id="paint30_linear_2_4594" x1="-144.963" y1="156.007" x2="450.029" y2="-834.883" gradientUnits="userSpaceOnUse">
<stop stop-color="#3F34EC"/>
<stop offset="1" stop-color="#13D8D4"/>
</linearGradient>
<linearGradient id="paint31_linear_2_4594" x1="-143.855" y1="163.698" x2="455.558" y2="-832.693" gradientUnits="userSpaceOnUse">
<stop stop-color="#3F34EC"/>
<stop offset="1" stop-color="#13D8D4"/>
</linearGradient>
<linearGradient id="paint32_linear_2_4594" x1="-142.84" y1="171.47" x2="461.043" y2="-830.456" gradientUnits="userSpaceOnUse">
<stop stop-color="#3F34EC"/>
<stop offset="1" stop-color="#13D8D4"/>
</linearGradient>
<linearGradient id="paint33_linear_2_4594" x1="-141.705" y1="179.054" x2="466.458" y2="-828.121" gradientUnits="userSpaceOnUse">
<stop stop-color="#3F34EC"/>
<stop offset="1" stop-color="#13D8D4"/>
</linearGradient>
<linearGradient id="paint34_linear_2_4594" x1="-140.639" y1="186.589" x2="471.75" y2="-825.743" gradientUnits="userSpaceOnUse">
<stop stop-color="#3F34EC"/>
<stop offset="1" stop-color="#13D8D4"/>
</linearGradient>
<linearGradient id="paint35_linear_2_4594" x1="-139.564" y1="194.047" x2="476.943" y2="-823.279" gradientUnits="userSpaceOnUse">
<stop stop-color="#3F34EC"/>
<stop offset="1" stop-color="#13D8D4"/>
</linearGradient>
<linearGradient id="paint36_linear_2_4594" x1="-138.49" y1="201.396" x2="482.003" y2="-820.731" gradientUnits="userSpaceOnUse">
<stop stop-color="#3F34EC"/>
<stop offset="1" stop-color="#13D8D4"/>
</linearGradient>
<linearGradient id="paint37_linear_2_4594" x1="-137.445" y1="208.638" x2="486.89" y2="-818.091" gradientUnits="userSpaceOnUse">
<stop stop-color="#3F34EC"/>
<stop offset="1" stop-color="#13D8D4"/>
</linearGradient>
<linearGradient id="paint38_linear_2_4594" x1="-136.369" y1="215.787" x2="491.664" y2="-815.343" gradientUnits="userSpaceOnUse">
<stop stop-color="#3F34EC"/>
<stop offset="1" stop-color="#13D8D4"/>
</linearGradient>
<linearGradient id="paint39_linear_2_4594" x1="-135.303" y1="222.793" x2="496.233" y2="-812.48" gradientUnits="userSpaceOnUse">
<stop stop-color="#3F34EC"/>
<stop offset="1" stop-color="#13D8D4"/>
</linearGradient>
<linearGradient id="paint40_linear_2_4594" x1="-134.268" y1="229.664" x2="500.578" y2="-809.506" gradientUnits="userSpaceOnUse">
<stop stop-color="#3F34EC"/>
<stop offset="1" stop-color="#13D8D4"/>
</linearGradient>
<linearGradient id="paint41_linear_2_4594" x1="-133.229" y1="236.396" x2="504.726" y2="-806.416" gradientUnits="userSpaceOnUse">
<stop stop-color="#3F34EC"/>
<stop offset="1" stop-color="#13D8D4"/>
</linearGradient>
<linearGradient id="paint42_linear_2_4594" x1="-132.18" y1="242.968" x2="508.64" y2="-803.181" gradientUnits="userSpaceOnUse">
<stop stop-color="#3F34EC"/>
<stop offset="1" stop-color="#13D8D4"/>
</linearGradient>
<linearGradient id="paint43_linear_2_4594" x1="-131.156" y1="249.378" x2="512.281" y2="-799.807" gradientUnits="userSpaceOnUse">
<stop stop-color="#3F34EC"/>
<stop offset="1" stop-color="#13D8D4"/>
</linearGradient>
<linearGradient id="paint44_linear_2_4594" x1="-130.133" y1="255.622" x2="515.663" y2="-796.288" gradientUnits="userSpaceOnUse">
<stop stop-color="#3F34EC"/>
<stop offset="1" stop-color="#13D8D4"/>
</linearGradient>
<linearGradient id="paint45_linear_2_4594" x1="-129.086" y1="261.656" x2="518.76" y2="-792.611" gradientUnits="userSpaceOnUse">
<stop stop-color="#3F34EC"/>
<stop offset="1" stop-color="#13D8D4"/>
</linearGradient>
<linearGradient id="paint46_linear_2_4594" x1="-128.08" y1="267.552" x2="521.558" y2="-788.772" gradientUnits="userSpaceOnUse">
<stop stop-color="#3F34EC"/>
<stop offset="1" stop-color="#13D8D4"/>
</linearGradient>
<linearGradient id="paint47_linear_2_4594" x1="-127.109" y1="273.2" x2="523.971" y2="-784.778" gradientUnits="userSpaceOnUse">
<stop stop-color="#3F34EC"/>
<stop offset="1" stop-color="#13D8D4"/>
</linearGradient>
<linearGradient id="paint48_linear_2_4594" x1="-126.135" y1="278.651" x2="526.062" y2="-780.605" gradientUnits="userSpaceOnUse">
<stop stop-color="#3F34EC"/>
<stop offset="1" stop-color="#13D8D4"/>
</linearGradient>
<linearGradient id="paint49_linear_2_4594" x1="-125.137" y1="283.892" x2="527.819" y2="-776.227" gradientUnits="userSpaceOnUse">
<stop stop-color="#3F34EC"/>
<stop offset="1" stop-color="#13D8D4"/>
</linearGradient>
<linearGradient id="paint50_linear_2_4594" x1="-124.162" y1="288.888" x2="529.174" y2="-771.663" gradientUnits="userSpaceOnUse">
<stop stop-color="#3F34EC"/>
<stop offset="1" stop-color="#13D8D4"/>
</linearGradient>
<linearGradient id="paint51_linear_2_4594" x1="-123.105" y1="293.657" x2="530.247" y2="-766.899" gradientUnits="userSpaceOnUse">
<stop stop-color="#3F34EC"/>
<stop offset="1" stop-color="#13D8D4"/>
</linearGradient>
<linearGradient id="paint52_linear_2_4594" x1="-122.234" y1="298.441" x2="531.231" y2="-762.278" gradientUnits="userSpaceOnUse">
<stop stop-color="#3F34EC"/>
<stop offset="1" stop-color="#13D8D4"/>
</linearGradient>
<linearGradient id="paint53_linear_2_4594" x1="-121.273" y1="303.201" x2="532.321" y2="-757.7" gradientUnits="userSpaceOnUse">
<stop stop-color="#3F34EC"/>
<stop offset="1" stop-color="#13D8D4"/>
</linearGradient>
<linearGradient id="paint54_linear_2_4594" x1="-120.32" y1="307.967" x2="533.476" y2="-753.216" gradientUnits="userSpaceOnUse">
<stop stop-color="#3F34EC"/>
<stop offset="1" stop-color="#13D8D4"/>
</linearGradient>
<linearGradient id="paint55_linear_2_4594" x1="-119.381" y1="312.719" x2="534.665" y2="-748.817" gradientUnits="userSpaceOnUse">
<stop stop-color="#3F34EC"/>
<stop offset="1" stop-color="#13D8D4"/>
</linearGradient>
<linearGradient id="paint56_linear_2_4594" x1="-118.35" y1="317.54" x2="536.022" y2="-744.437" gradientUnits="userSpaceOnUse">
<stop stop-color="#3F34EC"/>
<stop offset="1" stop-color="#13D8D4"/>
</linearGradient>
<linearGradient id="paint57_linear_2_4594" x1="-117.467" y1="322.264" x2="537.26" y2="-740.218" gradientUnits="userSpaceOnUse">
<stop stop-color="#3F34EC"/>
<stop offset="1" stop-color="#13D8D4"/>
</linearGradient>
<linearGradient id="paint58_linear_2_4594" x1="-116.473" y1="327.033" x2="538.662" y2="-736.011" gradientUnits="userSpaceOnUse">
<stop stop-color="#3F34EC"/>
<stop offset="1" stop-color="#13D8D4"/>
</linearGradient>
<linearGradient id="paint59_linear_2_4594" x1="-115.531" y1="331.811" x2="540.077" y2="-731.886" gradientUnits="userSpaceOnUse">
<stop stop-color="#3F34EC"/>
<stop offset="1" stop-color="#13D8D4"/>
</linearGradient>
<linearGradient id="paint60_linear_2_4594" x1="-114.516" y1="336.58" x2="541.584" y2="-727.788" gradientUnits="userSpaceOnUse">
<stop stop-color="#3F34EC"/>
<stop offset="1" stop-color="#13D8D4"/>
</linearGradient>
<linearGradient id="paint61_linear_2_4594" x1="-113.539" y1="341.375" x2="543.12" y2="-723.754" gradientUnits="userSpaceOnUse">
<stop stop-color="#3F34EC"/>
<stop offset="1" stop-color="#13D8D4"/>
</linearGradient>
<linearGradient id="paint62_linear_2_4594" x1="-112.625" y1="346.106" x2="544.602" y2="-719.807" gradientUnits="userSpaceOnUse">
<stop stop-color="#3F34EC"/>
<stop offset="1" stop-color="#13D8D4"/>
</linearGradient>
<linearGradient id="paint63_linear_2_4594" x1="-111.652" y1="350.878" x2="546.196" y2="-715.875" gradientUnits="userSpaceOnUse">
<stop stop-color="#3F34EC"/>
<stop offset="1" stop-color="#13D8D4"/>
</linearGradient>
<linearGradient id="paint64_linear_2_4594" x1="-110.652" y1="355.616" x2="547.818" y2="-711.976" gradientUnits="userSpaceOnUse">
<stop stop-color="#3F34EC"/>
<stop offset="1" stop-color="#13D8D4"/>
</linearGradient>
<linearGradient id="paint65_linear_2_4594" x1="-109.74" y1="360.417" x2="549.443" y2="-708.134" gradientUnits="userSpaceOnUse">
<stop stop-color="#3F34EC"/>
<stop offset="1" stop-color="#13D8D4"/>
</linearGradient>
<linearGradient id="paint66_linear_2_4594" x1="-108.777" y1="365.181" x2="551.113" y2="-704.318" gradientUnits="userSpaceOnUse">
<stop stop-color="#3F34EC"/>
<stop offset="1" stop-color="#13D8D4"/>
</linearGradient>
<linearGradient id="paint67_linear_2_4594" x1="-107.805" y1="369.954" x2="552.817" y2="-700.51" gradientUnits="userSpaceOnUse">
<stop stop-color="#3F34EC"/>
<stop offset="1" stop-color="#13D8D4"/>
</linearGradient>
<linearGradient id="paint68_linear_2_4594" x1="-106.875" y1="374.715" x2="554.505" y2="-696.754" gradientUnits="userSpaceOnUse">
<stop stop-color="#3F34EC"/>
<stop offset="1" stop-color="#13D8D4"/>
</linearGradient>
<linearGradient id="paint69_linear_2_4594" x1="-105.891" y1="379.49" x2="556.265" y2="-692.991" gradientUnits="userSpaceOnUse">
<stop stop-color="#3F34EC"/>
<stop offset="1" stop-color="#13D8D4"/>
</linearGradient>
<linearGradient id="paint70_linear_2_4594" x1="-104.93" y1="384.256" x2="558.012" y2="-689.246" gradientUnits="userSpaceOnUse">
<stop stop-color="#3F34EC"/>
<stop offset="1" stop-color="#13D8D4"/>
</linearGradient>
<linearGradient id="paint71_linear_2_4594" x1="-103.967" y1="389.031" x2="559.774" y2="-685.498" gradientUnits="userSpaceOnUse">
<stop stop-color="#3F34EC"/>
<stop offset="1" stop-color="#13D8D4"/>
</linearGradient>
<linearGradient id="paint72_linear_2_4594" x1="-103.004" y1="393.793" x2="561.527" y2="-681.742" gradientUnits="userSpaceOnUse">
<stop stop-color="#3F34EC"/>
<stop offset="1" stop-color="#13D8D4"/>
</linearGradient>
<linearGradient id="paint73_linear_2_4594" x1="-102.043" y1="398.557" x2="563.319" y2="-678.033" gradientUnits="userSpaceOnUse">
<stop stop-color="#3F34EC"/>
<stop offset="1" stop-color="#13D8D4"/>
</linearGradient>
<linearGradient id="paint74_linear_2_4594" x1="-101.092" y1="403.325" x2="565.094" y2="-674.297" gradientUnits="userSpaceOnUse">
<stop stop-color="#3F34EC"/>
<stop offset="1" stop-color="#13D8D4"/>
</linearGradient>
<linearGradient id="paint75_linear_2_4594" x1="-100.109" y1="408.083" x2="566.886" y2="-670.537" gradientUnits="userSpaceOnUse">
<stop stop-color="#3F34EC"/>
<stop offset="1" stop-color="#13D8D4"/>
</linearGradient>
<linearGradient id="paint76_linear_2_4594" x1="-99.1563" y1="412.85" x2="568.664" y2="-666.776" gradientUnits="userSpaceOnUse">
<stop stop-color="#3F34EC"/>
<stop offset="1" stop-color="#13D8D4"/>
</linearGradient>
<linearGradient id="paint77_linear_2_4594" x1="-98.1953" y1="417.607" x2="570.427" y2="-662.982" gradientUnits="userSpaceOnUse">
<stop stop-color="#3F34EC"/>
<stop offset="1" stop-color="#13D8D4"/>
</linearGradient>
<linearGradient id="paint78_linear_2_4594" x1="-97.2324" y1="422.377" x2="572.201" y2="-659.171" gradientUnits="userSpaceOnUse">
<stop stop-color="#3F34EC"/>
<stop offset="1" stop-color="#13D8D4"/>
</linearGradient>
<linearGradient id="paint79_linear_2_4594" x1="-96.2695" y1="427.131" x2="573.961" y2="-655.344" gradientUnits="userSpaceOnUse">
<stop stop-color="#3F34EC"/>
<stop offset="1" stop-color="#13D8D4"/>
</linearGradient>
<linearGradient id="paint80_linear_2_4594" x1="-95.3105" y1="431.886" x2="575.717" y2="-651.502" gradientUnits="userSpaceOnUse">
<stop stop-color="#3F34EC"/>
<stop offset="1" stop-color="#13D8D4"/>
</linearGradient>
<linearGradient id="paint81_linear_2_4594" x1="-94.3691" y1="436.639" x2="577.401" y2="-647.568" gradientUnits="userSpaceOnUse">
<stop stop-color="#3F34EC"/>
<stop offset="1" stop-color="#13D8D4"/>
</linearGradient>
<linearGradient id="paint82_linear_2_4594" x1="-93.3848" y1="441.399" x2="579.123" y2="-643.603" gradientUnits="userSpaceOnUse">
<stop stop-color="#3F34EC"/>
<stop offset="1" stop-color="#13D8D4"/>
</linearGradient>
<linearGradient id="paint83_linear_2_4594" x1="-92.4238" y1="446.149" x2="580.801" y2="-639.605" gradientUnits="userSpaceOnUse">
<stop stop-color="#3F34EC"/>
<stop offset="1" stop-color="#13D8D4"/>
</linearGradient>
<linearGradient id="paint84_linear_2_4594" x1="-91.4609" y1="450.894" x2="582.454" y2="-635.557" gradientUnits="userSpaceOnUse">
<stop stop-color="#3F34EC"/>
<stop offset="1" stop-color="#13D8D4"/>
</linearGradient>
<linearGradient id="paint85_linear_2_4594" x1="-90.5078" y1="455.646" x2="584.075" y2="-631.447" gradientUnits="userSpaceOnUse">
<stop stop-color="#3F34EC"/>
<stop offset="1" stop-color="#13D8D4"/>
</linearGradient>
<linearGradient id="paint86_linear_2_4594" x1="-89.5645" y1="460.413" x2="585.674" y2="-627.289" gradientUnits="userSpaceOnUse">
<stop stop-color="#3F34EC"/>
<stop offset="1" stop-color="#13D8D4"/>
</linearGradient>
<linearGradient id="paint87_linear_2_4594" x1="-88.5742" y1="465.133" x2="587.235" y2="-623.043" gradientUnits="userSpaceOnUse">
<stop stop-color="#3F34EC"/>
<stop offset="1" stop-color="#13D8D4"/>
</linearGradient>
<linearGradient id="paint88_linear_2_4594" x1="-87.623" y1="469.877" x2="588.756" y2="-618.747" gradientUnits="userSpaceOnUse">
<stop stop-color="#3F34EC"/>
<stop offset="1" stop-color="#13D8D4"/>
</linearGradient>
<linearGradient id="paint89_linear_2_4594" x1="-86.6504" y1="474.619" x2="590.253" y2="-614.369" gradientUnits="userSpaceOnUse">
<stop stop-color="#3F34EC"/>
<stop offset="1" stop-color="#13D8D4"/>
</linearGradient>
<linearGradient id="paint90_linear_2_4594" x1="-85.6895" y1="479.35" x2="591.684" y2="-609.906" gradientUnits="userSpaceOnUse">
<stop stop-color="#3F34EC"/>
<stop offset="1" stop-color="#13D8D4"/>
</linearGradient>
<linearGradient id="paint91_linear_2_4594" x1="-84.7461" y1="484.094" x2="593.074" y2="-605.376" gradientUnits="userSpaceOnUse">
<stop stop-color="#3F34EC"/>
<stop offset="1" stop-color="#13D8D4"/>
</linearGradient>
<linearGradient id="paint92_linear_2_4594" x1="-83.7754" y1="488.814" x2="594.418" y2="-600.743" gradientUnits="userSpaceOnUse">
<stop stop-color="#3F34EC"/>
<stop offset="1" stop-color="#13D8D4"/>
</linearGradient>
<linearGradient id="paint93_linear_2_4594" x1="-82.8027" y1="493.544" x2="595.726" y2="-596.026" gradientUnits="userSpaceOnUse">
<stop stop-color="#3F34EC"/>
<stop offset="1" stop-color="#13D8D4"/>
</linearGradient>
<linearGradient id="paint94_linear_2_4594" x1="-81.8242" y1="498.239" x2="596.951" y2="-591.197" gradientUnits="userSpaceOnUse">
<stop stop-color="#3F34EC"/>
<stop offset="1" stop-color="#13D8D4"/>
</linearGradient>
<linearGradient id="paint95_linear_2_4594" x1="-80.8789" y1="502.996" x2="598.146" y2="-586.28" gradientUnits="userSpaceOnUse">
<stop stop-color="#3F34EC"/>
<stop offset="1" stop-color="#13D8D4"/>
</linearGradient>
<linearGradient id="paint96_linear_2_4594" x1="-79.9277" y1="507.706" x2="599.258" y2="-581.265" gradientUnits="userSpaceOnUse">
<stop stop-color="#3F34EC"/>
<stop offset="1" stop-color="#13D8D4"/>
</linearGradient>
<linearGradient id="paint97_linear_2_4594" x1="-78.9551" y1="512.423" x2="600.328" y2="-576.125" gradientUnits="userSpaceOnUse">
<stop stop-color="#3F34EC"/>
<stop offset="1" stop-color="#13D8D4"/>
</linearGradient>
<linearGradient id="paint98_linear_2_4594" x1="-77.9941" y1="517.131" x2="601.315" y2="-570.866" gradientUnits="userSpaceOnUse">
<stop stop-color="#3F34EC"/>
<stop offset="1" stop-color="#13D8D4"/>
</linearGradient>
<linearGradient id="paint99_linear_2_4594" x1="-77.041" y1="521.843" x2="602.234" y2="-565.5" gradientUnits="userSpaceOnUse">
<stop stop-color="#3F34EC"/>
<stop offset="1" stop-color="#13D8D4"/>
</linearGradient>
<linearGradient id="paint100_linear_2_4594" x1="-76.0801" y1="526.543" x2="603.085" y2="-560.007" gradientUnits="userSpaceOnUse">
<stop stop-color="#3F34EC"/>
<stop offset="1" stop-color="#13D8D4"/>
</linearGradient>
<linearGradient id="paint101_linear_2_4594" x1="-75.1074" y1="531.247" x2="603.871" y2="-554.374" gradientUnits="userSpaceOnUse">
<stop stop-color="#3F34EC"/>
<stop offset="1" stop-color="#13D8D4"/>
</linearGradient>
<clipPath id="clip0_2_4594">
<rect width="1920" height="526" fill="white"/>
</clipPath>
</defs>
</svg>
