<svg width="1920" height="526" fill="none" xmlns="http://www.w3.org/2000/svg"><g opacity=".7" stroke-width=".971" stroke-miterlimit="10" clip-path="url(#clip0_2_4594)"><path d="M2008.92 56.842c-335.45-8.599-539.21 200.355-795.86 306.574-105.45 43.647-228.978 69.674-347.736 47.377-139.193-26.133-245.347-98.028-346.326-157.063C309.175 131.072 88.968 22.53-176.588-54.676" stroke="url(#paint0_linear_2_4594)"/><path d="M2009.8 61.38c-339.52-12.274-540.32 197.352-797.01 305.791-105.28 44.473-228.07 70.457-347.291 47.863-139.582-26.431-246.013-98.541-347.358-157.849C309.103 134.879 89.646 26.635-175.627-49.765" stroke="url(#paint1_linear_2_4594)"/><path d="M2010.53 65.546c-346.19-15.976-543.32 196.895-803.27 307.19-104.25 44.222-224.971 68.762-342.743 46.098-138.005-26.593-243.465-97.421-343.874-156.188C311.124 140.021 91.88 31.323-174.643-44.615" stroke="url(#paint2_linear_2_4594)"/><path d="M2011.14 69.358c-350.46-19.575-544.25 193.829-804.47 306.422-103.97 45-224.198 69.605-342.352 46.83-138.371-26.673-244.037-97.629-344.736-156.544C310.836 143.96 92.446 35.736-173.697-39.214" stroke="url(#paint3_linear_2_4594)"/><path d="M2011.63 72.833c-354.81-23.11-545.27 190.627-805.78 305.697-103.68 45.79-223.396 70.406-341.832 47.558-138.549-26.766-244.564-97.703-345.525-156.691C310.518 147.896 93.033 40.22-172.668-33.648" stroke="url(#paint4_linear_2_4594)"/><path d="M2011.98 75.987c-359.19-26.577-546.26 187.435-807.14 304.978-103.28 46.539-222.49 71.225-341.334 48.41-138.841-26.722-245.036-97.64-346.244-156.655C310.099 151.906 93.57 44.879-171.701-27.867" stroke="url(#paint5_linear_2_4594)"/><path d="M2012.21 78.826c-180.32-14.871-334.71 32.309-472.55 108.406-114.2 63.09-211.55 138.35-334.63 195.201-103.46 47.797-223.251 73-343.298 49.836-136.89-26.512-242.241-96.09-342.33-154.299C311.924 157.327 95.434 50.015-170.65-21.841" stroke="url(#paint6_linear_2_4594)"/><path d="M2012.35 81.383c-93.79-8.507-187.4-3.479-278.11 21.826-73.33 20.425-138.62 51.067-198.57 84.37-113.91 63.273-209.83 139.155-331.98 196.712-102.97 48.506-222.352 73.894-342.718 50.796-137.112-26.3-242.631-95.74-342.936-153.875C311.388 161.425 95.871 54.892-169.594-15.636" stroke="url(#paint7_linear_2_4594)"/><path d="M2012.38 83.651c-94.69-9.328-189.67-5.342-281.93 19.839-73.56 20.12-139.05 50.723-198.91 84.162-113.59 63.48-208.08 139.983-329.37 198.212-102.43 49.196-221.499 74.783-342.144 51.845-137.207-26.096-243.025-95.345-343.445-153.34C310.73 165.531 96.204 59.849-168.535-9.25" stroke="url(#paint8_linear_2_4594)"/><path d="M2012.3 85.669c-95.57-10.15-191.9-7.19-285.69 17.872-73.9 19.766-139.59 50.335-199.33 83.922-113.26 63.704-206.43 140.778-326.8 199.711-101.81 49.901-220.601 75.708-341.58 53.01-137.334-25.774-243.28-94.791-343.856-152.658C310.047 169.668 96.61 64.861-167.533-2.752" stroke="url(#paint9_linear_2_4594)"/><path d="M2012.14 87.435c-96.47-10.945-194.22-9.05-289.48 15.909-74.2 19.429-140.09 49.963-199.72 83.705-112.98 63.93-204.74 141.61-324.23 201.233-101.19 50.546-219.746 76.607-341.024 54.18-137.393-25.418-243.545-94.159-344.269-151.793C309.302 173.84 96.862 70.046-166.521 3.964" stroke="url(#paint10_linear_2_4594)"/><path d="M2011.88 88.963c-97.35-11.721-196.5-10.872-293.29 13.93-74.54 19.105-140.59 49.603-200.13 83.493-112.71 64.163-203.15 142.412-321.73 202.784-100.46 51.137-218.848 77.516-340.334 55.417-137.437-25.006-243.78-93.426-344.617-150.798C308.459 178.068 97.082 75.308-165.449 10.827" stroke="url(#paint11_linear_2_4594)"/><path d="M2011.58 90.301c-98.93-12.572-200.16-12.648-298.96 12.437-75.18 19.086-141.71 49.942-201.42 84.371-110.78 63.856-199.07 141.566-315.08 202.044-100.57 52.366-219.616 79.31-342.338 57.123-138.893-25.134-245.987-94.118-348.032-151.862C304.849 180.742 95.199 80.138-164.424 17.797" stroke="url(#paint12_linear_2_4594)"/><path d="M2011.15 91.4c-99.82-13.34-202.47-14.467-302.81 10.462-75.56 18.773-142.27 49.632-201.82 84.171-110.52 64.101-197.46 142.394-312.6 203.553-99.8 52.998-218.686 80.317-341.685 58.495-138.873-24.617-246.107-93.179-348.28-150.62C303.944 185.005 95.39 85.538-163.348 24.911" stroke="url(#paint13_linear_2_4594)"/><path d="M2010.67 92.308C1909.96 78.22 1805.89 76.03 1704 100.802c-75.86 18.455-142.74 49.257-202.23 83.972-110.23 64.375-195.88 143.218-310.13 205.06-98.99 53.633-217.8 81.256-341.047 59.901-138.847-24.037-246.238-92.151-348.482-149.235C302.975 189.315 95.519 91.01-162.295 32.152" stroke="url(#paint14_linear_2_4594)"/><path d="M2010.12 93.108c-101.6-14.83-207.09-18.088-310.53 6.528-76.17 18.129-143.25 48.898-202.63 83.783-110.02 64.611-194.37 144.077-307.68 206.58-98.32 54.155-216.88 82.242-340.438 61.332-138.758-23.486-246.358-91.141-348.617-147.827C301.977 193.621 95.645 96.514-161.238 39.502" stroke="url(#paint15_linear_2_4594)"/><path d="M2009.52 93.72c-102.49-15.559-209.44-19.895-314.44 4.541-76.5 17.806-143.77 48.538-203.08 83.578-109.81 64.871-192.76 144.851-305.25 208.081-97.38 54.798-215.902 83.268-339.723 62.863-138.684-22.858-246.437-90.025-348.74-146.292C300.943 197.954 95.774 102.138-160.158 46.945" stroke="url(#paint16_linear_2_4594)"/><path d="M2008.87 94.187c-103.39-16.272-211.74-21.646-318.26 2.619-76.8 17.487-144.28 48.172-203.53 83.4-109.6 65.137-191.26 145.694-302.83 209.591-96.6 55.318-215.034 84.218-339.116 64.332-138.556-22.202-246.479-88.841-348.813-144.67C299.863 202.295 95.847 107.765-159.084 54.476" stroke="url(#paint17_linear_2_4594)"/><path d="M2008.16 94.539c-104.28-16.98-214.05-23.414-322.13.658-77.1 17.18-144.8 47.825-203.94 83.191-109.4 65.41-189.75 146.536-300.42 211.109-95.79 55.885-214.153 85.23-338.483 65.893-138.434-21.526-246.525-87.613-348.837-143.001C298.791 206.629 95.847 113.405-157.975 62.062" stroke="url(#paint18_linear_2_4594)"/><path d="M2007.42 94.784c-105.17-17.687-216.43-25.138-326.01-1.296-77.41 16.862-145.32 47.459-204.4 82.999-109.18 65.688-188.24 147.365-298.04 212.601-94.94 56.431-213.232 86.232-337.827 67.471-138.246-20.805-246.452-86.348-348.87-141.19C297.625 211.019 95.87 119.111-156.92 69.771" stroke="url(#paint19_linear_2_4594)"/><path d="M2006.65 94.94c-106.07-18.389-218.72-26.927-329.9-3.25-77.71 16.558-145.83 47.094-204.88 82.784-109 65.974-186.73 148.212-295.61 214.138-94.11 56.983-212.324 87.24-337.163 69.067-138.078-20.082-246.531-85.027-348.922-139.391C296.431 215.393 95.805 124.83-155.834 77.541" stroke="url(#paint20_linear_2_4594)"/><path d="M2005.83 95.013c-106.96-19.074-221.04-28.67-333.79-5.192-78.06 16.28-146.36 46.734-205.29 82.613-108.83 66.267-185.27 149.054-293.23 215.653-93.19 57.515-211.405 88.253-336.517 70.688-137.931-19.37-246.491-83.684-348.886-137.547C295.297 219.773 95.832 130.585-154.711 85.293" stroke="url(#paint21_linear_2_4594)"/><path d="M2005 95.02c-107.87-19.754-223.38-30.4-337.65-7.144-78.32 15.94-146.89 46.363-205.76 82.421-108.69 66.575-183.78 149.888-290.85 217.16-92.37 58.004-210.505 89.254-335.833 72.324-137.761-18.622-246.46-82.307-348.878-135.656-191.913-99.976-390.245-187.78-639.697-230.993" stroke="url(#paint22_linear_2_4594)"/><path d="M2004.15 94.985c-108.79-20.426-225.71-32.124-341.57-9.103-78.59 15.644-147.34 46.031-206.18 82.245-108.49 66.846-182.31 150.735-288.48 218.671-91.47 58.538-209.555 90.278-335.165 73.963-137.566-17.851-246.444-80.88-348.822-133.719C292.981 228.56 95.726 142.123-152.57 100.997" stroke="url(#paint23_linear_2_4594)"/><path d="M2003.29 94.922c-109.69-21.092-228.05-33.84-345.43-11.04-78.9 15.333-147.92 45.631-206.7 82.031-108.29 67.163-180.82 151.599-286.08 220.2-90.58 59.04-208.618 91.287-334.457 75.589-137.342-17.101-246.358-79.502-348.797-131.786-190.101-97.031-386.147-182.047-633.287-221.062" stroke="url(#paint24_linear_2_4594)"/><path d="M2002.42 94.834c-110.63-21.762-230.39-35.535-349.3-12.975-79.21 15.029-148.45 45.26-207.18 81.828-108.12 67.454-179.36 152.458-283.72 221.711-89.72 59.556-207.695 92.31-333.821 77.271-137.119-16.351-246.281-78.093-348.751-129.843-189.238-95.588-384.12-179.18-630.05-216.095" stroke="url(#paint25_linear_2_4594)"/><path d="M2001.54 94.754c-111.52-22.408-232.69-37.257-353.18-14.927-79.5 14.736-148.96 44.896-207.58 81.664-108.04 67.759-177.95 153.289-281.38 223.21-88.84 60.064-206.756 93.318-333.15 78.925-136.905-15.596-246.213-76.678-348.703-127.888C289.323 241.67 95.485 159.401-149.307 124.647" stroke="url(#paint26_linear_2_4594)"/><path d="M2000.68 94.685c-111.82-22.947-233.57-38.774-355.01-17.23-79.38 14.073-148.98 43.65-207.5 80.198-109.79 68.566-178.82 155.848-282.79 227.135-87.45 59.946-204.53 93.323-330.19 79.965-135.243-14.368-244.196-73.961-345.64-124.074-188.889-93.323-382.093-175.258-627.788-208.164" stroke="url(#paint27_linear_2_4594)"/><path d="M1999.82 94.64c-112.74-23.585-235.89-40.443-358.83-19.147-79.66 13.786-149.5 43.28-207.97 80.009-109.66 68.872-177.37 156.718-280.43 228.661-86.58 60.449-203.574 94.324-329.474 81.564-135.064-13.655-244.13-72.573-345.639-122.183C289.48 251.666 97.414 171.078-147.109 140.36" stroke="url(#paint28_linear_2_4594)"/><path d="M1998.98 94.648c-113.62-24.263-238.23-42.11-362.72-21.108-79.96 13.488-150.03 42.898-208.45 79.807-109.54 69.187-175.96 157.599-278.03 230.179-85.73 60.959-202.66 95.321-328.858 83.213C686.067 453.8 576.835 395.543 475.356 346.46 288.261 256.007 97.263 176.828-146.043 148.211" stroke="url(#paint29_linear_2_4594)"/><path d="M1998.15 94.708c-114.59-24.865-240.55-43.79-366.57-23.04-80.23 13.202-150.47 42.536-208.93 79.605-109.41 69.514-174.47 158.448-275.63 231.697-84.87 61.456-201.706 96.308-328.206 84.814-134.636-12.241-243.985-69.862-345.549-118.428-186.206-89.049-376.164-166.907-618.228-193.349" stroke="url(#paint30_linear_2_4594)"/><path d="M1997.37 94.838c-114.92-25.369-241.49-45.19-368.35-25.304-83.16 13.043-155.91 43.509-215.53 82.296-107.24 69.778-170.58 158.397-270.29 231.503-83.64 61.37-199.636 96.153-325.316 85.603-136.407-11.453-247.074-69.54-349.995-118.24-184.293-87.205-372.338-162.808-611.744-186.998" stroke="url(#paint31_linear_2_4594)"/><path d="M1996.62 95.068c-115.86-25.99-243.79-46.82-372.18-27.222-83.44 12.725-156.43 43.089-216.01 82.088-107.11 70.11-169.1 159.266-267.87 233.026-82.85 61.871-198.71 97.129-324.685 87.147-136.19-10.782-247.006-68.251-350.014-116.46C282.417 267.778 95.512 193.448-142.84 171.47" stroke="url(#paint32_linear_2_4594)"/><path d="M1995.9 95.402c-116.17-26.521-244.63-48.207-373.91-29.463-83.31 12.077-156.53 41.796-216.03 80.54-107.12 69.74-167.94 158.77-264.11 233.219-82.34 63.733-198.19 101.073-326.848 91.731-137.794-9.983-250.074-68.066-354.395-116.374C279.162 271.083 93.713 198.81-141.705 179.054" stroke="url(#paint33_linear_2_4594)"/><path d="M1995.22 95.848c-117.15-27.115-246.91-49.818-377.71-31.39-83.58 11.778-157.04 41.383-216.51 80.327-106.94 70.09-166.51 159.645-261.73 234.721-81.54 64.291-197.184 102.056-326.138 93.281-137.603-9.362-250.036-66.853-354.459-114.714-180.597-82.76-365.09-153.793-599.312-171.484" stroke="url(#paint34_linear_2_4594)"/><path d="M1994.6 96.432c-118.1-27.73-249.2-51.428-381.51-33.307-83.84 11.477-157.52 40.991-216.98 80.106-106.85 70.407-165.08 160.512-259.33 236.209-80.71 64.834-196.166 103.018-325.43 94.78-137.447-8.771-250.014-65.697-354.531-113.145-179.833-81.542-363.374-151.374-596.383-167.028" stroke="url(#paint35_linear_2_4594)"/><path d="M1994.03 97.162c-118.42-28.208-250.01-52.735-383.19-35.512-86.99 11.266-162.83 41.792-223.35 82.787-104.48 70.778-161.39 160.327-254.19 235.926-80.96 65.918-198.837 104.291-329.322 95.002-133.155-9.523-242.903-63.533-345.091-109.413C278.656 284.911 95.342 215.129-138.49 201.396" stroke="url(#paint36_linear_2_4594)"/><path d="M1993.52 98.061c-119.37-28.83-252.28-54.334-386.99-37.449-87.26 10.948-163.33 41.32-223.81 82.554-104.31 71.172-159.89 161.23-251.73 237.426-80.13 66.506-197.825 105.26-328.702 96.417-133.099-8.981-242.95-62.545-345.228-108.071-179.433-79.88-361.892-148.595-594.505-160.3" stroke="url(#paint37_linear_2_4594)"/><path d="M1993.09 99.134c-119.75-29.298-253.1-55.62-388.61-39.6-87.05 10.257-163.22 39.944-223.91 80.933-106.42 71.86-160.52 163.904-252.76 241.447-79.14 66.529-195.61 104.918-325.929 96.935-134.826-8.257-246.06-62.565-349.723-108.289C274.61 292.287 93.563 225.422-136.369 215.787" stroke="url(#paint38_linear_2_4594)"/><path d="M1992.72 100.404c-123.08-30.51-261.3-58.358-400.99-40.371-82.86 10.668-155.08 39.017-213.3 77.924-108.49 72.444-161.25 166.548-253.68 245.372-77.97 66.487-193.593 104.815-323.262 97.556-133.575-7.469-244.371-60.495-347.179-105.478C276.28 297.555 95.421 230.562-135.303 222.793" stroke="url(#paint39_linear_2_4594)"/><path d="M1992.43 101.891c-200.14-50.268-442.97-82.652-618.47 35.393-108.31 72.807-159.76 167.441-251.14 246.926-77.17 67.06-192.546 105.708-322.628 98.775-133.593-7.147-244.521-59.803-347.583-104.504-177.175-76.845-357.262-142.96-586.877-148.817" stroke="url(#paint40_linear_2_4594)"/><path d="M1992.24 103.589c-201.84-51.264-450.75-86.116-626.43 35.762-105.79 73.397-155.66 167.391-245.82 246.753-76.13 67.017-190.521 105.447-320.026 99.129-135.328-6.633-247.603-59.942-352.08-104.929C272.503 304.788 93.82 240.349-133.229 236.396" stroke="url(#paint41_linear_2_4594)"/><path d="M1992.13 105.531c-200.15-51.444-451.84-89.58-628.21 31.966-105.84 72.948-154.86 166.889-242.22 246.814-75.49 69.072-189.462 109.209-321.738 103.387-134.119-5.912-246.119-58.267-349.687-102.584C274.405 309.858 95.702 245.1-132.18 242.968" stroke="url(#paint42_linear_2_4594)"/><path d="M1992.11 107.73c-199.95-51.967-455.28-92.996-632.29 29.794-105.71 73.31-153.33 167.753-239.68 248.286-74.8 69.68-188.365 110.112-321.174 104.473-134.157-5.686-246.378-57.825-350.16-101.973-175.102-74.488-353.094-138.533-579.962-138.932" stroke="url(#paint43_linear_2_4594)"/><path d="M1992.2 110.194c-201.71-53.009-462.93-96.425-640 30.229-103.22 73.834-149.46 167.635-234.49 248.028-75.01 70.917-190.857 111.377-325.118 104.379-133.308-6.936-244.515-58.642-348.31-102.567-173.205-73.362-349.964-135.964-574.415-134.641" stroke="url(#paint44_linear_2_4594)"/><path d="M1992.4 112.939c-200.45-53.243-463.55-99.692-641.69 26.383-105.31 74.531-149.65 170.349-235.08 252.043-33.96 32.493-76.22 63.663-133.256 81.361-58.801 18.218-126.27 26.201-189.325 23.087-135.247-6.694-247.744-59.219-353.054-103.591-171.512-72.266-346.983-133.507-569.081-130.566" stroke="url(#paint45_linear_2_4594)"/><path d="M1992.7 115.981c-200.11-53.72-467.07-103.071-645.69 24.206-105.13 74.901-148.12 171.282-232.5 253.489-33.53 32.712-75.34 64.164-132.316 82.072-58.725 18.46-126.644 26.342-189.745 23.239-135.495-6.68-248.101-59.103-353.714-103.473C268.009 323.807 93.19 263.007-128.08 267.552" stroke="url(#paint46_linear_2_4594)"/><path d="M1993.13 119.342c-198.86-53.898-467.75-106.126-647.44 20.396-107.16 75.449-148.77 173.934-232.94 257.448-32.89 32.643-74.17 64.014-130.574 82.038-58.018 18.527-126.523 26.313-188.998 23.296-134.574-6.48-246.72-58.011-351.748-102.034C270.21 328.708 95.146 267.123-127.109 273.2" stroke="url(#paint47_linear_2_4594)"/><path d="M1993.69 123.031c-199.95-54.76-475.71-109.953-654.98 20.678-102.74 74.859-143.56 170.749-223.58 253.299-33 34.035-74.65 67.144-132.922 85.879-57.864 18.59-125.795 26.194-188.153 23.308-136.576-6.304-250.162-59.046-356.66-103.578-169.522-70.936-343.341-131.459-563.53-123.966" stroke="url(#paint48_linear_2_4594)"/><path d="M1994.37 127.062c-199.49-55.16-479.25-113.387-658.9 18.463-102.52 75.234-141.97 171.666-220.88 254.753-32.52 34.228-73.72 67.651-131.914 86.595-57.782 18.825-126.302 26.187-188.673 23.233-136.918-6.494-250.77-59.36-357.559-104.053-168.773-70.626-342.12-131.055-561.581-122.161" stroke="url(#paint49_linear_2_4594)"/><path d="M1995.19 131.453c-197.65-55.183-480.4-116.65-660.66 14.666-104.36 76.026-142.25 174.335-221.17 258.744-31.86 34.089-72.61 67.426-130.175 86.483-57.211 18.922-126.216 25.913-188.027 23.05-136.024-6.281-249.836-58.787-355.834-103.246-169.141-70.984-342.882-132.539-563.486-122.262" stroke="url(#paint50_linear_2_4594)"/><path d="M1996.14 136.161c-197.58-54.928-479.9-116.006-660.18 14.725-104.46 75.767-142.65 173.863-221.56 258.131-31.95 34.14-72.76 67.533-130.204 86.796-56.981 19.064-126.681 25.407-188.223 22.379-136.067-6.717-249.926-58.882-356.301-103.23C270.57 344.496 96.883 283.383-123.105 293.657" stroke="url(#paint51_linear_2_4594)"/><path d="M1997.22 140.859c-199.16-54.389-477.7-111.695-657.68 18.384-102.88 74.344-143.31 170.136-222.12 252.617-32.82 34.356-74.13 67.864-132.169 87.324-57.168 19.211-127.634 24.786-189.245 21.381-136.775-7.54-250.944-59.256-358.871-103.45C268.422 348.089 95.289 289.35-122.234 298.441" stroke="url(#paint52_linear_2_4594)"/><path d="M1998.4 145.513c-197.77-53.101-468.63-107.042-649.55 17.596-107.58 74.112-149.61 171.944-232.44 254.84-32.97 32.988-74.05 64.685-130.091 83.716-56.989 19.363-129.034 24.167-190.433 20.53-134.496-8.004-247.46-57.547-354.633-100.589C270.938 353.17 96.816 294.995-121.273 303.201" stroke="url(#paint53_linear_2_4594)"/><path d="M1999.66 150.104c-198.43-52.422-466.82-103.541-647.27 20.387-105.84 72.691-149.98 167.68-233.02 248.666-33.88 33.037-75.58 64.691-132.097 83.86-57.45 19.479-129.775 23.592-191.438 19.771-134.956-8.312-248.678-57.404-357.181-99.984C268.731 356.113 95.119 300.57-120.32 307.967" stroke="url(#paint54_linear_2_4594)"/><path d="M2001.02 154.652c-198.97-51.763-465-100.167-645.11 22.756-104.04 71.011-150.87 163.175-233.63 242.117-34.65 33.064-77.21 64.643-133.998 83.965-57.454 19.55-130.934 22.999-192.62 19.142-132.519-8.355-245.209-55.229-352.803-96.383-171.745-65.702-346.474-120.309-562.24-113.53" stroke="url(#paint55_linear_2_4594)"/><path d="M2002.45 159.151c-198.46-50.906-460.22-96.813-640.71 23.144-104.55 69.484-153.6 160.244-237.43 237.735-35.42 32.733-78.57 63.783-135.285 83.017-57.35 19.409-130.983 22.462-192.425 18.657-131.806-8.161-244.57-53.528-352.618-93.662C271.387 363.911 96.186 311.202-118.35 317.54" stroke="url(#paint56_linear_2_4594)"/><path d="M2003.95 163.593c-196.03-49.587-451.37-93.502-632.75 20.805-107.19 67.61-158.77 158.025-243.93 234.566-36.31 32.641-80.27 63.505-137.424 82.65-56.012 18.768-126.845 21.77-186.833 18.721-132.01-6.735-245.991-50.669-354.861-89.825-174.546-62.783-350.828-114.221-565.619-108.246" stroke="url(#paint57_linear_2_4594)"/><path d="M2005.52 167.988c-196.57-49.101-448.98-90.674-630.81 22.014-107.59 66.673-161.01 156.049-248.9 231.034-36.39 31.031-79.93 60.032-135.094 78.406-56.13 18.706-127.912 21.417-187.941 18.371-132.414-6.723-247.015-49.492-357.433-87.762-174.198-60.38-350.05-108.729-561.815-103.018" stroke="url(#paint58_linear_2_4594)"/><path d="M2007.14 172.334c-195.7-48.276-444.16-88.015-626.55 21.383-108.06 64.826-163.9 152.463-252.88 225.678-37.14 30.58-81.27 58.989-136.372 77.09-56.15 18.441-127.718 21.067-187.794 18.227-131.563-6.227-246.296-47.167-357.165-84.087-175.136-58.319-351.495-104.423-561.91-98.814" stroke="url(#paint59_linear_2_4594)"/><path d="M2008.8 176.636c-193.33-47.15-435.14-85.201-618.42 18.267-110.72 62.515-169.41 149.443-259.81 221.43-38.12 30.353-83.01 58.456-138.548 76.356-56.651 18.268-128.457 20.918-188.759 18.254-129.024-5.743-242.695-44.074-352.64-79.111C273.45 375.377 95.935 330.93-114.516 336.58" stroke="url(#paint60_linear_2_4594)"/><path d="M2010.5 180.893c-192.27-46.415-430.35-82.946-614.2 17.113-111.14 60.453-172.35 145.447-263.86 215.513-38.96 29.813-84.39 57.2-139.875 74.764-56.797 17.974-128.235 20.653-188.575 18.298-128.149-5.078-241.974-41.432-352.365-74.935-178.117-54.07-356.153-96.048-565.164-90.271" stroke="url(#paint61_linear_2_4594)"/><path d="M2012.22 185.106c-192.35-45.982-427.85-80.99-612.46 16.976-109.66 58.193-172.96 139.866-264.4 207.294-39.97 29.475-86.28 56.438-142.057 73.814-57.153 17.817-129.06 20.474-189.769 18.331-128.377-4.527-243.08-39.41-354.891-71.573-177.789-51.105-355.334-89.757-561.268-83.842" stroke="url(#paint62_linear_2_4594)"/><path d="M2013.96 189.267c-190.86-45.216-423.36-79.183-608.33 15.268-109.92 56.134-175.89 135.57-268.45 200.997-40.81 28.826-87.71 55.038-143.443 71.997-57.345 17.462-128.727 20.29-189.552 18.537-127.437-3.695-242.343-36.432-354.565-66.873-178.66-48.439-356.878-84.566-561.272-78.315" stroke="url(#paint63_linear_2_4594)"/><path d="M2015.71 193.39c-190.8-44.826-420.78-77.475-606.75 14.565-108.42 53.662-176.51 129.76-268.9 192.465-41.89 28.423-89.57 54.135-145.754 70.766-58.072 17.198-129.156 20.372-190.636 18.904-124.891-2.977-238.613-32.872-349.899-61.145-180.783-45.927-360.196-79.956-564.423-73.329" stroke="url(#paint64_linear_2_4594)"/><path d="M2017.46 197.479c-189.53-44.202-415.96-75.832-602.62 12.336-108.85 51.418-179.57 125.291-272.93 185.823-42.77 27.708-91.01 52.59-147.143 68.746-58.33 16.799-128.797 20.263-190.458 19.285-124.002-1.988-237.889-29.671-349.597-56.081-181.694-42.965-361.682-74.274-564.452-67.171" stroke="url(#paint65_linear_2_4594)"/><path d="M2019.24 201.528c-188.2-43.607-411.2-74.293-598.52 9.919-109.27 49.122-182.5 120.702-277.05 179.074-43.64 26.939-92.45 50.987-148.544 66.657-58.611 16.374-128.352 20.197-190.197 19.672-123.11-.975-237.159-26.382-349.241-50.856-182.605-39.87-363.196-68.425-564.465-60.813" stroke="url(#paint66_linear_2_4594)"/><path d="M2020.94 205.521c-185.14-42.615-403.01-72.712-590.36 5.577-111.39 46.572-187.72 116.516-284.03 173.225-44.75 26.368-94.46 49.809-150.888 65.148-57.213 15.544-124.194 19.745-184.52 20.141-125.672.814-243.113-23.168-358.644-46.27-181.95-36.328-362.127-61.487-560.303-53.388" stroke="url(#paint67_linear_2_4594)"/><path d="M2022.66 209.486c-183.89-42.111-398.43-71.402-586.25 2.91-111.71 44.219-190.69 111.646-288.1 166.111-45.63 25.518-95.9 48.086-152.307 62.889-57.525 15.103-123.819 19.704-184.302 20.627-124.695 1.859-242.364-19.627-358.231-40.58-182.825-33.019-363.563-55.428-560.345-46.728" stroke="url(#paint68_linear_2_4594)"/><path d="M2024.34 213.408c-182.61-41.602-393.82-70.169-582.08.075-112.07 41.817-193.65 106.686-292.17 158.869-100.4 53.182-210.246 78.625-337.804 81.729-123.846 3.009-241.63-16.007-357.926-34.786-183.51-29.579-364.846-49.158-560.251-39.805" stroke="url(#paint69_linear_2_4594)"/><path d="M2025.98 217.297c-181.33-41.131-389.35-68.952-577.98-2.806-112.43 39.409-196.62 101.651-296.25 151.533-101.76 50.944-212.626 75.669-339.001 79.923-122.956 4.144-240.9-12.33-357.483-28.85-184.205-26.106-366.107-42.877-560.196-32.841" stroke="url(#paint70_linear_2_4594)"/><path d="M2027.55 221.156c-181.2-40.897-386.92-67.974-576.57-4.892-113.07 37.594-200.12 97.716-301.93 145.231-102.08 47.643-213.496 70.839-336.854 76.113-120.67 5.129-237.288-8.419-352.817-22.456-185.975-22.674-369.29-36.936-563.346-26.121" stroke="url(#paint71_linear_2_4594)"/><path d="M2029.06 224.987c-179.87-40.481-382.53-66.929-572.36-8.08-113.43 35.161-203.11 92.511-305.96 137.656-213.48 93.805-457.721 81.632-690.494 58.003-186.492-18.929-370.358-30.315-563.25-18.773" stroke="url(#paint72_linear_2_4594)"/><path d="M2030.56 228.764c-178.65-40.044-378.31-65.895-568.21-11.281-113.84 32.712-206.13 87.232-310.08 130.107-214.49 88.483-457.96 81.235-691.142 62.341-186.955-15.144-371.404-23.683-563.171-11.374" stroke="url(#paint73_linear_2_4594)"/><path d="M2031.96 232.52c-177.42-39.633-374.1-64.957-564.03-14.53-114.18 30.322-209.05 81.908-314.14 122.511-215.434 83.194-458.405 80.84-691.763 66.752-187.342-11.333-372.343-17.008-563.119-3.928" stroke="url(#paint74_linear_2_4594)"/><path d="M2033.27 236.243c-174.56-38.854-366.98-63.753-555.3-18.85-115.98 27.649-214.29 76.688-321.32 115.415-215.732 78.041-457.608 81.046-690.543 71.827-188.661-7.465-375.28-10.483-566.216 3.448" stroke="url(#paint75_linear_2_4594)"/><path d="M2034.49 239.936c-173.37-38.453-363.06-62.844-551-22.031-116.35 25.268-217.09 71.26-325.3 107.704-216.73 72.968-458.452 80.581-691.214 76.211-188.863-3.548-375.96-3.701-566.132 11.03" stroke="url(#paint76_linear_2_4594)"/><path d="M2035.6 243.607c-172.17-38.051-359.23-61.984-546.65-25.201-116.77 22.915-219.93 65.867-329.26 100.011-217.775 68.012-459.318 80.136-691.858 80.592-188.97.369-376.494 3.07-566.027 18.598" stroke="url(#paint77_linear_2_4594)"/><path d="M2036.62 247.243c-170.98-37.65-355.54-61.134-542.26-28.344-117.16 20.581-222.63 60.432-333.16 92.353-218.934 63.185-460.246 79.689-692.501 84.966-189.013 4.293-376.902 9.83-565.931 26.159" stroke="url(#paint78_linear_2_4594)"/><path d="M2037.53 250.845c-169.81-37.222-351.93-60.31-537.84-31.425-117.61 18.282-225.34 55.075-337 84.766-220.285 58.488-461.136 79.221-693.119 89.288-188.954 8.197-377.15 16.502-565.84 33.657" stroke="url(#paint79_linear_2_4594)"/><path d="M2038.35 254.423c-169.61-36.942-350.48-59.684-536.31-34.021-116.46 16.061-225.1 49.273-336.53 76.468-113.55 27.686-233.426 45.864-351.301 61.872-115.254 15.659-231.466 24.921-347.797 32.324-187.48 11.937-374.637 23.055-561.722 40.82" stroke="url(#paint80_linear_2_4594)"/><path d="M2038.94 257.995c-168.35-36.501-347.05-58.915-531.7-37.006-117.05 13.887-227.61 44.034-340.27 69.078-114.74 25.506-234.542 42.98-352.269 60.202-115.059 16.826-231.158 28.513-347.4 38.305-187.294 15.722-374.638 29.535-561.67 48.065" stroke="url(#paint81_linear_2_4594)"/><path d="M2039.44 261.534c-167.15-35.999-343.77-58.142-527.1-39.872-117.61 11.725-230.07 38.844-343.93 61.799-116 23.35-235.476 40.113-353.193 58.529-114.947 17.985-230.808 32.101-347.029 44.197-187.039 19.458-374.5 35.929-561.573 55.212" stroke="url(#paint82_linear_2_4594)"/><path d="M2039.8 265.053c-165.96-35.464-340.61-57.379-522.44-42.601-118.19 9.602-232.45 33.71-347.56 54.611-56.09 10.188-112.52 19.442-169.52 26.287-62.058 7.466-123.148 20.361-184.512 30.576a8097.45 8097.45 0 01-346.645 49.987c-186.755 23.159-374.285 42.228-561.547 62.236" stroke="url(#paint83_linear_2_4594)"/><path d="M2040.01 268.553c-165.77-35.094-339.37-56.801-520.71-44.995-117.24 7.656-231.78 28.444-346.6 47.144-57.01 9.272-114.24 17.855-171.94 24.365-62.486 7.053-124.104 20.514-185.638 31.346-113.458 19.944-227.374 38.512-341.906 54.954-187.382 26.941-376.005 48.702-564.677 69.527" stroke="url(#paint84_linear_2_4594)"/><path d="M2040.01 272.018c-164.55-34.46-336.33-56.016-515.88-47.456-117.93 5.624-233.97 23.564-350.06 40.313-57.46 8.27-115.1 16.135-173.05 22.25-62.445 6.586-124.172 20.5-185.342 31.856-113.528 21.035-227.099 41.782-341.503 60.437-186.987 30.43-375.539 54.714-564.683 76.228" stroke="url(#paint85_linear_2_4594)"/><path d="M2039.87 275.469c-163.35-33.748-333.35-55.213-511-49.731-118.6 3.654-236.1 18.788-353.43 33.648-57.93 7.339-115.92 14.474-174.19 20.239-62.371 6.161-124.222 20.471-185.083 32.3-113.623 22.064-226.962 45.016-341.144 65.738-186.455 33.819-374.875 60.596-564.587 82.75" stroke="url(#paint86_linear_2_4594)"/><path d="M2039.54 278.911c-162.09-33.009-330.39-54.372-506.01-51.804-119.27 1.749-238.17 14.128-356.73 27.162-58.35 6.418-116.72 12.883-175.16 18.222-62.355 5.766-124.324 20.427-184.835 32.712-113.791 23.106-226.835 48.112-340.807 70.881-185.99 37.151-374.232 66.333-564.572 89.049" stroke="url(#paint87_linear_2_4594)"/><path d="M2039.02 282.325c-159.3-31.863-324.38-53.149-496.1-53.656-121.08-.357-242.35 9.386-363.21 20.731-59.18 5.566-118.31 11.396-177.55 16.496-62.792 5.418-125.247 20.497-185.864 33.285-115.062 24.273-228.69 51.577-343.456 76.477-183.793 39.798-371.138 71.292-560.463 94.219" stroke="url(#paint88_linear_2_4594)"/><path d="M2038.31 285.728c-158.07-30.944-321.45-52.166-490.92-55.178-121.79-2.146-244.32 5-366.37 14.618-59.52 4.696-119.01 9.897-178.52 14.707-62.713 5.082-125.284 20.378-185.588 33.555-115.353 25.191-228.61 54.466-343.165 81.267-182.993 42.959-370.489 76.39-560.397 99.922" stroke="url(#paint89_linear_2_4594)"/><path d="M2037.37 289.117c-156.83-29.943-318.45-51.143-485.58-56.464-122.54-3.88-246.08.719-369.42 8.712-59.85 3.883-119.7 8.495-179.5 13.06-62.662 4.779-125.283 20.206-185.297 33.735-115.658 26.064-228.548 57.236-342.837 85.87-182.951 45.843-369.058 81.373-560.425 105.32" stroke="url(#paint90_linear_2_4594)"/><path d="M2036.22 292.488c-191.59-35.512-389.25-58.47-593.68-60.489-78.33-.776-157.02 1.23-235.68 4.975-76.36 3.623-157.35 5.243-233.142 14.781-75.389 9.513-152.548 30.292-224.421 48.382-73.661 18.548-146.203 38.967-219.069 58.821-200.29 54.592-402.796 98.344-614.974 125.136" stroke="url(#paint91_linear_2_4594)"/><path d="M2034.85 295.849c-190.6-34.098-386.64-57.76-588.78-62.776-78.88-1.935-158.3-1.264-237.75 1.472-76.52 2.639-158.1 3.599-234.175 12.979-75.411 9.306-152.611 30.328-223.99 48.984-73.782 19.248-146.171 40.704-218.891 61.613-199.809 57.418-401.601 103.63-615.04 130.693" stroke="url(#paint92_linear_2_4594)"/><path d="M2033.26 299.198c-190.95-32.749-386.52-57.199-587.65-64.799-80.03-3.04-160.49-3.569-241.37-1.589-75.19 1.777-154.79 2.595-229.616 11.589-151.157 18.216-299.792 70.128-438.777 112.145-200.429 60.543-402.586 109.55-618.65 137" stroke="url(#paint93_linear_2_4594)"/><path d="M2031.4 302.539c-190.05-30.979-383.73-56.192-582.45-66.308-80.6-4.141-161.81-5.718-243.31-4.724-75.44.918-155.31 1.294-230.489 10.168-151.827 17.917-300.105 71.171-438.277 114.777-199.876 63.077-401.262 114.317-618.698 141.787" stroke="url(#paint94_linear_2_4594)"/><path d="M2029.31 305.868c-190.6-29.233-383.5-55.303-581.15-67.619-76.77-4.778-154.07-7.427-231.79-7.436-78.34.001-162.33-.457-240.695 8.643-150.954 17.508-297.972 71.498-434.092 116.148-200.614 65.86-402.231 119.719-622.462 147.392" stroke="url(#paint95_linear_2_4594)"/><path d="M2026.95 309.183c-189.87-27.012-380.43-53.923-575.67-68.233-77.2-5.809-155.14-9.161-233.51-10.043-78.64-.764-162.72-1.399-241.492 7.535-151.759 17.226-298.064 71.864-433.59 117.954-200.141 68.013-401.004 123.876-622.616 151.31" stroke="url(#paint96_linear_2_4594)"/><path d="M2024.33 312.49c-189.17-24.517-377.29-52.237-570.02-68.348-152.64-12.752-320.84-23.154-477.392-5.786-152.656 16.944-297.95 71.923-433.143 119.306-199.66 69.987-399.772 127.671-622.73 154.761" stroke="url(#paint97_linear_2_4594)"/><path d="M2021.41 315.79c-184.42-21.24-366.06-49.057-551.98-66.794-157.57-15.034-329.26-27.091-491.818-9.57-155.118 16.772-299.963 72.217-436.319 121.343-197.938 71.295-396.542 129.924-619.287 156.362" stroke="url(#paint98_linear_2_4594)"/><path d="M2018.25 319.099c-183.63-18.13-362.65-46.763-545.91-65.714-158.63-16.407-329.73-29.403-493.943-12.106-156.142 16.461-299.667 71.64-435.903 121.853-197.621 72.881-395.492 132.957-619.535 158.711" stroke="url(#paint99_linear_2_4594)"/><path d="M2014.78 322.395c-184.06-14.693-361.87-44.577-543.83-64.507-158.2-17.382-327.47-30.818-491.775-13.827-158.531 16.4-301.634 71.69-439.174 123.427C344.178 441.145 147.507 501.814-76.08 526.543" stroke="url(#paint100_linear_2_4594)"/><path d="M2011 325.686c-343.32-20.016-674.8-113.512-1030.92-77.565-159.763 16.091-300.815 70.165-438.852 122.94-195.563 74.764-391.654 136.485-616.335 160.186" stroke="url(#paint101_linear_2_4594)"/></g><defs><linearGradient id="paint0_linear_2_4594" x1="-176.588" y1="-54.676" x2="323.073" y2="-918.406" gradientUnits="userSpaceOnUse"><stop stop-color="#3F34EC"/><stop offset="1" stop-color="#13D8D4"/></linearGradient><linearGradient id="paint1_linear_2_4594" x1="-175.627" y1="-49.764" x2="324.232" y2="-913.776" gradientUnits="userSpaceOnUse"><stop stop-color="#3F34EC"/><stop offset="1" stop-color="#13D8D4"/></linearGradient><linearGradient id="paint2_linear_2_4594" x1="-174.643" y1="-44.615" x2="325.728" y2="-909.35" gradientUnits="userSpaceOnUse"><stop stop-color="#3F34EC"/><stop offset="1" stop-color="#13D8D4"/></linearGradient><linearGradient id="paint3_linear_2_4594" x1="-173.697" y1="-39.214" x2="327.517" y2="-905.146" gradientUnits="userSpaceOnUse"><stop stop-color="#3F34EC"/><stop offset="1" stop-color="#13D8D4"/></linearGradient><linearGradient id="paint4_linear_2_4594" x1="-172.668" y1="-33.648" x2="329.635" y2="-901.116" gradientUnits="userSpaceOnUse"><stop stop-color="#3F34EC"/><stop offset="1" stop-color="#13D8D4"/></linearGradient><linearGradient id="paint5_linear_2_4594" x1="-171.701" y1="-27.867" x2="331.989" y2="-897.294" gradientUnits="userSpaceOnUse"><stop stop-color="#3F34EC"/><stop offset="1" stop-color="#13D8D4"/></linearGradient><linearGradient id="paint6_linear_2_4594" x1="-170.65" y1="-21.841" x2="334.703" y2="-893.606" gradientUnits="userSpaceOnUse"><stop stop-color="#3F34EC"/><stop offset="1" stop-color="#13D8D4"/></linearGradient><linearGradient id="paint7_linear_2_4594" x1="-169.594" y1="-15.636" x2="337.674" y2="-890.09" gradientUnits="userSpaceOnUse"><stop stop-color="#3F34EC"/><stop offset="1" stop-color="#13D8D4"/></linearGradient><linearGradient id="paint8_linear_2_4594" x1="-168.535" y1="-9.25" x2="340.901" y2="-886.742" gradientUnits="userSpaceOnUse"><stop stop-color="#3F34EC"/><stop offset="1" stop-color="#13D8D4"/></linearGradient><linearGradient id="paint9_linear_2_4594" x1="-167.533" y1="-2.752" x2="344.277" y2="-883.563" gradientUnits="userSpaceOnUse"><stop stop-color="#3F34EC"/><stop offset="1" stop-color="#13D8D4"/></linearGradient><linearGradient id="paint10_linear_2_4594" x1="-166.521" y1="3.964" x2="347.925" y2="-880.524" gradientUnits="userSpaceOnUse"><stop stop-color="#3F34EC"/><stop offset="1" stop-color="#13D8D4"/></linearGradient><linearGradient id="paint11_linear_2_4594" x1="-165.449" y1="10.828" x2="351.831" y2="-877.595" gradientUnits="userSpaceOnUse"><stop stop-color="#3F34EC"/><stop offset="1" stop-color="#13D8D4"/></linearGradient><linearGradient id="paint12_linear_2_4594" x1="-164.424" y1="17.797" x2="355.876" y2="-874.808" gradientUnits="userSpaceOnUse"><stop stop-color="#3F34EC"/><stop offset="1" stop-color="#13D8D4"/></linearGradient><linearGradient id="paint13_linear_2_4594" x1="-163.348" y1="24.911" x2="360.166" y2="-872.123" gradientUnits="userSpaceOnUse"><stop stop-color="#3F34EC"/><stop offset="1" stop-color="#13D8D4"/></linearGradient><linearGradient id="paint14_linear_2_4594" x1="-162.295" y1="32.152" x2="364.629" y2="-869.567" gradientUnits="userSpaceOnUse"><stop stop-color="#3F34EC"/><stop offset="1" stop-color="#13D8D4"/></linearGradient><linearGradient id="paint15_linear_2_4594" x1="-161.238" y1="39.502" x2="369.219" y2="-867.047" gradientUnits="userSpaceOnUse"><stop stop-color="#3F34EC"/><stop offset="1" stop-color="#13D8D4"/></linearGradient><linearGradient id="paint16_linear_2_4594" x1="-160.158" y1="46.945" x2="374" y2="-864.639" gradientUnits="userSpaceOnUse"><stop stop-color="#3F34EC"/><stop offset="1" stop-color="#13D8D4"/></linearGradient><linearGradient id="paint17_linear_2_4594" x1="-159.084" y1="54.476" x2="378.921" y2="-862.318" gradientUnits="userSpaceOnUse"><stop stop-color="#3F34EC"/><stop offset="1" stop-color="#13D8D4"/></linearGradient><linearGradient id="paint18_linear_2_4594" x1="-157.975" y1="62.062" x2="383.976" y2="-860.045" gradientUnits="userSpaceOnUse"><stop stop-color="#3F34EC"/><stop offset="1" stop-color="#13D8D4"/></linearGradient><linearGradient id="paint19_linear_2_4594" x1="-156.92" y1="69.771" x2="389.138" y2="-857.845" gradientUnits="userSpaceOnUse"><stop stop-color="#3F34EC"/><stop offset="1" stop-color="#13D8D4"/></linearGradient><linearGradient id="paint20_linear_2_4594" x1="-155.834" y1="77.541" x2="394.431" y2="-855.684" gradientUnits="userSpaceOnUse"><stop stop-color="#3F34EC"/><stop offset="1" stop-color="#13D8D4"/></linearGradient><linearGradient id="paint21_linear_2_4594" x1="-154.711" y1="85.293" x2="399.8" y2="-853.556" gradientUnits="userSpaceOnUse"><stop stop-color="#3F34EC"/><stop offset="1" stop-color="#13D8D4"/></linearGradient><linearGradient id="paint22_linear_2_4594" x1="-153.668" y1="93.132" x2="405.222" y2="-851.493" gradientUnits="userSpaceOnUse"><stop stop-color="#3F34EC"/><stop offset="1" stop-color="#13D8D4"/></linearGradient><linearGradient id="paint23_linear_2_4594" x1="-152.57" y1="100.997" x2="410.746" y2="-849.427" gradientUnits="userSpaceOnUse"><stop stop-color="#3F34EC"/><stop offset="1" stop-color="#13D8D4"/></linearGradient><linearGradient id="paint24_linear_2_4594" x1="-151.461" y1="108.854" x2="416.312" y2="-847.37" gradientUnits="userSpaceOnUse"><stop stop-color="#3F34EC"/><stop offset="1" stop-color="#13D8D4"/></linearGradient><linearGradient id="paint25_linear_2_4594" x1="-150.402" y1="116.731" x2="421.89" y2="-845.347" gradientUnits="userSpaceOnUse"><stop stop-color="#3F34EC"/><stop offset="1" stop-color="#13D8D4"/></linearGradient><linearGradient id="paint26_linear_2_4594" x1="-149.307" y1="124.647" x2="427.54" y2="-843.285" gradientUnits="userSpaceOnUse"><stop stop-color="#3F34EC"/><stop offset="1" stop-color="#13D8D4"/></linearGradient><linearGradient id="paint27_linear_2_4594" x1="-148.238" y1="132.515" x2="433.16" y2="-841.236" gradientUnits="userSpaceOnUse"><stop stop-color="#3F34EC"/><stop offset="1" stop-color="#13D8D4"/></linearGradient><linearGradient id="paint28_linear_2_4594" x1="-147.109" y1="140.36" x2="438.823" y2="-839.14" gradientUnits="userSpaceOnUse"><stop stop-color="#3F34EC"/><stop offset="1" stop-color="#13D8D4"/></linearGradient><linearGradient id="paint29_linear_2_4594" x1="-146.043" y1="148.211" x2="444.441" y2="-837.033" gradientUnits="userSpaceOnUse"><stop stop-color="#3F34EC"/><stop offset="1" stop-color="#13D8D4"/></linearGradient><linearGradient id="paint30_linear_2_4594" x1="-144.963" y1="156.007" x2="450.029" y2="-834.883" gradientUnits="userSpaceOnUse"><stop stop-color="#3F34EC"/><stop offset="1" stop-color="#13D8D4"/></linearGradient><linearGradient id="paint31_linear_2_4594" x1="-143.855" y1="163.698" x2="455.558" y2="-832.693" gradientUnits="userSpaceOnUse"><stop stop-color="#3F34EC"/><stop offset="1" stop-color="#13D8D4"/></linearGradient><linearGradient id="paint32_linear_2_4594" x1="-142.84" y1="171.47" x2="461.043" y2="-830.456" gradientUnits="userSpaceOnUse"><stop stop-color="#3F34EC"/><stop offset="1" stop-color="#13D8D4"/></linearGradient><linearGradient id="paint33_linear_2_4594" x1="-141.705" y1="179.054" x2="466.458" y2="-828.121" gradientUnits="userSpaceOnUse"><stop stop-color="#3F34EC"/><stop offset="1" stop-color="#13D8D4"/></linearGradient><linearGradient id="paint34_linear_2_4594" x1="-140.639" y1="186.589" x2="471.75" y2="-825.743" gradientUnits="userSpaceOnUse"><stop stop-color="#3F34EC"/><stop offset="1" stop-color="#13D8D4"/></linearGradient><linearGradient id="paint35_linear_2_4594" x1="-139.564" y1="194.047" x2="476.943" y2="-823.279" gradientUnits="userSpaceOnUse"><stop stop-color="#3F34EC"/><stop offset="1" stop-color="#13D8D4"/></linearGradient><linearGradient id="paint36_linear_2_4594" x1="-138.49" y1="201.396" x2="482.003" y2="-820.731" gradientUnits="userSpaceOnUse"><stop stop-color="#3F34EC"/><stop offset="1" stop-color="#13D8D4"/></linearGradient><linearGradient id="paint37_linear_2_4594" x1="-137.445" y1="208.638" x2="486.89" y2="-818.091" gradientUnits="userSpaceOnUse"><stop stop-color="#3F34EC"/><stop offset="1" stop-color="#13D8D4"/></linearGradient><linearGradient id="paint38_linear_2_4594" x1="-136.369" y1="215.787" x2="491.664" y2="-815.343" gradientUnits="userSpaceOnUse"><stop stop-color="#3F34EC"/><stop offset="1" stop-color="#13D8D4"/></linearGradient><linearGradient id="paint39_linear_2_4594" x1="-135.303" y1="222.793" x2="496.233" y2="-812.48" gradientUnits="userSpaceOnUse"><stop stop-color="#3F34EC"/><stop offset="1" stop-color="#13D8D4"/></linearGradient><linearGradient id="paint40_linear_2_4594" x1="-134.268" y1="229.664" x2="500.578" y2="-809.506" gradientUnits="userSpaceOnUse"><stop stop-color="#3F34EC"/><stop offset="1" stop-color="#13D8D4"/></linearGradient><linearGradient id="paint41_linear_2_4594" x1="-133.229" y1="236.396" x2="504.726" y2="-806.416" gradientUnits="userSpaceOnUse"><stop stop-color="#3F34EC"/><stop offset="1" stop-color="#13D8D4"/></linearGradient><linearGradient id="paint42_linear_2_4594" x1="-132.18" y1="242.968" x2="508.64" y2="-803.181" gradientUnits="userSpaceOnUse"><stop stop-color="#3F34EC"/><stop offset="1" stop-color="#13D8D4"/></linearGradient><linearGradient id="paint43_linear_2_4594" x1="-131.156" y1="249.378" x2="512.281" y2="-799.807" gradientUnits="userSpaceOnUse"><stop stop-color="#3F34EC"/><stop offset="1" stop-color="#13D8D4"/></linearGradient><linearGradient id="paint44_linear_2_4594" x1="-130.133" y1="255.622" x2="515.663" y2="-796.288" gradientUnits="userSpaceOnUse"><stop stop-color="#3F34EC"/><stop offset="1" stop-color="#13D8D4"/></linearGradient><linearGradient id="paint45_linear_2_4594" x1="-129.086" y1="261.656" x2="518.76" y2="-792.611" gradientUnits="userSpaceOnUse"><stop stop-color="#3F34EC"/><stop offset="1" stop-color="#13D8D4"/></linearGradient><linearGradient id="paint46_linear_2_4594" x1="-128.08" y1="267.552" x2="521.558" y2="-788.772" gradientUnits="userSpaceOnUse"><stop stop-color="#3F34EC"/><stop offset="1" stop-color="#13D8D4"/></linearGradient><linearGradient id="paint47_linear_2_4594" x1="-127.109" y1="273.2" x2="523.971" y2="-784.778" gradientUnits="userSpaceOnUse"><stop stop-color="#3F34EC"/><stop offset="1" stop-color="#13D8D4"/></linearGradient><linearGradient id="paint48_linear_2_4594" x1="-126.135" y1="278.651" x2="526.062" y2="-780.605" gradientUnits="userSpaceOnUse"><stop stop-color="#3F34EC"/><stop offset="1" stop-color="#13D8D4"/></linearGradient><linearGradient id="paint49_linear_2_4594" x1="-125.137" y1="283.892" x2="527.819" y2="-776.227" gradientUnits="userSpaceOnUse"><stop stop-color="#3F34EC"/><stop offset="1" stop-color="#13D8D4"/></linearGradient><linearGradient id="paint50_linear_2_4594" x1="-124.162" y1="288.888" x2="529.174" y2="-771.663" gradientUnits="userSpaceOnUse"><stop stop-color="#3F34EC"/><stop offset="1" stop-color="#13D8D4"/></linearGradient><linearGradient id="paint51_linear_2_4594" x1="-123.105" y1="293.657" x2="530.247" y2="-766.899" gradientUnits="userSpaceOnUse"><stop stop-color="#3F34EC"/><stop offset="1" stop-color="#13D8D4"/></linearGradient><linearGradient id="paint52_linear_2_4594" x1="-122.234" y1="298.441" x2="531.231" y2="-762.278" gradientUnits="userSpaceOnUse"><stop stop-color="#3F34EC"/><stop offset="1" stop-color="#13D8D4"/></linearGradient><linearGradient id="paint53_linear_2_4594" x1="-121.273" y1="303.201" x2="532.321" y2="-757.7" gradientUnits="userSpaceOnUse"><stop stop-color="#3F34EC"/><stop offset="1" stop-color="#13D8D4"/></linearGradient><linearGradient id="paint54_linear_2_4594" x1="-120.32" y1="307.967" x2="533.476" y2="-753.216" gradientUnits="userSpaceOnUse"><stop stop-color="#3F34EC"/><stop offset="1" stop-color="#13D8D4"/></linearGradient><linearGradient id="paint55_linear_2_4594" x1="-119.381" y1="312.719" x2="534.665" y2="-748.817" gradientUnits="userSpaceOnUse"><stop stop-color="#3F34EC"/><stop offset="1" stop-color="#13D8D4"/></linearGradient><linearGradient id="paint56_linear_2_4594" x1="-118.35" y1="317.54" x2="536.022" y2="-744.437" gradientUnits="userSpaceOnUse"><stop stop-color="#3F34EC"/><stop offset="1" stop-color="#13D8D4"/></linearGradient><linearGradient id="paint57_linear_2_4594" x1="-117.467" y1="322.264" x2="537.26" y2="-740.218" gradientUnits="userSpaceOnUse"><stop stop-color="#3F34EC"/><stop offset="1" stop-color="#13D8D4"/></linearGradient><linearGradient id="paint58_linear_2_4594" x1="-116.473" y1="327.033" x2="538.662" y2="-736.011" gradientUnits="userSpaceOnUse"><stop stop-color="#3F34EC"/><stop offset="1" stop-color="#13D8D4"/></linearGradient><linearGradient id="paint59_linear_2_4594" x1="-115.531" y1="331.811" x2="540.077" y2="-731.886" gradientUnits="userSpaceOnUse"><stop stop-color="#3F34EC"/><stop offset="1" stop-color="#13D8D4"/></linearGradient><linearGradient id="paint60_linear_2_4594" x1="-114.516" y1="336.58" x2="541.584" y2="-727.788" gradientUnits="userSpaceOnUse"><stop stop-color="#3F34EC"/><stop offset="1" stop-color="#13D8D4"/></linearGradient><linearGradient id="paint61_linear_2_4594" x1="-113.539" y1="341.375" x2="543.12" y2="-723.754" gradientUnits="userSpaceOnUse"><stop stop-color="#3F34EC"/><stop offset="1" stop-color="#13D8D4"/></linearGradient><linearGradient id="paint62_linear_2_4594" x1="-112.625" y1="346.106" x2="544.602" y2="-719.807" gradientUnits="userSpaceOnUse"><stop stop-color="#3F34EC"/><stop offset="1" stop-color="#13D8D4"/></linearGradient><linearGradient id="paint63_linear_2_4594" x1="-111.652" y1="350.878" x2="546.196" y2="-715.875" gradientUnits="userSpaceOnUse"><stop stop-color="#3F34EC"/><stop offset="1" stop-color="#13D8D4"/></linearGradient><linearGradient id="paint64_linear_2_4594" x1="-110.652" y1="355.616" x2="547.818" y2="-711.976" gradientUnits="userSpaceOnUse"><stop stop-color="#3F34EC"/><stop offset="1" stop-color="#13D8D4"/></linearGradient><linearGradient id="paint65_linear_2_4594" x1="-109.74" y1="360.417" x2="549.443" y2="-708.134" gradientUnits="userSpaceOnUse"><stop stop-color="#3F34EC"/><stop offset="1" stop-color="#13D8D4"/></linearGradient><linearGradient id="paint66_linear_2_4594" x1="-108.777" y1="365.181" x2="551.113" y2="-704.318" gradientUnits="userSpaceOnUse"><stop stop-color="#3F34EC"/><stop offset="1" stop-color="#13D8D4"/></linearGradient><linearGradient id="paint67_linear_2_4594" x1="-107.805" y1="369.954" x2="552.817" y2="-700.51" gradientUnits="userSpaceOnUse"><stop stop-color="#3F34EC"/><stop offset="1" stop-color="#13D8D4"/></linearGradient><linearGradient id="paint68_linear_2_4594" x1="-106.875" y1="374.715" x2="554.505" y2="-696.754" gradientUnits="userSpaceOnUse"><stop stop-color="#3F34EC"/><stop offset="1" stop-color="#13D8D4"/></linearGradient><linearGradient id="paint69_linear_2_4594" x1="-105.891" y1="379.49" x2="556.265" y2="-692.991" gradientUnits="userSpaceOnUse"><stop stop-color="#3F34EC"/><stop offset="1" stop-color="#13D8D4"/></linearGradient><linearGradient id="paint70_linear_2_4594" x1="-104.93" y1="384.256" x2="558.012" y2="-689.246" gradientUnits="userSpaceOnUse"><stop stop-color="#3F34EC"/><stop offset="1" stop-color="#13D8D4"/></linearGradient><linearGradient id="paint71_linear_2_4594" x1="-103.967" y1="389.031" x2="559.774" y2="-685.498" gradientUnits="userSpaceOnUse"><stop stop-color="#3F34EC"/><stop offset="1" stop-color="#13D8D4"/></linearGradient><linearGradient id="paint72_linear_2_4594" x1="-103.004" y1="393.793" x2="561.527" y2="-681.742" gradientUnits="userSpaceOnUse"><stop stop-color="#3F34EC"/><stop offset="1" stop-color="#13D8D4"/></linearGradient><linearGradient id="paint73_linear_2_4594" x1="-102.043" y1="398.557" x2="563.319" y2="-678.033" gradientUnits="userSpaceOnUse"><stop stop-color="#3F34EC"/><stop offset="1" stop-color="#13D8D4"/></linearGradient><linearGradient id="paint74_linear_2_4594" x1="-101.092" y1="403.325" x2="565.094" y2="-674.297" gradientUnits="userSpaceOnUse"><stop stop-color="#3F34EC"/><stop offset="1" stop-color="#13D8D4"/></linearGradient><linearGradient id="paint75_linear_2_4594" x1="-100.109" y1="408.083" x2="566.886" y2="-670.537" gradientUnits="userSpaceOnUse"><stop stop-color="#3F34EC"/><stop offset="1" stop-color="#13D8D4"/></linearGradient><linearGradient id="paint76_linear_2_4594" x1="-99.156" y1="412.85" x2="568.664" y2="-666.776" gradientUnits="userSpaceOnUse"><stop stop-color="#3F34EC"/><stop offset="1" stop-color="#13D8D4"/></linearGradient><linearGradient id="paint77_linear_2_4594" x1="-98.195" y1="417.607" x2="570.427" y2="-662.982" gradientUnits="userSpaceOnUse"><stop stop-color="#3F34EC"/><stop offset="1" stop-color="#13D8D4"/></linearGradient><linearGradient id="paint78_linear_2_4594" x1="-97.232" y1="422.377" x2="572.201" y2="-659.171" gradientUnits="userSpaceOnUse"><stop stop-color="#3F34EC"/><stop offset="1" stop-color="#13D8D4"/></linearGradient><linearGradient id="paint79_linear_2_4594" x1="-96.269" y1="427.131" x2="573.961" y2="-655.344" gradientUnits="userSpaceOnUse"><stop stop-color="#3F34EC"/><stop offset="1" stop-color="#13D8D4"/></linearGradient><linearGradient id="paint80_linear_2_4594" x1="-95.311" y1="431.886" x2="575.717" y2="-651.502" gradientUnits="userSpaceOnUse"><stop stop-color="#3F34EC"/><stop offset="1" stop-color="#13D8D4"/></linearGradient><linearGradient id="paint81_linear_2_4594" x1="-94.369" y1="436.639" x2="577.401" y2="-647.568" gradientUnits="userSpaceOnUse"><stop stop-color="#3F34EC"/><stop offset="1" stop-color="#13D8D4"/></linearGradient><linearGradient id="paint82_linear_2_4594" x1="-93.385" y1="441.399" x2="579.123" y2="-643.603" gradientUnits="userSpaceOnUse"><stop stop-color="#3F34EC"/><stop offset="1" stop-color="#13D8D4"/></linearGradient><linearGradient id="paint83_linear_2_4594" x1="-92.424" y1="446.149" x2="580.801" y2="-639.605" gradientUnits="userSpaceOnUse"><stop stop-color="#3F34EC"/><stop offset="1" stop-color="#13D8D4"/></linearGradient><linearGradient id="paint84_linear_2_4594" x1="-91.461" y1="450.894" x2="582.454" y2="-635.557" gradientUnits="userSpaceOnUse"><stop stop-color="#3F34EC"/><stop offset="1" stop-color="#13D8D4"/></linearGradient><linearGradient id="paint85_linear_2_4594" x1="-90.508" y1="455.646" x2="584.075" y2="-631.447" gradientUnits="userSpaceOnUse"><stop stop-color="#3F34EC"/><stop offset="1" stop-color="#13D8D4"/></linearGradient><linearGradient id="paint86_linear_2_4594" x1="-89.564" y1="460.413" x2="585.674" y2="-627.289" gradientUnits="userSpaceOnUse"><stop stop-color="#3F34EC"/><stop offset="1" stop-color="#13D8D4"/></linearGradient><linearGradient id="paint87_linear_2_4594" x1="-88.574" y1="465.133" x2="587.235" y2="-623.043" gradientUnits="userSpaceOnUse"><stop stop-color="#3F34EC"/><stop offset="1" stop-color="#13D8D4"/></linearGradient><linearGradient id="paint88_linear_2_4594" x1="-87.623" y1="469.877" x2="588.756" y2="-618.747" gradientUnits="userSpaceOnUse"><stop stop-color="#3F34EC"/><stop offset="1" stop-color="#13D8D4"/></linearGradient><linearGradient id="paint89_linear_2_4594" x1="-86.65" y1="474.619" x2="590.253" y2="-614.369" gradientUnits="userSpaceOnUse"><stop stop-color="#3F34EC"/><stop offset="1" stop-color="#13D8D4"/></linearGradient><linearGradient id="paint90_linear_2_4594" x1="-85.689" y1="479.35" x2="591.684" y2="-609.906" gradientUnits="userSpaceOnUse"><stop stop-color="#3F34EC"/><stop offset="1" stop-color="#13D8D4"/></linearGradient><linearGradient id="paint91_linear_2_4594" x1="-84.746" y1="484.094" x2="593.074" y2="-605.376" gradientUnits="userSpaceOnUse"><stop stop-color="#3F34EC"/><stop offset="1" stop-color="#13D8D4"/></linearGradient><linearGradient id="paint92_linear_2_4594" x1="-83.775" y1="488.814" x2="594.418" y2="-600.743" gradientUnits="userSpaceOnUse"><stop stop-color="#3F34EC"/><stop offset="1" stop-color="#13D8D4"/></linearGradient><linearGradient id="paint93_linear_2_4594" x1="-82.803" y1="493.544" x2="595.726" y2="-596.026" gradientUnits="userSpaceOnUse"><stop stop-color="#3F34EC"/><stop offset="1" stop-color="#13D8D4"/></linearGradient><linearGradient id="paint94_linear_2_4594" x1="-81.824" y1="498.239" x2="596.951" y2="-591.197" gradientUnits="userSpaceOnUse"><stop stop-color="#3F34EC"/><stop offset="1" stop-color="#13D8D4"/></linearGradient><linearGradient id="paint95_linear_2_4594" x1="-80.879" y1="502.996" x2="598.146" y2="-586.28" gradientUnits="userSpaceOnUse"><stop stop-color="#3F34EC"/><stop offset="1" stop-color="#13D8D4"/></linearGradient><linearGradient id="paint96_linear_2_4594" x1="-79.928" y1="507.706" x2="599.258" y2="-581.265" gradientUnits="userSpaceOnUse"><stop stop-color="#3F34EC"/><stop offset="1" stop-color="#13D8D4"/></linearGradient><linearGradient id="paint97_linear_2_4594" x1="-78.955" y1="512.423" x2="600.328" y2="-576.125" gradientUnits="userSpaceOnUse"><stop stop-color="#3F34EC"/><stop offset="1" stop-color="#13D8D4"/></linearGradient><linearGradient id="paint98_linear_2_4594" x1="-77.994" y1="517.131" x2="601.315" y2="-570.866" gradientUnits="userSpaceOnUse"><stop stop-color="#3F34EC"/><stop offset="1" stop-color="#13D8D4"/></linearGradient><linearGradient id="paint99_linear_2_4594" x1="-77.041" y1="521.843" x2="602.234" y2="-565.5" gradientUnits="userSpaceOnUse"><stop stop-color="#3F34EC"/><stop offset="1" stop-color="#13D8D4"/></linearGradient><linearGradient id="paint100_linear_2_4594" x1="-76.08" y1="526.543" x2="603.085" y2="-560.007" gradientUnits="userSpaceOnUse"><stop stop-color="#3F34EC"/><stop offset="1" stop-color="#13D8D4"/></linearGradient><linearGradient id="paint101_linear_2_4594" x1="-75.107" y1="531.247" x2="603.871" y2="-554.374" gradientUnits="userSpaceOnUse"><stop stop-color="#3F34EC"/><stop offset="1" stop-color="#13D8D4"/></linearGradient><clipPath id="clip0_2_4594"><path fill="#fff" d="M0 0h1920v526H0z"/></clipPath></defs></svg>