<svg width="1920" height="764" fill="none" xmlns="http://www.w3.org/2000/svg"><g opacity=".7" stroke-width="1.371" stroke-miterlimit="10" clip-path="url(#clip0_2_4699)"><path d="M1966.22 255.415c-316.73 77.383-537.58-79.256-794.89-127.302-105.72-19.744-226.234-19.006-335.805 26.695-128.426 53.565-219.463 143.824-307.305 220.788C345.692 535.51 151.449 684.144-89.93 812.34" stroke="url(#paint0_linear_2_4699)"/><path d="M1966.45 250.92c-320.1 81.715-538.23-76.173-795.88-126.321-105.66-20.567-225.473-19.94-335.443 26.14-128.755 53.928-220.026 144.449-308.179 221.748C345.118 531.904 151.545 680.1-89.672 807.471" stroke="url(#paint1_linear_2_4699)"/><path d="M1966.59 246.806c-325.93 86.612-541.01-75.118-801.99-126.359-104.66-20.54-222.32-18.966-330.909 26.881-127.237 53.757-217.759 142.858-305.097 219.451C346.35 526.598 153.04 675.182-89.424 802.371" stroke="url(#paint2_linear_2_4699)"/><path d="M1966.65 243.057c-329.49 90.915-541.47-72.013-803.02-125.381-104.5-21.338-221.694-19.928-330.629 26.103-127.575 53.908-218.274 143.174-305.867 219.967C345.553 522.912 152.989 670.87-89.246 797.041" stroke="url(#paint3_linear_2_4699)"/><path d="M1966.66 239.652c-333.14 95.173-542.02-68.758-804.17-124.423-104.33-22.147-221.04-20.854-330.232 25.304-127.732 54.034-218.764 143.354-306.597 220.271C344.732 519.236 152.952 666.485-89.008 791.537" stroke="url(#paint4_linear_2_4699)"/><path d="M1966.57 236.581c-336.83 99.374-542.54-65.517-805.36-123.458-104.05-22.942-220.293-21.82-329.878 24.392-128.013 54.051-219.219 143.39-307.281 220.384C343.799 515.51 152.84 661.945-88.862 785.841" stroke="url(#paint5_linear_2_4699)"/><path d="M1966.41 233.834c-168.89 51.341-321.45 38.333-462.19-5.582-116.59-36.427-218.84-87.902-343.02-116.563-104.39-24.102-221.253-23.35-331.93 23.441-126.194 53.45-216.777 141.34-303.886 217.335C344.81 509.979 153.926 656.678-88.665 779.895" stroke="url(#paint6_linear_2_4699)"/><path d="M1966.2 231.374c-87.74 27.439-177.11 41.969-266.43 36.624-72.2-4.291-138.14-19.956-199.37-39.253-116.35-36.662-217.32-89.023-340.72-118.547-104.02-24.877-220.518-24.386-331.506 22.409C701.742 185.9 610.98 273.695 523.657 349.664 343.756 506.193 153.69 651.95-88.49 773.777" stroke="url(#paint7_linear_2_4699)"/><path d="M1965.93 229.21c-88.48 28.405-179.02 44.212-269.79 39.302-72.37-3.955-138.5-19.54-199.66-38.986-116.08-36.922-215.78-90.169-338.45-120.51-103.6-25.645-219.827-25.408-331.101 21.293-126.548 53.119-217.619 140.793-305.07 216.654C342.588 502.425 153.348 647.168-88.335 767.486" stroke="url(#paint8_linear_2_4699)"/><path d="M1965.59 227.31c-89.21 29.367-180.89 46.427-273.09 41.946-72.65-3.548-138.96-19.061-200.03-38.671-115.8-37.203-214.33-91.263-336.21-122.467-103.11-26.44-219.105-26.47-330.727 20.07-126.712 52.84-217.934 140.32-305.55 216.09C341.391 498.633 153.066 642.319-88.249 761.102" stroke="url(#paint9_linear_2_4699)"/><path d="M1965.2 225.664c-89.95 30.308-182.83 48.673-276.42 44.594-72.9-3.163-139.38-18.604-200.38-38.382-115.55-37.477-212.82-92.406-333.97-124.445-102.61-27.182-218.408-27.503-330.35 18.842-126.815 52.513-218.269 139.773-306.056 215.353C340.13 494.82 152.616 637.338-88.183 754.508" stroke="url(#paint10_linear_2_4699)"/><path d="M1964.76 224.263c-90.69 31.229-184.77 50.879-279.78 47.264-73.16-2.787-139.81-18.159-200.73-38.097-115.33-37.756-211.42-93.497-331.81-126.436-102-27.895-217.682-28.552-329.865 17.524-126.91 52.131-218.589 139.125-306.517 214.479C338.77 490.974 152.126 632.288-88.078 747.76" stroke="url(#paint11_linear_2_4699)"/><path d="M1964.29 223.053c-92.07 32.363-187.99 53.321-284.94 49.853-73.77-2.638-140.92-18.251-202.08-38.667-113.45-37.861-207.44-93.533-325.41-127.102-102.26-29.043-218.644-30.101-331.987 16.313-128.274 52.553-220.588 140.239-309.612 216.196C334.994 489.175 149.699 628.083-88.033 740.921" stroke="url(#paint12_linear_2_4699)"/><path d="M1963.74 222.097c-92.81 33.278-189.94 55.527-288.33 52.526-74.09-2.262-141.41-17.84-202.43-38.394-113.24-38.148-206.03-94.654-323.27-129.049-101.6-29.802-217.887-31.25-331.541 14.874-128.323 52.057-220.826 139.371-310.012 215.066C333.571 485.308 149.164 622.911-87.957 733.935" stroke="url(#paint13_linear_2_4699)"/><path d="M1963.17 221.331c-93.57 34.174-191.89 57.726-291.73 55.193-74.34-1.896-141.81-17.386-202.79-38.119-113-38.469-204.65-95.762-321.12-130.993-100.94-30.57-217.187-32.324-331.137 13.408-128.375 51.5-221.087 138.419-310.388 213.79C332.08 481.41 148.559 617.681-87.922 726.833" stroke="url(#paint14_linear_2_4699)"/><path d="M1962.54 220.687c-94.31 35.062-193.84 59.923-295.12 57.857-74.59-1.523-142.25-16.938-203.14-37.858-112.85-38.734-203.33-96.889-319.01-132.942-100.37-31.207-216.444-33.452-330.748 11.92-128.365 50.959-221.336 137.485-310.703 212.48C330.562 477.523 147.947 612.423-87.897 719.628" stroke="url(#paint15_linear_2_4699)"/><path d="M1961.88 220.227c-95.05 35.937-195.82 62.126-298.56 60.554-74.85-1.149-142.68-16.49-203.54-37.571-112.67-39.026-201.91-97.957-316.9-134.87-99.56-32.012-215.65-34.63-330.271 10.316-128.378 50.346-221.559 136.44-311.024 211.046C329.006 473.615 147.322 607.046-87.863 712.326" stroke="url(#paint16_linear_2_4699)"/><path d="M1961.2 219.92c-95.81 36.802-197.75 64.263-301.92 63.168-75.1-.782-143.12-16.035-203.95-37.306-112.51-39.323-200.59-99.071-314.8-136.808-98.9-32.666-214.959-35.712-329.896 8.796-128.343 49.695-221.755 135.323-311.307 209.518C327.404 469.713 146.642 601.683-87.848 704.946" stroke="url(#paint17_linear_2_4699)"/><path d="M1960.49 219.728c-96.56 37.659-199.72 66.424-305.34 65.835-75.34-.431-143.56-15.6-204.31-37.025-112.35-39.624-199.27-100.183-312.72-138.747-98.2-33.374-214.254-36.857-329.498 7.18-128.318 49.028-221.963 134.164-311.553 207.936C325.812 465.811 145.892 596.319-87.805 697.503" stroke="url(#paint18_linear_2_4699)"/><path d="M1959.75 219.649c-97.31 38.516-201.74 68.553-308.75 68.491-75.59-.064-144-15.145-204.71-36.747-112.19-39.932-197.95-101.282-310.67-140.656-97.47-34.068-213.516-38-329.089 5.544-128.236 48.303-222.062 132.947-311.824 206.221C324.125 461.878 145.157 590.89-87.828 689.956" stroke="url(#paint19_linear_2_4699)"/><path d="M1959 219.661c-98.07 39.367-203.67 70.725-312.17 71.15-75.84.29-144.45-14.69-205.15-36.443-112.05-40.241-196.64-102.397-308.57-142.619-96.74-34.765-212.786-39.145-328.667 3.891-128.172 47.581-222.312 131.706-312.113 204.52C322.412 457.966 144.334 585.466-87.832 682.344" stroke="url(#paint20_linear_2_4699)"/><path d="M1958.22 219.759c-98.83 40.205-205.64 72.864-315.6 73.802-76.14.625-144.91-14.241-205.52-36.195-111.93-40.557-195.36-103.502-306.52-144.551-95.94-35.462-212.046-40.298-328.266 2.215-128.129 46.874-222.454 130.421-312.325 202.76C320.756 454.036 143.596 579.989-87.798 674.743" stroke="url(#paint21_linear_2_4699)"/><path d="M1957.43 219.923c-99.59 41.038-207.63 74.991-319 76.453-76.34 1.003-145.35-13.778-205.93-35.917-111.84-40.877-194.07-104.6-304.47-146.473-95.23-36.094-211.327-41.436-327.837.518-128.066 46.128-222.606 129.106-312.567 200.961C319.055 450.117 142.784 574.521-87.852 667.073" stroke="url(#paint22_linear_2_4699)"/><path d="M1956.63 220.132c-100.37 41.865-209.61 77.11-322.46 79.125-76.55 1.338-145.73-13.369-206.3-35.663-111.69-41.176-192.78-105.709-302.41-148.401-94.46-36.787-210.576-42.603-327.435-1.176-127.985 45.354-222.781 127.746-312.772 199.107-167.859 133.034-343.29 255.915-573.109 346.244" stroke="url(#paint23_linear_2_4699)"/><path d="M1955.82 220.37c-101.14 42.685-211.6 79.224-325.85 81.762-76.81 1.7-146.24-12.87-206.77-35.352-111.55-41.517-191.49-106.839-300.35-150.349-93.68-37.448-209.814-43.757-326.972-2.87-127.872 44.596-222.883 126.419-313.006 197.265C315.628 442.304 141.153 563.585-87.85 651.669" stroke="url(#paint24_linear_2_4699)"/><path d="M1955.01 220.633c-101.94 43.515-213.59 81.32-329.27 84.402-77.06 2.052-146.68-12.409-207.19-35.061-111.42-41.83-190.22-107.956-298.31-152.272-92.93-38.117-209.08-44.92-326.598-4.6-127.759 43.836-222.996 125.062-313.22 195.407C313.804 438.438 140.244 558.124-87.893 643.962" stroke="url(#paint25_linear_2_4699)"/><path d="M1954.19 220.889c-102.7 44.314-215.55 83.433-332.69 87.058-77.29 2.391-147.12-11.955-207.55-34.82-111.38-42.138-189-109.037-296.3-154.181-92.16-38.78-208.314-46.073-326.171-6.311-127.657 43.073-223.12 123.702-313.435 193.539C312.185 434.448 139.438 552.66-87.906 636.208" stroke="url(#paint26_linear_2_4699)"/><path d="M1953.38 221.135c-102.91 44.887-216.18 85.055-334.11 89.624-77.1 2.996-146.97-10.768-207.28-33.446-113.15-42.542-190.16-111.289-298.16-157.619-90.83-38.957-206.205-46.538-323.504-7.912-126.246 41.564-221.57 120.703-311.039 189.281C312.698 428.765 140.507 546.53-87.939 628.508" stroke="url(#paint27_linear_2_4699)"/><path d="M1952.57 221.355c-103.69 45.684-218.15 87.12-337.47 92.235-77.32 3.326-147.42-10.308-207.71-33.167-113.06-42.862-188.89-112.418-296.11-159.56-90.08-39.614-205.442-47.686-323.047-9.578-126.172 40.848-221.693 119.369-311.29 187.482C311.008 424.911 139.716 541.161-87.91 620.815" stroke="url(#paint28_linear_2_4699)"/><path d="M1951.78 221.52c-104.45 46.511-220.15 89.187-340.91 94.903-77.56 3.671-147.87-9.835-208.13-32.875-112.99-43.186-187.68-113.546-294.05-161.499-89.33-40.274-204.698-48.822-322.674-11.273-126.068 40.123-221.834 118.051-311.472 185.656-165.271 124.604-335.737 239.293-562.49 316.699" stroke="url(#paint29_linear_2_4699)"/><path d="M1950.98 221.632c-105.28 47.284-222.12 91.263-344.29 97.533-77.78 4.001-148.24-9.399-208.56-32.585-112.91-43.522-186.38-114.659-291.97-163.436-88.6-40.922-203.938-49.956-322.281-12.929-125.953 39.416-221.914 116.763-311.702 183.893C307.562 417.193 137.906 530.412-87.958 605.494" stroke="url(#paint30_linear_2_4699)"/><path d="M1950.22 221.672c-105.52 47.829-222.83 92.788-345.68 100.053-80.54 4.755-153.51-9.205-215.17-33.784-110.89-44.219-182.68-115.413-286.88-164.353-87.41-41.096-201.953-50.237-319.645-14.276-127.736 39.032-224.884 117.094-315.939 184.632C303.858 414.881 135.715 525.561-87.93 597.954" stroke="url(#paint31_linear_2_4699)"/><path d="M1949.48 221.609c-106.33 48.615-224.79 94.812-349.05 102.667-80.76 5.116-153.96-8.697-215.6-33.486-110.81-44.563-181.4-116.544-284.79-166.301-86.73-41.735-201.206-51.356-319.252-15.875-127.62 38.35-224.992 115.854-316.196 182.944C302.173 411.05 134.94 520.284-87.999 590.356" stroke="url(#paint32_linear_2_4699)"/><path d="M1948.75 221.438c-106.55 49.182-225.4 96.305-350.4 105.155-80.54 5.705-153.87-7.447-215.4-32.01-110.77-44.211-180.24-116.313-281.26-167.259-86.5-43.61-201.234-55.215-321.907-19.788-129.246 37.92-227.924 116.311-320.358 183.766C298.647 408.577 132.522 515.555-87.934 582.908" stroke="url(#paint33_linear_2_4699)"/><path d="M1948.05 221.155c-107.4 49.951-227.35 98.309-353.74 107.77-80.77 6.047-154.31-6.947-215.83-31.707-110.66-44.578-179-117.44-279.21-169.178-85.81-44.307-200.409-56.356-321.438-21.408-129.148 37.29-228.049 115.149-320.639 182.2-160.135 115.948-325.52 221.55-545.116 286.693" stroke="url(#paint34_linear_2_4699)"/><path d="M1947.38 220.727c-108.22 50.732-229.3 100.311-357.09 110.379-80.97 6.385-154.71-6.477-216.25-31.401-110.6-44.9-177.75-118.561-277.12-171.09-85.1-44.994-199.574-57.48-320.968-22.979-129.078 36.696-228.181 114.046-320.916 180.723C295.463 400.992 130.821 505.256-87.897 568.212" stroke="url(#paint35_linear_2_4699)"/><path d="M1946.75 220.15c-108.47 51.253-229.9 101.721-358.38 112.821-83.94 7.235-159.86-6.142-222.65-32.635-108.42-45.741-174.24-119.146-272.22-171.882-85.47-45.972-202.274-58.138-324.686-22.385-124.911 36.525-221.731 110.521-312.466 175.227C296.331 395.535 131.897 499.704-87.856 561.003" stroke="url(#paint36_linear_2_4699)"/><path d="M1946.14 219.402c-109.28 52.039-231.83 103.708-361.72 115.447-84.15 7.593-160.26-5.592-223.05-32.32-108.3-46.152-172.94-120.314-270.09-173.813-84.77-46.703-201.442-59.27-324.284-23.862-124.93 36-221.907 109.593-312.775 173.98-159.415 112.97-323.18 215.949-542.047 275.068" stroke="url(#paint37_linear_2_4699)"/><path d="M1945.6 218.469c-109.58 52.561-232.44 105.101-362.98 117.826-83.85 8.206-159.97-4.307-222.93-30.758-110.39-46.37-173.89-122.725-271.6-177.424-83.83-46.929-199.297-59.402-321.725-24.925C639.702 138.854 541.514 213.44 449.36 278.302 291.518 389.355 128.845 490.283-87.757 546.881" stroke="url(#paint38_linear_2_4699)"/><path d="M1945.08 217.338c-112.58 54.403-239.85 109.397-374.61 121.113-79.94 6.953-152.14-5.103-212.48-30.084-112.43-46.498-174.92-125.09-272.98-180.968-82.72-47.131-197.379-59.72-319.287-26.065C640.14 135.993 542.197 209.27 450.755 273.25 292.4 384.002 129.922 485.013-87.677 540.001" stroke="url(#paint39_linear_2_4699)"/><path d="M1944.61 215.982c-182.97 89.086-408.78 169.977-590.76 93.945-112.31-46.881-173.63-126.247-270.79-182.969-82.04-47.84-196.501-60.784-318.844-27.355-125.642 34.356-223.759 107.308-315.48 171.073C291.057 380.294 129.194 480.311-87.608 533.252" stroke="url(#paint40_linear_2_4699)"/><path d="M1944.2 214.41c-184.45 90.382-415.69 174.875-598.35 95.234-110-47.962-169.75-127.043-265.72-183.902-81.05-48.014-194.553-60.953-316.431-28.227C636.345 131.74 537.037 205.59 444.014 269.92 287.859 377.904 127.104 476.038-87.52 526.639" stroke="url(#paint41_linear_2_4699)"/><path d="M1943.84 212.585c-182.83 90.206-416.26 178.393-599.53 99.211-109.99-47.523-168.92-126.731-262.32-184.702-80.71-50.101-194.05-64.75-318.619-31.924-126.304 33.292-225.478 106.178-317.729 169.682C288.989 372.69 128.257 471.131-87.398 520.173" stroke="url(#paint42_linear_2_4699)"/><path d="M1943.52 210.5c-182.56 90.66-419.05 182.349-603.11 102.118-109.9-47.896-167.58-127.868-260.11-186.625-80.13-50.822-193.117-65.837-318.216-33.074-126.371 33.083-225.782 105.81-318.259 169.198-156.027 106.95-316.18 204.566-531.105 251.751" stroke="url(#paint43_linear_2_4699)"/><path d="M1943.28 208.137c-184.09 92.017-425.85 187.189-610.47 103.296-107.62-48.908-163.9-128.555-255.15-187.452-80.514-51.952-195.661-66.523-321.955-32.17-125.4 34.098-223.908 106.204-316.426 169.382-154.38 105.488-313.556 201.477-526.42 246.526" stroke="url(#paint44_linear_2_4699)"/><path d="M1943.11 205.486c-182.87 91.978-426.01 190.423-611.57 107.301-109.69-49.14-164.44-131.097-256.25-191.148-36.5-23.888-80.68-44.806-137.079-49.867-58.14-5.19-123.133 1.139-182.47 17.109-127.269 34.267-226.892 107.418-320.786 171.334-152.92 104.096-311.058 198.526-521.906 241.551" stroke="url(#paint45_linear_2_4699)"/><path d="M1942.99 202.53c-182.48 92.363-428.89 194.363-615.07 110.198-109.57-49.527-163.11-132.3-254-193.055-36.11-24.186-79.914-45.464-136.281-50.737-58.1-5.436-123.507 1.081-182.889 17.05-127.505 34.306-227.244 107.382-321.426 171.358-152.25 103.403-309.828 197.28-520.105 238.608" stroke="url(#paint46_linear_2_4699)"/><path d="M1942.95 199.247c-181.28 92.274-429.13 197.407-616.22 114.179-111.57-49.63-164.08-134.686-254.93-196.728-35.51-24.252-78.792-45.565-134.639-51.064-57.439-5.646-123.389 1.084-182.189 16.841-126.659 33.926-226.08 106.06-319.754 169.585-152.709 103.573-310.415 198.246-521.83 238.321" stroke="url(#paint47_linear_2_4699)"/><path d="M1942.99 195.624c-182.19 93.318-436.17 202.688-623.4 115.468-107.3-49.982-158.72-132.734-245.52-194.715-35.79-25.553-79.66-48.44-137.365-54.232-57.302-5.738-122.683 1.048-181.389 16.656-128.58 34.171-229.205 107.753-324.205 172.067C279.9 353.288 123.233 446.695-86.411 484.998" stroke="url(#paint48_linear_2_4699)"/><path d="M1943.1 191.65c-181.7 93.604-439.07 206.685-626.82 118.384-107.14-50.384-157.33-133.935-243.15-196.655-35.37-25.834-78.853-49.113-136.511-55.12-57.254-5.979-123.162 1.158-181.871 16.834-128.88 34.423-229.74 108.177-324.993 172.704C279.212 349.769 122.979 442.988-86.161 479.809" stroke="url(#paint49_linear_2_4699)"/><path d="M1943.29 187.307c-179.96 93.247-439.72 210.022-627.98 122.355-108.99-50.756-157.96-136.413-243.96-200.388-34.72-25.838-77.764-49.13-134.845-55.372-56.726-6.188-123.043 1.4-181.234 16.874-128.061 34.036-228.932 107.44-323.466 171.581C280.96 344.745 124.504 439.117-85.903 474.858" stroke="url(#paint50_linear_2_4699)"/><path d="M1943.57 182.634c-179.93 92.988-439.33 209.308-627.54 122.2-109.05-50.488-158.27-135.882-244.24-199.725-34.82-25.868-77.925-49.2-134.92-55.664-56.527-6.37-123.417 1.977-181.331 17.554-128.043 34.458-229.003 107.547-323.91 171.661-150.877 101.887-307.34 195.828-517.164 231.444" stroke="url(#paint51_linear_2_4699)"/><path d="M1943.97 177.944c-181.5 92.804-437.82 204.756-625.66 118.207-107.36-49.464-158.4-132.203-244.04-194.367-35.66-25.897-79.268-49.232-136.847-55.762-56.725-6.471-124.238 2.766-182.168 18.714-128.604 35.388-229.918 108.114-326.316 172.4C278.241 337.575 121.986 429.144-85.345 465.377" stroke="url(#paint52_linear_2_4699)"/><path d="M1944.46 173.276c-180.34 91.291-429.84 198.46-617.84 117.278-111.79-48.272-164.62-132.62-254.12-194.351-35.62-24.565-78.758-46.228-134.395-52.76-56.576-6.653-125.483 3.643-183.181 19.769C628.541 98.57 528.081 168.98 432.244 232.017 279.949 332.224 122.682 423.462-85.067 460.653" stroke="url(#paint53_linear_2_4699)"/><path d="M1945.05 168.65c-181.07 90.782-428.59 194.758-616.06 114.154-109.95-47.279-164.4-128.49-253.85-188.36-36.49-24.424-80.213-45.917-136.312-52.483-57.027-6.67-126.109 4.342-184.032 20.696C628.018 98.403 526.779 168.542 429.62 231.413 277.465 329.881 120.332 418.51-84.799 455.924" stroke="url(#paint54_linear_2_4699)"/><path d="M1945.74 164.045c-181.67 90.269-427.32 191.175-614.33 111.457-108.02-46.054-164.64-124.023-253.55-182.01-37.23-24.288-81.762-45.532-138.138-52.189-57.041-6.735-127.127 5.145-185.068 21.539-124.463 35.284-225.02 103.102-321.506 164.429-154.013 97.903-312.329 185.873-517.687 223.942" stroke="url(#paint55_linear_2_4699)"/><path d="M1946.49 159.473c-181.29 89.347-423.23 187-610.2 110.18-108.31-44.498-166.85-120.674-256.58-177.058-37.91-23.816-82.924-44.438-139.224-51.024-56.923-6.623-127.103 5.665-184.819 21.96-123.813 34.952-224.639 101.352-321.692 161.803-155.028 96.585-314.042 182.847-518.176 221.082" stroke="url(#paint56_linear_2_4699)"/><path d="M1947.33 154.939c-179.17 87.592-415.3 182.027-602.36 110.762-110.55-42.171-171.44-117.498-262.31-172.704-38.75-23.545-84.508-43.82-141.207-50.233-55.57-6.29-123.09 5.47-179.529 20.745-124.197 33.638-226.365 98.927-324.327 158.619C280.541 317.833 120.333 403.11-83.994 441.742" stroke="url(#paint57_linear_2_4699)"/><path d="M1948.23 150.437c-179.75 87.241-413.4 178.844-600.68 109.212-110.81-41.197-173.3-115.157-266.55-168.32-38.61-21.998-83.718-40.59-138.433-46.679-55.673-6.206-124.054 6.025-180.532 21.307-124.581 33.71-227.493 98.019-327.039 157.187-157.045 93.349-317.256 175.6-518.68 213.859" stroke="url(#paint58_linear_2_4699)"/><path d="M1949.18 145.971c-179.02 86.276-409.18 175.321-596.55 108.932-111.01-39.344-175.57-111.15-269.61-162.408-39.26-21.412-84.852-39.32-139.47-45.163-55.657-5.95-123.824 6.32-180.374 21.414-123.84 33.063-227.12 95.66-327.272 153.638-158.208 91.583-319.198 171.804-519.33 209.881" stroke="url(#paint59_linear_2_4699)"/><path d="M1950.19 141.538c-176.93 84.716-401.01 170.783-588.43 110.215-113.23-36.596-180.4-107.14-275.63-156.935-40.15-20.998-86.417-38.457-141.427-44.017-56.11-5.683-124.504 6.612-181.291 21.585-121.499 32.081-224.12 91.977-323.647 147.974C279.38 310.591 117.074 389.474-83.098 427.52" stroke="url(#paint60_linear_2_4699)"/><path d="M1951.23 137.138c-176.03 83.8-396.77 167.652-584.28 110.445-113.35-34.552-182.65-102.736-278.67-150.476-40.88-20.31-87.57-36.977-142.478-42.23-56.209-5.372-124.259 6.818-181.123 21.507C643.921 107.65 540.892 165.7 440.739 220.33c-161.598 88.157-324.725 164.801-523.55 202.429" stroke="url(#paint61_linear_2_4699)"/><path d="M1952.3 132.779c-176.16 83.404-394.66 165.276-582.62 110.215-111.64-32.707-182.48-97.302-278.08-142.549-41.8-19.78-89.26-35.863-144.423-40.877-56.524-5.15-125.016 7.16-182.258 21.722-121.047 30.79-225.104 87.621-326.781 141.27-161.68 85.271-324.785 158.652-520.711 195.513" stroke="url(#paint62_linear_2_4699)"/><path d="M1953.39 128.465c-174.84 82.367-390.65 162.631-578.47 110.986-111.62-30.694-184.68-92.614-281.09-135.726-42.5-18.989-90.42-34.237-145.487-38.864-56.66-4.772-124.677 7.266-182.081 21.482-120.267 29.804-224.801 84.637-327.096 136.733-162.86 82.916-326.938 154.035-521.45 190.26" stroke="url(#paint63_linear_2_4699)"/><path d="M1954.5 124.182c-174.84 81.985-388.42 160.475-576.87 111.329-109.88-28.653-184.51-86.961-280.39-127.521-43.47-18.384-92.07-32.994-147.518-37.215-57.313-4.372-125.094 7.275-183.157 21.355-117.949 28.597-221.738 80.484-323.436 130.325C277.924 303.42 112.435 372.79-81.969 408.624" stroke="url(#paint64_linear_2_4699)"/><path d="M1955.63 119.933c-173.73 81.129-384.09 157.919-572.68 112.597-109.98-26.433-186.81-82.081-283.31-120.377-44.22-17.519-93.23-31.226-148.575-35.007-57.505-3.938-124.74 7.306-183.039 20.958-117.238 27.473-221.479 77.29-323.823 125.447-166.462 78.337-332.856 145.24-525.943 180.32" stroke="url(#paint65_linear_2_4699)"/><path d="M1956.77 115.718c-172.54 80.29-379.77 155.473-568.47 114.049-110.07-24.163-188.97-77.115-286.33-113.108-44.93-16.612-94.38-29.406-149.609-32.733-57.714-3.477-124.308 7.276-182.842 20.535-116.528 26.325-221.224 74.012-324.18 120.406-167.737 75.583-335.069 139.991-526.8 174.276" stroke="url(#paint66_linear_2_4699)"/><path d="M1957.85 111.57c-169.77 78.715-372.23 152.281-560.16 116.495-111.74-21.301-193.36-72.057-292.16-106.109-45.91-15.838-96.13-27.87-151.635-30.813-56.28-2.976-120.308 6.848-177.525 18.917-119.195 25.154-227.294 72.186-333.7 117.987C275.083 300.126 107.692 361.22-81.173 394.405" stroke="url(#paint67_linear_2_4699)"/><path d="M1958.95 107.444c-168.65 77.977-368.05 150.089-555.9 118.181-111.73-18.997-195.54-66.813-295.08-98.503-46.63-14.849-97.27-25.934-152.681-28.373-56.517-2.492-119.948 6.81-177.383 18.411-118.408 23.958-227.054 68.663-334.065 112.49-168.855 69.114-337.143 127.708-524.768 160.035" stroke="url(#paint68_linear_2_4699)"/><path d="M1960.03 103.368c-167.51 77.23-363.86 147.967-551.58 120.017-111.76-16.638-197.69-61.486-297.97-90.777-102.21-29.852-209.678-31.382-330.964-8.017-117.755 22.689-226.838 65.071-334.544 106.919C275.009 297.494 105.78 353.521-80.627 384.942" stroke="url(#paint69_linear_2_4699)"/><path d="M1961.06 99.334c-166.36 76.517-359.78 145.886-547.31 121.909-111.77-14.275-199.82-56.086-300.86-82.959-103.2-27.445-211.537-28.081-331.854-6.054-117.062 21.427-226.636 61.424-334.914 101.183-171.082 62.826-341.222 116.3-526.472 146.8" stroke="url(#paint70_linear_2_4699)"/><path d="M1962.04 95.338c-166.27 76.269-357.61 144.457-545.7 123.604-112.14-12.417-202.62-51.623-305.4-75.797-103.06-24.24-211.726-23.309-329.319-2.873-115.027 20.018-223.733 56.959-331.342 94.141C277.063 294.34 105.251 345.72-80.071 375.472" stroke="url(#paint71_linear_2_4699)"/><path d="M1962.96 91.385c-165.06 75.598-353.59 142.556-541.29 125.766-112.16-10.03-204.76-46.058-308.21-67.764-214.761-45.147-444.584 16.817-662.017 87.306-174.204 56.474-346.92 105.232-531.236 134.054" stroke="url(#paint72_linear_2_4699)"/><path d="M1963.88 87.483c-163.96 74.931-349.73 140.704-536.94 127.955-112.22-7.618-206.91-40.416-311.11-59.737-215.005-39.879-444.752 17.243-663.203 83.315-175.144 52.97-348.792 99.142-532.144 127.002" stroke="url(#paint73_linear_2_4699)"/><path d="M1964.71 83.624c-162.85 74.286-345.86 138.942-532.54 130.18-112.22-5.275-208.98-34.75-313.96-51.674-215.193-34.657-445.118 17.708-664.374 79.247-176.017 49.426-350.567 92.989-533.083 119.912" stroke="url(#paint74_linear_2_4699)"/><path d="M1965.45 79.815c-160.24 72.957-339.27 136.33-523.69 132.487-113.57-2.361-213.24-28.707-319.82-43.446-214.788-29.696-444.386 17.348-663.888 74.171-177.781 46.02-354.219 87.39-537 113.537" stroke="url(#paint75_linear_2_4699)"/><path d="M1966.12 76.052c-159.17 72.328-335.68 134.655-519.19 134.623-113.62-.02-215.19-22.967-322.57-35.293-215.065-24.666-445.129 17.965-665.112 70.141-178.493 42.337-355.764 81.083-537.927 106.311" stroke="url(#paint76_linear_2_4699)"/><path d="M1966.69 72.33c-158.1 71.702-332.17 133.05-514.66 136.743-113.69 2.302-217.15-17.254-325.29-27.163-215.4-19.737-445.895 18.567-666.308 66.109-179.114 38.635-357.169 74.756-538.832 99.094" stroke="url(#paint77_linear_2_4699)"/><path d="M1967.17 68.665c-157.02 71.073-328.79 131.479-510.08 138.823-113.76 4.603-218.99-11.53-327.97-19.076-215.853-14.909-446.71 19.183-667.494 62.082-179.677 34.913-358.455 68.412-539.747 91.885" stroke="url(#paint78_linear_2_4699)"/><path d="M1967.55 65.053c-155.97 70.425-325.47 129.95-505.47 140.84-113.88 6.882-220.86-5.875-330.61-11.07-216.509-10.165-447.492 19.812-668.653 58.101-180.141 31.189-359.577 62.119-540.658 84.737" stroke="url(#paint79_linear_2_4699)"/><path d="M1967.86 61.481c-155.82 70.118-324.19 129.057-503.69 142.994-112.49 8.756-219.85-.409-329.05-3.279-111.28-2.897-227.288 4.551-341.111 13.649-111.295 8.89-222.647 24.059-333.865 41.02-179.24 27.329-358.065 55.37-537.707 77.076" stroke="url(#paint80_linear_2_4699)"/><path d="M1967.94 57.962c-154.68 69.438-321.03 127.617-498.92 144.882-112.76 10.944-221.54 5.089-331.61 4.519-112.12-.579-227.966 7.523-341.811 15.436-111.264 7.74-222.832 20.58-334.283 35.251-179.567 23.692-358.928 49.209-538.62 70.177" stroke="url(#paint81_linear_2_4699)"/><path d="M1967.94 54.494c-153.6 68.713-318.03 126.206-494.17 146.656-113.01 13.117-223.18 10.533-334.12 12.197-113.03 1.731-228.467 10.442-342.461 17.218-111.312 6.613-222.977 17.096-334.714 29.571-179.822 20.088-359.646 43.101-539.477 63.363" stroke="url(#paint82_linear_2_4699)"/><path d="M1967.82 51.073c-152.55 67.959-315.14 124.828-489.4 148.29-113.28 15.255-224.75 15.904-336.6 19.78-54.51 1.886-109.21 4.728-164.132 9.98-59.798 5.705-119.4 6.047-178.905 8.995-111.408 5.524-223.115 13.52-335.12 23.987-180.045 16.51-360.28 37.068-540.386 56.678" stroke="url(#paint83_linear_2_4699)"/><path d="M1967.55 47.702c-152.42 67.57-314.04 124.024-487.44 150.21-112.11 16.908-223.41 20.774-334.7 26.683-55.25 2.945-110.63 6.591-166.171 12.306-60.145 6.185-120.323 6.098-180.071 8.494-110.162 4.445-220.574 10.292-331.289 18.288-181.141 13.042-362.769 31.266-544.32 50.39" stroke="url(#paint84_linear_2_4699)"/><path d="M1967.09 44.407c-151.35 66.715-311.26 122.65-482.54 151.555-112.5 18.982-224.84 25.866-337.07 33.891-55.55 3.991-111.22 8.405-166.94 14.546-60.045 6.62-120.386 6.126-179.858 7.947-110.374 3.422-220.749 7.127-331.636 12.992-181.231 9.644-363.127 25.454-545.217 44.02" stroke="url(#paint85_linear_2_4699)"/><path d="M1966.5 41.156c-150.31 65.789-308.55 121.272-477.62 152.71-112.86 20.993-226.22 30.846-339.37 40.923-55.87 4.973-111.77 10.153-167.757 16.694-59.917 7.009-120.429 6.163-179.671 7.473-110.601 2.462-221.049 4.022-332 7.876-181.177 6.312-363.279 19.725-545.993 37.8" stroke="url(#paint86_linear_2_4699)"/><path d="M1965.73 37.951c-149.21 64.827-305.85 119.861-472.61 153.653-113.26 22.944-227.56 35.703-341.65 47.771-56.14 5.935-112.31 11.831-168.397 18.811-59.851 7.381-120.52 6.226-179.492 7.029-110.898 1.507-221.34 1.053-332.365 2.917-181.178 3.048-363.432 14.137-546.815 31.808" stroke="url(#paint87_linear_2_4699)"/><path d="M1964.78 34.812c-146.72 63.162-300.32 117.459-462.97 153.368-114.69 25.32-230.89 41.074-346.93 55.221-56.81 6.917-113.63 13.575-170.435 20.947-60.222 7.803-121.407 6.351-180.547 6.698-112.257.658-223.558-1.86-335.617-1.857-179.449.077-361.16 8.783-543.61 26.043" stroke="url(#paint88_linear_2_4699)"/><path d="M1963.65 31.723c-145.67 62.033-297.67 115.918-457.85 153.745-115.13 27.167-232.19 45.653-349.12 61.688-57.02 7.814-114.08 15.141-171.114 22.846-60.1 8.106-121.425 6.471-180.319 6.384-112.654-.153-223.865-4.623-335.978-6.472-179.111-3.093-361.222 3.802-544.304 20.608" stroke="url(#paint89_linear_2_4699)"/><path d="M1962.31 28.696c-144.62 60.824-294.96 114.326-452.62 153.866-115.61 28.97-233.29 50.086-351.22 67.932-57.23 8.656-114.56 16.618-171.832 24.615-60.009 8.383-121.398 6.634-180.065 6.152-113.059-.921-224.175-7.269-336.279-10.917-179.454-5.843-360.528-1.23-545.048 15.482" stroke="url(#paint90_linear_2_4699)"/><path d="M1960.78 25.726c-176.83 73.292-361.08 135.9-554.53 179.996-74.13 16.899-148.96 31.225-223.99 43.894-72.84 12.309-149.8 27.477-222.889 34.045-72.702 6.508-148.578 2.67-219.088.298-72.265-2.439-143.718-6.888-215.403-10.732-197.047-10.585-394.754-10.407-599.371 7.894" stroke="url(#paint91_linear_2_4699)"/><path d="M1959.03 22.815c-176.08 71.743-358.7 134.686-549.58 181.158-74.49 18.115-149.84 33.862-225.48 47.65-72.86 13.279-150.3 29.197-223.631 35.973-72.695 6.71-148.642 2.648-218.759-.363-72.473-3.08-143.919-8.546-215.606-13.423-196.966-13.372-394.323-15.68-600.171 2.622" stroke="url(#paint92_linear_2_4699)"/><path d="M1957.08 19.958c-176.59 70.532-358.67 134.129-548.24 182.849a3802.676 3802.676 0 01-228.51 51.307c-71.48 13.824-147.02 29.469-219.123 36.354-145.655 13.865-293.398-4.829-430.682-16.105-197.969-16.215-396.043-21.104-604.43-2.629" stroke="url(#paint93_linear_2_4699)"/><path d="M1954.87 17.165c-175.97 68.663-356.15 132.595-543.11 183.212a3784.142 3784.142 0 01-229.93 54.689c-71.61 14.69-147.35 30.812-219.76 37.883-146.251 14.288-293.833-5.756-430.558-18.711-197.782-18.738-395.422-25.91-605.113-7.17" stroke="url(#paint94_linear_2_4699)"/><path d="M1952.45 14.432c-176.72 67.117-356.06 131.703-541.71 184.19-72.11 20.381-145.01 38.848-218.65 54.89-74.24 16.163-153.77 33.926-229.23 41.44-145.369 14.496-291.855-6.506-426.774-20.878-198.852-21.232-397.058-30.846-609.424-11.722" stroke="url(#paint95_linear_2_4699)"/><path d="M1949.78 11.765c-176.34 64.857-353.33 129.758-536.44 183.646-72.38 21.449-145.79 40.715-219.93 57.722-74.43 16.952-154.01 34.901-229.842 42.658-146.094 14.931-291.992-6.836-426.54-22.698-198.689-23.377-396.447-35.053-610.09-15.416" stroke="url(#paint96_linear_2_4699)"/><path d="M1946.85 9.163c-176 62.34-350.58 127.507-531.06 182.586-142.95 43.616-300.95 88.209-451.607 103.992-146.907 15.385-291.891-6.915-426.295-24.076-198.495-25.353-395.784-38.915-610.657-18.673" stroke="url(#paint97_linear_2_4699)"/><path d="M1943.64 6.626c-171.93 58.243-340.35 122.165-514.17 177.388-147.32 46.803-308.41 93.688-464.769 110.566-149.217 16.055-293.838-6.78-429.575-25.358-197.038-26.953-393.024-41.724-607.607-20.907" stroke="url(#paint98_linear_2_4699)"/><path d="M1940.21 4.132c-171.59 55.122-337.43 119.281-508.56 175.108-148.14 48.327-308.54 95.982-466.453 113.416-150.145 16.562-293.48-6.292-429.248-25.928-196.948-28.526-392.431-44.824-608.154-23.09" stroke="url(#paint99_linear_2_4699)"/><path d="M1936.49 1.714c-172.47 51.945-336.98 117.042-506.76 173.531-147.6 49.167-306.21 96.864-464.165 114.606-152.402 17.113-295.351-5.934-432.558-26.75-195.347-29.634-389.772-46.745-604.927-24.129" stroke="url(#paint100_linear_2_4699)"/><path d="M1932.47-.636c-322.67 89.862-624.35 247.146-966.586 286.44-153.528 17.66-294.373-4.654-432.188-26.355-195.248-30.74-389.263-48.97-605.318-25.151" stroke="url(#paint101_linear_2_4699)"/></g><defs><linearGradient id="paint0_linear_2_4699" x1="-89.931" y1="812.34" x2="518.595" y2="1512.89" gradientUnits="userSpaceOnUse"><stop stop-color="#3F34EC"/><stop offset="1" stop-color="#13D8D4"/></linearGradient><linearGradient id="paint1_linear_2_4699" x1="-89.673" y1="807.471" x2="519.082" y2="1508.24" gradientUnits="userSpaceOnUse"><stop stop-color="#3F34EC"/><stop offset="1" stop-color="#13D8D4"/></linearGradient><linearGradient id="paint2_linear_2_4699" x1="-89.424" y1="802.371" x2="519.92" y2="1503.71" gradientUnits="userSpaceOnUse"><stop stop-color="#3F34EC"/><stop offset="1" stop-color="#13D8D4"/></linearGradient><linearGradient id="paint3_linear_2_4699" x1="-89.246" y1="797.041" x2="521.07" y2="1499.33" gradientUnits="userSpaceOnUse"><stop stop-color="#3F34EC"/><stop offset="1" stop-color="#13D8D4"/></linearGradient><linearGradient id="paint4_linear_2_4699" x1="-89.008" y1="791.537" x2="522.563" y2="1495.04" gradientUnits="userSpaceOnUse"><stop stop-color="#3F34EC"/><stop offset="1" stop-color="#13D8D4"/></linearGradient><linearGradient id="paint5_linear_2_4699" x1="-88.862" y1="785.841" x2="524.306" y2="1490.89" gradientUnits="userSpaceOnUse"><stop stop-color="#3F34EC"/><stop offset="1" stop-color="#13D8D4"/></linearGradient><linearGradient id="paint6_linear_2_4699" x1="-88.665" y1="779.895" x2="526.417" y2="1486.79" gradientUnits="userSpaceOnUse"><stop stop-color="#3F34EC"/><stop offset="1" stop-color="#13D8D4"/></linearGradient><linearGradient id="paint7_linear_2_4699" x1="-88.49" y1="773.777" x2="528.794" y2="1482.8" gradientUnits="userSpaceOnUse"><stop stop-color="#3F34EC"/><stop offset="1" stop-color="#13D8D4"/></linearGradient><linearGradient id="paint8_linear_2_4699" x1="-88.335" y1="767.486" x2="531.442" y2="1478.91" gradientUnits="userSpaceOnUse"><stop stop-color="#3F34EC"/><stop offset="1" stop-color="#13D8D4"/></linearGradient><linearGradient id="paint9_linear_2_4699" x1="-88.249" y1="761.102" x2="534.255" y2="1475.15" gradientUnits="userSpaceOnUse"><stop stop-color="#3F34EC"/><stop offset="1" stop-color="#13D8D4"/></linearGradient><linearGradient id="paint10_linear_2_4699" x1="-88.183" y1="754.508" x2="537.349" y2="1471.46" gradientUnits="userSpaceOnUse"><stop stop-color="#3F34EC"/><stop offset="1" stop-color="#13D8D4"/></linearGradient><linearGradient id="paint11_linear_2_4699" x1="-88.078" y1="747.76" x2="540.703" y2="1467.81" gradientUnits="userSpaceOnUse"><stop stop-color="#3F34EC"/><stop offset="1" stop-color="#13D8D4"/></linearGradient><linearGradient id="paint12_linear_2_4699" x1="-88.033" y1="740.921" x2="544.209" y2="1464.27" gradientUnits="userSpaceOnUse"><stop stop-color="#3F34EC"/><stop offset="1" stop-color="#13D8D4"/></linearGradient><linearGradient id="paint13_linear_2_4699" x1="-87.957" y1="733.935" x2="547.964" y2="1460.78" gradientUnits="userSpaceOnUse"><stop stop-color="#3F34EC"/><stop offset="1" stop-color="#13D8D4"/></linearGradient><linearGradient id="paint14_linear_2_4699" x1="-87.922" y1="726.833" x2="551.901" y2="1457.36" gradientUnits="userSpaceOnUse"><stop stop-color="#3F34EC"/><stop offset="1" stop-color="#13D8D4"/></linearGradient><linearGradient id="paint15_linear_2_4699" x1="-87.897" y1="719.628" x2="555.963" y2="1453.96" gradientUnits="userSpaceOnUse"><stop stop-color="#3F34EC"/><stop offset="1" stop-color="#13D8D4"/></linearGradient><linearGradient id="paint16_linear_2_4699" x1="-87.863" y1="712.326" x2="560.22" y2="1450.62" gradientUnits="userSpaceOnUse"><stop stop-color="#3F34EC"/><stop offset="1" stop-color="#13D8D4"/></linearGradient><linearGradient id="paint17_linear_2_4699" x1="-87.848" y1="704.946" x2="564.62" y2="1447.34" gradientUnits="userSpaceOnUse"><stop stop-color="#3F34EC"/><stop offset="1" stop-color="#13D8D4"/></linearGradient><linearGradient id="paint18_linear_2_4699" x1="-87.805" y1="697.503" x2="569.155" y2="1444.07" gradientUnits="userSpaceOnUse"><stop stop-color="#3F34EC"/><stop offset="1" stop-color="#13D8D4"/></linearGradient><linearGradient id="paint19_linear_2_4699" x1="-87.828" y1="689.956" x2="573.802" y2="1440.85" gradientUnits="userSpaceOnUse"><stop stop-color="#3F34EC"/><stop offset="1" stop-color="#13D8D4"/></linearGradient><linearGradient id="paint20_linear_2_4699" x1="-87.832" y1="682.344" x2="578.576" y2="1437.64" gradientUnits="userSpaceOnUse"><stop stop-color="#3F34EC"/><stop offset="1" stop-color="#13D8D4"/></linearGradient><linearGradient id="paint21_linear_2_4699" x1="-87.798" y1="674.743" x2="583.423" y2="1434.44" gradientUnits="userSpaceOnUse"><stop stop-color="#3F34EC"/><stop offset="1" stop-color="#13D8D4"/></linearGradient><linearGradient id="paint22_linear_2_4699" x1="-87.852" y1="667.073" x2="588.329" y2="1431.3" gradientUnits="userSpaceOnUse"><stop stop-color="#3F34EC"/><stop offset="1" stop-color="#13D8D4"/></linearGradient><linearGradient id="paint23_linear_2_4699" x1="-87.856" y1="659.368" x2="593.33" y2="1428.13" gradientUnits="userSpaceOnUse"><stop stop-color="#3F34EC"/><stop offset="1" stop-color="#13D8D4"/></linearGradient><linearGradient id="paint24_linear_2_4699" x1="-87.85" y1="651.669" x2="598.367" y2="1424.96" gradientUnits="userSpaceOnUse"><stop stop-color="#3F34EC"/><stop offset="1" stop-color="#13D8D4"/></linearGradient><linearGradient id="paint25_linear_2_4699" x1="-87.893" y1="643.962" x2="603.421" y2="1421.83" gradientUnits="userSpaceOnUse"><stop stop-color="#3F34EC"/><stop offset="1" stop-color="#13D8D4"/></linearGradient><linearGradient id="paint26_linear_2_4699" x1="-87.906" y1="636.208" x2="608.534" y2="1418.65" gradientUnits="userSpaceOnUse"><stop stop-color="#3F34EC"/><stop offset="1" stop-color="#13D8D4"/></linearGradient><linearGradient id="paint27_linear_2_4699" x1="-87.939" y1="628.508" x2="613.619" y2="1415.48" gradientUnits="userSpaceOnUse"><stop stop-color="#3F34EC"/><stop offset="1" stop-color="#13D8D4"/></linearGradient><linearGradient id="paint28_linear_2_4699" x1="-87.91" y1="620.815" x2="618.734" y2="1412.27" gradientUnits="userSpaceOnUse"><stop stop-color="#3F34EC"/><stop offset="1" stop-color="#13D8D4"/></linearGradient><linearGradient id="paint29_linear_2_4699" x1="-87.945" y1="613.131" x2="623.801" y2="1409.05" gradientUnits="userSpaceOnUse"><stop stop-color="#3F34EC"/><stop offset="1" stop-color="#13D8D4"/></linearGradient><linearGradient id="paint30_linear_2_4699" x1="-87.958" y1="605.494" x2="628.832" y2="1405.8" gradientUnits="userSpaceOnUse"><stop stop-color="#3F34EC"/><stop offset="1" stop-color="#13D8D4"/></linearGradient><linearGradient id="paint31_linear_2_4699" x1="-87.93" y1="597.954" x2="633.8" y2="1402.54" gradientUnits="userSpaceOnUse"><stop stop-color="#3F34EC"/><stop offset="1" stop-color="#13D8D4"/></linearGradient><linearGradient id="paint32_linear_2_4699" x1="-87.999" y1="590.356" x2="638.718" y2="1399.23" gradientUnits="userSpaceOnUse"><stop stop-color="#3F34EC"/><stop offset="1" stop-color="#13D8D4"/></linearGradient><linearGradient id="paint33_linear_2_4699" x1="-87.934" y1="582.908" x2="643.55" y2="1395.85" gradientUnits="userSpaceOnUse"><stop stop-color="#3F34EC"/><stop offset="1" stop-color="#13D8D4"/></linearGradient><linearGradient id="paint34_linear_2_4699" x1="-87.923" y1="575.525" x2="648.261" y2="1392.46" gradientUnits="userSpaceOnUse"><stop stop-color="#3F34EC"/><stop offset="1" stop-color="#13D8D4"/></linearGradient><linearGradient id="paint35_linear_2_4699" x1="-87.897" y1="568.212" x2="652.862" y2="1389.01" gradientUnits="userSpaceOnUse"><stop stop-color="#3F34EC"/><stop offset="1" stop-color="#13D8D4"/></linearGradient><linearGradient id="paint36_linear_2_4699" x1="-87.856" y1="561.003" x2="657.323" y2="1385.51" gradientUnits="userSpaceOnUse"><stop stop-color="#3F34EC"/><stop offset="1" stop-color="#13D8D4"/></linearGradient><linearGradient id="paint37_linear_2_4699" x1="-87.826" y1="553.902" x2="661.608" y2="1381.97" gradientUnits="userSpaceOnUse"><stop stop-color="#3F34EC"/><stop offset="1" stop-color="#13D8D4"/></linearGradient><linearGradient id="paint38_linear_2_4699" x1="-87.757" y1="546.881" x2="665.768" y2="1378.34" gradientUnits="userSpaceOnUse"><stop stop-color="#3F34EC"/><stop offset="1" stop-color="#13D8D4"/></linearGradient><linearGradient id="paint39_linear_2_4699" x1="-87.677" y1="540.001" x2="669.716" y2="1374.65" gradientUnits="userSpaceOnUse"><stop stop-color="#3F34EC"/><stop offset="1" stop-color="#13D8D4"/></linearGradient><linearGradient id="paint40_linear_2_4699" x1="-87.608" y1="533.252" x2="673.437" y2="1370.9" gradientUnits="userSpaceOnUse"><stop stop-color="#3F34EC"/><stop offset="1" stop-color="#13D8D4"/></linearGradient><linearGradient id="paint41_linear_2_4699" x1="-87.52" y1="526.639" x2="676.951" y2="1367.09" gradientUnits="userSpaceOnUse"><stop stop-color="#3F34EC"/><stop offset="1" stop-color="#13D8D4"/></linearGradient><linearGradient id="paint42_linear_2_4699" x1="-87.398" y1="520.173" x2="680.228" y2="1363.19" gradientUnits="userSpaceOnUse"><stop stop-color="#3F34EC"/><stop offset="1" stop-color="#13D8D4"/></linearGradient><linearGradient id="paint43_linear_2_4699" x1="-87.28" y1="513.868" x2="683.225" y2="1359.22" gradientUnits="userSpaceOnUse"><stop stop-color="#3F34EC"/><stop offset="1" stop-color="#13D8D4"/></linearGradient><linearGradient id="paint44_linear_2_4699" x1="-87.141" y1="507.719" x2="685.957" y2="1355.16" gradientUnits="userSpaceOnUse"><stop stop-color="#3F34EC"/><stop offset="1" stop-color="#13D8D4"/></linearGradient><linearGradient id="paint45_linear_2_4699" x1="-86.951" y1="501.766" x2="688.397" y2="1351.01" gradientUnits="userSpaceOnUse"><stop stop-color="#3F34EC"/><stop offset="1" stop-color="#13D8D4"/></linearGradient><linearGradient id="paint46_linear_2_4699" x1="-86.781" y1="495.952" x2="690.534" y2="1346.78" gradientUnits="userSpaceOnUse"><stop stop-color="#3F34EC"/><stop offset="1" stop-color="#13D8D4"/></linearGradient><linearGradient id="paint47_linear_2_4699" x1="-86.611" y1="490.381" x2="692.286" y2="1342.47" gradientUnits="userSpaceOnUse"><stop stop-color="#3F34EC"/><stop offset="1" stop-color="#13D8D4"/></linearGradient><linearGradient id="paint48_linear_2_4699" x1="-86.411" y1="484.998" x2="693.711" y2="1338.07" gradientUnits="userSpaceOnUse"><stop stop-color="#3F34EC"/><stop offset="1" stop-color="#13D8D4"/></linearGradient><linearGradient id="paint49_linear_2_4699" x1="-86.161" y1="479.809" x2="694.792" y2="1333.54" gradientUnits="userSpaceOnUse"><stop stop-color="#3F34EC"/><stop offset="1" stop-color="#13D8D4"/></linearGradient><linearGradient id="paint50_linear_2_4699" x1="-85.903" y1="474.858" x2="695.466" y2="1328.92" gradientUnits="userSpaceOnUse"><stop stop-color="#3F34EC"/><stop offset="1" stop-color="#13D8D4"/></linearGradient><linearGradient id="paint51_linear_2_4699" x1="-85.535" y1="470.104" x2="695.85" y2="1324.17" gradientUnits="userSpaceOnUse"><stop stop-color="#3F34EC"/><stop offset="1" stop-color="#13D8D4"/></linearGradient><linearGradient id="paint52_linear_2_4699" x1="-85.345" y1="465.377" x2="696.171" y2="1319.57" gradientUnits="userSpaceOnUse"><stop stop-color="#3F34EC"/><stop offset="1" stop-color="#13D8D4"/></linearGradient><linearGradient id="paint53_linear_2_4699" x1="-85.067" y1="460.653" x2="696.597" y2="1314.99" gradientUnits="userSpaceOnUse"><stop stop-color="#3F34EC"/><stop offset="1" stop-color="#13D8D4"/></linearGradient><linearGradient id="paint54_linear_2_4699" x1="-84.799" y1="455.924" x2="697.097" y2="1310.49" gradientUnits="userSpaceOnUse"><stop stop-color="#3F34EC"/><stop offset="1" stop-color="#13D8D4"/></linearGradient><linearGradient id="paint55_linear_2_4699" x1="-84.539" y1="451.213" x2="697.645" y2="1306.06" gradientUnits="userSpaceOnUse"><stop stop-color="#3F34EC"/><stop offset="1" stop-color="#13D8D4"/></linearGradient><linearGradient id="paint56_linear_2_4699" x1="-84.201" y1="446.416" x2="698.354" y2="1301.6" gradientUnits="userSpaceOnUse"><stop stop-color="#3F34EC"/><stop offset="1" stop-color="#13D8D4"/></linearGradient><linearGradient id="paint57_linear_2_4699" x1="-83.994" y1="441.742" x2="698.971" y2="1297.33" gradientUnits="userSpaceOnUse"><stop stop-color="#3F34EC"/><stop offset="1" stop-color="#13D8D4"/></linearGradient><linearGradient id="paint58_linear_2_4699" x1="-83.685" y1="437.003" x2="699.747" y2="1293.04" gradientUnits="userSpaceOnUse"><stop stop-color="#3F34EC"/><stop offset="1" stop-color="#13D8D4"/></linearGradient><linearGradient id="paint59_linear_2_4699" x1="-83.427" y1="432.265" x2="700.548" y2="1288.81" gradientUnits="userSpaceOnUse"><stop stop-color="#3F34EC"/><stop offset="1" stop-color="#13D8D4"/></linearGradient><linearGradient id="paint60_linear_2_4699" x1="-83.098" y1="427.52" x2="701.439" y2="1284.6" gradientUnits="userSpaceOnUse"><stop stop-color="#3F34EC"/><stop offset="1" stop-color="#13D8D4"/></linearGradient><linearGradient id="paint61_linear_2_4699" x1="-82.811" y1="422.759" x2="702.364" y2="1280.43" gradientUnits="userSpaceOnUse"><stop stop-color="#3F34EC"/><stop offset="1" stop-color="#13D8D4"/></linearGradient><linearGradient id="paint62_linear_2_4699" x1="-82.573" y1="418.073" x2="703.252" y2="1276.37" gradientUnits="userSpaceOnUse"><stop stop-color="#3F34EC"/><stop offset="1" stop-color="#13D8D4"/></linearGradient><linearGradient id="paint63_linear_2_4699" x1="-82.284" y1="413.336" x2="704.249" y2="1272.29" gradientUnits="userSpaceOnUse"><stop stop-color="#3F34EC"/><stop offset="1" stop-color="#13D8D4"/></linearGradient><linearGradient id="paint64_linear_2_4699" x1="-81.969" y1="408.624" x2="705.273" y2="1268.24" gradientUnits="userSpaceOnUse"><stop stop-color="#3F34EC"/><stop offset="1" stop-color="#13D8D4"/></linearGradient><linearGradient id="paint65_linear_2_4699" x1="-81.74" y1="403.871" x2="706.313" y2="1264.24" gradientUnits="userSpaceOnUse"><stop stop-color="#3F34EC"/><stop offset="1" stop-color="#13D8D4"/></linearGradient><linearGradient id="paint66_linear_2_4699" x1="-81.462" y1="399.143" x2="707.396" y2="1260.26" gradientUnits="userSpaceOnUse"><stop stop-color="#3F34EC"/><stop offset="1" stop-color="#13D8D4"/></linearGradient><linearGradient id="paint67_linear_2_4699" x1="-81.173" y1="394.405" x2="708.513" y2="1256.27" gradientUnits="userSpaceOnUse"><stop stop-color="#3F34EC"/><stop offset="1" stop-color="#13D8D4"/></linearGradient><linearGradient id="paint68_linear_2_4699" x1="-80.927" y1="389.685" x2="709.62" y2="1252.34" gradientUnits="userSpaceOnUse"><stop stop-color="#3F34EC"/><stop offset="1" stop-color="#13D8D4"/></linearGradient><linearGradient id="paint69_linear_2_4699" x1="-80.627" y1="384.942" x2="710.796" y2="1248.39" gradientUnits="userSpaceOnUse"><stop stop-color="#3F34EC"/><stop offset="1" stop-color="#13D8D4"/></linearGradient><linearGradient id="paint70_linear_2_4699" x1="-80.35" y1="380.213" x2="711.96" y2="1244.46" gradientUnits="userSpaceOnUse"><stop stop-color="#3F34EC"/><stop offset="1" stop-color="#13D8D4"/></linearGradient><linearGradient id="paint71_linear_2_4699" x1="-80.071" y1="375.472" x2="713.139" y2="1240.52" gradientUnits="userSpaceOnUse"><stop stop-color="#3F34EC"/><stop offset="1" stop-color="#13D8D4"/></linearGradient><linearGradient id="paint72_linear_2_4699" x1="-79.793" y1="370.747" x2="714.305" y2="1236.58" gradientUnits="userSpaceOnUse"><stop stop-color="#3F34EC"/><stop offset="1" stop-color="#13D8D4"/></linearGradient><linearGradient id="paint73_linear_2_4699" x1="-79.517" y1="366.018" x2="715.514" y2="1232.68" gradientUnits="userSpaceOnUse"><stop stop-color="#3F34EC"/><stop offset="1" stop-color="#13D8D4"/></linearGradient><linearGradient id="paint74_linear_2_4699" x1="-79.247" y1="361.289" x2="716.706" y2="1228.75" gradientUnits="userSpaceOnUse"><stop stop-color="#3F34EC"/><stop offset="1" stop-color="#13D8D4"/></linearGradient><linearGradient id="paint75_linear_2_4699" x1="-78.947" y1="356.564" x2="717.908" y2="1224.8" gradientUnits="userSpaceOnUse"><stop stop-color="#3F34EC"/><stop offset="1" stop-color="#13D8D4"/></linearGradient><linearGradient id="paint76_linear_2_4699" x1="-78.679" y1="351.834" x2="719.094" y2="1220.85" gradientUnits="userSpaceOnUse"><stop stop-color="#3F34EC"/><stop offset="1" stop-color="#13D8D4"/></linearGradient><linearGradient id="paint77_linear_2_4699" x1="-78.4" y1="347.113" x2="720.261" y2="1216.87" gradientUnits="userSpaceOnUse"><stop stop-color="#3F34EC"/><stop offset="1" stop-color="#13D8D4"/></linearGradient><linearGradient id="paint78_linear_2_4699" x1="-78.121" y1="342.379" x2="721.437" y2="1212.88" gradientUnits="userSpaceOnUse"><stop stop-color="#3F34EC"/><stop offset="1" stop-color="#13D8D4"/></linearGradient><linearGradient id="paint79_linear_2_4699" x1="-77.841" y1="337.661" x2="722.595" y2="1208.87" gradientUnits="userSpaceOnUse"><stop stop-color="#3F34EC"/><stop offset="1" stop-color="#13D8D4"/></linearGradient><linearGradient id="paint80_linear_2_4699" x1="-77.563" y1="332.941" x2="723.747" y2="1204.85" gradientUnits="userSpaceOnUse"><stop stop-color="#3F34EC"/><stop offset="1" stop-color="#13D8D4"/></linearGradient><linearGradient id="paint81_linear_2_4699" x1="-77.304" y1="328.227" x2="724.814" y2="1200.76" gradientUnits="userSpaceOnUse"><stop stop-color="#3F34EC"/><stop offset="1" stop-color="#13D8D4"/></linearGradient><linearGradient id="paint82_linear_2_4699" x1="-77.002" y1="323.499" x2="725.915" y2="1196.63" gradientUnits="userSpaceOnUse"><stop stop-color="#3F34EC"/><stop offset="1" stop-color="#13D8D4"/></linearGradient><linearGradient id="paint83_linear_2_4699" x1="-76.723" y1="318.783" x2="726.966" y2="1192.49" gradientUnits="userSpaceOnUse"><stop stop-color="#3F34EC"/><stop offset="1" stop-color="#13D8D4"/></linearGradient><linearGradient id="paint84_linear_2_4699" x1="-76.441" y1="314.073" x2="727.985" y2="1188.3" gradientUnits="userSpaceOnUse"><stop stop-color="#3F34EC"/><stop offset="1" stop-color="#13D8D4"/></linearGradient><linearGradient id="paint85_linear_2_4699" x1="-76.171" y1="309.358" x2="728.963" y2="1184.06" gradientUnits="userSpaceOnUse"><stop stop-color="#3F34EC"/><stop offset="1" stop-color="#13D8D4"/></linearGradient><linearGradient id="paint86_linear_2_4699" x1="-75.911" y1="304.632" x2="729.913" y2="1179.78" gradientUnits="userSpaceOnUse"><stop stop-color="#3F34EC"/><stop offset="1" stop-color="#13D8D4"/></linearGradient><linearGradient id="paint87_linear_2_4699" x1="-75.599" y1="299.94" x2="730.814" y2="1175.43" gradientUnits="userSpaceOnUse"><stop stop-color="#3F34EC"/><stop offset="1" stop-color="#13D8D4"/></linearGradient><linearGradient id="paint88_linear_2_4699" x1="-75.328" y1="295.232" x2="731.667" y2="1171.04" gradientUnits="userSpaceOnUse"><stop stop-color="#3F34EC"/><stop offset="1" stop-color="#13D8D4"/></linearGradient><linearGradient id="paint89_linear_2_4699" x1="-75.035" y1="290.522" x2="732.486" y2="1166.58" gradientUnits="userSpaceOnUse"><stop stop-color="#3F34EC"/><stop offset="1" stop-color="#13D8D4"/></linearGradient><linearGradient id="paint90_linear_2_4699" x1="-74.754" y1="285.826" x2="733.227" y2="1162.05" gradientUnits="userSpaceOnUse"><stop stop-color="#3F34EC"/><stop offset="1" stop-color="#13D8D4"/></linearGradient><linearGradient id="paint91_linear_2_4699" x1="-74.491" y1="281.121" x2="733.919" y2="1157.47" gradientUnits="userSpaceOnUse"><stop stop-color="#3F34EC"/><stop offset="1" stop-color="#13D8D4"/></linearGradient><linearGradient id="paint92_linear_2_4699" x1="-74.197" y1="276.432" x2="734.551" y2="1152.81" gradientUnits="userSpaceOnUse"><stop stop-color="#3F34EC"/><stop offset="1" stop-color="#13D8D4"/></linearGradient><linearGradient id="paint93_linear_2_4699" x1="-73.905" y1="271.734" x2="735.135" y2="1148.07" gradientUnits="userSpaceOnUse"><stop stop-color="#3F34EC"/><stop offset="1" stop-color="#13D8D4"/></linearGradient><linearGradient id="paint94_linear_2_4699" x1="-73.601" y1="267.068" x2="735.623" y2="1143.25" gradientUnits="userSpaceOnUse"><stop stop-color="#3F34EC"/><stop offset="1" stop-color="#13D8D4"/></linearGradient><linearGradient id="paint95_linear_2_4699" x1="-73.338" y1="262.352" x2="736.068" y2="1138.35" gradientUnits="userSpaceOnUse"><stop stop-color="#3F34EC"/><stop offset="1" stop-color="#13D8D4"/></linearGradient><linearGradient id="paint96_linear_2_4699" x1="-73.061" y1="257.677" x2="736.419" y2="1133.37" gradientUnits="userSpaceOnUse"><stop stop-color="#3F34EC"/><stop offset="1" stop-color="#13D8D4"/></linearGradient><linearGradient id="paint97_linear_2_4699" x1="-72.769" y1="252.992" x2="736.709" y2="1128.29" gradientUnits="userSpaceOnUse"><stop stop-color="#3F34EC"/><stop offset="1" stop-color="#13D8D4"/></linearGradient><linearGradient id="paint98_linear_2_4699" x1="-72.481" y1="248.315" x2="736.905" y2="1123.12" gradientUnits="userSpaceOnUse"><stop stop-color="#3F34EC"/><stop offset="1" stop-color="#13D8D4"/></linearGradient><linearGradient id="paint99_linear_2_4699" x1="-72.205" y1="243.638" x2="737.016" y2="1117.86" gradientUnits="userSpaceOnUse"><stop stop-color="#3F34EC"/><stop offset="1" stop-color="#13D8D4"/></linearGradient><linearGradient id="paint100_linear_2_4699" x1="-71.92" y1="238.972" x2="737.042" y2="1112.5" gradientUnits="userSpaceOnUse"><stop stop-color="#3F34EC"/><stop offset="1" stop-color="#13D8D4"/></linearGradient><linearGradient id="paint101_linear_2_4699" x1="-71.622" y1="234.298" x2="736.988" y2="1107.02" gradientUnits="userSpaceOnUse"><stop stop-color="#3F34EC"/><stop offset="1" stop-color="#13D8D4"/></linearGradient><clipPath id="clip0_2_4699"><path fill="#fff" d="M0 0h1920v764H0z"/></clipPath></defs></svg>